<?xml version="1.0" encoding="utf-8"?>
<!-- Generator: Adobe Illustrator 24.1.3, SVG Export Plug-In . SVG Version: 6.00 Build 0)  -->
<svg version="1.1" id="Laag_1" xmlns="http://www.w3.org/2000/svg" xmlns:xlink="http://www.w3.org/1999/xlink" x="0px" y="0px"
	 viewBox="0 0 282 112" style="enable-background:new 0 0 282 112;" xml:space="preserve">
<style type="text/css">
	.st0{fill:#171717;}
</style>
<g id="Group_613" transform="translate(11.701 53.819)">
	<path id="Path_1719" class="st0" d="M176.51,27.92c-0.01-3.81,0.58-7.6,1.75-11.23c2.78-8,9.54-12.15,18.5-11.39
		c10.32,1.07,19.07,8.06,22.4,17.89c0.4,1.26,0.38,1.79-1.12,2.14c-3.47,0.8-6.89,1.83-10.3,2.83c-1.1,0.32-1.58,0.26-2.09-1
		c-1.46-3.99-4.83-6.96-8.97-7.91c-2.41-0.69-4.97,0.41-6.12,2.64c-1.15,2.05-1.8,4.34-1.89,6.69c-0.39,3.11-0.15,6.26,0.69,9.28
		c0.89,3.34,3.98,5.62,7.44,5.47c4.07,0.11,7.78-2.31,9.32-6.08c0.14-0.47,0.55-0.8,1.04-0.86c4.25-0.66,8.4-1.78,12.6-2.67
		c1.18-0.25,1.42,0.09,1.33,1.19c-0.14,1.9-0.75,3.74-1.78,5.35c-6.4,10.15-23.3,13.99-33.42,7.65c-5.18-3.25-7.73-8.08-8.84-13.88
		C176.7,32.02,176.52,29.97,176.51,27.92z"/>
	<path id="Path_1721" class="st0" d="M65.66,49.07c-7.65,0.11-13.66-2.41-17.81-8.59c-2.77-4.12-3.17-8.72-2.4-13.49
		c0.59-3.96,1.98-7.77,4.07-11.18c4.59-7.38,11.12-10.17,19.65-8.39c9.73,2.03,15.38,8.42,16.74,18.89
		c0.53,3.13,0.49,6.34-0.13,9.46c-1.66,7.12-6.47,10.95-13.37,12.53C70.19,48.75,67.93,49.01,65.66,49.07z M74.79,27.91
		c0.12-2.65-0.5-5.27-1.8-7.59c-3.05-5.15-9.34-5.11-12.25,0.12c-1.93,3.49-2.64,7.53-2.02,11.48c0.58,4.1,3.08,6.46,6.87,6.82
		c3.69,0.39,7.16-1.85,8.31-5.38C74.56,31.62,74.86,29.77,74.79,27.91L74.79,27.91z"/>
	<path id="Path_1725" class="st0" d="M171.81,47.17c-4.3-0.21-8.63,0.14-12.97,0.3c-0.8,0.03-1-0.39-1.21-0.95
		c-1.38-3.7-2.76-7.39-4.16-11.08c-0.18-0.47-0.12-1.22-0.78-1.27c-1.06-0.11-2.13-0.08-3.19,0.08c-0.43,0.07-0.29,0.86-0.34,1.33
		c-0.41,3.63-0.82,7.27-1.17,10.91c-0.08,0.83-0.27,1.18-1.21,1.12c-2.88-0.19-5.76-0.29-8.64-0.36c-0.89-0.02-1.17-0.23-1.04-1.17
		c1.03-7.69,1.41-15.46,1.13-23.21c-0.22-4.24-0.15-8.49,0.22-12.73c0.06-0.55,0.02-1,0.82-1.09c6.31-0.68,12.61-1.43,18.92-2.12
		c1.46-0.15,2.94-0.09,4.38,0.2c5.02,0.98,7.81,3.88,8.72,9.15c0.62,3.13,0.44,6.36-0.52,9.4c-0.75,2.57-2.5,4.72-4.85,5.98
		c-0.91,0.47-0.85,0.9-0.46,1.68c2.09,4.29,4.14,8.6,6.19,12.91C171.75,46.5,172,46.74,171.81,47.17z M149.89,21.34h-0.06
		c0,0.68,0.02,1.36,0,2.04c-0.09,2.82-0.1,2.83,2.76,2.69c1.12,0.03,2.24-0.07,3.34-0.3c2.85-0.83,4.56-3.72,3.93-6.62
		c-0.46-2.5-2.26-3.65-5.4-3.4c-1.17,0.09-2.32,0.28-3.49,0.35c-0.89,0.05-1.15,0.43-1.1,1.29
		C149.94,18.71,149.89,20.03,149.89,21.34z"/>
	<path id="Path_1727" class="st0" d="M97.51,8.19c1.61,0,3.23,0.02,4.84-0.01c0.64-0.01,1,0.1,0.92,0.88
		c-0.7,7.45,1.02,14.65,2.2,21.91c0.15,1.16,0.4,2.3,0.75,3.42c1.53,4.39,8.11,5.89,11.48,2.67c1.12-1.06,1.66-2.61,1.43-4.14
		c-0.4-3.54-0.88-7.06-1.33-10.6c-0.53-3.87-0.58-7.8-0.14-11.68c0.12-1.02,0.43-1.4,1.54-1.27c3.5,0.33,7.03,0.42,10.55,0.26
		c1.92-0.04,1.92-0.04,1.75,1.83c-0.36,5.26-0.34,10.54,0.09,15.8c0.19,2.38,0.21,4.78,0.06,7.17c-0.29,4.18-2.63,7.96-6.24,10.08
		c-6.01,3.86-13.34,5.06-20.27,3.31c-6.71-1.7-10.44-6.51-11.42-13.22c-1.33-8.24-2.01-16.58-2.01-24.93
		c0.02-1.21,0.33-1.61,1.55-1.52c1.41,0.11,2.83,0.02,4.25,0.02L97.51,8.19z"/>
	<path id="Path_1728" class="st0" d="M35.88,18.35c-1.71,0-3.42-0.02-5.14,0.01c-0.57,0.01-0.86-0.08-0.92-0.76
		c-0.11-1.1-0.82-2.05-1.84-2.47c-1.85-0.96-4.04-1.04-5.96-0.23c-1.38,0.5-2.29,1.82-2.27,3.28c0.06,1.58,1.22,2.2,2.48,2.5
		c2.42,0.59,4.87,1.02,7.31,1.52c1.97,0.37,3.88,1.01,5.68,1.88c4.46,2.24,6.11,5.63,5.07,10.49c-1.18,5.48-4.33,9.34-9.66,11.2
		c-5.28,1.88-10.99,2.23-16.47,1.01c-5.41-1.19-8.25-5.55-7.5-11.03c0.08-0.63,0.32-0.82,0.91-0.83c2.64-0.03,5.28-0.08,7.92-0.13
		c0.4-0.01,0.74-0.01,0.85,0.54c0.37,1.8,1.75,2.52,3.35,2.84c2.07,0.48,4.24,0.24,6.15-0.68c1.24-0.46,2.03-1.67,1.95-2.98
		c-0.1-1.43-1.19-1.93-2.33-2.31c-1.87-0.55-3.79-0.95-5.73-1.18c-9.34-1.49-13.13-8.19-9.56-17c2.26-5.58,6.57-8.47,12.46-8.98
		C27,4.6,31.39,5.4,35.32,7.34c3.86,1.94,6.43,4.86,6.61,9.44c0.05,1.15-0.19,1.69-1.5,1.58c-1.5-0.13-3.03-0.03-4.54-0.03
		L35.88,18.35z"/>
	<path id="Path_1729" class="st0" d="M237.26,49c-3.71,0-7.43-0.05-11.14,0.03c-1.15,0.03-1.3-0.25-1.03-1.28
		c1.03-3.51,1.7-7.12,2-10.76c0.31-5.48-0.88-10.76-1.96-16.07c-1.01-4.62-1.56-9.34-1.64-14.07c0-1.07,0.23-1.37,1.35-1.36
		c6.51,0.05,12.98,0.78,19.47,1.04c2.25,0.09,4.5,0.15,6.74,0.17c0.67,0.01,0.95,0.09,0.83,0.89c-0.44,2.75-0.59,5.54-0.47,8.32
		c0.04,0.92-0.23,1.12-1.12,1.13c-4.4-0.01-8.8-0.25-13.17-0.73c-1.35-0.14-1.53,0.26-1.31,1.44c0.3,1.63,0.48,3.28,0.66,4.93
		c0.08,0.71,0.39,0.97,1.12,1.02c4,0.25,7.99,0.68,12,0.57c0.89-0.02,1.27,0.14,1.31,1.15c0.1,2.24,0.15,4.49,0.19,6.73
		c0.01,0.92-0.31,1.17-1.19,1.15c-3.66-0.1-7.33-0.1-11-0.24c-1.18-0.04-1.75,0.07-1.65,1.49c0.05,1.37-0.04,2.73-0.29,4.08
		c-0.13,0.91,0.21,1.07,1,1.07c4.1,0.02,8.21,0.1,12.32,0.09c0.93,0,1.15,0.17,0.94,1.13c-0.52,2.33-0.94,4.68-1.33,7.04
		c-0.15,0.91-0.48,1.26-1.49,1.24c-3.71-0.08-7.43-0.03-11.15-0.03L237.26,49z"/>
</g>
<g id="Group_614" transform="translate(0)">
	<path id="Path_1720" class="st0" d="M254.33,47.74c-2.54,0.09-5.07-0.17-7.54-0.77c-8.31-2.14-12.45-8.07-14.3-15.95
		c-0.94-4.02-0.73-8.22,0.6-12.13c2.42-7.29,7.81-10.89,15.2-11.88c2.9-0.45,5.86-0.41,8.76,0.11c4.41,0.85,8.38,3.21,11.24,6.67
		c4.28,5.09,6.72,11.47,6.92,18.11c0.41,8-3.76,13.17-11.7,14.92C260.5,47.47,257.42,47.78,254.33,47.74z M261.28,29.86
		c-0.01-1.04-0.14-2.07-0.39-3.08c-0.76-3.41-1.88-6.67-4.46-9.19c-2.8-3-7.5-3.16-10.49-0.36c-0.7,0.65-1.26,1.43-1.66,2.29
		c-0.86,1.65-1.34,3.47-1.41,5.32c-0.19,4.4,0.95,8.36,4.52,11.2c2.88,2.36,6.88,2.8,10.2,1.11
		C260.51,35.84,261.3,33.22,261.28,29.86L261.28,29.86z"/>
	<path id="Path_1722" class="st0" d="M16.9,45.8c-2.96-0.11-5.94-0.27-8.91-0.19c-1.25,0.03-1.61-0.28-1.37-1.55
		c0.71-3.73,1.46-7.47,1.93-11.24c0.95-7.56,1.14-15.19,0.58-22.79C9.03,8.8,9.35,8.49,10.58,8.51c4.6,0.11,9.2-0.05,13.78-0.47
		c5.35-0.55,11.25-1.35,16,1.77c3.89,2.74,6.43,7,6.98,11.73c1.17,7.98-2.46,15.9-9.27,20.23C31.43,46.13,24.23,46.09,16.9,45.8z
		 M25.02,17.84c-0.49,0-3.04-0.5-3.21,1.52s-0.51,4.05-0.8,6.08c-0.53,3.66-1.08,7.32-1.6,10.98c-0.06,0.4-0.38,0.94,0.49,1.06
		c7.02,1.02,12.7-1,13.85-8.88C35.33,17.79,25.02,17.85,25.02,17.84z"/>
	<path id="Path_1723" class="st0" d="M91.66,35.21c1.08,0,2.15-0.01,3.23,0c1.47,0.01,3.1-0.5,3.69,1.69
		c0.22,0.79,1.26,1.17,2.11,1.45c2.71,0.92,5.67,0.79,8.29-0.38c0.63-0.27,1.2-0.68,1.65-1.2c1.1-1.01,1.17-2.72,0.16-3.82
		c-0.37-0.41-0.86-0.69-1.4-0.81c-2.04-0.52-4.13-0.81-6.23-0.84c-3.47-0.13-6.88-0.94-10.05-2.37c-4.39-2.2-7.18-5.58-7.91-10.54
		c-0.56-3.78,0.92-6.58,4.45-8.15c3.05-1.19,6.26-1.94,9.52-2.21c4.25-0.65,8.56-0.9,12.86-0.77c1.91,0.07,3.78,0.53,5.5,1.37
		c3,1.49,4.24,4.01,4.3,7.25c0.01,0.54-0.12,0.75-0.7,0.82c-3.1,0.39-6.2,0.82-9.29,1.29c-0.52,0.08-0.67-0.1-0.8-0.54
		c-0.38-1.09-1.38-1.86-2.53-1.95c-2.27-0.41-4.62-0.2-6.77,0.63c-1.12,0.41-2.17,1.06-2.1,2.5c0.06,1.39,1.14,1.81,2.25,2.15
		c1.42,0.37,2.87,0.57,4.34,0.59c3.12,0.17,6.25,0.01,9.33,0.76c3.2,0.64,5.75,3.05,6.56,6.21c1.05,3.48,1.19,7.16,0.4,10.71
		c-0.81,3.66-3.48,6.63-7.04,7.81c-4.87,1.91-9.93,1.89-15.03,1.58c-2.54-0.08-5.06-0.54-7.47-1.36c-4.93-1.83-7.88-5.85-7.82-10.56
		c0.01-0.98,0.16-1.5,1.38-1.4c1.7,0.14,3.42,0.03,5.13,0.03L91.66,35.21z"/>
	<path id="Path_1724" class="st0" d="M215.88,23.73c0.65-5.76,2.12-11.3,2.67-16.99c0.08-0.81,0.5-0.88,1.15-0.95
		c2.82-0.25,5.66-0.35,8.5-0.29c1.07,0,1.3,0.28,1.12,1.34c-0.82,4.9-1.57,9.82-2.32,14.73c-0.81,6.15-0.94,12.37-0.38,18.55
		c0.11,1.56,0.14,3.12,0.3,4.68c0.08,0.78-0.19,0.92-0.88,0.83c-2.52-0.31-5.04-0.62-7.57-0.85c-0.81-0.07-1.02-0.67-1.36-1.16
		c-4.5-6.58-9.1-13.06-15.04-18.47c-0.34-0.31-0.58-0.79-1.35-0.88c0,0.89-0.01,1.75,0,2.61c0.06,5.13,0.01,10.25-0.12,15.38
		c-0.03,1.18-0.27,1.7-1.65,1.64c-3.13-0.12-6.26,0.07-9.35,0.56c-1.12,0.17-1.39-0.11-1.32-1.25c0.53-8.43,0.87-16.87,0.62-25.32
		c-0.07-2.49-0.15-4.98-0.26-7.46c-0.04-0.76,0.05-1.19,0.98-1.08c2.97,0.27,5.96,0.25,8.93-0.05c0.54-0.03,1.06,0.15,1.46,0.51
		c5.56,4.15,11.22,8.19,15.45,13.82C215.5,23.68,215.63,23.67,215.88,23.73z"/>
	<path id="Path_1726" class="st0" d="M175.59,20.79c-1.76,0-3.52-0.02-5.28,0.01c-0.54,0.01-0.92-0.07-1.12-0.65
		c-1.64-4.9-10.39-5.68-13.57-0.51c-2.75,4.48-2.28,13.48,1.02,17.54c1.61,2.13,4.34,3.09,6.93,2.44c2.97-0.59,5.25-2.03,6.27-5.05
		c0.3-0.9,0.35-1.49-0.96-1.29c-1.45,0.22-2.92,0.23-4.38,0.37c-0.69,0.07-0.96-0.12-0.94-0.86c0.06-2.15,0.08-4.3,0.04-6.44
		c-0.02-0.83,0.35-0.94,1.04-0.95c5.62-0.11,11.24-0.32,16.84-0.78c0.45-0.04,1.08-0.35,1.12,0.62c0.24,5.83-0.64,11.33-4.77,15.8
		c-5.88,6.36-13.2,8.8-21.73,7.49c-3.05-0.43-5.8-2.07-7.62-4.56c-4.88-6.68-7.31-14.15-5.91-22.41c0.86-6.13,5.23-11.2,11.17-12.96
		c8.12-2.74,15.88-2.32,22.84,3.24c2.43,1.92,4.23,4.52,5.17,7.48c0.34,1.06,0.32,1.58-1.04,1.49c-1.7-0.11-3.42-0.03-5.13-0.03
		L175.59,20.79z"/>
	<path id="Path_1730" class="st0" d="M70.45,15.75c-2.15-0.1-4.3-0.18-6.44-0.33c-0.76-0.05-0.94,0.18-0.81,0.9
		c0.3,1.68,0.61,3.36,0.81,5.05c0.09,0.76,0.46,0.81,1.05,0.83c3.96,0.16,7.91,0.4,11.87,0.47c1.12,0.02,1.45,0.42,1.49,1.4
		c0.08,1.95,0.15,3.9,0.3,5.84c0.08,1.09-0.24,1.42-1.39,1.32c-3.9-0.33-7.8-0.5-11.7-0.81c-1.02-0.08-1.33,0.18-1.35,1.21
		c-0.06,1.32-0.2,2.63-0.43,3.92c-0.11,0.73,0.03,1,0.85,1.06c4.43,0.33,8.86,0.79,13.29,1.08c1.1,0.07,1.12,0.49,1.03,1.33
		c-0.28,2.52-0.54,5.04-0.73,7.57c-0.06,0.83-0.27,1.04-1.12,0.94c-5.34-0.6-10.68-1.15-16.03-1.69c-2.82-0.34-5.65-0.46-8.49-0.38
		c-1.38,0.07-1.62-0.32-1.41-1.6c0.73-4.43,1.39-8.86,2.01-13.3c0.65-4.68,0.25-9.35-0.13-14.02c-0.29-3.5-0.56-7-0.93-10.5
		c-0.12-1.14,0.53-1.03,1.23-1.05C59,4.92,64.57,5.14,70.12,5.67c1.56,0.12,3.11,0.35,4.67,0.45c0.77,0.05,1.13,0.32,1.24,1.09
		c0.43,2.69,1.02,5.36,1.75,7.99c0.19,0.74,0.01,0.94-0.73,0.89C74.84,15.95,72.65,15.86,70.45,15.75L70.45,15.75z"/>
	<path id="Path_1731" class="st0" d="M136.83,49.15c-2.2-0.1-4.4-0.21-6.59-0.31c-0.54-0.02-1.06,0.03-1.1-0.79
		c-0.48-9.3-2.31-18.52-1.84-27.88c0.22-4.48,0.59-8.96,0.85-13.44c0.04-0.66,0.2-0.94,0.93-0.94c3.04,0.03,6.05,0.38,9.07,0.63
		c0.89,0.07,0.68,0.62,0.62,1.15c-0.34,3.3-0.68,6.6-1.03,9.9c-0.59,6.57-0.33,13.19,0.77,19.69c0.54,3.47,0.87,6.97,1.13,10.47
		c0.11,1.46-0.39,1.76-1.65,1.56c-0.39-0.03-0.78-0.04-1.17-0.01L136.83,49.15z"/>
</g>
</svg>
