<?xml version="1.0" encoding="utf-8"?>
<!-- Generator: Adobe Illustrator 24.1.3, SVG Export Plug-In . SVG Version: 6.00 Build 0)  -->
<svg version="1.1" id="Laag_1" xmlns="http://www.w3.org/2000/svg" xmlns:xlink="http://www.w3.org/1999/xlink" x="0px" y="0px"
	 viewBox="0 0 172.5 119.1" style="enable-background:new 0 0 172.5 119.1;" xml:space="preserve">
<style type="text/css">
	.st0{fill:#0600FF;}
</style>
<g id="Vorm_31" transform="translate(-773.077 80.628) rotate(-8)">
	<path id="Path_2582" class="st0" d="M810.7,145c2.2-5.7,0.7-12.3-2.6-17.4c-3.2-5.2-7.9-9.2-12.6-13.2l-22.1-18.9
		c-0.7-0.5-1.3-1.2-1.7-2c-1.2-2.7,2.1-5.1,4.8-6.4c23.6-10.7,45.4-25,64.8-42.2c2.2-1.9,4.7-4,7.6-3.5c1.3,0.3,2.5,0.9,3.6,1.8
		C874.1,58.2,897,71.1,921,81.8c3,1.3,2.8,5.9,0.7,8.4s-5.3,3.7-7.9,5.7s-4.7,5.5-3.2,8.4c2,3.8,1.4,8.4,0.6,12.7
		c-0.9,4.2-2,8.6-1.1,12.8s4.8,8.2,9.1,7.4c6.1-1.1,12.2,5.2,11.2,11.3s-8.5,10.1-14.2,7.6s-8-10.5-4.7-15.7
		c-5.8-2.6-7.6-10.1-7.3-16.5s1.7-13-0.6-19c-5.5,4.4-10.6,9.3-15.1,14.7c-4.7,5.6-9,12.7-7,19.7c1.3,4.5-4.1,8-8.6,9.4
		c-18.5,5.7-38.1,6.2-56.8,1.6C813.1,149.7,809.7,147.6,810.7,145 M851.9,81.7c10.4-0.1,22.4,3.8,25.7,13.7c2.6,7.5-0.7,16,1.9,23.4
		c5.7-7.8,12.5-14.9,20.1-20.9l-11.4-7.3c-1.1-0.7-2.4-1.8-2.1-3.1c0.3-1.6,2.6-1.8,4.2-1.5c4.5,1,8.7,3.2,12.1,6.4
		c2.9,2.8,7.6,0,10.6-2.8c0.9-0.9,1.8-2.7,0.6-3.2c-21.4-9.5-42-20.9-61.5-34.1c-1.8-1.2-4.3-2.4-5.9-1C826.7,68,805.2,82,782.2,93
		l29.9,26.4c0.2-4-0.1-8-0.9-12c-1.3-7,4.6-13.3,10.7-17C830.9,84.9,841.3,81.9,851.9,81.7 M847.7,132.6c4,0.1,8,0.4,12,0.8
		l14.7,1.4c-2-9.2-3.1-18.6-3-28c0-2.9,0.1-5.8-0.9-8.5c-1.4-3.7-4.8-6.4-8.5-7.7c-3.8-1.2-7.8-1.6-11.7-1.1
		c-6.6,0.4-13.1,1.8-19.3,4.1c-4.7,1.7-9.7,4.5-11.3,9.3c-0.6,2-0.8,4-0.7,6l-0.4,29.2C827.7,134.3,837.7,132.5,847.7,132.6
		 M822.6,143.6c-0.6,0.2-1.3,0.5-1.2,1.1c15.6,2,31.5,1.3,46.9-2c0.2-0.8-1-1.3-1.8-1.3C851.7,140.2,836.6,139.1,822.6,143.6
		 M921.9,144.4c-0.7-0.5-1.5-0.8-2.4-0.6c-1,0.2-1.8,0.7-2.5,1.4c-1,2.1,1.1,5,3.4,4.6S923.7,145.9,921.9,144.4L921.9,144.4z"/>
</g>
</svg>
