<svg id="Logo" xmlns="http://www.w3.org/2000/svg" width="116" height="43.466" viewBox="0 0 116 43.466">
  <path id="Path_736" data-name="Path 736" d="M1715.848-709.874h2.423v9.9h-2.423Z" transform="translate(-1698.23 710.04)" fill="#171717"/>
  <path id="Path_737" data-name="Path 737" d="M1746.244-709.874h2.451l2.742,4.625a17.69,17.69,0,0,1,.831,1.689h.028s-.111-1.066-.111-1.689v-4.625h2.423v9.9h-2.437l-2.755-4.611a17.758,17.758,0,0,1-.831-1.69h-.027s.111,1.066.111,1.69v4.611h-2.423Z" transform="translate(-1723.323 710.04)" fill="#171717"/>
  <path id="Path_738" data-name="Path 738" d="M1807.345-707.8h-3v-2.077h8.433v2.077h-3v7.823h-2.423Z" transform="translate(-1771.283 710.04)" fill="#171717"/>
  <path id="Path_739" data-name="Path 739" d="M1862.832-709.874h6.2v2.077h-3.78v1.8h3.019v2.077h-3.019v1.869h3.974v2.077h-6.4Z" transform="translate(-1819.569 710.04)" fill="#171717"/>
  <path id="Path_740" data-name="Path 740" d="M1912.675-709.874h3.448a5.119,5.119,0,0,1,1.925.236,2.878,2.878,0,0,1,1.828,2.88,3.014,3.014,0,0,1-1.481,2.7v.028a5.671,5.671,0,0,1,.374.6l1.925,3.462h-2.7l-1.758-3.337H1915.1v3.337h-2.423Zm3.476,4.486a1.133,1.133,0,0,0,1.26-1.218c0-.748-.277-1.191-1.5-1.191h-.817v2.409Z" transform="translate(-1860.716 710.04)" fill="#171717"/>
  <path id="Path_741" data-name="Path 741" d="M1969.408-702.051h-3.088l-.6,2.077h-2.493l3.365-9.9h2.548l3.365,9.9h-2.492Zm-1.551-5.566s-.222,1.08-.4,1.7l-.568,1.925h1.953l-.554-1.925c-.18-.623-.4-1.7-.4-1.7Z" transform="translate(-1902.452 710.04)" fill="#171717"/>
  <path id="Path_742" data-name="Path 742" d="M2026.917-710.826a5.158,5.158,0,0,1,3.711,1.4l-1.121,1.828a4.154,4.154,0,0,0-2.479-1.011,2.676,2.676,0,0,0-2.8,2.825,2.816,2.816,0,0,0,2.8,2.977,4.059,4.059,0,0,0,2.631-1.219l1.246,1.772a5.432,5.432,0,0,1-3.988,1.662,4.966,4.966,0,0,1-5.192-5.137A5.037,5.037,0,0,1,2026.917-710.826Z" transform="translate(-1950.74 710.826)" fill="#171717"/>
  <path id="Path_743" data-name="Path 743" d="M2082.587-707.8h-3.005v-2.077h8.432v2.077h-3v7.823h-2.423Z" transform="translate(-1998.502 710.04)" fill="#171717"/>
  <path id="Path_744" data-name="Path 744" d="M2138.074-709.874h2.423v9.9h-2.423Z" transform="translate(-2045.917 710.04)" fill="#171717"/>
  <path id="Path_745" data-name="Path 745" d="M2161.328-709.874h2.631l1.744,5.635c.194.623.374,1.592.374,1.592h.028s.18-.969.374-1.592l1.772-5.635h2.589l-3.489,9.9h-2.52Z" transform="translate(-2064.066 710.04)" fill="#171717"/>
  <path id="Path_746" data-name="Path 746" d="M2225.217-709.874h6.2v2.077h-3.78v1.8h3.019v2.077h-3.019v1.869h3.974v2.077h-6.4Z" transform="translate(-2116.808 710.04)" fill="#171717"/>
  <g id="Group_191" data-name="Group 191" transform="translate(1.238 16.783)">
    <path id="Path_747" data-name="Path 747" d="M1880.347-614.633h3.268l1.44,4.181c.221.637.5,1.528.5,1.528h.028s.277-.891.5-1.528l1.44-4.181h3.268l.166,9.9h-2.424l-.043-6.12-1.881,4.31h-2.077l-1.88-4.31-.045,6.12h-2.437Z" transform="translate(-1834.246 614.633)" fill="#171717"/>
    <g id="Group_190" data-name="Group 190" transform="translate(0 0)">
      <path id="Path_748" data-name="Path 748" d="M1617.148-614.633h3.268l1.44,4.181c.221.637.5,1.528.5,1.528h.027s.277-.891.5-1.528l1.44-4.181h3.268l.166,9.9h-2.424l-.043-6.12-1.881,4.31h-2.078l-1.879-4.31-.045,6.12h-2.437Z" transform="translate(-1616.968 614.633)" fill="#171717"/>
      <g id="Group_189" data-name="Group 189" transform="translate(13.145)">
        <path id="Path_749" data-name="Path 749" d="M1692.31-614.633h2.423v6.258a1.52,1.52,0,0,0,1.717,1.592,1.52,1.52,0,0,0,1.717-1.592v-6.258h2.423v6.258c0,2.229-1.634,3.808-4.126,3.808-2.52,0-4.154-1.578-4.154-3.808Z" transform="translate(-1692.31 614.633)" fill="#171717"/>
        <path id="Path_750" data-name="Path 750" d="M1755.485-614.633h2.423v7.823h4.043v2.077h-6.466Z" transform="translate(-1744.463 614.633)" fill="#171717"/>
        <path id="Path_751" data-name="Path 751" d="M1796.031-612.556h-3v-2.077h8.432v2.077h-3v7.823h-2.423Z" transform="translate(-1775.454 614.633)" fill="#171717"/>
        <path id="Path_752" data-name="Path 752" d="M1851.518-614.633h2.423v9.9h-2.423Z" transform="translate(-1823.74 614.633)" fill="#171717"/>
        <path id="Path_753" data-name="Path 753" d="M1956.757-614.633h6.2v2.077h-3.78v1.8h3.019v2.077h-3.019v1.869h3.974v2.077h-6.4Z" transform="translate(-1910.618 614.633)" fill="#171717"/>
        <path id="Path_754" data-name="Path 754" d="M2006.6-614.633h3.517c3.115,0,5.109,1.814,5.109,4.929s-1.994,4.971-5.109,4.971H2006.6Zm3.42,7.823c1.675,0,2.7-1,2.7-2.894a2.535,2.535,0,0,0-2.7-2.852h-1v5.746Z" transform="translate(-1951.765 614.633)" fill="#171717"/>
        <path id="Path_755" data-name="Path 755" d="M2068.981-614.633h2.423v9.9h-2.423Z" transform="translate(-2003.262 614.633)" fill="#171717"/>
        <path id="Path_756" data-name="Path 756" d="M2098.569-606.81h-3.088l-.6,2.077h-2.492l3.365-9.9h2.548l3.365,9.9h-2.492Zm-1.551-5.566s-.222,1.08-.4,1.7l-.568,1.925H2098l-.554-1.925c-.18-.623-.4-1.7-.4-1.7Z" transform="translate(-2022.59 614.633)" fill="#171717"/>
      </g>
    </g>
  </g>
  <g id="Group_192" data-name="Group 192" transform="translate(60.71 33.234)">
    <path id="Path_757" data-name="Path 757" d="M1957.834-519.393h3.517c3.116,0,5.109,1.814,5.109,4.929s-1.994,4.971-5.109,4.971h-3.517Zm3.42,7.823c1.675,0,2.7-1,2.7-2.894a2.535,2.535,0,0,0-2.7-2.852h-1v5.746Z" transform="translate(-1957.834 519.559)" fill="#171717"/>
    <path id="Path_758" data-name="Path 758" d="M2020.216-519.393h6.2v2.077h-3.78v1.8h3.019v2.077h-3.019v1.869h3.974v2.077h-6.4Z" transform="translate(-2009.332 519.559)" fill="#171717"/>
    <path id="Path_759" data-name="Path 759" d="M2067.126-513.366a4.1,4.1,0,0,0,2.368,1.024c.5,0,1.039-.194,1.039-.789,0-1.177-4.459-1.135-4.459-4.181,0-1.828,1.537-3.032,3.5-3.032a4.49,4.49,0,0,1,3.185,1.122l-1.025,1.98a3.777,3.777,0,0,0-2.187-.872c-.5,0-1.052.222-1.052.775,0,1.246,4.458,1.025,4.458,4.154,0,1.648-1.26,3.074-3.489,3.074a5.111,5.111,0,0,1-3.614-1.412Z" transform="translate(-2047.006 520.345)" fill="#171717"/>
    <path id="Path_760" data-name="Path 760" d="M2119.264-519.393h2.423v9.9h-2.423Z" transform="translate(-2091.098 519.559)" fill="#171717"/>
    <path id="Path_761" data-name="Path 761" d="M2151.045-520.345a5.468,5.468,0,0,1,3.808,1.315l-1.163,1.814a3.94,3.94,0,0,0-2.409-.914,2.641,2.641,0,0,0-2.921,2.8,2.81,2.81,0,0,0,2.839,3,3.387,3.387,0,0,0,2.007-.72v-.762h-1.4v-2.063h3.544v5.594h-2.021v-.277c0-.208.014-.415.014-.415h-.028a4.1,4.1,0,0,1-2.6.858,4.849,4.849,0,0,1-4.86-5.137A5.012,5.012,0,0,1,2151.045-520.345Z" transform="translate(-2113.049 520.345)" fill="#171717"/>
    <path id="Path_762" data-name="Path 762" d="M2213.947-519.393h2.451l2.741,4.625a17.7,17.7,0,0,1,.831,1.689H2220s-.111-1.066-.111-1.689v-4.625h2.423v9.9h-2.437l-2.756-4.611a17.825,17.825,0,0,1-.831-1.689h-.028s.111,1.066.111,1.689v4.611h-2.423Z" transform="translate(-2169.262 519.559)" fill="#171717"/>
  </g>
  <rect id="Rectangle_61" data-name="Rectangle 61" width="19.436" height="6.979" transform="translate(96.564 1.627)" fill="#bffd00" opacity="0.9"/>
  <rect id="Rectangle_62" data-name="Rectangle 62" width="73.988" height="6.979" transform="translate(16.222 1.627)" fill="#bffd00" opacity="0.9"/>
  <rect id="Rectangle_63" data-name="Rectangle 63" width="45.282" height="6.979" transform="translate(0 18.327)" fill="#bffd00" opacity="0.9"/>
  <rect id="Rectangle_64" data-name="Rectangle 64" width="35.036" height="6.979" transform="translate(59.825 18.244)" fill="#bffd00" opacity="0.9"/>
  <rect id="Rectangle_65" data-name="Rectangle 65" width="44.254" height="6.979" transform="translate(70.9 34.861)" fill="#bffd00" opacity="0.9"/>
</svg>
