<?xml version="1.0" encoding="utf-8"?>
<!-- Generator: Adobe Illustrator 24.1.3, SVG Export Plug-In . SVG Version: 6.00 Build 0)  -->
<svg version="1.1" id="Laag_1" xmlns="http://www.w3.org/2000/svg" xmlns:xlink="http://www.w3.org/1999/xlink" x="0px" y="0px"
	 viewBox="0 0 522.2 108.8" style="enable-background:new 0 0 522.2 108.8;" xml:space="preserve">
<style type="text/css">
	.st0{enable-background:new    ;}
	.st1{fill:#0600FF;}
</style>
<g class="st0">
	<g>
		<path class="st1" d="M60,61.6c0.1,2.4-0.2,4.7-0.9,6.9c-0.7,2.2-1.8,4.4-3.2,6.5c-1.4,2.1-3.1,4.2-5.1,6.2c-2,2-4.1,4-6.5,6
			c-2.5,2.1-5.4,4.1-8.7,6.1c-3.3,2-6.7,3.8-10.1,5.4c-3.4,1.6-6.6,2.9-9.6,3.9c-3,1-5.5,1.5-7.4,1.6c-1.3,0.1-2.2,0-2.8-0.3
			c-0.6-0.3-0.9-1-1-2.1c0-0.8,0.2-1.7,0.7-2.8c0.5-1.1,1-1.6,1.6-1.7c0.6,0,1,0.1,1.2,0.5c0.3,0.3,0.4,0.7,0.4,1.1
			c0,0.2,0,0.4,0,0.5c0,0.1,0,0.2,0,0.3l0,0.2c2.6-0.4,6.1-1.4,10.5-3s9.5-4.2,15.5-7.9c2.6-1.6,5.1-3.5,7.6-5.6
			c2.5-2.1,4.7-4.4,6.6-6.8c1.9-2.4,3.5-4.8,4.6-7.4c1.1-2.5,1.6-5,1.5-7.4c-0.1-1.7-1-3.4-2.8-5.1c-1.8-1.7-4.1-3.3-6.8-4.7
			c-2.7-1.4-5.6-2.7-8.8-3.6c-3.1-1-6-1.6-8.7-1.9c0.1,0.3,0.2,1.2,0.4,2.6c0.2,1.4,0.5,2.9,0.9,4.7c0.4,1.8,0.8,3.7,1.3,5.8
			c0.5,2,1,3.9,1.6,5.6c0.7,1.9,1.1,3.4,1.3,4.3c0.2,0.9,0.4,1.7,0.5,2.3c0.1,0.7,0.3,1.6,0.5,2.7c0.2,1.1,0.4,2.2,0.6,3.3
			c0.2,1.1,0.3,2.2,0.5,3.2c0.2,1,0.3,1.8,0.3,2.4c0,0.6-0.1,1.3-0.3,2c-0.2,0.7-0.5,1.1-0.8,1.1c-0.8,0-1.4-0.2-1.8-0.8
			c-0.3-0.6-0.7-1.6-1-3c-0.3-1.4-0.7-3.3-1.2-5.6c-0.5-2.3-1.3-5.1-2.4-8.4c-1.6-4.6-2.9-9-3.6-13.1c-0.8-4.1-1.3-7.4-1.6-9.9
			c-0.6,0-1.2,0-1.7,0c-0.5,0-1.1,0-1.8,0c-0.7,0-1.3,0-1.8,0c-1.2,0.1-2.3,0.3-3.2,0.9c-1,0.5-1.8,1.1-2.4,1.6
			c-0.6,0.6-1.2,1.1-1.6,1.6c-0.4,0.5-0.7,0.7-0.9,0.7c-0.5,0-1.2-0.1-2.1-0.3c-0.9-0.2-1.3-0.6-1.4-1.3c0-0.9,0.3-1.9,1.2-2.8
			c0.8-1,1.8-1.9,3.1-2.7c1.2-0.8,2.6-1.5,4-2c1.4-0.5,2.8-0.8,4.1-0.9c2.1-0.1,4.6,0,7.4,0.5c2.8,0.4,5.8,1,8.8,1.9
			c3,0.8,6,1.9,9,3.1c3,1.2,5.7,2.6,8.1,4.2c2.4,1.6,4.3,3.3,5.8,5.2C59.1,57.5,59.9,59.5,60,61.6z"/>
	</g>
	<g>
		<path class="st1" d="M109.4,95.2c0.1,0.3,0.1,0.5,0.1,0.8c0,0.2,0,0.4,0,0.6c0,0.7-0.1,1.2-0.4,1.5c-0.3,0.3-0.9,0.5-1.8,0.5
			c-0.8,0-1.4-0.1-1.7-0.3c-0.4-0.4-1.1-1.5-1.8-3.2c-0.8-1.7-1.6-3.7-2.5-6.1c-0.9-2.3-1.8-4.9-2.7-7.5c-0.9-2.7-1.7-5.2-2.3-7.7
			c-0.8,0.4-1.8,0.8-3.1,1.3c-1.3,0.5-2.7,0.9-4,1.3c-1.6,0.4-3.3,0.9-5,1.4c-0.5,3-0.8,5.6-1,7.8c-0.2,2.2-0.4,3.9-0.6,5.3
			c-0.2,1.4-0.4,2.4-0.8,3.1c-0.4,0.7-0.9,1-1.8,1.1c-0.6,0-1.1-0.3-1.5-0.9c-0.5-0.6-0.7-1.5-0.8-2.8c0-0.6,0.1-2.1,0.3-4.4
			c0.2-2.3,0.5-4.9,0.8-7.8c0.3-2.9,0.5-5.7,0.8-8.5c0.3-2.8,0.4-5,0.5-6.7c0-0.8,0.2-2.2,0.5-4.1c0.3-1.9,0.6-3.9,0.9-5.9
			c0.3-2,0.6-3.8,1-5.5c0.3-1.6,0.6-2.6,0.7-2.8c1-2.6,1.6-5.3,1.7-8.1c0.2-2.7,0.3-5.3,0.3-7.5c0.1-2.3,0.3-4.1,0.6-5.6
			c0.3-1.5,1.2-2.2,2.5-2.3c0.3,0,0.7,0.2,1.1,0.8c0.4,0.5,0.8,1.2,1.2,1.9c0.4,0.8,0.7,1.5,1,2.2s0.4,1.3,0.5,1.7
			c0.1,0.4,0.2,1.3,0.4,2.5c0.2,1.3,0.3,2.6,0.5,4.1c0.2,1.5,0.4,3,0.5,4.4c0.2,1.4,0.3,2.5,0.4,3.3c0.3,2.3,0.8,4.9,1.4,7.7
			c0.6,2.8,1.2,5.5,1.8,8c0.6,2.5,1.2,4.6,1.7,6.3c0.5,1.7,0.9,2.5,1.1,2.5c0.3,0,0.6-0.1,1.1-0.3c0.4-0.2,0.9-0.3,1.3-0.3
			c0.6,0,0.9,0.2,0.9,0.8c0,0.6-0.1,1-0.3,1.4c-0.3,0.4-0.5,0.7-0.8,1s-0.6,0.6-0.8,0.8c-0.2,0.2-0.3,0.5-0.3,0.8
			c0,0.6,0.4,2,1.2,4.3l2,6.1c0.2,0.6,0.5,1.5,1.1,2.8c0.6,1.3,1.1,2.7,1.7,4.1c0.6,1.4,1.1,2.7,1.6,3.9
			C109.1,94.2,109.4,94.9,109.4,95.2z M84.9,72.4c0.4,0,1.2-0.2,2.3-0.5c1.1-0.3,2.2-0.7,3.4-1.1c1.2-0.4,2.2-0.8,3.1-1.2
			c0.9-0.4,1.3-0.7,1.3-0.9c0-0.2-0.2-0.7-0.5-1.6c-0.3-0.9-0.6-2-1-3.3c-0.4-1.3-0.8-2.9-1.2-4.6c-0.4-1.7-0.9-3.6-1.2-5.5
			c-0.2-1.3-0.5-3-0.8-5.1c-0.3-2.2-0.6-4.3-1-6.4c-0.3-2.1-0.7-4.7-1.1-7.8c-0.3,2.1-0.6,3.7-0.7,4.9c-0.2,1.2-0.3,2.4-0.4,3.5
			c-0.1,1.1-0.2,1.7-0.2,1.8l0.2,2.9c0,0.1,0,0.8-0.2,1.8c-0.1,1.1-0.3,2.5-0.5,4.1c-0.2,1.7-0.4,3.5-0.6,5.4
			c-0.2,1.9-0.4,3.8-0.6,5.6c-0.2,1.8-0.3,3.3-0.4,4.7c-0.1,1.4-0.1,2.3-0.1,2.8C84.6,72.3,84.7,72.4,84.9,72.4z"/>
	</g>
	<g>
		<path class="st1" d="M131,57.9c0.1,1.3-0.1,2.4-0.6,3.5c-0.5,1.1-1,2-1.7,2.8c-0.7,0.8-1.3,1.4-1.9,1.8c-0.6,0.5-1.1,0.7-1.3,0.7
			c-0.2,0-0.5-0.1-0.8-0.4c-0.3-0.3-0.5-0.7-0.5-1.1c0-0.1,0.1-0.3,0.4-0.8c0.3-0.4,0.6-1,0.9-1.6c0.4-0.6,0.6-1.3,0.9-2.1
			c0.2-0.8,0.3-1.7,0.3-2.6c-0.1-1.8-0.4-3.4-0.8-4.9c-0.4-1.4-1-2.8-1.6-4.2c-0.1-0.2-0.2-0.4-0.3-0.7c-0.1-0.3-0.2-0.5-0.2-0.6
			c0-0.5,0.1-0.8,0.4-1c0.3-0.2,0.6-0.2,1-0.3c0.5,0,1.1,0.4,1.7,1.2c0.7,0.8,1.3,1.8,1.9,3c0.6,1.2,1.1,2.4,1.5,3.8
			C130.7,55.8,131,57,131,57.9z"/>
	</g>
	<g>
		<path class="st1" d="M187.7,71.2c0.2,3.1-0.3,5.6-1.3,7.5c-1,1.8-2.6,3.6-4.7,5.2c-0.5,0.4-1.3,0.8-2.2,1.4c-1,0.5-2,1.1-3.2,1.5
			c-1.2,0.5-2.4,0.9-3.7,1.2c-1.3,0.3-2.5,0.6-3.6,0.6c-3.1,0.2-5.5,0-7.2-0.6c-1.6-0.6-2.5-1.3-2.5-2.2c-0.1-1,0.2-1.8,0.7-2.5
			c0.5-0.7,1-1,1.4-1.1l1.2,0.8c0.4,0.3,0.9,0.7,1.5,1c0.6,0.4,1.7,0.5,3.1,0.4c1.3-0.1,2.9-0.4,4.8-0.9c1.9-0.6,3.6-1.3,5.3-2.4
			c1.7-1,3.1-2.3,4.2-3.7c1.2-1.5,1.7-3.1,1.6-4.9c-0.1-1.6-1.4-3-3.9-4.3c-2.5-1.2-6.3-2-11.5-2.2c-2.7-0.1-5.3-0.3-7.9-0.6
			c-2.6-0.3-5-0.8-7.1-1.5c-2.1-0.7-3.8-1.6-5.1-2.8c-1.3-1.2-2-2.6-2.1-4.5c-0.1-1.7,0.3-3.5,1.2-5.1c0.9-1.7,2-3.2,3.4-4.6
			c1.4-1.4,2.8-2.7,4.3-3.9c1.5-1.1,2.7-2.1,3.7-2.8c0.8-0.5,2-1.2,3.4-2.1c1.5-0.9,3-1.7,4.7-2.6c1.7-0.8,3.4-1.5,5-2.2
			c1.7-0.6,3.1-1,4.3-1c1.4-0.1,2.4,0.3,2.9,1c0.5,0.7,0.8,1.8,0.9,3.2c0.1,1.2,0,2.5-0.2,3.8c-0.2,1.3-0.5,2.7-0.7,3.9
			c-0.3,1.3-0.6,2.4-0.8,3.4c-0.3,1-0.5,1.6-0.6,1.9c-0.2,0.6-0.5,1.1-0.9,1.3c-0.3,0.2-0.6,0.3-0.7,0.4c-0.3,0-0.4-0.2-0.4-0.5
			c0-0.2,0-0.6,0.1-1.2c0.1-0.6,0.2-1.3,0.3-2.2c0.1-0.8,0.2-1.8,0.3-2.7c0.1-1,0.1-2,0-2.9c-0.1-1.5-0.2-2.7-0.4-3.3
			c-0.2-0.7-0.8-1-1.7-1c-1,0.1-2.3,0.4-3.9,1c-1.7,0.6-3.3,1.3-5,2.2c-1.8,0.9-3.6,2.1-5.3,3.5c-1.7,1.4-3.2,2.9-4.6,4.3
			c-1.3,1.5-2.4,2.9-3.2,4.2c-0.8,1.3-1.2,2.4-1.2,3.2c0,0.8,0.7,1.6,1.9,2.3s2.7,1.2,4.5,1.7c1.8,0.5,3.8,0.9,6,1.2
			c2.2,0.3,4.3,0.5,6.4,0.6c1.8,0.1,3.7,0.3,5.8,0.5c2.1,0.2,4.1,0.7,6,1.4c1.9,0.7,3.5,1.6,4.8,2.9
			C186.9,67.6,187.6,69.2,187.7,71.2z"/>
	</g>
	<g>
		<path class="st1" d="M290.5,65.9c0.2,3.1-0.3,5.6-1.3,7.5c-1,1.8-2.6,3.6-4.7,5.2c-0.5,0.4-1.3,0.8-2.2,1.4c-1,0.5-2,1.1-3.2,1.5
			c-1.2,0.5-2.4,0.9-3.7,1.2c-1.3,0.3-2.5,0.6-3.6,0.6c-3.1,0.2-5.5,0-7.2-0.6c-1.6-0.6-2.5-1.3-2.5-2.2c-0.1-1,0.2-1.8,0.7-2.5
			c0.5-0.7,1-1,1.4-1.1l1.2,0.8c0.4,0.3,0.9,0.7,1.5,1c0.6,0.4,1.7,0.5,3.1,0.4c1.3-0.1,2.9-0.4,4.8-0.9c1.9-0.6,3.6-1.3,5.3-2.4
			c1.7-1,3.1-2.3,4.2-3.7c1.2-1.5,1.7-3.1,1.6-4.9c-0.1-1.6-1.4-3-3.9-4.3c-2.5-1.2-6.3-2-11.5-2.2c-2.7-0.1-5.3-0.3-7.9-0.6
			c-2.6-0.3-5-0.8-7.1-1.5c-2.1-0.7-3.8-1.6-5.1-2.8c-1.3-1.2-2-2.6-2.1-4.5c-0.1-1.7,0.3-3.5,1.2-5.1c0.9-1.7,2-3.2,3.4-4.6
			c1.4-1.4,2.8-2.7,4.3-3.9c1.5-1.1,2.7-2.1,3.7-2.8c0.8-0.5,2-1.2,3.4-2.1c1.5-0.9,3-1.7,4.7-2.6c1.7-0.8,3.4-1.5,5-2.2
			c1.7-0.6,3.1-1,4.3-1c1.4-0.1,2.4,0.3,2.9,1c0.5,0.7,0.8,1.8,0.9,3.2c0.1,1.2,0,2.5-0.2,3.8c-0.2,1.3-0.5,2.7-0.7,3.9
			c-0.3,1.3-0.6,2.4-0.8,3.4c-0.3,1-0.5,1.6-0.6,1.9c-0.2,0.6-0.5,1.1-0.9,1.3c-0.3,0.2-0.6,0.3-0.7,0.4c-0.3,0-0.4-0.2-0.4-0.5
			c0-0.2,0-0.6,0.1-1.2c0.1-0.6,0.2-1.3,0.3-2.2c0.1-0.8,0.2-1.8,0.3-2.7c0.1-1,0.1-2,0-2.9c-0.1-1.5-0.2-2.7-0.4-3.3
			c-0.2-0.7-0.8-1-1.7-1c-1,0.1-2.3,0.4-3.9,1c-1.7,0.6-3.3,1.3-5,2.2c-1.8,0.9-3.6,2.1-5.3,3.5c-1.7,1.4-3.2,2.9-4.6,4.3
			c-1.3,1.5-2.4,2.9-3.2,4.2c-0.8,1.3-1.2,2.4-1.2,3.2c0,0.8,0.7,1.6,1.9,2.3s2.7,1.2,4.5,1.7c1.8,0.5,3.8,0.9,6,1.2
			c2.2,0.3,4.3,0.5,6.4,0.6c1.8,0.1,3.7,0.3,5.8,0.5c2.1,0.2,4.1,0.7,6,1.4c1.9,0.7,3.5,1.6,4.8,2.9
			C289.7,62.2,290.4,63.9,290.5,65.9z"/>
	</g>
	<g>
		<path class="st1" d="M357.7,19.9c0,0.5-0.1,0.9-0.5,1.2c-0.4,0.3-0.7,0.5-1.1,0.5c-0.6,0-1.6,0.2-3,0.4c-1.4,0.2-2.8,0.4-4.4,0.7
			c-1.6,0.3-3.1,0.5-4.6,0.8c-1.5,0.3-2.7,0.5-3.6,0.7c-0.3,0-0.9,0.1-1.7,0.2c-0.9,0.1-1.8,0.3-2.9,0.4c-1.1,0.2-2.2,0.3-3.2,0.5
			c-1.1,0.2-1.9,0.3-2.6,0.4c-0.8,0.2-1.9,0.5-3.3,0.9c-1.5,0.4-2.8,0.8-3.9,1.3c-0.4,0.2-0.8,0.3-1.1,0.4c-0.3,0.1-0.6,0.2-0.8,0.3
			c-0.3,0.1-0.5,0.2-0.7,0.2l6.7,19.7c0.2,0.6,0.6,1.6,1.2,3c0.6,1.4,1.2,2.9,2,4.5c0.8,1.6,1.5,3.4,2.4,5.1s1.6,3.4,2.2,4.9
			c0.4,0.9,0.8,2,1.3,3.3c0.5,1.3,0.9,2.6,1.4,4c0.4,1.3,0.8,2.6,1.1,3.7c0.3,1.1,0.5,1.9,0.5,2.3c0.1,1-0.2,2-0.7,3.1
			c-0.5,1.1-1.2,1.7-2.1,1.7c-0.8,0-1.3-0.5-1.4-1.7l0-0.7c0-0.2,0-0.5,0-0.7c0-0.3,0-0.6,0-0.9c0-0.6-0.3-1.5-0.8-2.9
			c-0.5-1.3-1.1-2.9-1.8-4.5c-0.7-1.7-1.5-3.5-2.3-5.3c-0.8-1.9-1.6-3.7-2.4-5.3c-0.8-1.7-1.4-3.1-2-4.3c-0.6-1.2-0.9-2-1.1-2.4
			c-0.2-0.5-0.5-1.3-0.9-2.4c-0.4-1-0.8-2.2-1.3-3.5c-0.5-1.3-1-2.7-1.5-4.2c-0.5-1.5-1-2.9-1.5-4.4c-1.2-3.4-2.6-7.1-4-11
			c-0.3,0.1-1.5,0.3-3.4,0.6c-1.9,0.3-4,0.7-6.4,1.1c-2.4,0.4-4.6,0.8-6.8,1.1c-2.2,0.4-3.6,0.6-4.4,0.6c-1.7,0.1-2.9-0.1-3.4-0.7
			c-0.5-0.5-0.8-1.2-0.9-2.1c0-0.6,0.1-1.1,0.3-1.8c0.2-0.6,0.6-0.9,1.1-1c0.6,0,1,0,1.3,0.2c0.3,0.2,0.7,0.2,1.2,0.2
			c0.1,0,0.9-0.1,2.1-0.3c1.3-0.2,2.8-0.5,4.6-0.8c1.8-0.3,3.6-0.6,5.5-0.9c1.9-0.3,3.6-0.6,5.1-0.8c0.3,0,0.7-0.1,1.1-0.1
			c0.4-0.1,0.7-0.1,1.1-0.2c0.3-0.1,0.7-0.1,1-0.2c0-0.2,0.1-0.7,0.3-1.4c0.2-0.7,0.4-1.1,0.7-1.1c0.7,0,1.3,0.2,1.8,0.7
			c0.5,0.5,0.9,0.8,1.3,1c0.5-0.1,1.2-0.3,2.2-0.6c1-0.3,2.1-0.6,3.2-0.9c1.1-0.3,2.3-0.5,3.3-0.8c1.1-0.2,2-0.4,2.8-0.5l12.2-1.4
			c1-0.1,2.2-0.3,3.6-0.5c1.4-0.2,2.7-0.4,4-0.6c1.3-0.2,2.5-0.4,3.4-0.5c1-0.2,1.6-0.2,2-0.3c0.6,0,1.2,0.2,1.7,0.5
			C357.4,19.1,357.7,19.5,357.7,19.9z"/>
	</g>
	<g>
		<path class="st1" d="M411.5,79.7c0,0.5-0.1,1-0.4,1.6c-0.3,0.6-0.8,0.9-1.4,0.9c-0.4,0-0.7-0.1-1.2-0.3c-2.6-1.1-5.6-1.9-9-2.4
			c-3.4-0.6-6.9-1-10.4-1.4c-3.6-0.4-7-0.8-10.4-1.3s-6.4-1.2-8.9-2.1c0.5,0.9,0.9,1.6,1.4,2.1c0.4,0.5,0.8,1,1.2,1.4
			c0.3,0.4,0.6,0.8,0.8,1.2c0.2,0.4,0.4,0.9,0.4,1.5c0,0.6-0.2,1-0.6,1.3c-0.4,0.3-0.8,0.5-1.2,0.5c-0.8,0-1.8-0.4-2.8-1.4
			c-1-1-2-2.3-3.1-3.8c-1.1-1.6-2.1-3.3-3.2-5.3c-1-1.9-2-3.8-2.9-5.7c-0.9-1.8-1.6-3.5-2.3-5.1s-1.1-2.7-1.3-3.6l-5.6-18.2
			c0-0.2,0-0.5,0.1-0.8c0.1-0.4,0.3-0.7,0.7-1.1c-0.3-0.5-0.5-1.1-0.5-1.8c-0.1-2,0.9-3.8,3.1-5.6c2.2-1.8,4.8-3.3,7.9-4.6
			c3.1-1.3,6.4-2.4,9.9-3.2c3.5-0.8,6.4-1.3,8.9-1.4c0.7,0,1.7,0,3.2,0c1.4,0,2.8,0.2,4.2,0.6c1.4,0.3,2.6,0.9,3.7,1.8
			c1.1,0.8,1.6,2,1.7,3.5c0.1,1.5-0.6,3.2-2,5.2c-1.4,2-3.2,4.1-5.3,6.3c-2.1,2.2-4.4,4.5-6.9,6.8c-2.5,2.3-4.8,4.7-6.9,7
			c-2.1,2.3-3.9,4.6-5.3,6.7c-1.4,2.1-2,4.1-2,5.8c0.1,1.3,0.7,2.5,1.9,3.4c1.2,1,2.7,1.8,4.5,2.4c1.8,0.7,3.7,1.2,5.8,1.7
			c2.1,0.5,4.1,0.8,5.9,1.1c1.9,0.3,3.5,0.4,4.9,0.5c1.4,0.1,2.2,0.1,2.5,0.1c0.9,0,2.5,0,4.7,0.1c2.2,0.1,4.6,0.3,6.9,0.7
			c2.4,0.4,4.5,1,6.3,1.7C410.5,77.3,411.4,78.3,411.5,79.7z M388.5,27.3c0-0.5-0.3-0.9-0.8-1.3c-0.5-0.4-1.2-0.6-2-0.8
			c-0.8-0.2-1.7-0.3-2.6-0.4c-1-0.1-1.9-0.1-2.8,0c-1.4,0.1-3.1,0.4-5,0.9c-1.9,0.5-3.9,1.1-5.8,1.9c-2,0.7-3.8,1.5-5.4,2.2
			c-1.6,0.7-2.8,1.3-3.6,1.8c-1.4,0.9-2.8,1.9-4.2,3c-1.3,1.1-2,2.1-1.9,3.1c0,0.1,0.1,0.3,0.3,0.4c0.2,0.1,0.3,0.4,0.4,0.7
			c0,0.4,0.3,1.5,0.8,3.2c0.5,1.7,1.1,3.6,1.8,5.7c0.7,2.1,1.4,4.2,2.2,6.3c0.8,2.1,1.5,3.7,2.1,4.9c2.7-4.2,5.6-7.9,8.7-11.1
			c3.2-3.2,6.1-6.1,8.8-8.6c2.7-2.5,4.9-4.7,6.7-6.6C387.7,30.7,388.6,28.9,388.5,27.3z"/>
	</g>
	<g>
		<path class="st1" d="M446,77.7c0.1,0.3,0.1,0.5,0.1,0.8c0,0.2,0,0.4,0,0.6c0,0.7-0.1,1.2-0.4,1.5c-0.3,0.3-0.9,0.5-1.8,0.5
			c-0.8,0-1.4-0.1-1.7-0.3c-0.4-0.4-1.1-1.5-1.8-3.2c-0.8-1.7-1.6-3.7-2.5-6.1c-0.9-2.3-1.8-4.9-2.7-7.5c-0.9-2.7-1.7-5.2-2.3-7.7
			c-0.8,0.4-1.8,0.8-3.1,1.3c-1.3,0.5-2.7,0.9-4,1.3c-1.6,0.4-3.3,0.9-5,1.4c-0.5,3-0.8,5.6-1,7.8c-0.2,2.1-0.4,3.9-0.6,5.3
			c-0.2,1.4-0.4,2.4-0.8,3.1c-0.4,0.7-0.9,1-1.8,1.1c-0.6,0-1.1-0.3-1.5-0.9c-0.5-0.6-0.7-1.5-0.8-2.8c0-0.6,0.1-2.1,0.3-4.4
			c0.2-2.3,0.5-4.9,0.8-7.8c0.3-2.9,0.5-5.7,0.8-8.5c0.3-2.8,0.4-5,0.5-6.7c0-0.8,0.2-2.2,0.5-4.1c0.3-1.9,0.6-3.9,0.9-5.9
			c0.3-2,0.6-3.8,1-5.5c0.3-1.6,0.6-2.6,0.7-2.8c1-2.6,1.6-5.3,1.7-8.1c0.2-2.7,0.3-5.3,0.3-7.5c0.1-2.3,0.3-4.1,0.6-5.6
			c0.3-1.5,1.2-2.2,2.5-2.3c0.3,0,0.7,0.2,1.1,0.8c0.4,0.5,0.8,1.2,1.2,1.9c0.4,0.8,0.7,1.5,1,2.2c0.2,0.7,0.4,1.3,0.5,1.7
			c0.1,0.4,0.2,1.3,0.4,2.5c0.2,1.3,0.3,2.6,0.5,4.1c0.2,1.5,0.4,3,0.5,4.4c0.2,1.4,0.3,2.5,0.4,3.3c0.3,2.3,0.8,4.9,1.4,7.7
			c0.6,2.8,1.2,5.5,1.8,8c0.6,2.5,1.2,4.6,1.7,6.3c0.5,1.7,0.9,2.5,1.1,2.5c0.3,0,0.6-0.1,1.1-0.3c0.4-0.2,0.9-0.3,1.3-0.3
			c0.6,0,0.9,0.2,0.9,0.8c0,0.6-0.1,1-0.3,1.4c-0.3,0.4-0.5,0.7-0.8,1c-0.3,0.3-0.6,0.6-0.8,0.8c-0.2,0.2-0.3,0.5-0.3,0.8
			c0,0.6,0.4,2,1.2,4.3l2,6.1c0.2,0.6,0.5,1.5,1.1,2.8c0.6,1.3,1.1,2.7,1.7,4.1c0.6,1.4,1.1,2.7,1.6,3.9S446,77.4,446,77.7z
			 M421.5,54.9c0.4,0,1.2-0.2,2.3-0.5c1.1-0.3,2.2-0.7,3.4-1.1c1.2-0.4,2.2-0.8,3.1-1.2c0.9-0.4,1.3-0.7,1.3-0.9
			c0-0.2-0.2-0.7-0.5-1.6c-0.3-0.9-0.6-2-1-3.3c-0.4-1.3-0.8-2.9-1.2-4.6c-0.4-1.7-0.9-3.6-1.2-5.5c-0.2-1.3-0.5-3-0.8-5.1
			c-0.3-2.2-0.6-4.3-1-6.4c-0.3-2.1-0.7-4.7-1.1-7.8c-0.3,2.1-0.6,3.7-0.7,4.9c-0.2,1.2-0.3,2.4-0.4,3.5c-0.1,1.1-0.2,1.7-0.2,1.8
			l0.2,2.9c0,0.1,0,0.8-0.2,1.8c-0.1,1.1-0.3,2.5-0.5,4.1c-0.2,1.7-0.4,3.5-0.6,5.4c-0.2,1.9-0.4,3.8-0.6,5.6
			c-0.2,1.8-0.3,3.3-0.4,4.7c-0.1,1.4-0.1,2.3-0.1,2.8C421.2,54.7,421.3,54.9,421.5,54.9z"/>
	</g>
	<g>
		<path class="st1" d="M491.4,14.2c0,0.3-0.1,0.5-0.3,0.6c-0.2,0.2-0.4,0.3-0.6,0.5c-0.3,0.2-0.6,0.3-0.9,0.4c-0.6,0-1.1,0-1.5,0
			c-0.4,0-0.9-0.1-1.5,0c-0.8,0-2.3,0.6-4.5,1.5c-2.2,1-4.5,2.2-6.9,3.7c-2.4,1.5-4.5,3-6.3,4.5c-1.8,1.6-2.8,2.9-2.8,4l1.6,7.1
			c0.4,1.8,0.8,3.4,1.1,4.9c0.3,1.5,0.5,2.2,0.6,2.2c0.1-0.1,0.6-0.4,1.4-1c0.8-0.6,1.7-1.2,2.9-1.9c1.2-0.7,2.4-1.5,3.8-2.4
			c1.4-0.8,2.7-1.6,4-2.3c1.3-0.7,2.5-1.3,3.6-1.8s2-0.7,2.6-0.8c0.5,0,0.9,0.1,1.3,0.2c0.4,0.2,0.6,0.6,0.6,1.1
			c0,0.4-0.4,1-1.4,1.9c-0.9,0.8-2.1,1.7-3.5,2.7c-1.4,1-3,2-4.6,3.1c-1.7,1.1-3.2,2.1-4.6,3.1c-1.4,1-2.6,1.8-3.5,2.6
			c-0.9,0.8-1.4,1.4-1.4,1.7c0,0.4,0.2,1.4,0.5,3.3c0.3,1.8,0.8,3.9,1.4,6.1c0.6,2.2,1.2,4.4,1.9,6.4c0.7,2.1,1.4,3.5,2.2,4.3
			c0.1,0.1,0.2,0.3,0.2,0.6c0,0.4-0.2,0.9-0.8,1.5c-0.5,0.6-1,0.8-1.4,0.9c-0.6,0-1.2-0.5-1.8-1.5c-0.6-1-1.3-2.3-1.8-3.9
			c-0.6-1.6-1.1-3.3-1.7-5.1c-0.5-1.8-1-3.5-1.4-5.1c-0.4-1.6-0.7-2.9-1-3.9c-0.3-1-0.4-1.6-0.5-1.6c-0.2,0-0.7,0.2-1.4,0.4
			c-0.8,0.3-1.6,0.4-2.4,0.5c-0.6,0-1.2-0.2-1.7-0.7c-0.5-0.5-0.7-1-0.8-1.6c0-0.6,0.1-1.1,0.4-1.5c0.3-0.4,0.7-0.8,1.2-1.2
			c0.5-0.4,1-0.7,1.5-1c0.5-0.3,1-0.6,1.4-0.9l-4-19.9c0-0.6,0-1.1,0.2-1.7c0.2-0.6,0.6-0.9,1.3-1c0.1,0,0.4,0.1,0.7,0.4
			s0.5,0.4,0.7,0.4c0.2-0.1,1.1-0.9,2.6-2.3c1.5-1.4,3.4-2.9,5.7-4.5c2.3-1.6,4.7-3.1,7.3-4.5c2.6-1.4,5.1-2.1,7.4-2.2
			c0.9,0,1.9,0.3,3,1C490.8,12.4,491.4,13.2,491.4,14.2z"/>
	</g>
	<g>
		<path class="st1" d="M511.1,18.9c0,0.6-0.2,2-0.7,4.1c-0.5,2.1-1.1,4.5-1.7,7.1c-0.6,2.6-1.1,5.1-1.6,7.6
			c-0.5,2.5-0.7,4.4-0.6,5.8c0.1,1.5,0.2,2.7,0.4,3.6c0.2,0.9,0.4,1.7,0.6,2.3c0.2,0.6,0.4,1.2,0.6,1.6c0.2,0.4,0.3,1,0.3,1.6
			c0.1,1.4-0.5,2.1-1.8,2.2c-0.2,0-0.4-0.1-0.7-0.4c-1.7-2.2-2.7-4.3-3.1-6.5c-0.4-2.2-0.7-3.8-0.7-5c-0.1-1.5,0-3.4,0.3-5.7
			c0.3-2.4,0.7-4.9,1.2-7.5c0.5-2.7,1.1-5.3,1.7-8c0.7-2.7,1.3-5,2-7c0.1-0.1,0.3-0.3,0.5-0.4c0.2-0.1,0.5-0.2,0.8-0.3
			c0.5,0,0.9,0.1,1.2,0.5c0.3,0.4,0.5,0.8,0.7,1.3c0.2,0.5,0.3,1.1,0.4,1.6C511,18.1,511.1,18.5,511.1,18.9z M517,65.8
			c0,0.8-0.1,1.6-0.6,2.4c-0.4,0.8-1,1.3-1.7,1.3c-0.9,0-1.8-0.4-2.6-1.2c-0.9-0.9-1.3-1.9-1.4-3.1c0-0.4,0-1,0.2-1.6
			c0.1-0.7,0.6-1,1.3-1.1c0.3,0,0.7,0,1.2,0c0.5,0,1,0.2,1.5,0.4c0.5,0.2,1,0.6,1.4,1C516.8,64.4,517,65,517,65.8z"/>
	</g>
</g>
<g class="st0">
	<g>
		<path class="st1" d="M7.8,105.3c-1.1,0-1.9-0.1-2.6-0.4c-1-0.5-1.5-1.4-1.6-3c-0.1-0.9,0.2-2,0.8-3.2c0.3-0.5,1-2.2,2.5-2.2
			C8,96.3,8.7,96.8,9,97.2c0.4,0.5,0.6,1,0.6,1.6c2.4-0.5,5.5-1.4,9.1-2.8c4.3-1.6,9.4-4.2,15.3-7.8c0.3-0.2,0.6-0.4,1-0.6
			c-0.1,0-0.2,0-0.3,0c-1.5,0.1-2.3-0.7-2.7-1.3c-0.4-0.7-0.8-1.8-1.1-3.3c-0.3-1.4-0.7-3.3-1.2-5.6c-0.5-2.2-1.3-5-2.4-8.3
			c-1.7-4.6-2.9-9.1-3.7-13.3c-0.7-3.7-1.2-6.7-1.5-9.1c-0.3,0-0.5,0-0.8,0c-0.5,0-1.2,0-1.8,0c-0.6,0-1.2,0-1.8,0
			c-1,0.1-2,0.3-2.8,0.7c-0.9,0.5-1.6,1-2.2,1.5c-0.6,0.6-1.1,1.1-1.5,1.5c-0.6,0.7-1,1-1.5,1.1c-0.6,0-1.4-0.1-2.3-0.3
			c-1.8-0.4-2.1-1.6-2.2-2.3c-0.1-1.2,0.4-2.4,1.4-3.5c0.9-1.1,2-2,3.3-2.9c1.3-0.8,2.7-1.5,4.2-2.1c1.5-0.6,3-0.9,4.3-1
			c2.1-0.1,4.7,0,7.6,0.5c2.9,0.4,5.9,1.1,8.9,1.9c3.1,0.8,6.1,1.9,9.1,3.1c3,1.3,5.8,2.7,8.2,4.3c2.5,1.6,4.5,3.4,6.1,5.4
			c1.6,2,2.5,4.2,2.6,6.5l0,0c0.1,2.5-0.2,4.9-1,7.2c-0.8,2.3-1.9,4.6-3.4,6.7c-1.5,2.1-3.2,4.3-5.2,6.3c-2,2-4.2,4.1-6.6,6
			c-2.5,2.1-5.5,4.2-8.9,6.2c-3.3,2-6.8,3.8-10.2,5.5c-3.4,1.6-6.7,3-9.7,4c-3.1,1-5.7,1.6-7.6,1.7C8.3,105.2,8.1,105.3,7.8,105.3z
			 M7,98.4c0,0-0.3,0.1-0.7,1.1c-0.4,0.9-0.6,1.7-0.6,2.3c0,0.7,0.2,1.1,0.4,1.3c0.3,0.1,1,0.3,2.3,0.2c1.8-0.1,4.2-0.6,7.1-1.6
			c3-1,6.2-2.3,9.5-3.9c3.3-1.6,6.7-3.4,10-5.4c3.3-2,6.2-4,8.6-6c2.3-1.9,4.5-3.9,6.4-5.9c1.9-2,3.6-4,5-6.1c1.4-2,2.4-4.1,3.1-6.2
			c0.7-2.1,1-4.3,0.9-6.5l0,0c-0.1-1.9-0.8-3.7-2.2-5.4c-1.4-1.8-3.3-3.5-5.6-4.9c-2.3-1.5-5-2.9-7.9-4.1c-2.9-1.2-5.9-2.3-8.9-3.1
			c-3-0.8-5.9-1.4-8.7-1.8c-2.8-0.4-5.2-0.6-7.2-0.4c-1.2,0.1-2.4,0.3-3.8,0.8c-1.4,0.5-2.6,1.1-3.8,1.9C9.9,45.3,9,46.1,8.2,47
			c-0.7,0.8-1,1.5-0.9,2.2c0,0.1,0,0.3,0.6,0.4c0.8,0.2,1.3,0.2,1.6,0.2c0.1-0.1,0.2-0.2,0.4-0.4c0.5-0.5,1-1,1.7-1.7
			c0.7-0.6,1.6-1.3,2.6-1.8c1.1-0.6,2.3-0.9,3.6-1c0.6,0,1.3,0,2,0c0.6,0,1.2,0,1.6,0c0.5,0,1.2,0,1.8,0l0.8,0l0.1,0.8
			c0.3,2.4,0.8,5.7,1.6,9.8c0.8,4.1,2,8.4,3.6,13c1.2,3.3,2,6.2,2.5,8.5c0.5,2.3,0.9,4.1,1.2,5.5c0.4,1.6,0.7,2.4,0.9,2.7
			c0.1,0.1,0.2,0.3,0.7,0.3c0-0.1,0.1-0.2,0.1-0.4c0.2-0.6,0.3-1.2,0.2-1.7c0-0.5-0.1-1.3-0.3-2.2c-0.2-1-0.3-2.1-0.5-3.2
			c-0.2-1.1-0.4-2.2-0.6-3.3c-0.2-1.1-0.4-2-0.5-2.7c-0.1-0.6-0.3-1.3-0.5-2.3c-0.2-0.9-0.7-2.3-1.3-4.2c-0.6-1.8-1.1-3.7-1.6-5.7
			c-0.5-2.1-0.9-4-1.3-5.8c-0.4-1.8-0.7-3.4-0.9-4.8c-0.3-1.6-0.4-2.2-0.4-2.5l-0.4-1.4l1.4,0.2c2.7,0.3,5.7,0.9,8.9,2
			c3.2,1,6.2,2.3,8.9,3.7c2.8,1.5,5.1,3.1,7,4.9c2,1.9,3.1,3.8,3.2,5.7c0.1,2.5-0.4,5.2-1.6,7.8c-1.2,2.6-2.8,5.2-4.7,7.6
			c-2,2.4-4.3,4.7-6.8,6.9c-2.5,2.2-5.1,4.1-7.7,5.7c-6,3.7-11.3,6.4-15.7,8c-4.4,1.6-8,2.6-10.7,3.1l-1.1,0.2l-0.1-1.3
			c0-0.2,0-0.3,0.1-0.6c0,0,0-0.1,0-0.3c0-0.2-0.1-0.4-0.2-0.6C7.4,98.4,7.1,98.4,7,98.4z M29.1,47.8c0.1,0.3,0.1,0.7,0.2,1.2
			c0.2,1.3,0.5,2.9,0.9,4.7c0.4,1.8,0.8,3.7,1.3,5.7c0.5,2,1,3.9,1.6,5.6c0.7,2,1.1,3.4,1.4,4.4c0.2,1,0.4,1.8,0.5,2.4
			c0.1,0.7,0.3,1.6,0.5,2.6c0.2,1.1,0.4,2.3,0.6,3.4c0.2,1.1,0.3,2.2,0.5,3.2c0.2,1.1,0.3,1.9,0.3,2.5c0,0.7-0.1,1.5-0.3,2.3
			c-0.1,0.5-0.3,0.9-0.6,1.2c1.9-1.3,3.8-2.7,5.6-4.3c2.4-2.1,4.6-4.3,6.5-6.6c1.9-2.3,3.4-4.7,4.5-7.2c1.1-2.4,1.5-4.7,1.4-6.9
			c-0.1-1.4-0.9-2.9-2.5-4.4c-1.7-1.6-3.9-3.2-6.6-4.5c-2.6-1.4-5.5-2.6-8.6-3.6C33.8,48.7,31.4,48.1,29.1,47.8z"/>
	</g>
	<g>
		<path class="st1" d="M107,99.6c-0.9,0-1.6-0.2-2-0.6c-0.4-0.3-1-1-2.1-3.5c-0.8-1.7-1.7-3.8-2.6-6.1c-0.9-2.3-1.8-4.9-2.7-7.6
			c-0.8-2.3-1.4-4.5-2-6.6c-0.6,0.3-1.3,0.5-2.1,0.8c-1.3,0.5-2.7,0.9-4.1,1.3c-1.4,0.4-2.9,0.8-4.4,1.2c-0.4,2.7-0.7,5.1-0.9,7.1
			c-0.2,2.1-0.4,3.9-0.6,5.3c-0.2,1.5-0.5,2.6-0.9,3.4c-0.5,1-1.4,1.6-2.6,1.6c-0.6,0-1.5-0.2-2.4-1.3c-0.6-0.8-0.9-1.9-1-3.3
			c0-0.7,0.1-2.2,0.3-4.6c0.2-2.3,0.5-4.9,0.8-7.8c0.3-2.9,0.5-5.7,0.8-8.5c0.3-2.7,0.4-5,0.5-6.6c0-0.9,0.2-2.3,0.5-4.2
			c0.3-1.9,0.6-3.9,0.9-5.9c0.3-2,0.6-3.9,1-5.5c0.4-2.1,0.6-2.7,0.8-3c0.9-2.5,1.5-5.1,1.7-7.7c0.2-2.7,0.3-5.2,0.3-7.5
			c0.1-2.3,0.3-4.3,0.6-5.8c0.4-1.9,1.7-3,3.4-3.1c1-0.1,1.8,0.9,2,1.2c0.4,0.6,0.9,1.3,1.3,2.1c0.4,0.8,0.8,1.6,1,2.3
			c0.3,0.8,0.4,1.4,0.5,1.8c0.1,0.5,0.2,1.3,0.4,2.6c0.2,1.3,0.3,2.6,0.5,4.1c0.2,1.5,0.4,3,0.5,4.4c0.2,1.4,0.3,2.5,0.4,3.3
			c0.3,2.3,0.8,4.9,1.4,7.6c0.6,2.8,1.2,5.5,1.8,8c0.6,2.4,1.2,4.5,1.7,6.2c0.3,0.9,0.5,1.4,0.6,1.7c0.1,0,0.2-0.1,0.3-0.1
			c0.5-0.2,1.1-0.3,1.6-0.3c1.1-0.1,1.9,0.6,1.9,1.7c0,0.8-0.1,1.5-0.5,2c-0.3,0.4-0.6,0.8-1,1.1c-0.3,0.3-0.6,0.6-0.8,0.8
			c0,0.2,0.1,1,1.1,4l2,6.1c0.2,0.5,0.5,1.4,1.1,2.7l1.7,4.1c0.6,1.4,1.1,2.7,1.6,3.9c0.6,1.5,0.8,2.1,0.8,2.4
			c0.1,0.3,0.1,0.6,0.2,0.9l0,0.6c0.1,1-0.2,1.8-0.7,2.3c-0.5,0.5-1.3,0.7-2.5,0.8C107.3,99.6,107.2,99.6,107,99.6z M106.3,97.5
			c0,0,0.2,0.1,1,0.1c0.9,0,1.2-0.2,1.2-0.2c0,0,0.1-0.2,0.1-0.7l0-0.6c0-0.2,0-0.3-0.1-0.5l0-0.2c0-0.1-0.1-0.5-0.7-1.9
			c-0.5-1.2-1-2.5-1.6-3.9l-1.7-4.1c-0.6-1.4-0.9-2.3-1.1-2.9l-2-6.1c-1-3.1-1.2-4.1-1.2-4.5c0-0.6,0.2-1.1,0.6-1.5
			c0.2-0.2,0.5-0.5,0.8-0.8c0.3-0.3,0.5-0.5,0.7-0.9c0.1-0.1,0.2-0.3,0.2-0.6c-0.3,0-0.6,0.1-0.8,0.2c-0.5,0.2-1,0.3-1.4,0.3
			c-1,0-1.4-0.9-2.1-3.2c-0.5-1.7-1.1-3.9-1.7-6.3c-0.6-2.5-1.2-5.2-1.8-8c-0.6-2.8-1.1-5.4-1.4-7.8c-0.1-0.8-0.3-1.9-0.4-3.3
			c-0.2-1.4-0.4-2.9-0.5-4.4c-0.2-1.5-0.4-2.9-0.5-4.1c-0.2-1.5-0.3-2.2-0.4-2.4c-0.1-0.4-0.2-0.9-0.5-1.6c-0.2-0.7-0.5-1.4-0.9-2.1
			c-0.4-0.7-0.7-1.3-1.1-1.8c-0.2-0.2-0.3-0.3-0.4-0.4c-0.6,0-1.2,0.3-1.5,1.5c-0.3,1.4-0.5,3.2-0.6,5.4c-0.1,2.3-0.2,4.8-0.3,7.6
			c-0.2,2.8-0.8,5.6-1.8,8.4L84,46.3c0,0-0.2,0.5-0.6,2.5c-0.3,1.6-0.7,3.5-1,5.4c-0.3,2-0.6,4-0.9,5.9c-0.3,1.9-0.4,3.2-0.5,4
			c-0.1,1.7-0.2,3.9-0.5,6.7c-0.3,2.8-0.5,5.7-0.8,8.5c-0.3,2.9-0.5,5.4-0.8,7.8c-0.3,2.8-0.3,3.9-0.3,4.3c0.1,1.3,0.4,1.9,0.6,2.3
			c0.4,0.5,0.6,0.5,0.7,0.5c0.6,0,0.8-0.3,0.9-0.5c0.3-0.6,0.5-1.5,0.7-2.8c0.2-1.4,0.4-3.2,0.6-5.3c0.2-2.2,0.5-4.8,1-7.8l0.1-0.6
			l0.6-0.2c1.7-0.5,3.4-1,5-1.4c1.3-0.4,2.7-0.8,4-1.3c1.3-0.4,2.3-0.8,3-1.2l1.1-0.6l0.3,1.2c0.7,2.4,1.5,4.9,2.3,7.6
			c0.9,2.7,1.8,5.2,2.6,7.5c0.9,2.3,1.7,4.3,2.5,6C105.7,96.8,106.2,97.3,106.3,97.5C106.3,97.5,106.3,97.5,106.3,97.5z M84.9,73.4
			c-0.6,0-1.3-0.4-1.3-1.4c0-0.5,0-1.5,0.1-2.9c0.1-1.4,0.3-3,0.4-4.7c0.2-1.8,0.4-3.6,0.6-5.6c0.2-1.9,0.4-3.7,0.6-5.4
			c0.2-1.7,0.4-3,0.5-4.1c0.1-1.3,0.2-1.6,0.2-1.7l-0.2-2.9c0-0.1,0-0.3,0.2-2c0.1-1.1,0.3-2.3,0.5-3.5c0.2-1.2,0.4-2.9,0.7-4.9
			l1-6.7l1,6.7c0.4,3.1,0.8,5.7,1.1,7.8l1,6.4c0.3,2.2,0.6,3.9,0.8,5.1c0.4,1.9,0.8,3.7,1.2,5.4c0.4,1.7,0.8,3.2,1.2,4.6
			c0.4,1.4,0.7,2.4,1,3.3c0.4,1.3,0.5,1.6,0.5,1.9c0.1,0.9-0.9,1.4-1.9,1.9c-0.9,0.4-2,0.8-3.2,1.2c-1.2,0.4-2.4,0.8-3.5,1.1
			C86.2,73.2,85.4,73.4,84.9,73.4C84.9,73.4,84.9,73.4,84.9,73.4z M88.2,41.2c-0.1,0.6-0.1,1.1-0.2,1.6c-0.2,1.4-0.2,1.7-0.2,1.7
			l0.2,2.9c0,0.2,0,0.4-0.2,2c-0.1,1.1-0.3,2.5-0.5,4.1c-0.2,1.7-0.4,3.5-0.6,5.4c-0.2,1.9-0.4,3.8-0.6,5.5
			c-0.2,1.8-0.3,3.3-0.4,4.7c-0.1,0.9-0.1,1.6-0.1,2c0.3-0.1,0.8-0.2,1.4-0.3c1.1-0.3,2.2-0.6,3.3-1c1.1-0.4,2.2-0.8,3-1.2
			c0.3-0.1,0.5-0.2,0.6-0.3c-0.1-0.2-0.2-0.5-0.3-1c-0.3-0.9-0.6-2-1-3.4c-0.4-1.4-0.8-2.9-1.2-4.6c-0.4-1.7-0.9-3.6-1.2-5.6
			c-0.2-1.3-0.5-3-0.8-5.2l-1-6.4C88.3,41.9,88.2,41.6,88.2,41.2z"/>
	</g>
	<g>
		<path class="st1" d="M125.5,67.7c-0.6,0-1.1-0.4-1.5-0.7c-0.5-0.5-0.8-1.1-0.9-1.8c0-0.3,0.1-0.6,0.5-1.3c0.3-0.4,0.6-1,0.9-1.6
			c0.3-0.5,0.6-1.2,0.8-1.9c0.2-0.7,0.3-1.5,0.2-2.3c-0.1-1.7-0.3-3.3-0.7-4.6c-0.4-1.4-0.9-2.7-1.5-4c-0.1-0.2-0.2-0.5-0.3-0.7
			c-0.2-0.4-0.3-0.7-0.3-1c-0.1-1.2,0.6-1.7,1-1.9c0.4-0.2,0.9-0.3,1.4-0.4c0.8,0,1.7,0.5,2.6,1.6c0.7,0.9,1.4,2,2,3.2
			c0.6,1.2,1.1,2.5,1.6,3.9c0.4,1.4,0.7,2.6,0.7,3.6v0c0.1,1.4-0.2,2.7-0.7,4c-0.5,1.2-1.1,2.2-1.9,3c-0.7,0.8-1.4,1.5-2.1,2
			C126.6,67.4,126,67.7,125.5,67.7C125.5,67.7,125.5,67.7,125.5,67.7z M125.6,65.7L125.6,65.7L125.6,65.7z M125.2,65.3
			c0,0.1,0.1,0.1,0.2,0.2c0.1,0.1,0.1,0.1,0.2,0.1c0.1-0.1,0.3-0.2,0.7-0.5c0.5-0.4,1.1-1,1.7-1.7c0.6-0.7,1.1-1.5,1.5-2.5
			c0.4-0.9,0.6-2,0.5-3.1c0-0.8-0.3-1.9-0.7-3.1c-0.4-1.3-0.9-2.5-1.4-3.6c-0.5-1.1-1.1-2-1.8-2.8c-0.6-0.8-0.9-0.8-0.9-0.9
			c-0.1,0-0.3,0-0.4,0.1c0,0,0,0,0,0.1c0,0,0,0,0,0c0,0,0,0.1,0.1,0.3c0.1,0.3,0.2,0.5,0.3,0.8c0.6,1.4,1.2,2.8,1.6,4.3
			c0.4,1.5,0.7,3.2,0.8,5.1c0.1,1-0.1,2-0.3,2.9c-0.3,0.9-0.6,1.7-1,2.4c-0.4,0.6-0.7,1.1-0.9,1.6C125.3,65.1,125.2,65.2,125.2,65.3
			z"/>
	</g>
	<g>
		<path class="st1" d="M166.9,89.8c-2.3,0-4.1-0.2-5.5-0.7c-2.1-0.7-3.1-1.8-3.2-3.1c-0.1-1.2,0.3-2.3,0.9-3.1
			c0.7-0.8,1.3-1.3,2-1.5l0.4-0.1l1.7,1.1c0.3,0.3,0.8,0.6,1.3,0.9c0.3,0.2,1,0.4,2.5,0.3c1.2-0.1,2.8-0.4,4.6-0.9
			c1.8-0.5,3.5-1.3,5-2.3c1.6-1,2.9-2.1,4-3.5c1-1.3,1.5-2.7,1.4-4.3c-0.1-1.2-1.2-2.4-3.3-3.4c-2.3-1.2-6.1-1.9-11.1-2.1
			c-2.7-0.1-5.4-0.3-8-0.6c-2.7-0.3-5.1-0.9-7.3-1.6c-2.2-0.7-4.1-1.7-5.5-3c-1.5-1.3-2.4-3.1-2.5-5.2c-0.1-1.9,0.3-3.8,1.3-5.6
			c0.9-1.7,2.1-3.4,3.5-4.9c1.4-1.5,2.9-2.8,4.4-4c1.5-1.1,2.7-2.1,3.8-2.8c0.9-0.6,2.1-1.3,3.5-2.2c1.5-0.9,3.1-1.8,4.8-2.6
			c1.7-0.8,3.4-1.6,5.1-2.2c1.8-0.6,3.3-1,4.6-1.1c1.8-0.1,3,0.4,3.8,1.4c0.6,0.9,1,2.1,1.1,3.7c0.1,1.3,0,2.6-0.2,4
			c-0.2,1.3-0.5,2.7-0.8,4c-0.3,1.3-0.6,2.4-0.8,3.4c-0.4,1.4-0.5,1.8-0.6,2c-0.3,0.8-0.7,1.4-1.2,1.7c-0.5,0.4-0.9,0.5-1.2,0.5
			c-0.5,0-0.8-0.2-1-0.3c-0.2-0.2-0.5-0.5-0.5-1.1c0-0.2,0-0.5,0.1-1.4c0.1-0.6,0.2-1.3,0.3-2.2c0.1-0.8,0.2-1.7,0.3-2.7
			c0.1-0.9,0.1-1.9,0-2.8c-0.1-1.5-0.2-2.5-0.4-3.1c0-0.1-0.1-0.2-0.7-0.2c-0.9,0-2.1,0.4-3.6,0.9c-1.6,0.6-3.3,1.3-4.9,2.2
			c-1.8,0.9-3.5,2-5.1,3.4c-1.7,1.4-3.2,2.8-4.5,4.2c-1.3,1.4-2.3,2.8-3.1,4.1c-0.9,1.5-1,2.3-1,2.6c0,0.6,0.7,1.1,1.3,1.5
			c1.1,0.6,2.5,1.2,4.3,1.6c1.8,0.5,3.7,0.8,5.9,1.1c2.1,0.3,4.3,0.5,6.4,0.6c1.8,0.1,3.8,0.3,5.9,0.5c2.2,0.2,4.3,0.7,6.2,1.4
			c2,0.7,3.7,1.7,5.1,3.1c1.5,1.4,2.3,3.3,2.5,5.6c0.2,3.3-0.3,6-1.4,8c-1.1,2-2.7,3.8-4.9,5.5c-0.6,0.4-1.4,0.9-2.4,1.5
			c-1,0.6-2.1,1.1-3.3,1.6c-1.2,0.5-2.5,0.9-3.8,1.3c-1.4,0.4-2.7,0.6-3.9,0.6C168.3,89.8,167.6,89.8,166.9,89.8z M161.3,83.4
			c-0.1,0.1-0.3,0.3-0.6,0.6c-0.4,0.5-0.5,1-0.5,1.8c0,0.4,0.7,0.9,1.9,1.3c1.5,0.5,3.8,0.7,6.8,0.6c1-0.1,2.2-0.2,3.4-0.6
			c1.3-0.3,2.5-0.7,3.6-1.2c1.1-0.5,2.2-1,3.1-1.5c0.9-0.5,1.7-1,2.2-1.3c1.9-1.5,3.4-3.2,4.4-4.9c0.9-1.7,1.3-4,1.2-6.9l0,0
			c-0.1-1.8-0.7-3.1-1.8-4.2c-1.2-1.1-2.7-2-4.4-2.6c-1.8-0.6-3.7-1.1-5.7-1.3c-2.1-0.2-4-0.4-5.8-0.5c-2.1-0.1-4.3-0.3-6.5-0.6
			c-2.2-0.3-4.3-0.7-6.1-1.2c-1.9-0.5-3.5-1.1-4.7-1.8c-1.5-0.9-2.3-1.9-2.4-3.1c-0.1-1,0.4-2.2,1.3-3.7c0.8-1.4,1.9-2.9,3.3-4.4
			c1.4-1.5,2.9-3,4.7-4.4c1.8-1.5,3.6-2.7,5.5-3.7c1.7-0.9,3.5-1.6,5.1-2.3c1.8-0.7,3.2-1,4.2-1.1c2.1-0.1,2.6,1.2,2.8,1.7
			c0.2,0.8,0.3,1.9,0.4,3.5c0.1,1,0.1,2,0,3.1c-0.1,1-0.2,2-0.3,2.8c-0.1,0.6-0.2,1.1-0.2,1.6c0.1-0.2,0.2-0.7,0.5-1.7
			c0.3-0.9,0.5-2,0.8-3.3c0.3-1.3,0.5-2.6,0.7-3.9c0.2-1.3,0.3-2.5,0.2-3.6c-0.1-1.2-0.3-2.1-0.7-2.7c-0.3-0.4-1-0.6-2-0.6
			c-1.1,0.1-2.4,0.4-4,1c-1.6,0.6-3.3,1.3-4.9,2.1c-1.6,0.8-3.2,1.6-4.6,2.5c-1.4,0.9-2.6,1.6-3.4,2.1c-1,0.7-2.2,1.7-3.7,2.8
			c-1.4,1.1-2.8,2.4-4.1,3.7c-1.3,1.4-2.4,2.9-3.2,4.4c-0.8,1.5-1.2,3-1.1,4.6c0.1,1.6,0.7,2.8,1.8,3.8c1.2,1.1,2.8,1.9,4.8,2.6
			c2,0.7,4.3,1.2,6.9,1.5c2.5,0.3,5.2,0.5,7.8,0.6c5.4,0.2,9.3,1,11.9,2.3c2.8,1.4,4.3,3.1,4.4,5.1c0.1,2.1-0.5,3.9-1.8,5.6
			c-1.2,1.5-2.7,2.9-4.5,4c-1.7,1.1-3.6,1.9-5.5,2.5c-1.9,0.6-3.6,0.9-5,1c-1.6,0.1-2.8-0.1-3.6-0.5c-0.7-0.4-1.2-0.7-1.7-1.1
			L161.3,83.4z"/>
	</g>
	<g>
		<path class="st1" d="M269.7,84.4c-2.3,0-4.1-0.2-5.5-0.7c-2.1-0.7-3.1-1.8-3.2-3.1c-0.1-1.2,0.3-2.3,0.9-3.1
			c0.7-0.8,1.3-1.3,2-1.5l0.4-0.1L266,77c0.3,0.3,0.8,0.6,1.3,0.9c0.3,0.2,1,0.4,2.5,0.3c1.2-0.1,2.8-0.4,4.6-0.9
			c1.8-0.5,3.5-1.3,5-2.3c1.6-1,2.9-2.1,4-3.5c1-1.3,1.5-2.7,1.4-4.3c-0.1-1.2-1.2-2.4-3.3-3.4c-2.3-1.2-6.1-1.9-11.1-2.1
			c-2.7-0.1-5.4-0.3-8-0.6c-2.7-0.3-5.1-0.9-7.3-1.6c-2.2-0.7-4.1-1.7-5.5-3c-1.5-1.3-2.4-3.1-2.5-5.2c-0.1-1.9,0.3-3.8,1.3-5.6
			c0.9-1.7,2.1-3.4,3.5-4.9c1.4-1.5,2.9-2.8,4.4-4c1.5-1.1,2.7-2.1,3.8-2.8c0.9-0.6,2.1-1.3,3.5-2.2c1.5-0.9,3.1-1.8,4.8-2.6
			c1.7-0.8,3.4-1.6,5.1-2.2c1.8-0.6,3.3-1,4.6-1.1c1.8-0.1,3,0.4,3.8,1.4c0.6,0.9,1,2.1,1.1,3.7c0.1,1.3,0,2.6-0.2,4
			c-0.2,1.3-0.5,2.7-0.8,4c-0.3,1.3-0.6,2.4-0.8,3.4c-0.4,1.4-0.5,1.8-0.6,2c-0.3,0.8-0.7,1.4-1.2,1.7c-0.5,0.4-0.9,0.5-1.2,0.5
			c-0.5,0-0.8-0.2-1-0.3c-0.2-0.2-0.4-0.5-0.5-1.1c0-0.2,0-0.5,0.1-1.4c0.1-0.6,0.2-1.3,0.3-2.2c0.1-0.8,0.2-1.7,0.3-2.7
			c0.1-0.9,0.1-1.9,0-2.8c-0.1-1.5-0.2-2.5-0.4-3.1c0-0.1-0.1-0.2-0.7-0.2c-0.9,0-2.1,0.4-3.6,0.9c-1.6,0.6-3.3,1.3-4.9,2.2
			c-1.8,0.9-3.5,2-5.1,3.4c-1.7,1.4-3.2,2.8-4.5,4.2c-1.3,1.4-2.3,2.8-3.1,4.1c-0.9,1.5-1,2.3-1,2.6c0,0.6,0.7,1.1,1.3,1.5
			c1.1,0.6,2.5,1.2,4.3,1.6c1.8,0.5,3.7,0.8,5.9,1.1c2.1,0.3,4.3,0.5,6.4,0.6c1.8,0.1,3.8,0.3,5.9,0.5c2.2,0.2,4.3,0.7,6.2,1.4
			c2,0.7,3.7,1.7,5.1,3.1c1.5,1.4,2.3,3.3,2.5,5.6c0.2,3.3-0.3,6-1.4,8c-1.1,2-2.7,3.8-4.9,5.5c-0.6,0.4-1.4,0.9-2.4,1.5
			c-1,0.6-2.1,1.1-3.3,1.6c-1.2,0.5-2.5,0.9-3.8,1.3c-1.4,0.4-2.7,0.6-3.9,0.6C271.1,84.4,270.4,84.4,269.7,84.4z M264.1,78.1
			c-0.1,0.1-0.3,0.3-0.6,0.6c-0.4,0.5-0.5,1-0.5,1.8c0,0.4,0.7,0.9,1.9,1.3c1.5,0.5,3.8,0.7,6.8,0.6c1-0.1,2.2-0.2,3.4-0.6
			c1.3-0.3,2.5-0.7,3.6-1.2c1.1-0.5,2.2-1,3.1-1.5c0.9-0.5,1.7-1,2.2-1.3c1.9-1.5,3.4-3.2,4.4-4.9c0.9-1.7,1.3-4,1.2-6.9l0,0
			c-0.1-1.8-0.7-3.1-1.8-4.2c-1.2-1.1-2.7-2-4.4-2.6c-1.8-0.6-3.7-1.1-5.7-1.3c-2.1-0.2-4-0.4-5.8-0.5c-2.1-0.1-4.3-0.3-6.5-0.6
			c-2.2-0.3-4.3-0.7-6.1-1.2c-1.9-0.5-3.5-1.1-4.7-1.8c-1.5-0.9-2.3-1.9-2.4-3.1c-0.1-1,0.4-2.2,1.3-3.7c0.8-1.4,1.9-2.9,3.3-4.4
			c1.4-1.5,2.9-3,4.7-4.4c1.8-1.5,3.6-2.7,5.5-3.7c1.7-0.9,3.5-1.6,5.1-2.3c1.8-0.7,3.1-1,4.2-1.1c2.1-0.1,2.6,1.2,2.8,1.7
			c0.2,0.8,0.3,1.9,0.4,3.5c0.1,1,0.1,2,0,3.1c-0.1,1-0.2,2-0.3,2.8c-0.1,0.6-0.2,1.1-0.2,1.6c0.1-0.2,0.2-0.7,0.5-1.7
			c0.3-0.9,0.5-2,0.8-3.3c0.3-1.3,0.5-2.6,0.7-3.9c0.2-1.3,0.3-2.5,0.2-3.6c-0.1-1.2-0.3-2.1-0.7-2.7c-0.3-0.4-1-0.6-2-0.6
			c-1.1,0.1-2.4,0.4-4,1c-1.6,0.6-3.3,1.3-4.9,2.1c-1.6,0.8-3.2,1.7-4.6,2.5c-1.4,0.9-2.6,1.6-3.4,2.1c-1,0.7-2.2,1.7-3.7,2.8
			c-1.4,1.1-2.8,2.4-4.1,3.7c-1.3,1.4-2.4,2.9-3.2,4.4c-0.8,1.5-1.2,3-1.1,4.6c0.1,1.6,0.7,2.8,1.8,3.8c1.2,1.1,2.8,1.9,4.8,2.6
			c2,0.7,4.3,1.2,6.9,1.5c2.5,0.3,5.2,0.5,7.8,0.6c5.4,0.2,9.3,1,11.9,2.3c2.8,1.4,4.3,3.1,4.4,5.1c0.1,2.1-0.5,3.9-1.8,5.6
			c-1.2,1.5-2.7,2.9-4.5,4c-1.7,1.1-3.6,1.9-5.5,2.5c-1.9,0.6-3.6,0.9-5,1c-1.6,0.1-2.8-0.1-3.6-0.5c-0.7-0.4-1.2-0.7-1.7-1.1
			L264.1,78.1z"/>
	</g>
	<g>
		<path class="st1" d="M336,85.2c-0.7,0-1.3-0.3-1.7-0.8c-0.4-0.5-0.6-1.1-0.6-1.9l0-0.7c0-0.2,0-0.5,0-0.9c0-0.2,0-0.5,0-0.8
			c0-0.3-0.1-0.9-0.7-2.6c-0.5-1.3-1.1-2.8-1.8-4.5c-0.7-1.7-1.5-3.5-2.3-5.3c-0.8-1.9-1.6-3.7-2.4-5.3c-0.8-1.7-1.4-3.1-2-4.3
			c-0.6-1.2-0.9-2-1.1-2.5c-0.2-0.5-0.6-1.4-0.9-2.4c-0.4-1-0.8-2.2-1.3-3.5c-0.5-1.3-1-2.7-1.5-4.2c-0.5-1.5-1.1-3-1.5-4.4
			c-1.1-3.1-2.4-6.5-3.7-10.2c-0.5,0.1-1.3,0.2-2.6,0.5c-1.9,0.3-4.1,0.7-6.4,1.1c-2.4,0.4-4.6,0.8-6.8,1.1
			c-2.2,0.4-3.7,0.6-4.5,0.6c-2.1,0.1-3.4-0.2-4.2-1c-0.7-0.7-1.1-1.6-1.2-2.6c0-0.8,0.1-1.5,0.4-2.3c0.5-1.3,1.5-1.5,2-1.6
			c0.7,0,1.3,0.1,1.8,0.3c0.1,0.1,0.3,0.1,0.7,0.1c0,0,0.3,0,2-0.3c1.3-0.2,2.8-0.5,4.6-0.8c1.8-0.3,3.6-0.6,5.5-0.9
			c1.9-0.3,3.6-0.6,5.1-0.8c0.4,0,0.8-0.1,1.1-0.1c0.3-0.1,0.7-0.1,1-0.2c0.1,0,0.3-0.1,0.4-0.1c0-0.2,0.1-0.5,0.2-0.8
			c0.1-0.4,0.5-1.8,1.6-1.9c1-0.1,1.9,0.3,2.5,1c0.3,0.3,0.6,0.5,0.7,0.7c0.4-0.1,1-0.3,1.8-0.5c1-0.3,2.1-0.6,3.3-0.9
			c1.1-0.3,2.3-0.5,3.3-0.8c1.1-0.2,2-0.4,2.8-0.5l12.3-1.4c1-0.1,2.2-0.3,3.6-0.4c1.3-0.2,2.7-0.4,4-0.6l3.4-0.5
			c1-0.2,1.7-0.3,2.1-0.3l0.1,0l0.1,0c0.8,0,1.5,0.3,2.2,0.7c1,0.6,1.2,1.4,1.3,1.9v0c0,0.8-0.3,1.5-0.8,2c-0.5,0.5-1.1,0.8-1.7,0.8
			s-1.6,0.1-2.9,0.4c-1.4,0.2-2.8,0.4-4.4,0.7c-1.6,0.3-3.1,0.5-4.6,0.8c-1.5,0.3-2.7,0.5-3.6,0.7l-0.2,0c-0.4,0-1.3,0.1-1.6,0.2
			c-0.9,0.1-1.8,0.3-2.9,0.4c-1.1,0.2-2.1,0.3-3.2,0.5c-1.1,0.2-1.9,0.4-2.6,0.5c-0.7,0.2-1.8,0.5-3.2,0.9c-1.4,0.4-2.7,0.8-3.9,1.2
			c-0.4,0.2-0.8,0.3-1.2,0.4c-0.2,0.1-0.4,0.1-0.5,0.2l6.4,18.8c0.2,0.6,0.6,1.6,1.2,2.9c0.6,1.4,1.2,2.9,2,4.5
			c0.8,1.6,1.5,3.4,2.4,5.1c0.8,1.8,1.6,3.4,2.2,5c0.4,0.9,0.8,2,1.3,3.3c0.5,1.3,1,2.7,1.4,4c0.4,1.4,0.8,2.6,1.1,3.7
			c0.3,1.2,0.5,2,0.5,2.5c0.1,1.1-0.2,2.3-0.8,3.6c-0.8,1.8-2.1,2.3-3,2.3C336.1,85.2,336.1,85.2,336,85.2z M336,83.2c0,0,0,0,0.1,0
			c0.2,0,0.8,0,1.3-1.2c0.4-1,0.6-1.9,0.6-2.7c0-0.2-0.1-0.7-0.5-2.1c-0.3-1.1-0.7-2.3-1.1-3.6c-0.4-1.3-0.9-2.7-1.3-3.9
			c-0.5-1.3-0.9-2.4-1.3-3.2c-0.7-1.5-1.4-3.2-2.2-4.9c-0.8-1.8-1.6-3.5-2.4-5.1c-0.7-1.6-1.4-3.2-2-4.6c-0.6-1.4-1-2.4-1.2-3
			l-7-20.7l0.9-0.3c0.2-0.1,0.5-0.2,0.8-0.3c0.2-0.1,0.5-0.2,0.9-0.3c0.3-0.1,0.6-0.2,1-0.3c1.2-0.4,2.6-0.9,4-1.3
			c1.4-0.4,2.6-0.7,3.4-0.9c0.7-0.1,1.5-0.3,2.6-0.5c1.1-0.2,2.2-0.4,3.3-0.5c1.1-0.2,2.1-0.3,2.9-0.4c0.9-0.1,1.4-0.2,1.7-0.2
			c0.9-0.2,2.1-0.4,3.6-0.7c1.5-0.3,3-0.5,4.6-0.8c1.6-0.3,3-0.5,4.4-0.7c1.4-0.2,2.4-0.3,3.1-0.4c0.1,0,0.2-0.1,0.5-0.3
			c0.1-0.1,0.2-0.3,0.2-0.4l0,0c0,0-0.1-0.2-0.3-0.3c-0.4-0.2-0.7-0.4-1.2-0.4c-0.2,0-0.8,0.1-1.8,0.2l-3.4,0.5
			c-1.3,0.2-2.7,0.4-4,0.6c-1.4,0.2-2.6,0.3-3.6,0.5L330,22.4c-0.7,0.1-1.6,0.3-2.7,0.5c-1.1,0.2-2.2,0.5-3.3,0.7
			c-1.1,0.3-2.2,0.5-3.2,0.8c-1,0.3-1.8,0.5-2.3,0.6l-0.3,0.1l-0.3-0.2c-0.5-0.2-1-0.6-1.5-1.2c-0.2-0.2-0.4-0.3-0.7-0.4
			c0,0.1-0.1,0.2-0.1,0.4c-0.2,0.9-0.3,1.1-0.3,1.1l0,0.9l-0.9,0.1c-0.3,0-0.6,0.1-0.8,0.1c-0.4,0.1-0.8,0.2-1.2,0.2
			c-0.4,0.1-0.8,0.1-1.2,0.1c-1.4,0.2-3,0.5-5,0.8c-1.9,0.3-3.7,0.6-5.5,0.9c-1.8,0.3-3.3,0.6-4.6,0.8c-2,0.3-2.2,0.3-2.2,0.3
			c-0.7,0-1.2-0.1-1.7-0.3c-0.1,0-0.3-0.1-0.8-0.1c-0.1,0-0.2,0.2-0.2,0.3c-0.2,0.5-0.3,0.9-0.3,1.3c0.1,0.5,0.3,1,0.7,1.4
			c0.1,0.1,0.6,0.5,2.6,0.4c0.7,0,2.2-0.2,4.3-0.6c2.2-0.4,4.4-0.7,6.8-1.1c2.4-0.4,4.5-0.8,6.4-1.1c2.3-0.4,3.1-0.6,3.3-0.6
			l0.9-0.2l0.3,0.8c1.5,4,2.8,7.7,4,11c0.5,1.5,1,2.9,1.5,4.4c0.5,1.5,1,2.9,1.5,4.2c0.5,1.3,0.9,2.5,1.3,3.5c0.4,1,0.7,1.8,0.9,2.3
			c0.1,0.3,0.4,0.9,1.1,2.4c0.6,1.2,1.2,2.6,2,4.3c0.8,1.7,1.5,3.5,2.4,5.3c0.8,1.9,1.6,3.7,2.3,5.4c0.7,1.7,1.3,3.2,1.8,4.6
			c0.5,1.5,0.8,2.5,0.8,3.1c0,0.4,0,0.7,0,1.1c0,0.2,0,0.4,0,0.6l0,0.7C335.8,83,335.9,83.2,336,83.2L336,83.2z"/>
	</g>
	<g>
		<path class="st1" d="M371.6,83.7c-1.1,0-2.2-0.6-3.4-1.7c-1-1-2.1-2.4-3.2-4c-1.1-1.6-2.2-3.4-3.2-5.3c-1.1-2-2-3.9-2.9-5.7
			c-0.9-1.8-1.6-3.6-2.3-5.1c-0.6-1.6-1.1-2.8-1.4-3.6l-5.6-18.5c0-0.3,0-0.7,0.1-1.1c0.1-0.4,0.3-0.7,0.5-1c-0.2-0.5-0.3-1-0.3-1.5
			c-0.1-2.3,1-4.4,3.4-6.4c2.2-1.8,5-3.4,8.2-4.8c3.2-1.3,6.5-2.4,10-3.2s6.5-1.3,9-1.4c0.7,0,1.8,0,3.2,0c1.5,0,3,0.2,4.4,0.6
			c1.5,0.4,2.9,1,4,1.9c1.3,1,2,2.4,2.1,4.3c0.1,1.7-0.6,3.6-2.2,5.8c-1.4,2-3.2,4.1-5.4,6.4c-2.1,2.2-4.5,4.5-6.9,6.9
			c-2.4,2.3-4.7,4.6-6.8,6.9c-2.1,2.3-3.8,4.5-5.2,6.6c-1.3,2-1.9,3.7-1.8,5.2c0.1,1,0.6,1.9,1.5,2.7c1.1,0.9,2.5,1.7,4.2,2.3
			c1.7,0.7,3.6,1.2,5.7,1.7c2,0.4,4,0.8,5.9,1c1.8,0.3,3.4,0.4,4.8,0.5c1.8,0.1,2.3,0.1,2.4,0.1c0.9,0,2.5,0,4.8,0.1
			c2.3,0.1,4.7,0.4,7.1,0.8c2.4,0.4,4.6,1,6.6,1.8c2.2,0.9,3.4,2.2,3.5,4l0,0c0,0.7-0.2,1.4-0.6,2.1c-0.5,0.9-1.3,1.4-2.2,1.4
			c-0.5,0-1-0.1-1.6-0.3c-2.5-1-5.4-1.8-8.7-2.4c-3.4-0.6-6.9-1-10.4-1.4c-3.6-0.4-7.1-0.8-10.5-1.3c-2.3-0.3-4.5-0.8-6.4-1.3
			l0.9,1.1c0.4,0.5,0.7,0.9,0.9,1.3c0.3,0.5,0.5,1.2,0.5,2c0,0.9-0.3,1.6-1,2.1c-0.6,0.4-1.2,0.7-1.8,0.7
			C371.7,83.7,371.7,83.7,371.6,83.7z M351.6,39.5l5.5,18.1c0.2,0.8,0.7,2,1.3,3.5c0.6,1.5,1.4,3.2,2.2,5c0.9,1.8,1.8,3.7,2.8,5.6
			c1,1.9,2.1,3.7,3.1,5.2c1,1.5,2,2.7,3,3.7c0.8,0.8,1.5,1.2,2,1.1c0.2,0,0.4-0.1,0.7-0.3c0.1-0.1,0.2-0.2,0.2-0.4
			c0-0.6-0.1-0.9-0.2-1c-0.2-0.3-0.5-0.7-0.8-1.1l-1.2-1.4c-0.5-0.6-1-1.4-1.5-2.3l-1.2-2.3l2.4,0.9c2.5,0.9,5.4,1.6,8.8,2.1
			c3.3,0.5,6.8,0.9,10.4,1.3c3.5,0.4,7.1,0.8,10.5,1.4c3.5,0.6,6.5,1.4,9.2,2.5c0.3,0.1,0.5,0.2,0.7,0.2c0.2,0,0.4-0.1,0.6-0.4
			c0.2-0.4,0.3-0.8,0.3-1.1c0-0.3-0.1-1.4-2.3-2.2c-1.8-0.7-3.9-1.3-6.1-1.7c-2.3-0.4-4.6-0.6-6.8-0.7c-2.2-0.1-3.8-0.1-4.6-0.1
			c-0.2,0-0.7,0-2.6-0.1c-1.4-0.1-3.1-0.3-4.9-0.5c-1.9-0.3-3.9-0.6-6-1.1c-2.1-0.5-4.1-1-6-1.7c-1.9-0.7-3.5-1.6-4.8-2.6
			c-1.4-1.1-2.2-2.5-2.3-4.2c-0.1-2,0.6-4.1,2.1-6.4c1.4-2.2,3.2-4.5,5.4-6.8c2.1-2.3,4.5-4.7,6.9-7c2.4-2.3,4.8-4.6,6.9-6.8
			c2.1-2.2,3.8-4.2,5.2-6.2c1.3-1.8,1.9-3.3,1.8-4.5c-0.1-1.2-0.5-2.2-1.3-2.8c-0.9-0.7-2.1-1.3-3.3-1.6c-1.3-0.3-2.6-0.5-4-0.5
			c-1.4,0-2.4,0-3.1,0c-2.4,0.1-5.3,0.6-8.7,1.4c-3.4,0.8-6.7,1.9-9.7,3.1c-3,1.3-5.6,2.8-7.7,4.5c-1.9,1.6-2.8,3.1-2.7,4.8
			c0,0.5,0.2,0.9,0.4,1.3l0.4,0.7l-0.6,0.5c-0.3,0.3-0.4,0.5-0.4,0.6C351.7,39.2,351.6,39.4,351.6,39.5z M361.7,60.8l-0.8-1.6
			c-0.6-1.3-1.4-3-2.1-5c-0.8-2.1-1.5-4.2-2.2-6.3c-0.7-2.1-1.3-4-1.8-5.7c-0.7-2.3-0.8-3.1-0.8-3.4c-0.5-0.4-0.7-0.8-0.7-1.1
			c-0.1-1.3,0.7-2.6,2.3-3.9c1.4-1.1,2.8-2.1,4.2-3.1c0.8-0.5,2-1.1,3.7-1.8c1.7-0.7,3.5-1.5,5.5-2.2c2-0.7,4-1.4,5.9-1.9
			c2-0.5,3.7-0.8,5.2-0.9c0.9,0,1.9,0,2.9,0c1,0.1,2,0.2,2.8,0.4c0.9,0.2,1.7,0.6,2.3,1c1,0.7,1.2,1.5,1.2,2c0.1,1.9-0.8,3.9-2.8,6
			c-1.8,1.9-4,4.1-6.7,6.6c-2.7,2.5-5.6,5.4-8.7,8.5c-3.1,3.1-6,6.8-8.6,11L361.7,60.8z M355.3,37.3c0.3,0.2,0.6,0.7,0.7,1.4
			c0,0.2,0.1,0.7,0.8,2.9c0.5,1.7,1.1,3.6,1.8,5.7c0.7,2.1,1.4,4.2,2.1,6.2c0.5,1.2,0.9,2.3,1.3,3.2c2.4-3.6,5.1-6.9,7.9-9.8
			c3.1-3.2,6.1-6.1,8.8-8.6c2.6-2.5,4.9-4.7,6.6-6.5c1.6-1.7,2.3-3.2,2.2-4.5v0c0-0.1,0-0.2-0.4-0.5c-0.4-0.3-1-0.5-1.7-0.7
			c-0.8-0.2-1.6-0.3-2.5-0.4c-0.9-0.1-1.8-0.1-2.7,0c-1.3,0.1-2.9,0.4-4.8,0.9c-1.9,0.5-3.8,1.1-5.8,1.9c-1.9,0.7-3.7,1.4-5.4,2.2
			c-1.6,0.7-2.8,1.3-3.5,1.7c-1.4,0.9-2.7,1.9-4.1,2.9C356,36,355.5,36.7,355.3,37.3z M355.3,37.6C355.3,37.6,355.3,37.6,355.3,37.6
			C355.3,37.6,355.3,37.6,355.3,37.6z"/>
	</g>
	<g>
		<path class="st1" d="M443.6,82c-0.9,0-1.6-0.2-2-0.6c-0.4-0.3-1-1-2.1-3.5c-0.8-1.7-1.7-3.8-2.6-6.1c-0.9-2.3-1.8-4.9-2.7-7.6
			c-0.7-2.3-1.4-4.5-2-6.6c-0.6,0.3-1.3,0.5-2.1,0.8c-1.3,0.5-2.7,0.9-4.1,1.3c-1.4,0.4-2.9,0.8-4.4,1.2c-0.4,2.7-0.7,5.1-0.9,7.1
			c-0.2,2.1-0.4,3.9-0.6,5.3c-0.2,1.5-0.5,2.6-0.9,3.4c-0.5,1-1.4,1.6-2.6,1.6c-0.6,0-1.5-0.2-2.4-1.3c-0.6-0.8-0.9-1.9-1-3.3
			c0-0.7,0.1-2.2,0.3-4.6c0.2-2.3,0.5-4.9,0.8-7.8c0.3-2.9,0.5-5.7,0.8-8.5c0.3-2.8,0.4-5,0.5-6.6c0-0.9,0.2-2.3,0.5-4.2
			c0.3-1.9,0.6-3.9,0.9-5.9c0.3-2,0.6-3.9,1-5.5c0.4-2.1,0.6-2.7,0.8-3c0.9-2.5,1.5-5.1,1.7-7.7c0.2-2.7,0.3-5.2,0.3-7.5
			c0.1-2.3,0.3-4.3,0.6-5.8c0.4-1.9,1.7-3,3.4-3.1c1.1-0.1,1.8,0.9,2,1.2c0.4,0.6,0.9,1.3,1.3,2.1c0.4,0.8,0.8,1.6,1,2.3
			c0.3,0.7,0.4,1.4,0.5,1.8c0.1,0.5,0.2,1.3,0.4,2.6c0.2,1.3,0.3,2.6,0.5,4.1c0.2,1.5,0.4,3,0.5,4.4c0.2,1.4,0.3,2.5,0.4,3.3
			c0.3,2.3,0.8,4.9,1.4,7.6c0.6,2.8,1.2,5.5,1.8,8c0.6,2.4,1.2,4.5,1.7,6.2c0.3,0.9,0.5,1.4,0.6,1.7c0.1,0,0.2-0.1,0.3-0.1
			c0.5-0.2,1.1-0.3,1.6-0.3c0.7,0,1.1,0.2,1.4,0.4c0.2,0.2,0.5,0.6,0.6,1.3c0,0.8-0.1,1.5-0.5,2c-0.3,0.4-0.6,0.8-1,1.1
			c-0.3,0.3-0.6,0.6-0.8,0.8c0,0.2,0.1,1,1.1,4l2,6.1c0.2,0.5,0.5,1.4,1.1,2.7l1.7,4.1c0.6,1.4,1.1,2.7,1.6,3.9
			c0.6,1.5,0.8,2.1,0.8,2.4c0.1,0.3,0.1,0.6,0.2,0.9l0,0.6c0.1,1-0.2,1.7-0.7,2.3c-0.5,0.5-1.3,0.7-2.5,0.8
			C443.9,82,443.8,82,443.6,82z M443,80c0,0,0.2,0.1,1,0.1c0.9,0,1.2-0.2,1.2-0.2c0,0,0.1-0.2,0.1-0.7l0-0.6c0-0.2,0-0.3-0.1-0.5
			l0-0.2c0-0.1-0.1-0.5-0.7-1.9c-0.5-1.2-1-2.5-1.6-3.9l-1.7-4.1c-0.6-1.3-0.9-2.3-1.1-2.9l-2-6.1c-1-3.1-1.2-4.1-1.2-4.5
			c0-0.6,0.2-1.1,0.6-1.5c0.2-0.2,0.5-0.5,0.8-0.8c0.3-0.3,0.5-0.5,0.7-0.9c0.1-0.1,0.2-0.3,0.2-0.6c-0.3,0-0.6,0.1-0.8,0.2
			c-0.5,0.2-1,0.3-1.4,0.3c-1,0-1.4-0.9-2.1-3.2c-0.5-1.7-1.1-3.8-1.7-6.3c-0.6-2.5-1.2-5.2-1.8-8c-0.6-2.8-1.1-5.5-1.4-7.8
			c-0.1-0.8-0.3-1.9-0.4-3.3c-0.2-1.4-0.4-2.9-0.5-4.4c-0.2-1.5-0.4-2.9-0.5-4.1c-0.2-1.6-0.3-2.2-0.4-2.4c-0.1-0.4-0.2-0.9-0.5-1.6
			c-0.2-0.7-0.5-1.4-0.9-2.1c-0.4-0.7-0.7-1.3-1.1-1.8c-0.2-0.2-0.3-0.3-0.4-0.4c-0.6,0-1.2,0.3-1.5,1.5c-0.3,1.4-0.5,3.2-0.6,5.4
			c-0.1,2.3-0.2,4.9-0.3,7.6c-0.2,2.8-0.8,5.6-1.8,8.4l-0.1,0.2c0,0-0.2,0.5-0.6,2.5c-0.3,1.6-0.7,3.4-1,5.4c-0.3,2-0.6,4-0.9,5.9
			c-0.3,1.9-0.4,3.2-0.5,4c-0.1,1.7-0.2,3.9-0.5,6.7c-0.3,2.8-0.5,5.7-0.8,8.5c-0.3,2.9-0.5,5.4-0.8,7.8c-0.3,2.8-0.3,3.9-0.3,4.3
			c0.1,1.3,0.4,2,0.6,2.3c0.4,0.5,0.6,0.5,0.7,0.5c0.6,0,0.8-0.3,0.9-0.5c0.3-0.6,0.5-1.5,0.7-2.8c0.2-1.4,0.4-3.2,0.6-5.3
			c0.2-2.2,0.5-4.8,1-7.8l0.1-0.6l0.6-0.2c1.7-0.5,3.4-1,5-1.4c1.3-0.4,2.7-0.8,4-1.3c1.3-0.4,2.3-0.8,3-1.2l1.1-0.6l0.3,1.2
			c0.7,2.4,1.5,4.9,2.3,7.6c0.9,2.7,1.8,5.2,2.6,7.5c0.9,2.3,1.7,4.3,2.5,6C442.3,79.3,442.8,79.8,443,80C443,80,443,80,443,80z
			 M421.5,55.9c-0.3,0-0.6-0.1-0.9-0.3c-0.2-0.2-0.4-0.5-0.5-1c0-0.5,0-1.5,0.1-2.9c0.1-1.4,0.2-2.9,0.4-4.7
			c0.2-1.8,0.4-3.6,0.6-5.6c0.2-1.9,0.4-3.7,0.6-5.4c0.2-1.7,0.3-3,0.5-4.1c0.1-1.4,0.2-1.6,0.2-1.7l-0.2-2.9c0-0.1,0-0.3,0.2-2
			c0.1-1.1,0.3-2.3,0.5-3.5c0.2-1.2,0.4-2.9,0.7-4.9l1-6.7l1,6.7c0.4,3.1,0.8,5.7,1.1,7.8l1,6.4c0.3,2.1,0.6,3.8,0.8,5.1
			c0.4,1.9,0.8,3.7,1.2,5.4c0.4,1.7,0.9,3.3,1.2,4.6c0.4,1.4,0.7,2.4,1,3.3c0.4,1.3,0.5,1.6,0.5,1.9c0,0.9-0.9,1.4-1.9,1.9
			c-0.9,0.4-2,0.8-3.2,1.2c-1.2,0.4-2.4,0.8-3.5,1.1C422.8,55.7,422,55.8,421.5,55.9L421.5,55.9C421.5,55.9,421.5,55.9,421.5,55.9z
			 M424.8,23.7c-0.1,0.6-0.1,1.1-0.2,1.6c-0.2,1.4-0.2,1.7-0.2,1.7l0.2,2.9c0,0.2,0,0.4-0.2,2c-0.1,1.1-0.3,2.5-0.5,4.1
			c-0.2,1.7-0.4,3.5-0.6,5.4c-0.2,1.9-0.4,3.8-0.6,5.5c-0.2,1.8-0.3,3.3-0.4,4.7c-0.1,0.9-0.1,1.6-0.1,2c0.3-0.1,0.8-0.2,1.4-0.3
			c1.1-0.3,2.2-0.6,3.3-1.1c1.2-0.4,2.2-0.8,3-1.2c0.3-0.1,0.5-0.2,0.6-0.3c-0.1-0.2-0.2-0.5-0.3-1c-0.3-0.9-0.6-2-1-3.4
			c-0.4-1.3-0.8-2.9-1.2-4.6c-0.4-1.7-0.9-3.6-1.2-5.6c-0.2-1.3-0.5-3-0.8-5.2l-1-6.4C424.9,24.4,424.8,24.1,424.8,23.7z"/>
	</g>
	<g>
		<path class="st1" d="M474.6,73.9c-1.4,0-2.3-1.5-2.6-1.9c-0.7-1.1-1.3-2.5-1.9-4.1c-0.6-1.6-1.2-3.3-1.7-5.1
			c-0.5-1.8-1-3.5-1.4-5.1c-0.4-1.6-0.7-2.9-1-3.9c-0.1-0.2-0.1-0.4-0.2-0.6c-0.1,0-0.3,0.1-0.5,0.2c-0.8,0.3-1.8,0.5-2.7,0.6
			c-0.9,0-1.8-0.3-2.4-1c-0.7-0.7-1-1.4-1-2.2c0-0.8,0.2-1.5,0.6-2.1c0.4-0.5,0.8-1,1.4-1.4c0.5-0.4,1.1-0.8,1.7-1.1
			c0.3-0.2,0.6-0.3,0.8-0.5L459.8,26c0-0.7,0.1-1.4,0.3-2.1c0.3-1,1.1-1.6,2.2-1.7c0.5,0,0.9,0.3,1.3,0.6c0.4-0.3,1-0.9,2-1.8
			c1.6-1.4,3.5-2.9,5.8-4.6c2.3-1.6,4.8-3.2,7.5-4.6c2.7-1.4,5.4-2.2,7.8-2.3c1.1-0.1,2.3,0.3,3.6,1.2c1.4,0.9,2.1,2,2.2,3.3
			c0,0.6-0.2,1.2-0.7,1.5l-0.7,0.5c-0.3,0.2-0.7,0.4-1.2,0.5l-0.2,0c-0.6,0-1.2,0-1.6,0c-0.4,0-0.8,0-1.3,0c-0.4,0-1.4,0.2-4.1,1.5
			c-2.2,1-4.5,2.2-6.8,3.6c-2.3,1.4-4.4,2.9-6.2,4.4c-2,1.7-2.4,2.7-2.4,3.2l1.6,6.9c0.4,1.8,0.8,3.4,1.2,4.9
			c0.1,0.3,0.1,0.6,0.2,0.8c0.1,0,0.1-0.1,0.2-0.2c0.8-0.6,1.7-1.2,3-2c1.2-0.7,2.4-1.5,3.8-2.4c1.4-0.9,2.8-1.6,4.1-2.3
			c1.3-0.7,2.6-1.3,3.7-1.8c1.2-0.5,2.2-0.8,2.9-0.8c0.7,0,1.3,0.1,1.8,0.3c0.4,0.2,1.1,0.7,1.2,2c0,0.8-0.5,1.6-1.7,2.7
			c-1,0.8-2.2,1.8-3.6,2.8c-1.4,1-3,2-4.6,3.1c-1.7,1.1-3.2,2.1-4.6,3.1c-1.4,0.9-2.6,1.8-3.5,2.5c-0.7,0.6-0.9,0.9-1,1
			c0,0.3,0.1,1,0.5,3c0.3,1.8,0.8,3.8,1.4,6c0.6,2.2,1.2,4.3,1.9,6.4c0.8,2.4,1.5,3.5,2,3.9c0.2,0.2,0.5,0.6,0.5,1.2
			c0,0.7-0.3,1.4-1,2.2c-0.7,0.8-1.4,1.1-2.1,1.2C474.7,73.9,474.7,73.9,474.6,73.9z M466.5,50.9c0.9,0,1,0.7,1.4,2.3
			c0.3,1,0.6,2.4,1,3.9c0.4,1.6,0.9,3.3,1.4,5c0.5,1.8,1.1,3.4,1.7,5c0.5,1.5,1.1,2.7,1.7,3.7c0.6,0.9,0.9,1,0.9,1
			c0.1,0,0.3-0.1,0.7-0.6c0.5-0.5,0.5-0.7,0.5-0.7c0,0,0,0,0,0c-0.9-1-1.6-2.5-2.4-4.6c-0.7-2.1-1.4-4.3-1.9-6.5
			c-0.6-2.2-1-4.3-1.4-6.1c-0.5-2.5-0.5-3.2-0.6-3.4c0-0.7,0.5-1.5,1.7-2.5c1-0.8,2.2-1.7,3.6-2.7c1.4-1,3-2,4.6-3.1
			c1.7-1.1,3.2-2.1,4.6-3.1c1.4-1,2.5-1.8,3.5-2.6c0.8-0.7,1-1,1-1.1c0-0.1-0.1-0.2-0.1-0.2c-0.3-0.1-0.5-0.2-0.9-0.2
			c-0.3,0-1,0.2-2.2,0.7c-1.1,0.5-2.2,1-3.5,1.7c-1.3,0.7-2.6,1.4-4,2.3c-1.4,0.8-2.7,1.6-3.8,2.3c-1.2,0.7-2.1,1.4-2.8,1.9
			c-1.1,0.8-1.3,1-1.5,1l-0.2,0.1l-0.2,0c-1,0.1-1.1-0.6-1.6-3c-0.3-1.4-0.7-3.1-1.1-4.9l-1.7-7.2l0-0.1c0-1.4,1-3,3.1-4.8
			c1.9-1.6,4.1-3.2,6.5-4.6c2.4-1.5,4.8-2.7,7-3.7c3.1-1.4,4.3-1.6,4.9-1.6c0.6,0,1.2,0,1.6,0c0.3,0,0.8,0,1.2,0
			c0.2-0.1,0.4-0.1,0.5-0.2l0.4-0.3c-0.1-0.6-0.5-1.1-1.3-1.6c-0.9-0.6-1.7-0.9-2.4-0.8c-2.1,0.1-4.5,0.8-7,2.1
			c-2.6,1.3-5,2.8-7.2,4.4c-2.2,1.6-4.1,3.1-5.6,4.4c-2.1,1.9-2.5,2.2-2.7,2.4l-0.2,0.2l-0.3,0c-0.6,0-1-0.4-1.4-0.7
			c0,0-0.1-0.1-0.1-0.1c-0.1,0-0.2,0.1-0.2,0.2c-0.1,0.5-0.2,0.9-0.2,1.3l4.1,20.4l-0.5,0.4c-0.4,0.3-1,0.7-1.5,1
			c-0.5,0.3-1,0.6-1.4,0.9c-0.4,0.3-0.7,0.7-1,1c-0.2,0.3-0.3,0.5-0.3,0.8c0,0.3,0.2,0.6,0.5,0.9c0.4,0.4,0.7,0.4,0.9,0.4
			c0.7,0,1.4-0.2,2.1-0.4C465.8,51,466.1,50.9,466.5,50.9C466.4,50.9,466.4,50.9,466.5,50.9z M475.9,70.7
			C475.9,70.7,475.9,70.7,475.9,70.7C475.9,70.7,475.9,70.7,475.9,70.7z M490.4,14.3C490.4,14.3,490.4,14.3,490.4,14.3l1-0.1
			L490.4,14.3z M490.5,14C490.5,14,490.5,14,490.5,14L490.5,14z"/>
	</g>
	<g>
		<path class="st1" d="M514.7,70.5c-1.1,0-2.2-0.5-3.2-1.5c-1-1-1.6-2.3-1.7-3.7c0-0.5,0-1.1,0.2-1.9c0.2-1.1,1-1.8,2.2-1.9
			c0.3,0,0.7,0,1.3,0c0.6,0.1,1.2,0.2,1.8,0.5c0.7,0.3,1.3,0.7,1.8,1.3c0.6,0.6,0.9,1.5,0.9,2.5l0,0c0,0.9-0.2,1.9-0.7,2.9
			c-0.7,1.5-1.8,1.8-2.5,1.8C514.8,70.5,514.7,70.5,514.7,70.5z M512.4,63.4c-0.1,0-0.1,0-0.2,0c-0.3,0-0.3,0.1-0.3,0.3
			c-0.2,0.7-0.2,1.2-0.2,1.4c0,0.9,0.4,1.7,1.1,2.4c0.6,0.7,1.3,1,1.9,0.9c0.1,0,0.5,0,0.8-0.7c0.3-0.7,0.5-1.3,0.5-1.9l0,0
			c0-0.5-0.2-1-0.4-1.3c-0.3-0.4-0.6-0.6-1-0.8c-0.4-0.2-0.9-0.3-1.3-0.3C512.9,63.5,512.7,63.4,512.4,63.4z M506.5,55.9
			c-0.4,0-0.9-0.1-1.4-0.7c-1.8-2.3-2.9-4.6-3.3-6.9c-0.4-2.2-0.7-3.9-0.8-5.2c-0.1-1.5,0-3.5,0.3-5.9c0.3-2.4,0.7-4.9,1.2-7.6
			c0.5-2.7,1.1-5.4,1.8-8c0.7-2.7,1.3-5,2-7.1l0.1-0.2l0.1-0.2c0.2-0.2,0.4-0.4,0.6-0.6c0.4-0.3,0.8-0.4,1.4-0.5
			c0.8,0,1.5,0.3,2,0.9c0.4,0.5,0.7,1,0.9,1.7c0.2,0.6,0.3,1.1,0.4,1.7c0.1,0.6,0.2,1.1,0.2,1.5c0,0.5,0,1.4-0.8,4.4
			c-0.5,2.1-1.1,4.5-1.7,7.1c-0.6,2.6-1.1,5.1-1.6,7.6c-0.5,2.4-0.6,4.3-0.6,5.6c0.1,1.4,0.2,2.6,0.4,3.5c0.2,0.9,0.4,1.6,0.6,2.2
			c0.2,0.6,0.4,1.1,0.5,1.6c0.2,0.5,0.3,1.2,0.4,1.9c0,0.9-0.2,1.7-0.6,2.3C508.3,55.5,507.5,55.8,506.5,55.9
			C506.6,55.9,506.6,55.9,506.5,55.9z M508.2,15.3c-0.6,1.9-1.3,4.2-1.9,6.7c-0.7,2.6-1.2,5.3-1.7,7.9c-0.5,2.6-0.9,5.1-1.2,7.5
			c-0.3,2.3-0.4,4.2-0.3,5.6c0.1,1.1,0.3,2.8,0.7,4.9c0.4,2,1.4,4,2.9,6c0.2,0,0.4-0.1,0.5-0.2c0.1-0.2,0.2-0.5,0.2-0.9
			c0-0.5-0.1-1-0.2-1.3c-0.2-0.5-0.4-1-0.6-1.6c-0.2-0.7-0.4-1.5-0.6-2.5c-0.2-1-0.3-2.2-0.4-3.8c-0.1-1.5,0.1-3.5,0.6-6.1
			c0.5-2.5,1-5,1.6-7.6c0.6-2.6,1.2-5,1.7-7.1c0.6-2.7,0.7-3.6,0.7-3.9v0c0-0.3-0.1-0.7-0.2-1.2c-0.1-0.5-0.2-1-0.4-1.5
			c-0.1-0.4-0.3-0.7-0.5-1c-0.1-0.1-0.2-0.2-0.4-0.1c-0.2,0-0.3,0.1-0.3,0.1C508.3,15.2,508.3,15.2,508.2,15.3z"/>
	</g>
</g>
</svg>
