<svg xmlns="http://www.w3.org/2000/svg" width="127.867" height="109.981" viewBox="0 0 127.867 109.981">
  <g id="Group_664" data-name="Group 664" transform="translate(-154.798 -115)">
    <path id="Path_1618" data-name="Path 1618" d="M223.042,137.243c.676,2.289-2.049,4.011-4.284,4.843l-8.391,3.121q2.4,3.114,4.79,6.23a10.272,10.272,0,0,1,2.257,4.116,3.527,3.527,0,0,1-1.792,3.982c-2.3.9-4.371-1.633-5.722-3.707-6.557-10.073-18.433-17.469-30.312-15.628-1.837.284-4.125.6-5.181-.926a3.05,3.05,0,0,1,.825-3.866A7.515,7.515,0,0,1,179.267,134a32.141,32.141,0,0,1,5.662-.174,9.681,9.681,0,0,0,4.338-.313c1.347-.571,2.376-2.212,1.707-3.514-.83-1.622.922-3.7,2.74-3.57a4.179,4.179,0,0,1,3.47,3.682,9.432,9.432,0,0,1-1.121,5.268l6.353,3.758c1.336.79,2.935,1.6,4.364,1l9.273-3.926a9.612,9.612,0,0,1,3.85-1.027A3.272,3.272,0,0,1,223.042,137.243Z" transform="translate(23.766 14.131)" fill="#0600ff"/>
    <path id="Path_1619" data-name="Path 1619" d="M235.821,224.275c-1.412,1.485-4.112.434-5.094-1.365s-.87-3.966-1.083-6a17.735,17.735,0,0,0-23.666-14.829c-8.758,3.165-19.554-1.172-23.688-9.516-.761-1.535-2.159-3.519-3.669-2.711-7.313,3.9-17.462,1.074-21.7-6.049s-1.893-17.393,5.022-21.963c4.121-2.723,4.673-8.387,5.962-13.154a32.617,32.617,0,0,1,26.744-23.265c4.367-.55,8.1-3.273,11.948-5.4,13.252-7.32,31.654-7.138,41.96,3.953,2,2.156,3.9,4.8,6.787,5.382a27.709,27.709,0,0,1,21.082,35.135c-1.591,5.293,3.286,10.1,5.259,15.263,3.065,8.024-1.416,17.355-8.241,22.57s-15.487,7.257-23.863,9.167c-2.188.5-3.121,3.107-3.286,5.347s-.009,4.7-1.378,6.481-5.027,1.561-5.134-.68a39.384,39.384,0,0,1,12.02-30.008c.987-.937,2.192-1.881,3.546-1.738,2.067.219,3.013,2.948,2.284,4.895s-2.49,3.277-4.067,4.633-3.141,3.051-3.224,5.127a77.87,77.87,0,0,0,14.3-5.767c3.747-1.962,7.494-4.4,9.51-8.116,2.859-5.275,1.391-12.232-2.66-16.657s-10.217-6.505-16.216-6.572c-2.588-.029-6.087-.421-6.391-2.989-.284-2.409,2.745-3.736,5.163-3.922a26.584,26.584,0,0,1,14.149,2.868c1,.517,1.917-.837,2.174-1.933A22.364,22.364,0,0,0,237.217,138.1c-1.931,1.141-4.382-1.445-3.848-3.624s2.8-3.479,4.973-4.024,4.494-.6,6.539-1.519c-10.418-8.877-26.849-9.756-38.157-2.045,2.309.66,4.812,1.459,6.136,3.461s.371,5.483-2.029,5.557a5.733,5.733,0,0,1-2.731-.942,23.721,23.721,0,0,0-34.694,19.729c2.051-1.112,4.19-2.248,6.519-2.376s4.906,1.076,5.588,3.306-1.573,5.007-3.767,4.215c-5.3-1.915-11,1.629-14.93,5.664-3.264,3.351-6.21,7.874-5.091,12.416,1.141,4.631,6.36,7.373,11.116,7.056s9.033-3,12.686-6.069,6.944-6.6,10.971-9.154a8.043,8.043,0,0,1,4.81-1.591c1.714.141,3.416,1.575,3.273,3.288-.119,1.429-1.371,2.461-2.523,3.318q-5.533,4.117-11.069,8.232c-3.409,2.535-2.5,8.369.848,10.984s8.026,2.707,12.212,1.982c10.521-1.828,20.151-8.011,30.826-8.286a4.72,4.72,0,0,1,2.7.514c1.837,1.172,1.358,4.206-.315,5.6s-3.98,1.658-6.129,2.018-4.479,1.018-5.68,2.834a24.9,24.9,0,0,1,11.293,23.015A4.331,4.331,0,0,1,235.821,224.275Z" transform="translate(0)" fill="#0600ff"/>
  </g>
</svg>
