<svg id="Group_581" data-name="Group 581" xmlns="http://www.w3.org/2000/svg" width="108.842" height="121.827" viewBox="0 0 108.842 121.827">
  <path id="Path_1815" data-name="Path 1815" d="M315.743,560.786c-1.777,15.3-15.972,26.577-19.2,41.632-.381,1.772-.729,3.783-2.232,4.792a6.406,6.406,0,0,1-3.61.726l-21.281.048a4.82,4.82,0,0,1-3.429-.883c-1.156-1.1-.919-2.958-.9-4.559.089-7.735-6.595-13.538-11.313-19.669-5.8-7.542-9.109-17.319-7.54-26.706,1.707-10.217,9.064-18.953,18.171-23.884,10.592-5.736,24-6.6,34.717-1.11s18.015,17.649,16.624,29.613M273.852,602.2l12.481.106c1.751.014,4-.342,4.373-2.052,1.806-8.252,7.014-15.26,11.5-22.422s8.455-15.338,7.335-23.71c-1-7.464-6.179-14.062-12.881-17.5a31.1,31.1,0,0,0-22-1.928,31.984,31.984,0,0,0-18.387,12.729,25.418,25.418,0,0,0-3.242,21.83c3.672,10.879,15.243,18.176,17.213,29.487.184,1.057.342,2.245,1.188,2.9A3.951,3.951,0,0,0,273.852,602.2Z" transform="translate(-228.623 -507.703)" fill="#0600ff"/>
  <path id="Path_1816" data-name="Path 1816" d="M279.515,574.268a2.609,2.609,0,0,1-1.36,4.856l-15.643-.207c-1.135-.016-2.44-.115-3.105-1.034-.788-1.085-.108-2.728,1.037-3.426a7.37,7.37,0,0,1,3.907-.712l12.476.035A5.243,5.243,0,0,1,279.515,574.268Z" transform="translate(-218.435 -472.065)" fill="#0600ff"/>
  <path id="Path_1817" data-name="Path 1817" d="M284.781,532.2l3.534-3.573c1.379-1.395,3.544-2.866,5.086-1.654,1.082.85,1.006,2.579.3,3.759a16.4,16.4,0,0,1-2.852,2.96c-1.168,1.149-2.14,2.567-3.61,3.295s-3.684.324-4.1-1.26C282.785,534.41,283.823,533.167,284.781,532.2Z" transform="translate(-199.948 -508.444)" fill="#0600ff"/>
  <path id="Path_1818" data-name="Path 1818" d="M244.18,532.987c-1.25-1.257-2.581-3.133-1.613-4.615a2.6,2.6,0,0,1,2.6-.958,6.223,6.223,0,0,1,2.6,1.308,21.929,21.929,0,0,1,4.573,4.691c.94,1.308,1.7,3.217.62,4.412a2.655,2.655,0,0,1-2.921.464,7.786,7.786,0,0,1-2.484-1.9Q245.869,534.688,244.18,532.987Z" transform="translate(-231.402 -507.791)" fill="#0600ff"/>
  <path id="Path_1819" data-name="Path 1819" d="M294.448,570.737c.235,1.871-2.257,3.042-4.054,2.473s-3.08-2.109-4.571-3.263a15.979,15.979,0,0,1-2.841-2.321,2.905,2.905,0,0,1-.409-3.4,2.728,2.728,0,0,1,2.88-.823,8.016,8.016,0,0,1,2.749,1.565l4.359,3.319A4.066,4.066,0,0,1,294.448,570.737Z" transform="translate(-200.629 -480.113)" fill="#0600ff"/>
  <path id="Path_1820" data-name="Path 1820" d="M277.856,581.371c-.437,1.765-2.786,2.063-4.6,1.986l-8.188-.34a7.687,7.687,0,0,1-3.208-.6,2.63,2.63,0,0,1-1.547-2.647c.336-1.761,2.668-2.124,4.463-2.084q4,.1,8,.188a8.007,8.007,0,0,1,3.481.607A2.74,2.74,0,0,1,277.856,581.371Z" transform="translate(-217.503 -469.03)" fill="#0600ff"/>
  <path id="Path_1821" data-name="Path 1821" d="M288.21,549.471c.494-1.466,2.348-1.855,3.886-2.006q3.585-.356,7.166-.708a8.2,8.2,0,0,1,3.65.191,2.8,2.8,0,0,1,1.972,2.783c-.253,1.8-2.514,2.383-4.32,2.56l-6.6.648a8.152,8.152,0,0,1-3.974-.271A2.8,2.8,0,0,1,288.21,549.471Z" transform="translate(-196.063 -492.941)" fill="#0600ff"/>
  <path id="Path_1822" data-name="Path 1822" d="M240.634,547.732l3.9-.319a8.105,8.105,0,0,1,3.242.173,2.447,2.447,0,0,1,.363,4.714,8.126,8.126,0,0,1-2.962.644l-3.6.317a8.161,8.161,0,0,1-3.468-.191,2.792,2.792,0,0,1-1.99-2.585C236.244,548.558,238.71,547.887,240.634,547.732Z" transform="translate(-236.116 -492.411)" fill="#0600ff"/>
  <path id="Path_1823" data-name="Path 1823" d="M268.117,516.316c1.549.115,2.349,1.9,2.6,3.44a16.5,16.5,0,0,1,.037,4.93c-.214,1.482-.952,3.224-2.443,3.357-1.763.158-2.732-2.006-2.951-3.762a23.107,23.107,0,0,1-.161-3.737C265.269,518.625,266.2,516.177,268.117,516.316Z" transform="translate(-213.728 -516.311)" fill="#0600ff"/>
  <path id="Path_1824" data-name="Path 1824" d="M244.39,575.386a2.764,2.764,0,0,1-.31-2.9,8.13,8.13,0,0,1,1.868-2.434l4.973-5.014a7.837,7.837,0,0,1,2.443-1.884,2.368,2.368,0,0,1,3.259,3.2,7.86,7.86,0,0,1-1.762,2.39q-2.409,2.52-4.819,5.042a8.126,8.126,0,0,1-2.576,2.05A2.777,2.777,0,0,1,244.39,575.386Z" transform="translate(-230.185 -480.415)" fill="#0600ff"/>
  <path id="Path_1825" data-name="Path 1825" d="M262.759,585.824c-.683-1.506.676-3.291,2.275-3.718a9.611,9.611,0,0,1,4.876.5c1.484.4,1.685,2.664.62,3.769a5.388,5.388,0,0,1-4.3,1.179C264.871,587.464,263.318,587.063,262.759,585.824Z" transform="translate(-215.73 -465.749)" fill="#0600ff"/>
  <path id="Path_1826" data-name="Path 1826" d="M265,543.13a17.464,17.464,0,0,0-7.894,10.794c-.389,1.638-.83,3.673-2.457,4.1a2.776,2.776,0,0,1-3.072-1.983,6.694,6.694,0,0,1,.223-3.957,25.825,25.825,0,0,1,11.259-14.668,6.991,6.991,0,0,1,3.033-1.165,2.889,2.889,0,0,1,2.788,1.349,3.113,3.113,0,0,1-.781,3.429A14.039,14.039,0,0,1,265,543.13Z" transform="translate(-224.367 -500.953)" fill="#0600ff"/>
  <path id="Path_1827" data-name="Path 1827" d="M274.834,563.451a3.116,3.116,0,0,1-.584-3.157,13.645,13.645,0,0,1,1.6-2.969,18.489,18.489,0,0,0,2.445-12.341,12.585,12.585,0,0,1-.317-3.224,2.937,2.937,0,0,1,1.728-2.544,2.765,2.765,0,0,1,2.944,1.089,6.748,6.748,0,0,1,1.122,3.123,27.051,27.051,0,0,1-3.146,17.431,7.083,7.083,0,0,1-2.372,2.749A2.93,2.93,0,0,1,274.834,563.451Z" transform="translate(-206.876 -498.751)" fill="#0600ff"/>
</svg>
