<?xml version="1.0" encoding="utf-8"?>
<!-- Generator: Adobe Illustrator 24.1.3, SVG Export Plug-In . SVG Version: 6.00 Build 0)  -->
<svg version="1.1" id="Laag_1" xmlns="http://www.w3.org/2000/svg" xmlns:xlink="http://www.w3.org/1999/xlink" x="0px" y="0px"
	 viewBox="0 0 88 48" style="enable-background:new 0 0 88 48;" xml:space="preserve">
<style type="text/css">
	.st0{fill:#0600FF;}
</style>
<path id="Path_1369" class="st0" d="M31.52,40.62c-3.24,1.65-6.9,2.26-10.5,1.73c-3.54-0.66-6.88-3.09-7.97-6.52
	c-0.86-3.2-0.13-6.61,1.97-9.17c2.1-2.51,4.85-4.39,7.95-5.44c1.12-0.27,2.14-0.89,2.9-1.76c0.31-0.54,0.53-1.12,0.66-1.73
	C29.36,7.55,39.91,1.6,50.08,4.43c4.33,1.21,8.1,3.9,10.65,7.62c0.58,0.85,1.35,1.87,2.36,1.69c5.42-0.78,10.67,2.23,12.74,7.3
	c1.83,5.13,0.24,10.86-3.97,14.33c-4.31,3.3-10.13,3.83-14.98,1.38c-5.58,6.82-15.23,8.7-22.95,4.46
	C33.19,40.77,32.3,40.26,31.52,40.62 M31.86,35.49c0.54-0.36,1.17-0.56,1.82-0.56c0.99,0.09,1.65,1.01,2.32,1.73
	c2.22,2.22,5.37,3.23,8.46,2.71c3.06-0.55,5.85-2.09,7.95-4.38c1.23-1.28,2.5-2.86,4.28-2.92c1.24-0.04,2.35,0.7,3.5,1.18
	c3.47,1.44,7.47,0.58,10.05-2.15c2.47-2.85,2.73-7,0.64-10.15c-2.26-3.04-6.36-4.04-9.76-2.39c-0.98,0.52-1.83,1.26-2.83,1.72
	c-0.99,0.55-2.19,0.52-3.16-0.07c-0.88-0.67-0.93-2.31,0.09-2.74c1.27-0.69,1.85-2.19,1.38-3.55c-0.5-1.31-1.43-2.42-2.64-3.14
	c-7.01-4.83-16.61-3.06-21.43,3.95c-0.98,1.42-1.71,2.99-2.17,4.65c1.27,1.19,3.2,1.22,4.82,1.87s2.96,2.84,1.7,4.03
	c-1.01,0.95-2.62,0.32-3.93-0.16c-5.17-1.78-10.9-0.15-14.37,4.07c-0.87,1-1.42,2.25-1.57,3.57c-0.19,3.09,3.06,5.51,6.15,5.61
	S29.13,36.95,31.86,35.49L31.86,35.49z"/>
<path id="Path_1430" class="st0" d="M13.59,17.39c1.04,0.63,1.37,1.98,0.74,3.01s-1.98,1.37-3.01,0.74
	c-1.02-0.62-1.36-1.95-0.75-2.99C11.2,17.14,12.53,16.8,13.59,17.39z"/>
<path id="Path_1431" class="st0" d="M79.3,14.33c0.54,0.53,0.7,1.33,0.41,2.02c-0.4,0.91-1.45,1.32-2.36,0.92
	c-0.91-0.4-1.32-1.45-0.92-2.36c0.4-0.91,1.45-1.32,2.36-0.92C78.98,14.08,79.15,14.19,79.3,14.33z"/>
<path id="Path_1432" class="st0" d="M79.49,22.99c-0.39-0.73-0.28-1.62,0.27-2.22c0.72-0.8,1.96-0.86,2.76-0.14
	c0.8,0.72,0.86,1.96,0.14,2.76c-0.72,0.8-1.96,0.86-2.76,0.14C79.74,23.37,79.6,23.19,79.49,22.99z"/>
<path id="Path_1433" class="st0" d="M80.19,29.56c0.99-0.43,2.14,0.03,2.56,1.02c0.43,0.99-0.03,2.14-1.02,2.56
	s-2.14-0.03-2.56-1.02c-0.02-0.06-0.05-0.11-0.07-0.17C78.83,30.99,79.29,29.98,80.19,29.56z"/>
<path id="Path_1434" class="st0" d="M6.31,40.92c0.19-0.97,1.13-1.6,2.09-1.41c0.61,0.12,1.12,0.55,1.33,1.14
	c0.34,0.93-0.13,1.95-1.06,2.29c-0.93,0.34-1.95-0.13-2.29-1.06C6.28,41.58,6.25,41.24,6.31,40.92z"/>
<path id="Path_1435" class="st0" d="M7.04,27.57c1.06-0.01,1.93,0.84,1.94,1.91c0.01,1.06-0.84,1.93-1.91,1.94
	c-1.01,0.01-1.85-0.77-1.93-1.77C5.1,28.55,5.94,27.63,7.04,27.57z"/>
</svg>
