<svg xmlns="http://www.w3.org/2000/svg" width="81.17" height="104.246" viewBox="0 0 81.17 104.246">
  <g id="Group_728" data-name="Group 728" transform="translate(-420.097 -652.337)">
    <path id="Path_2378" data-name="Path 2378" d="M427.8,746.428c.632-.939-.529-2.16-1.653-2.3s-2.288.263-3.386-.019c-2.573-.658-2.855-4.161-2.579-6.805q4.1-39.46,8.2-78.921c.142-1.37.362-2.888,1.435-3.751a5.282,5.282,0,0,1,3.255-.8l62.209-1.491c1.891-.045,4.09.05,5.221,1.569a6.025,6.025,0,0,1,.742,3.865l-2.777,80.039a13.257,13.257,0,0,1-1.12,5.892c-.958,1.776-3.064,3.108-4.99,2.5-1.442-.453-2.737,1.174-2.946,2.67s.14,3.084-.4,4.5c-1.105,2.892-4.97,3.282-8.063,3.19l-42.812-1.26c-2.8-.084-5.745-.211-8.11-1.7s-3.792-4.86-2.232-7.182m64.853-87.463q-29.031.274-58.042,1.522L426.8,735.134a2.561,2.561,0,0,0,.527,2.313,2.525,2.525,0,0,0,1.536.393l60.487,2.151a2.218,2.218,0,0,0,2.674-2.769q1.336-38.04,2.674-76.084a1.692,1.692,0,0,0-2.044-2.171m-9.412,88.343c-.824-1.079-2.367-1.217-3.723-1.264l-42.568-1.463c-1.614-.056-3.759.317-3.934,1.921-.194,1.774,2.219,2.48,4,2.523l41.969,1.025a6.436,6.436,0,0,0,2.9-.378A2.2,2.2,0,0,0,483.241,747.308Z" transform="translate(0 0)" fill="#0600ff"/>
    <path id="Path_2379" data-name="Path 2379" d="M463.3,693.58a3.07,3.07,0,0,1-1.99,3.1,8.962,8.962,0,0,1-3.915.436l-6.953-.257c-1.416-.052-3.073-.24-3.792-1.463-.76-1.291.1-3.049,1.407-3.785a8.561,8.561,0,0,1,4.39-.7l5.823.108C460.315,691.062,462.94,691.562,463.3,693.58Z" transform="translate(22.678 33.304)" fill="#0600ff"/>
    <path id="Path_2380" data-name="Path 2380" d="M445.417,695c-.73,1.135-2.285,1.323-3.632,1.4l-11.475.637a2.336,2.336,0,0,1-2.188-2.62,3.8,3.8,0,0,1,2.369-2.857,11.183,11.183,0,0,1,3.8-.706l5.018-.345a8.648,8.648,0,0,1,4.646.539C445.354,691.787,446.271,693.673,445.417,695Z" transform="translate(6.918 32.902)" fill="#0600ff"/>
    <path id="Path_2381" data-name="Path 2381" d="M446.738,674.057a9.068,9.068,0,0,1-1.407,4.683,3.642,3.642,0,0,1-4.349,1.357c-1.468-.757-1.685-3.311-.166-3.958,1.412-.6,1.826-2.408,1.765-3.941s-.388-3.149.255-4.541,2.862-2.1,3.671-.8a2.981,2.981,0,0,1,.33,1.433A40.485,40.485,0,0,1,446.738,674.057Z" transform="translate(16.99 11.946)" fill="#0600ff"/>
    <path id="Path_2382" data-name="Path 2382" d="M449.553,667.568a8.628,8.628,0,0,1-.127,4.1,2.459,2.459,0,0,1-.544,1.086,1.94,1.94,0,0,1-2.754-.4,4.882,4.882,0,0,1-.794-2.987,5.142,5.142,0,0,1,.527-2.79,2.052,2.052,0,0,1,2.447-.969A2.626,2.626,0,0,1,449.553,667.568Z" transform="translate(21.788 11.35)" fill="#0600ff"/>
    <path id="Path_2383" data-name="Path 2383" d="M438.271,680.522c-1.323-.62-2.154-2.063-3.531-2.547a1.565,1.565,0,0,1-.462-2.344,4.372,4.372,0,0,1,2.367-1.353c1.5-.468,3.543-.691,4.273.7A3.533,3.533,0,0,0,444.2,676.5c1.269-.019,2.529-.358,3.794-.259,1.649.129,3.239,1,4.877.764a8.512,8.512,0,0,0,3.157-1.469,5.444,5.444,0,0,1,3.276-1.072c1.163.116,2.292,1.217,2.007,2.352a3.025,3.025,0,0,1-.579,1.045c-1.386,1.849-3.242,3.759-5.551,3.667l-14.3-.557A6.654,6.654,0,0,1,438.271,680.522Z" transform="translate(11.965 18.636)" fill="#0600ff"/>
    <path id="Path_2384" data-name="Path 2384" d="M439.614,665.663c1.081.263,1.511,1.548,1.718,2.642a5.815,5.815,0,0,1-.019,3.131,2.177,2.177,0,0,1-2.469,1.474c-1.174-.363-1.509-1.836-1.634-3.058a5.9,5.9,0,0,1,.181-2.814A2.073,2.073,0,0,1,439.614,665.663Z" transform="translate(14.706 11.472)" fill="#0600ff"/>
    <path id="Path_2385" data-name="Path 2385" d="M435.034,659.3q19.877.355,39.733,1.491c1.286.075,2.708.213,3.574,1.165s.872,2.389.826,3.679q-.632,17.275-1.262,34.549c-.1,2.777-1.116,6.468-3.893,6.36l-39.927-1.565c-1.459-.056-3.073-.181-4.081-1.235-1.057-1.1-1.057-2.816-.991-4.342l1.478-35.034c.073-1.727.315-3.749,1.809-4.616a5.186,5.186,0,0,1,2.734-.451m35.844,40.21a2.428,2.428,0,0,0,.583-1.806q.57-14.147,1.14-28.291a1.869,1.869,0,0,0-2.177-2.4q-15.662-.64-31.322-1.284a2.654,2.654,0,0,0-1.426.2c-.783.442-.908,1.495-.943,2.391q-.528,13.6-1.058,27.2a2.516,2.516,0,0,0,2.937,3.235l30.565,1.12A2.415,2.415,0,0,0,470.878,699.514Z" transform="translate(7.678 6.011)" fill="#0600ff"/>
  </g>
</svg>
