<?xml version="1.0" encoding="utf-8"?>
<!-- Generator: Adobe Illustrator 24.1.3, SVG Export Plug-In . SVG Version: 6.00 Build 0)  -->
<svg version="1.1" id="Laag_1" xmlns="http://www.w3.org/2000/svg" xmlns:xlink="http://www.w3.org/1999/xlink" x="0px" y="0px"
	 viewBox="0 0 177.6 148.7" style="enable-background:new 0 0 177.6 148.7;" xml:space="preserve">
<style type="text/css">
	.st0{enable-background:new    ;}
	.st1{fill:#0600FF;}
</style>
<g class="st0">
	<g>
		<path class="st1" d="M29.1,36.9c0.1,0.5,0,1-0.2,1.5c-0.2,0.5-0.5,1.1-0.8,1.7c-0.3,0.6-0.7,1.1-1.1,1.6c-0.4,0.5-0.8,1-1.1,1.4
			c-0.8,0.9-1.7,1.8-2.6,2.7c-0.9,0.9-1.8,1.6-2.8,2.4c-1,0.7-2,1.3-3.1,1.8c-1.1,0.5-2.3,0.8-3.5,0.9c-3.8,0.5-5.9-1.2-6.3-5.1
			c0-0.4,0-1.1,0.2-2.3c0.2-1.1,0.4-2.4,0.7-3.9c0.3-1.5,0.7-3,1.2-4.6c0.5-1.6,1-3.1,1.5-4.5c0.5-1.4,1.1-2.5,1.7-3.4
			c0.6-0.9,1.1-1.4,1.7-1.5c0.4,0,0.7,0,0.9,0.3c0.2,0.2,0.3,0.5,0.4,0.7c0,0.2-0.2,0.7-0.6,1.4c-0.4,0.7-0.7,1.5-1.1,2.2
			c-0.1,0.1-0.2,0.3-0.3,0.6c-0.1,0.3-0.3,0.5-0.4,0.8c-0.2,0.3-0.3,0.6-0.5,1c-0.1,0.3-0.3,0.9-0.7,1.9c-0.3,1-0.7,2.2-1.1,3.6
			c-0.4,1.4-0.7,2.8-0.9,4.2c-0.2,1.4-0.3,2.7-0.2,3.7c0.1,0.6,0.3,1,0.6,1.3c0.3,0.3,0.6,0.5,1,0.7c0.4,0.1,0.8,0.2,1.2,0.2
			c0.4,0,0.8,0,1.1-0.1c1.3-0.2,2.6-0.6,3.9-1.3c1.4-0.7,2.6-1.7,3.8-2.7c1.2-1.1,2.3-2.3,3.2-3.7c1-1.4,1.7-2.7,2.1-4.1
			c0.1-0.3,0.2-0.4,0.4-0.5c0.1-0.1,0.3-0.1,0.4-0.2c0.3,0,0.5,0.1,0.8,0.5C28.9,36.4,29,36.7,29.1,36.9z"/>
	</g>
	<g>
		<path class="st1" d="M66.5,46.8c0,0.2,0,0.5-0.2,0.8c-0.1,0.3-0.4,0.5-0.7,0.5c-0.2,0-0.4,0-0.6-0.1c-1.3-0.4-2.8-0.7-4.5-0.9
			c-1.7-0.2-3.4-0.3-5.2-0.3c-1.8-0.1-3.5-0.2-5.2-0.3c-1.7-0.1-3.2-0.4-4.5-0.7c0.3,0.4,0.5,0.8,0.8,1c0.2,0.2,0.4,0.5,0.6,0.7
			c0.2,0.2,0.3,0.4,0.5,0.5c0.1,0.2,0.2,0.4,0.2,0.7c0,0.3,0,0.5-0.2,0.7c-0.2,0.2-0.4,0.3-0.6,0.3c-0.4,0.1-0.9-0.2-1.4-0.6
			c-0.5-0.5-1.1-1.1-1.7-1.8c-0.6-0.7-1.2-1.6-1.7-2.5S41,42.9,40.5,42c-0.5-0.9-0.9-1.7-1.3-2.4c-0.4-0.7-0.6-1.3-0.8-1.7l-3.4-8.8
			c0-0.1,0-0.2,0-0.4c0-0.2,0.1-0.4,0.3-0.6c-0.2-0.3-0.3-0.5-0.3-0.9c-0.1-1,0.3-1.9,1.3-2.9c1-0.9,2.3-1.8,3.8-2.5
			c1.5-0.8,3.1-1.4,4.8-1.9c1.7-0.5,3.1-0.9,4.3-1c0.3,0,0.9-0.1,1.6-0.1c0.7,0,1.4,0,2.1,0.1c0.7,0.1,1.3,0.4,1.9,0.7
			c0.6,0.4,0.9,0.9,1,1.7c0.1,0.7-0.2,1.6-0.8,2.6c-0.6,1-1.4,2.1-2.4,3.3c-1,1.2-2,2.4-3.2,3.6c-1.1,1.2-2.2,2.5-3.2,3.7
			c-1,1.2-1.8,2.4-2.4,3.5c-0.6,1.1-0.9,2.1-0.8,2.9c0.1,0.7,0.4,1.2,1.1,1.6c0.6,0.4,1.4,0.8,2.3,1.1c0.9,0.3,1.9,0.5,2.9,0.6
			c1,0.2,2,0.3,3,0.3c0.9,0.1,1.7,0.1,2.4,0.1c0.7,0,1.1,0,1.2,0c0.4-0.1,1.2-0.1,2.3-0.1c1.1,0,2.3,0,3.4,0.1
			c1.2,0.1,2.2,0.3,3.2,0.6C65.9,45.7,66.4,46.1,66.5,46.8z M53.4,21.7c0-0.2-0.2-0.4-0.4-0.6c-0.3-0.2-0.6-0.3-1-0.3
			c-0.4-0.1-0.9-0.1-1.3-0.1c-0.5,0-0.9,0-1.4,0.1c-0.7,0.1-1.5,0.3-2.4,0.6c-0.9,0.3-1.9,0.7-2.8,1.1c-0.9,0.4-1.8,0.8-2.6,1.3
			c-0.8,0.4-1.4,0.7-1.7,1c-0.7,0.5-1.3,1-2,1.6c-0.6,0.6-0.9,1.1-0.9,1.6c0,0.1,0.1,0.1,0.2,0.2c0.1,0.1,0.2,0.2,0.2,0.3
			c0,0.2,0.2,0.7,0.5,1.5c0.3,0.8,0.7,1.7,1.1,2.8c0.4,1,0.8,2,1.3,3c0.5,1,0.9,1.8,1.2,2.4c1.2-2.2,2.5-4.1,3.9-5.8
			c1.5-1.7,2.8-3.2,4-4.5c1.2-1.3,2.3-2.5,3.1-3.5C53.1,23.4,53.4,22.5,53.4,21.7z"/>
	</g>
	<g>
		<path class="st1" d="M79.8,24.3c0,0.1,0.1,0.1,0.1,0.1c0,0,0.1,0.1,0.1,0.1c0,0.2-0.4,0.6-1.2,1.3c-0.8,0.7-1.8,1.4-3,2.3
			c-1.2,0.9-2.4,1.7-3.8,2.6c-1.3,0.9-2.5,1.6-3.6,2.2c0,0.1,0,0.3,0,0.7c0,0.4,0,0.6,0,0.7l0.1,1c0.1,0.8,0.3,1.6,0.6,2.3
			c0.3,0.7,0.8,1.4,1.4,2c0.6,0.6,1.2,1,2,1.3c0.8,0.3,1.6,0.4,2.6,0.3c0.4,0,0.9-0.2,1.5-0.4c0.6-0.2,1.1-0.5,1.7-0.9
			c0.5-0.4,1-0.8,1.4-1.2c0.4-0.5,0.6-1,0.7-1.5c0.4,0,0.7,0.1,0.8,0.3c0.1,0.2,0.2,0.3,0.2,0.4c0.1,0.9,0,1.7-0.4,2.4
			c-0.4,0.7-0.8,1.3-1.4,1.7c-0.6,0.5-1.2,0.8-1.9,1.1s-1.3,0.4-1.8,0.5c-3,0.4-5.2-0.2-6.8-1.7c-1.5-1.5-2.5-3.6-2.8-6.3
			c0-0.1,0-0.5,0-0.9c0-0.5,0-0.8,0-1c0,0-0.1-0.1-0.2-0.1c-0.1,0-0.3-0.1-0.5-0.1c-0.2,0-0.3-0.1-0.5-0.3C65,33,65,32.8,64.9,32.5
			s0-0.5,0.2-0.7c0.2-0.2,0.4-0.4,0.7-0.6l0.5-0.4c0.2-1.3,0.4-2.7,0.6-3.9c0.3-1.3,0.7-2.6,1.2-3.9c-0.3,0-0.6,0-0.9,0
			c-0.3,0-0.5-0.3-0.6-0.7c-0.1-0.5,0.2-1,0.7-1.7c0.5-0.7,1.1-1.3,1.8-1.9c0.7-0.6,1.4-1.1,2-1.6c0.7-0.4,1.2-0.7,1.5-0.7
			c0.1,0,0.2,0,0.3,0c0.1,0,0.2,0.1,0.3,0c0.3,0,0.6-0.1,1-0.3c0.4-0.2,0.9-0.3,1.3-0.5c0.5-0.2,0.9-0.4,1.3-0.5
			c0.4-0.2,0.8-0.3,1-0.3c0.3,0,0.6,0,0.7,0.2c0.2,0.2,0.3,0.4,0.3,0.6c0,0.3-0.1,0.5-0.4,0.7c-0.3,0.2-0.6,0.3-0.9,0.4
			c-0.9,0.3-1.9,0.7-2.9,1.3c-1,0.6-1.9,1.1-2.7,1.8c-0.3,0.4-0.6,1-1,1.8c-0.4,0.8-0.8,1.6-1.1,2.6c-0.3,0.9-0.6,1.9-0.9,2.9
			c-0.2,1-0.4,1.9-0.4,2.8l0.8-0.5c2.5-1.6,4.5-2.9,6.1-3.8c1.6-0.9,2.8-1.4,3.8-1.6C79.5,24.1,79.6,24.2,79.8,24.3z"/>
	</g>
	<g>
		<path class="st1" d="M105.4,42c0,0.1,0.1,0.3,0.1,0.4c0,0.1,0,0.2,0,0.3c0,0.3,0,0.6-0.1,0.8c-0.1,0.2-0.4,0.3-0.9,0.3
			c-0.4,0.1-0.7,0-0.9-0.1c-0.2-0.2-0.6-0.7-1-1.5c-0.4-0.8-0.9-1.8-1.5-2.9c-0.5-1.1-1-2.3-1.6-3.6c-0.5-1.3-1-2.5-1.4-3.7
			c-0.4,0.2-0.9,0.5-1.5,0.7c-0.6,0.3-1.3,0.5-1.9,0.8c-0.8,0.3-1.6,0.6-2.4,0.9c-0.1,1.5-0.2,2.8-0.2,3.9c0,1.1-0.1,1.9-0.1,2.6
			c0,0.7-0.1,1.2-0.3,1.6c-0.2,0.4-0.4,0.6-0.8,0.6c-0.3,0-0.5-0.1-0.8-0.4c-0.2-0.3-0.4-0.7-0.5-1.4c0-0.3,0-1,0-2.2
			c0-1.2,0.1-2.4,0.1-3.9c0-1.4,0.1-2.8,0.1-4.2c0-1.4,0-2.5,0-3.3c0-0.4,0-1.1,0.1-2.1c0.1-1,0.2-1.9,0.2-2.9
			c0.1-1,0.2-1.9,0.3-2.7c0.1-0.8,0.2-1.3,0.3-1.4c0.4-1.3,0.6-2.7,0.6-4.1c0-1.4,0-2.6-0.1-3.7c0-1.1,0-2.1,0.1-2.8
			c0.1-0.7,0.5-1.1,1.2-1.2c0.2,0,0.4,0.1,0.6,0.3c0.2,0.3,0.4,0.6,0.7,0.9C94,8.3,94.1,8.6,94.3,9c0.1,0.3,0.2,0.6,0.3,0.8
			c0.1,0.2,0.2,0.6,0.3,1.2c0.1,0.6,0.3,1.3,0.4,2c0.1,0.7,0.3,1.5,0.4,2.1c0.1,0.7,0.2,1.2,0.3,1.6c0.2,1.1,0.6,2.4,1,3.8
			c0.4,1.4,0.8,2.7,1.2,3.9c0.4,1.2,0.7,2.2,1,3c0.3,0.8,0.5,1.2,0.6,1.2c0.1,0,0.3-0.1,0.5-0.2c0.2-0.1,0.4-0.2,0.6-0.2
			c0.3,0,0.4,0.1,0.5,0.4s0,0.5-0.1,0.7c-0.1,0.2-0.2,0.4-0.4,0.5c-0.1,0.2-0.3,0.3-0.4,0.4c-0.1,0.1-0.2,0.2-0.1,0.4
			c0,0.3,0.3,1,0.7,2.1l1.2,2.9c0.1,0.3,0.3,0.7,0.6,1.3c0.3,0.6,0.7,1.3,1,1.9c0.3,0.7,0.7,1.3,0.9,1.9
			C105.2,41.5,105.3,41.8,105.4,42z M92.5,31.6c0.2,0,0.6-0.1,1.1-0.3c0.5-0.2,1.1-0.4,1.7-0.6c0.6-0.2,1.1-0.5,1.5-0.7
			c0.4-0.2,0.6-0.4,0.6-0.5c0-0.1-0.1-0.4-0.3-0.8c-0.2-0.4-0.4-0.9-0.6-1.6c-0.2-0.7-0.5-1.4-0.8-2.2c-0.3-0.8-0.5-1.7-0.8-2.7
			c-0.1-0.6-0.3-1.4-0.6-2.5c-0.2-1.1-0.5-2.1-0.7-3.1c-0.2-1-0.5-2.3-0.8-3.8c-0.1,1-0.2,1.8-0.2,2.5c0,0.6-0.1,1.2-0.1,1.7
			c0,0.5,0,0.8,0,0.9l0.2,1.4c0,0.1,0,0.4,0,0.9c0,0.5-0.1,1.2-0.1,2.1c0,0.8-0.1,1.7-0.1,2.7c0,1-0.1,1.9-0.1,2.8
			c0,0.9-0.1,1.7-0.1,2.3c0,0.7,0,1.1,0,1.4C92.3,31.5,92.4,31.6,92.5,31.6z"/>
	</g>
	<g>
		<path class="st1" d="M137.7,7c0,0.2,0,0.4-0.2,0.6c-0.2,0.2-0.3,0.3-0.5,0.3c-0.3,0-0.8,0.1-1.5,0.3c-0.7,0.2-1.4,0.3-2.1,0.5
			c-0.8,0.2-1.5,0.4-2.2,0.5c-0.7,0.2-1.3,0.3-1.8,0.4c-0.1,0-0.4,0.1-0.8,0.2c-0.4,0.1-0.9,0.2-1.4,0.3c-0.5,0.1-1.1,0.2-1.6,0.4
			c-0.5,0.1-0.9,0.2-1.2,0.3c-0.4,0.1-0.9,0.3-1.6,0.6c-0.7,0.3-1.3,0.5-1.9,0.8c-0.2,0.1-0.4,0.2-0.5,0.2c-0.2,0.1-0.3,0.1-0.4,0.2
			c-0.1,0.1-0.3,0.1-0.3,0.1l4,9.5c0.1,0.3,0.4,0.8,0.7,1.4c0.3,0.7,0.7,1.4,1.1,2.2c0.4,0.8,0.9,1.6,1.3,2.5
			c0.5,0.9,0.9,1.6,1.3,2.4c0.2,0.4,0.5,1,0.8,1.6c0.3,0.6,0.6,1.3,0.8,1.9s0.5,1.2,0.7,1.8c0.2,0.5,0.3,0.9,0.3,1.1
			c0.1,0.5,0,1-0.2,1.6c-0.2,0.6-0.5,0.9-1,0.9c-0.4,0-0.7-0.2-0.7-0.8l0-0.4c0-0.1,0-0.2,0-0.4c0-0.1,0-0.3,0-0.5
			c0-0.3-0.2-0.7-0.5-1.4c-0.3-0.6-0.6-1.4-1.1-2.2c-0.4-0.8-0.9-1.7-1.3-2.6c-0.5-0.9-0.9-1.8-1.4-2.6c-0.4-0.8-0.8-1.5-1.1-2.1
			c-0.3-0.6-0.5-1-0.6-1.2c-0.1-0.3-0.3-0.6-0.5-1.1c-0.2-0.5-0.5-1.1-0.8-1.7c-0.3-0.6-0.6-1.3-0.9-2c-0.3-0.7-0.6-1.4-0.9-2.1
			c-0.7-1.6-1.5-3.4-2.4-5.3c-0.2,0.1-0.7,0.2-1.6,0.4s-2,0.5-3.1,0.8c-1.2,0.3-2.3,0.5-3.3,0.8c-1.1,0.3-1.8,0.4-2.1,0.4
			c-0.9,0.1-1.4,0-1.7-0.2c-0.3-0.2-0.5-0.6-0.5-1c0-0.3,0-0.6,0.1-0.9c0.1-0.3,0.3-0.5,0.5-0.5c0.3,0,0.5,0,0.7,0.1
			c0.2,0.1,0.4,0.1,0.6,0.1c0.1,0,0.4-0.1,1-0.2c0.6-0.1,1.4-0.3,2.2-0.5c0.9-0.2,1.8-0.4,2.7-0.6c0.9-0.2,1.8-0.4,2.5-0.6
			c0.2,0,0.4-0.1,0.5-0.1c0.2,0,0.4-0.1,0.5-0.1c0.2-0.1,0.3-0.1,0.5-0.1c0-0.1,0-0.3,0.1-0.7c0.1-0.4,0.2-0.6,0.3-0.6
			c0.3,0,0.6,0.1,0.9,0.3c0.3,0.2,0.5,0.4,0.7,0.5c0.2-0.1,0.6-0.2,1.1-0.4s1-0.4,1.6-0.5c0.6-0.2,1.1-0.3,1.6-0.5
			c0.5-0.1,1-0.3,1.3-0.3l6-1.1c0.5-0.1,1.1-0.2,1.8-0.3c0.7-0.1,1.3-0.3,2-0.4c0.6-0.1,1.2-0.3,1.7-0.4c0.5-0.1,0.8-0.2,1-0.2
			c0.3,0,0.6,0.1,0.9,0.2C137.6,6.6,137.7,6.8,137.7,7z"/>
	</g>
	<g>
		<path class="st1" d="M150.4,15.7c0,0.1,0.1,0.1,0.1,0.1c0,0,0.1,0.1,0.1,0.1c0,0.2-0.4,0.6-1.2,1.3c-0.8,0.7-1.8,1.4-3,2.3
			c-1.2,0.9-2.4,1.7-3.8,2.6c-1.3,0.9-2.5,1.6-3.6,2.2c0,0.1,0,0.3,0,0.7c0,0.4,0,0.6,0,0.7l0.1,1c0.1,0.8,0.3,1.6,0.6,2.3
			c0.3,0.7,0.8,1.4,1.4,2c0.6,0.6,1.2,1,2,1.3c0.8,0.3,1.6,0.4,2.6,0.3c0.4-0.1,0.9-0.2,1.5-0.4c0.6-0.2,1.1-0.5,1.7-0.9
			s1-0.8,1.4-1.2c0.4-0.5,0.6-1,0.7-1.5c0.4,0,0.7,0.1,0.8,0.3c0.1,0.2,0.2,0.3,0.2,0.4c0.1,0.9,0,1.7-0.4,2.4
			c-0.4,0.7-0.8,1.3-1.4,1.7c-0.6,0.5-1.2,0.8-1.9,1.1c-0.7,0.3-1.3,0.4-1.8,0.5c-3,0.4-5.2-0.2-6.8-1.7c-1.5-1.5-2.5-3.6-2.8-6.3
			c0-0.1,0-0.5,0-0.9c0-0.5,0-0.8,0-1c0,0-0.1-0.1-0.2-0.1c-0.1,0-0.3-0.1-0.5-0.1c-0.2,0-0.3-0.1-0.5-0.3c-0.1-0.1-0.2-0.3-0.3-0.6
			s0-0.5,0.2-0.7c0.2-0.2,0.4-0.4,0.7-0.6l0.5-0.4c0.2-1.3,0.4-2.7,0.7-3.9c0.3-1.3,0.7-2.6,1.2-3.9c-0.3,0-0.6,0-0.9,0
			c-0.3,0-0.5-0.3-0.6-0.7c-0.1-0.5,0.2-1,0.7-1.7c0.5-0.7,1.1-1.3,1.8-1.9c0.7-0.6,1.4-1.1,2-1.6c0.7-0.4,1.2-0.7,1.5-0.7
			c0.1,0,0.2,0,0.3,0c0.1,0,0.2,0.1,0.3,0c0.3,0,0.6-0.1,1-0.3c0.4-0.2,0.9-0.3,1.3-0.5c0.5-0.2,0.9-0.4,1.3-0.5
			c0.4-0.2,0.8-0.3,1-0.3c0.3,0,0.6,0,0.7,0.2c0.2,0.2,0.3,0.4,0.3,0.6c0,0.3-0.1,0.5-0.4,0.7c-0.3,0.2-0.6,0.3-0.9,0.4
			c-0.9,0.3-1.9,0.7-2.9,1.3c-1,0.6-1.9,1.1-2.7,1.8c-0.3,0.4-0.6,1-1,1.8c-0.4,0.8-0.8,1.6-1.1,2.6c-0.3,0.9-0.6,1.9-0.9,2.9
			c-0.2,1-0.4,1.9-0.4,2.8l0.8-0.5c2.5-1.6,4.5-2.9,6.1-3.8c1.6-0.9,2.8-1.4,3.8-1.6C150,15.6,150.2,15.6,150.4,15.7z"/>
	</g>
</g>
<g class="st0">
	<g>
		<path class="st1" d="M12.8,52.5c-3.8,0-6.2-2.3-6.7-6.5c0-0.4-0.1-1,0.2-2.7c0.2-1.2,0.4-2.5,0.7-4c0.3-1.5,0.7-3.1,1.2-4.7
			c0.5-1.7,1-3.2,1.5-4.6c0.6-1.5,1.2-2.7,1.8-3.7c0.8-1.3,1.8-2,2.8-2.2c0.8-0.1,1.6,0.1,2.1,0.7c0.5,0.5,0.7,1,0.8,1.6l0,0.1
			l0,0.1c0,0.4-0.1,0.9-0.7,2c-0.4,0.7-0.8,1.5-1.2,2.2c0,0.1-0.2,0.3-0.3,0.6l-0.4,0.8c-0.2,0.3-0.3,0.6-0.5,0.9
			c0,0.1-0.2,0.5-0.6,1.7c-0.3,1-0.7,2.2-1,3.5c-0.3,1.3-0.6,2.7-0.9,4.1c-0.2,1.3-0.3,2.4-0.2,3.3c0,0.3,0.1,0.4,0.1,0.5
			c0.1,0.1,0.3,0.2,0.4,0.3c0.2,0.1,0.5,0.1,0.7,0.1c0.3,0,0.6,0,0.9,0c1.1-0.1,2.2-0.5,3.4-1.2c1.2-0.7,2.4-1.5,3.5-2.5
			c1.1-1,2.1-2.2,3-3.4c0.9-1.2,1.5-2.5,1.9-3.7l0-0.1c0.2-0.6,0.6-1,1-1.2c0.3-0.2,0.7-0.3,1-0.4c0.5-0.1,1.4,0,2.2,1.1
			c0.4,0.6,0.6,1.1,0.7,1.6l0,0c0.1,0.7,0,1.5-0.3,2.2c-0.2,0.6-0.5,1.3-0.9,1.9c-0.4,0.6-0.7,1.2-1.2,1.8c-0.4,0.5-0.8,1-1.2,1.4
			c-0.9,1-1.8,1.9-2.7,2.8c-0.9,0.9-1.9,1.7-3,2.5c-1.1,0.8-2.2,1.4-3.4,2c-1.2,0.5-2.5,0.9-3.9,1.1C13.7,52.5,13.2,52.5,12.8,52.5z
			"/>
	</g>
	<g>
		<path class="st1" d="M46.8,51.2c-0.8,0-1.5-0.3-2.3-1c-0.6-0.5-1.2-1.2-1.9-2c-0.6-0.8-1.2-1.6-1.8-2.6c-0.6-1-1.2-1.9-1.7-2.8
			c-0.5-0.9-0.9-1.7-1.3-2.5c-0.4-0.8-0.7-1.4-0.8-1.8l-3.5-9.2c0-0.3,0-0.5,0-0.9c0-0.1,0.1-0.3,0.1-0.4c-0.1-0.2-0.1-0.4-0.1-0.6
			c-0.2-1.5,0.4-2.9,1.8-4.1c1.1-1,2.5-2,4.1-2.8c1.6-0.8,3.3-1.5,5-2c1.8-0.5,3.3-0.9,4.6-1.1c0.4,0,0.9-0.1,1.7-0.1
			c0.8,0,1.6,0,2.4,0.2c0.9,0.2,1.7,0.5,2.4,1c0.9,0.6,1.5,1.6,1.6,2.8c0.1,1.1-0.2,2.2-1,3.6c-0.7,1.1-1.5,2.2-2.5,3.5
			c-1,1.2-2.1,2.4-3.2,3.7c-1.1,1.2-2.2,2.4-3.1,3.6c-0.9,1.1-1.7,2.3-2.2,3.3c-0.5,0.8-0.7,1.5-0.6,2c0,0.1,0,0.3,0.4,0.6
			c0.5,0.3,1.1,0.6,1.9,0.9c0.8,0.3,1.7,0.4,2.7,0.6c1,0.1,2,0.3,2.9,0.3c0.9,0.1,1.7,0.1,2.3,0.1c0.6,0,0.9,0,1.1,0
			c0.5-0.1,1.3-0.1,2.5-0.1c1.2,0,2.4,0,3.6,0.1c1.3,0.1,2.5,0.4,3.5,0.7c2,0.7,2.5,2,2.6,2.7l0,0c0.1,0.5,0,1.1-0.3,1.6
			c-0.4,0.8-1,1.3-1.9,1.4c-0.4,0.1-0.8,0-1.3-0.2c-1.2-0.4-2.6-0.7-4.1-0.8c-1.6-0.2-3.4-0.3-5.1-0.3c-1.8-0.1-3.5-0.2-5.3-0.3
			c-0.3,0-0.6-0.1-0.9-0.1c0.1,0.2,0.1,0.4,0.1,0.6c0.1,0.8-0.2,1.5-0.7,2c-0.4,0.4-0.9,0.6-1.4,0.6C47,51.1,46.9,51.2,46.8,51.2z
			 M46.9,48.2L46.9,48.2L46.9,48.2z M38.7,28.3c0,0,0.1,0.3,0.4,1.2c0.3,0.8,0.7,1.7,1.1,2.7c0.4,0.9,0.8,1.9,1.2,2.8
			c0.8-1.3,1.7-2.5,2.7-3.6c1.4-1.7,2.8-3.2,4.1-4.6c1.2-1.3,2.2-2.4,3-3.4c0.4-0.4,0.6-0.8,0.7-1.2c-0.1,0-0.1,0-0.2,0
			c-0.3-0.1-0.7-0.1-1-0.1c-0.4,0-0.8,0-1.2,0.1c-0.6,0.1-1.3,0.3-2.1,0.5c-0.9,0.3-1.8,0.7-2.7,1.1c-0.9,0.4-1.8,0.8-2.5,1.2
			c-0.9,0.5-1.3,0.7-1.5,0.9c-0.6,0.4-1.2,1-1.8,1.5c-0.1,0.1-0.1,0.1-0.2,0.2C38.6,27.9,38.7,28.1,38.7,28.3
			C38.7,28.3,38.7,28.3,38.7,28.3z M37.7,26.8C37.7,26.8,37.7,26.8,37.7,26.8C37.7,26.8,37.7,26.8,37.7,26.8z"/>
	</g>
	<g>
		<path class="st1" d="M74.3,45.1c-2.6,0-4.6-0.7-6.2-2.2c-1.8-1.7-2.9-4.1-3.2-7.2c0-0.1,0-0.4,0-1.1c-0.3-0.1-0.5-0.3-0.7-0.5
			c-0.4-0.4-0.6-0.9-0.7-1.5c-0.1-0.7,0.1-1.4,0.6-1.9c0.2-0.3,0.5-0.5,0.8-0.7c0.2-1.2,0.4-2.3,0.6-3.4c0.2-0.8,0.4-1.6,0.6-2.4
			c-0.5-0.3-0.8-0.8-0.9-1.6c-0.1-0.9,0.2-1.8,1-2.8c0.6-0.7,1.2-1.4,2-2.1c0.7-0.6,1.5-1.2,2.2-1.7c0.9-0.6,1.6-0.9,2.1-1
			c0.3,0,0.6,0,0.8,0c0.1,0,0.3-0.1,0.5-0.2c0.4-0.1,0.8-0.3,1.3-0.5c0.5-0.2,0.9-0.4,1.4-0.6c0.5-0.2,1-0.3,1.4-0.4
			c0.8-0.1,1.5,0.1,2,0.7c0.4,0.4,0.6,0.9,0.7,1.5c0.1,0.9-0.4,1.7-1.3,2.2c-0.4,0.2-0.7,0.3-1,0.5l-0.1,0c-0.8,0.3-1.7,0.6-2.6,1.1
			c-0.9,0.5-1.7,1-2.4,1.5c-0.2,0.4-0.5,0.8-0.8,1.4c-0.4,0.7-0.7,1.5-1,2.4c-0.3,0.7-0.5,1.5-0.7,2.2c1.7-1,3.1-1.9,4.2-2.6
			c1.8-1,3.2-1.6,4.3-1.8c0.6-0.1,1.1,0.1,1.6,0.5l0.2,0.2c0.3,0.3,0.5,0.6,0.5,1c0.1,0.9-0.5,1.7-1.7,2.7c-0.8,0.7-1.8,1.5-3.1,2.4
			c-1.2,0.9-2.5,1.8-3.8,2.6c-1.1,0.7-2,1.3-2.9,1.8c0,0.2,0,0.3,0,0.4l0.1,0.9c0.1,0.6,0.3,1.3,0.5,1.9c0.3,0.6,0.6,1.1,1,1.5
			c0.4,0.4,0.9,0.7,1.5,0.9c0.5,0.2,1.2,0.3,1.9,0.2c0.2,0,0.6-0.1,1.1-0.3c0.5-0.2,0.9-0.4,1.4-0.7c0.4-0.3,0.8-0.6,1.1-1
			c0.2-0.2,0.3-0.4,0.3-0.6l0.1-1.3l1.3,0c1.3,0,1.9,0.6,2.2,1c0.2,0.4,0.3,0.7,0.4,0.9c0.1,1.2,0,2.3-0.5,3.3
			c-0.4,0.9-1.1,1.6-1.8,2.2c-0.7,0.6-1.5,1-2.3,1.3c-0.8,0.3-1.6,0.5-2.2,0.6C75.4,45.1,74.8,45.1,74.3,45.1z M66.1,32
			C66.1,32,66.1,32,66.1,32C66.1,32,66.1,32,66.1,32z M80.4,23c0,0,0.1,0,0.1,0.1C80.5,23,80.5,23,80.4,23z M67.4,21.5
			C67.4,21.5,67.4,21.5,67.4,21.5C67.4,21.5,67.4,21.5,67.4,21.5z M70.3,19.7c-0.1,0.1-0.1,0.1-0.2,0.2c-0.6,0.5-1.1,1-1.5,1.6
			l0.8-0.1c0.1-0.1,0.1-0.3,0.2-0.4C69.9,20.5,70.1,20.1,70.3,19.7z M72,17.7C72,17.7,72,17.7,72,17.7C72,17.7,72,17.7,72,17.7z"/>
	</g>
	<g>
		<path class="st1" d="M104.1,45.2c-0.6,0-1.1-0.1-1.5-0.4c-0.4-0.3-0.8-0.9-1.4-2c-0.5-0.8-1-1.9-1.5-3c-0.5-1.1-1.1-2.4-1.6-3.7
			c-0.3-0.7-0.6-1.5-0.9-2.2c0,0,0,0-0.1,0c-0.6,0.3-1.3,0.5-2,0.8c-0.5,0.2-1,0.4-1.5,0.5c-0.1,1.1-0.1,2-0.2,2.8
			c0,1.1-0.1,2-0.1,2.7c0,0.9-0.2,1.5-0.4,2.1c-0.4,0.8-1.1,1.4-2,1.5c-0.4,0.1-1.3,0-2.1-0.9c-0.4-0.5-0.7-1.2-0.8-2.2
			c0-0.3-0.1-0.8,0-2.4c0-1.2,0.1-2.4,0.1-3.9l0.1-4.2c0-1.4,0-2.4,0-3.2c0-0.5,0-1.2,0.1-2.2c0.1-1,0.2-1.9,0.2-2.9
			c0.1-1,0.2-2,0.3-2.8c0.1-1,0.2-1.4,0.3-1.7c0.3-1.2,0.5-2.4,0.5-3.5c0-1.3,0-2.6-0.1-3.7c-0.1-1.2,0-2.3,0.1-3.1
			c0.2-1.2,1-2.1,2.1-2.4l0.2-2.8l0.6,2.7c0.4,0,1,0.3,1.5,0.8c0.3,0.3,0.6,0.7,0.8,1.1c0.3,0.4,0.5,0.8,0.7,1.3
			c0.2,0.4,0.3,0.7,0.4,1c0.1,0.2,0.2,0.7,0.3,1.3c0.1,0.6,0.3,1.3,0.4,2l0.4,2.1c0.1,0.7,0.2,1.2,0.3,1.6c0.2,1.1,0.5,2.3,0.9,3.7
			c0.4,1.4,0.8,2.7,1.2,3.8c0.4,1.1,0.7,2.1,1,2.9c0.1,0,0.1,0,0.2,0c0.5-0.1,1,0.1,1.4,0.4c0.4,0.3,0.6,0.8,0.7,1.3
			c0.1,0.6,0,1.2-0.3,1.7c-0.2,0.3-0.3,0.5-0.5,0.7c0,0,0,0,0,0c0.1,0.3,0.2,0.7,0.5,1.3l1.2,2.9c0.1,0.2,0.2,0.5,0.6,1.2l1,2
			c0.3,0.7,0.7,1.3,0.9,1.9c0.3,0.7,0.5,1.1,0.5,1.3c0.1,0.2,0.1,0.4,0.1,0.6l0,0.3c0.1,1-0.2,1.6-0.5,1.9c-0.5,0.6-1.3,0.8-1.8,0.8
			C104.5,45.2,104.3,45.2,104.1,45.2z M104.5,42.2L104.5,42.2L104.5,42.2z M91.3,32.6l0,0.5l0.4-0.2C91.5,32.8,91.4,32.7,91.3,32.6z
			 M93.9,24.3c0,0.2,0,0.4,0,0.7c0,1-0.1,1.9-0.1,2.8c0,0.7,0,1.3-0.1,1.9c0.3-0.1,0.6-0.2,0.9-0.4c0.3-0.1,0.6-0.3,0.9-0.4
			c-0.1-0.4-0.3-0.8-0.5-1.3c-0.2-0.7-0.5-1.4-0.8-2.3C94.1,24.9,94,24.6,93.9,24.3z"/>
	</g>
	<g>
		<path class="st1" d="M129.2,41c-1,0-1.9-0.6-2.1-2.1l0-0.4c0-0.2,0-0.3,0-0.5c0-0.1,0-0.2,0-0.3l0,0c0,0,0-0.2-0.4-1
			c-0.3-0.6-0.6-1.3-1-2.1c-0.4-0.8-0.9-1.6-1.3-2.5c-0.5-0.9-0.9-1.8-1.4-2.6c-0.4-0.8-0.8-1.5-1.1-2.1c-0.3-0.6-0.6-1-0.7-1.2
			c-0.1-0.2-0.3-0.6-0.5-1.2c-0.2-0.5-0.5-1.1-0.7-1.7c-0.3-0.6-0.6-1.3-0.9-2c-0.3-0.7-0.6-1.4-0.9-2.1c-0.6-1.3-1.2-2.6-1.8-4.1
			c-0.1,0-0.3,0.1-0.4,0.1c-0.9,0.2-2,0.5-3.1,0.8c-1.2,0.3-2.3,0.5-3.3,0.8c-1.1,0.3-1.9,0.4-2.3,0.5c-0.8,0.1-2.1,0.2-2.9-0.6
			c-0.5-0.5-0.9-1.1-1-1.8l0-0.1c-0.1-0.5,0-1,0.2-1.5c0.3-0.9,0.9-1.4,1.8-1.5c0.5-0.1,0.9,0,1.3,0.1c0.1,0,0.4-0.1,0.9-0.2
			c0.6-0.1,1.4-0.3,2.2-0.5c0.9-0.2,1.8-0.4,2.7-0.6c0.9-0.2,1.8-0.4,2.5-0.6l0.1,0c0.1,0,0.3,0,0.4-0.1c0,0,0,0,0,0
			c0.3-1.2,1.1-1.5,1.6-1.6c0.7-0.1,1.4,0.1,2,0.6c0.1,0,0.2-0.1,0.3-0.1c0.5-0.2,1.1-0.4,1.6-0.6c0.6-0.2,1.1-0.3,1.6-0.5
			c0.6-0.2,1-0.3,1.4-0.4l6-1.1c0.5-0.1,1.1-0.2,1.7-0.3c0.7-0.1,1.3-0.3,1.9-0.4l1.7-0.4c0.6-0.1,0.9-0.2,1.1-0.2l0.2,0
			c0.6,0,1.1,0.1,1.6,0.4c0.9,0.5,1.2,1.3,1.2,1.7l0,0c0.1,0.7-0.1,1.3-0.6,1.8c-0.5,0.5-1,0.7-1.4,0.7c-0.2,0-0.6,0.1-1.3,0.3
			c-0.7,0.1-1.4,0.3-2.1,0.5l-2.2,0.5c-0.7,0.2-1.3,0.3-1.7,0.4l-0.2,0c-0.1,0-0.4,0.1-0.7,0.1c-0.4,0.1-0.9,0.2-1.4,0.3
			c-0.5,0.1-1,0.2-1.5,0.4c-0.5,0.1-0.9,0.2-1.2,0.3c-0.4,0.1-0.8,0.3-1.5,0.5c-0.6,0.2-1.2,0.5-1.7,0.7l3.4,8.1
			c0.1,0.2,0.3,0.7,0.7,1.4c0.3,0.6,0.7,1.3,1.1,2.1c0.4,0.8,0.9,1.6,1.3,2.4c0.5,0.9,0.9,1.7,1.3,2.4c0.2,0.4,0.5,1,0.8,1.6
			c0.3,0.7,0.6,1.3,0.8,2c0.3,0.7,0.5,1.3,0.7,1.8c0.2,0.7,0.4,1.1,0.4,1.4c0.1,0.7,0,1.5-0.3,2.3c-0.6,1.5-1.6,1.8-2.2,1.9
			C129.3,41,129.3,41,129.2,41z M106.4,11.9C106.4,11.9,106.4,11.9,106.4,11.9C106.4,11.9,106.4,11.9,106.4,11.9z"/>
	</g>
	<g>
		<path class="st1" d="M144.8,36.6c-2.6,0-4.6-0.7-6.2-2.2c-1.8-1.7-2.9-4.1-3.2-7.2c0-0.2,0-0.4,0-1.1c-0.3-0.1-0.5-0.3-0.7-0.5
			c-0.4-0.4-0.6-0.9-0.7-1.5c-0.1-0.7,0.1-1.4,0.6-1.9c0.2-0.3,0.5-0.5,0.8-0.7c0.2-1.2,0.4-2.3,0.6-3.4c0.2-0.8,0.4-1.6,0.6-2.4
			c-0.5-0.3-0.8-0.8-0.9-1.6c-0.1-0.9,0.2-1.8,1-2.8c0.6-0.7,1.2-1.4,2-2.1c0.7-0.6,1.5-1.2,2.2-1.7c0.9-0.6,1.6-0.9,2.1-1
			c0.3,0,0.6,0,0.8,0c0.1,0,0.3-0.1,0.5-0.2c0.4-0.1,0.8-0.3,1.3-0.5c0.5-0.2,0.9-0.4,1.4-0.6c0.5-0.2,1-0.3,1.4-0.4
			c0.8-0.1,1.5,0.1,2,0.7c0.4,0.4,0.7,0.9,0.7,1.5c0.1,0.9-0.4,1.7-1.3,2.2c-0.4,0.2-0.7,0.3-1,0.4l-0.1,0c-0.8,0.3-1.7,0.6-2.6,1.1
			c-0.9,0.5-1.7,1-2.4,1.5c-0.2,0.3-0.5,0.8-0.8,1.4c-0.4,0.7-0.7,1.5-1,2.4c-0.3,0.7-0.5,1.5-0.7,2.2c1.7-1,3.1-1.9,4.2-2.6
			c1.8-1,3.2-1.6,4.3-1.8c0.6-0.1,1.1,0.1,1.6,0.5l0.2,0.2c0.3,0.3,0.5,0.6,0.5,1c0.1,1-0.7,1.8-1.7,2.6c-0.8,0.7-1.8,1.5-3.1,2.4
			c-1.2,0.9-2.5,1.8-3.8,2.6c-1.1,0.7-2,1.3-2.9,1.8c0,0.2,0,0.3,0,0.4l0.1,0.9c0.1,0.6,0.3,1.3,0.5,1.9c0.3,0.6,0.6,1.1,1,1.5
			c0.4,0.4,0.9,0.7,1.5,0.9c0.5,0.2,1.2,0.3,1.9,0.2c0.2,0,0.5-0.1,1.1-0.3c0.5-0.2,0.9-0.4,1.4-0.7c0.4-0.3,0.8-0.6,1.1-1
			c0.2-0.2,0.3-0.4,0.3-0.6l0.1-1.3l1.3,0c1.3,0,1.9,0.6,2.2,1c0.2,0.3,0.3,0.6,0.4,1c0.1,1.2,0,2.3-0.5,3.2
			c-0.4,0.9-1.1,1.6-1.8,2.2c-0.7,0.6-1.5,1-2.3,1.3c-0.8,0.3-1.6,0.5-2.2,0.6C146,36.5,145.4,36.6,144.8,36.6z M150.5,29.4
			C150.5,29.4,150.5,29.4,150.5,29.4C150.5,29.4,150.5,29.4,150.5,29.4z M137.5,23.7C137.5,23.7,137.5,23.7,137.5,23.7L137.5,23.7
			L137.5,23.7z M136.6,23.4C136.6,23.4,136.6,23.4,136.6,23.4C136.6,23.4,136.6,23.4,136.6,23.4z M151,14.4c0.1,0,0.1,0.1,0.2,0.1
			C151.1,14.5,151.1,14.5,151,14.4z M137.9,13C137.9,13,137.9,13,137.9,13C137.9,13,137.9,13,137.9,13z M140.9,11.1
			c-0.1,0.1-0.2,0.1-0.2,0.2c-0.6,0.5-1.1,1-1.5,1.6l0.8-0.1c0.1-0.1,0.1-0.3,0.2-0.4C140.4,11.9,140.7,11.5,140.9,11.1z M144.3,6.7
			C144.3,6.7,144.4,6.7,144.3,6.7C144.4,6.7,144.3,6.7,144.3,6.7z"/>
	</g>
</g>
<g class="st0">
	<g>
		<path class="st1" d="M34.6,82.6c0.1,0.5,0,1-0.2,1.5c-0.2,0.5-0.5,1.1-0.8,1.7c-0.3,0.6-0.7,1.1-1.1,1.6c-0.4,0.5-0.8,1-1.1,1.4
			c-0.8,0.9-1.7,1.8-2.6,2.7c-0.9,0.9-1.8,1.6-2.8,2.4c-1,0.7-2,1.3-3.1,1.8c-1.1,0.5-2.3,0.8-3.5,0.9c-3.8,0.5-5.9-1.2-6.3-5.1
			c0-0.4,0-1.1,0.2-2.3c0.2-1.1,0.4-2.4,0.7-3.9c0.3-1.5,0.7-3,1.2-4.6c0.5-1.6,1-3.1,1.5-4.5c0.5-1.4,1.1-2.5,1.7-3.4
			c0.6-0.9,1.1-1.4,1.7-1.5c0.4,0,0.7,0,0.9,0.3c0.2,0.2,0.3,0.5,0.4,0.7c0,0.2-0.2,0.7-0.6,1.4c-0.4,0.7-0.7,1.5-1.1,2.2
			c-0.1,0.1-0.2,0.3-0.3,0.6c-0.1,0.3-0.3,0.5-0.4,0.8c-0.2,0.3-0.3,0.6-0.5,1c-0.1,0.3-0.3,0.9-0.7,1.9c-0.3,1-0.7,2.2-1.1,3.6
			c-0.4,1.4-0.7,2.8-0.9,4.2c-0.2,1.4-0.3,2.7-0.2,3.7c0.1,0.6,0.3,1,0.6,1.3c0.3,0.3,0.6,0.5,1,0.7c0.4,0.1,0.8,0.2,1.2,0.2
			c0.4,0,0.8,0,1.1-0.1c1.3-0.2,2.6-0.6,3.9-1.3c1.4-0.7,2.6-1.7,3.8-2.7c1.2-1.1,2.3-2.3,3.2-3.7c1-1.4,1.7-2.7,2.1-4.1
			c0.1-0.3,0.2-0.4,0.4-0.5c0.1-0.1,0.3-0.1,0.4-0.2c0.3,0,0.5,0.1,0.8,0.5C34.4,82.1,34.6,82.4,34.6,82.6z"/>
	</g>
	<g>
		<path class="st1" d="M58.2,78.2c0.1,0.4,0.2,0.8,0.3,1.1c0.1,0.3,0.1,0.5,0.1,0.8c0.1,0.9,0.1,1.9,0,3.1c-0.1,1.2-0.3,2.4-0.7,3.5
			c-0.4,1.1-1,2.1-1.8,2.9c-0.8,0.8-1.9,1.4-3.2,1.5c-1.2,0.2-2.5-0.1-3.6-0.6s-2.3-1.4-3.3-2.4c-1-1-1.8-2.2-2.5-3.5
			c-0.7-1.3-1.1-2.7-1.3-4.1c-0.2-2-0.3-3.7-0.2-5.2c0.1-1.5,0.3-2.8,0.7-3.9c0-0.1-0.1-0.2-0.2-0.3c-0.1-0.1-0.2-0.2-0.2-0.4
			c0-0.2,0.1-0.4,0.4-0.7c0.3-0.3,0.7-0.6,1.1-0.9s0.9-0.6,1.3-0.8c0.4-0.2,0.8-0.4,1-0.4c0.1,0,0.4,0,0.7,0.1
			c0.3,0.1,0.8,0.1,1.3,0.1c0.2,0,0.3-0.1,0.5-0.1c0.2-0.1,0.4-0.1,0.6-0.1c0.7-0.1,1.5,0.2,2.5,0.7c0.9,0.6,1.8,1.3,2.7,2.3
			c0.9,1,1.7,2.1,2.4,3.4C57.3,75.5,57.8,76.9,58.2,78.2z M56.3,80.5c-0.1-0.7-0.3-1.6-0.8-2.8c-0.4-1.2-1-2.3-1.7-3.5
			c-0.7-1.1-1.5-2.1-2.4-2.9c-0.9-0.8-1.8-1.1-2.8-1c-0.1,0-0.2,0-0.4,0c-0.2,0-0.4,0-0.7,0c-0.2,0-0.5,0-0.7,0c-0.2,0-0.3,0-0.4,0
			c-0.6,0.1-1,0.4-1.3,0.9c-0.3,0.6-0.6,1.3-0.7,2.1c-0.2,0.9-0.2,1.8-0.3,2.9c0,1.1,0.1,2.2,0.2,3.2c0,0.4,0.2,1.1,0.6,2.2
			c0.3,1.1,0.8,2.1,1.5,3.2c0.7,1.1,1.5,2,2.5,2.8c1,0.8,2.2,1.1,3.6,0.9c0.9-0.1,1.7-0.5,2.2-1.1s0.9-1.4,1.1-2.3
			c0.2-0.9,0.4-1.7,0.4-2.6C56.4,81.9,56.4,81.1,56.3,80.5z"/>
	</g>
	<g>
		<path class="st1" d="M81.8,75.4c0.1,0.4,0.2,0.8,0.3,1.1c0,0.3,0.1,0.5,0.1,0.8c0.1,0.9,0.1,1.9,0,3.1s-0.3,2.4-0.7,3.5
			c-0.4,1.1-1,2.1-1.8,2.9c-0.8,0.8-1.9,1.4-3.2,1.5c-1.2,0.1-2.5-0.1-3.6-0.6c-1.2-0.6-2.3-1.4-3.3-2.4c-1-1-1.8-2.2-2.5-3.5
			c-0.7-1.3-1.1-2.7-1.3-4.1c-0.2-2-0.3-3.7-0.2-5.2s0.3-2.8,0.7-3.9c0-0.1-0.1-0.2-0.2-0.3s-0.2-0.2-0.2-0.4c0-0.2,0.1-0.4,0.4-0.7
			c0.3-0.3,0.7-0.6,1.1-0.9c0.4-0.3,0.9-0.6,1.3-0.8c0.4-0.2,0.8-0.4,1-0.4c0.1,0,0.4,0,0.7,0.1c0.3,0.1,0.8,0.1,1.3,0.1
			c0.2,0,0.3-0.1,0.5-0.1c0.2-0.1,0.4-0.1,0.6-0.1c0.7-0.1,1.5,0.2,2.5,0.7c0.9,0.6,1.8,1.3,2.7,2.3c0.9,1,1.7,2.1,2.4,3.4
			C80.9,72.7,81.5,74,81.8,75.4z M80,77.6c-0.1-0.7-0.3-1.6-0.8-2.8c-0.4-1.2-1-2.3-1.7-3.5c-0.7-1.1-1.5-2.1-2.4-2.9
			c-0.9-0.8-1.8-1.1-2.8-1c-0.1,0-0.2,0-0.4,0c-0.2,0-0.4,0-0.7,0c-0.2,0-0.5,0-0.7,0c-0.2,0-0.3,0-0.4,0c-0.6,0.1-1,0.4-1.3,0.9
			c-0.3,0.6-0.6,1.3-0.7,2.1c-0.2,0.9-0.2,1.8-0.3,2.9c0,1.1,0.1,2.2,0.2,3.2c0,0.4,0.2,1.1,0.6,2.2c0.3,1.1,0.8,2.1,1.5,3.2
			c0.7,1.1,1.5,2,2.5,2.8c1,0.8,2.2,1.1,3.6,0.9c0.9-0.1,1.7-0.5,2.2-1.1c0.5-0.6,0.9-1.4,1.1-2.3c0.2-0.9,0.4-1.7,0.4-2.6
			C80.1,79,80.1,78.2,80,77.6z"/>
	</g>
	<g>
		<path class="st1" d="M107.1,81.8c0,0.2-0.1,0.4-0.2,0.6c-0.3,0.2-0.8,0.6-1.5,1.1c-0.7,0.5-1.5,1-2.4,1.5
			c-0.9,0.5-1.8,1.1-2.7,1.6c-0.9,0.6-1.8,1.1-2.6,1.5c-0.8,0.4-1.4,0.8-2,1.1c-0.5,0.3-0.8,0.4-0.9,0.4c-0.3,0-0.6-0.2-1-0.8
			s-0.8-1.4-1.3-2.4c-0.4-1-0.9-2.2-1.3-3.6c-0.4-1.4-0.9-2.8-1.3-4.3c-0.4-1.5-0.8-3.1-1.1-4.7c-0.3-1.6-0.6-3.1-0.7-4.6
			c-0.3-2.2-0.4-3.9-0.3-5.2c0.1-1.3,0.2-2.2,0.4-2.9c0.2-0.7,0.4-1.1,0.7-1.3c0.2-0.2,0.3-0.3,0.4-0.3c0.3,0,0.5,0.1,0.7,0.3
			c0.2,0.2,0.3,0.5,0.3,0.7c0,0.1,0,0.4-0.1,0.7c-0.1,0.4-0.2,0.9-0.3,1.5c-0.1,0.6-0.1,1.4-0.1,2.4c0,1,0.1,2.2,0.2,3.5
			c0.2,1.2,0.4,2.5,0.6,3.9c0.3,1.3,0.6,2.6,1,3.9c0.4,1.3,0.7,2.5,1.1,3.6c0.4,1.1,0.8,2.1,1.2,3c0.4,0.9,0.7,1.5,1,2
			c0.3,0.5,0.6,0.7,0.8,0.7c0,0,0.2-0.1,0.6-0.3c0.4-0.2,0.9-0.5,1.5-0.8c0.6-0.3,1.2-0.7,1.9-1c0.7-0.3,1.4-0.7,2.2-1
			c0.3-0.1,0.7-0.3,1.2-0.5c0.4-0.2,0.9-0.3,1.3-0.5c0.4-0.2,0.8-0.3,1.1-0.4c0.3-0.1,0.5-0.2,0.6-0.2
			C106.8,81.3,107.1,81.4,107.1,81.8z"/>
	</g>
</g>
<g class="st0">
	<g>
		<path class="st1" d="M18.3,98.2c-3.8,0-6.2-2.3-6.7-6.5c0-0.4-0.1-1,0.2-2.7c0.2-1.2,0.4-2.5,0.7-4c0.3-1.5,0.7-3.1,1.2-4.7
			c0.5-1.7,1-3.2,1.5-4.6c0.6-1.5,1.2-2.7,1.8-3.7c0.8-1.3,1.8-2,2.8-2.2c0.8-0.1,1.6,0.1,2.1,0.7c0.5,0.5,0.7,1,0.8,1.6l0,0.1
			l0,0.1c0,0.4-0.1,0.9-0.7,2c-0.4,0.7-0.8,1.5-1.2,2.2c0,0.1-0.2,0.3-0.3,0.6l-0.4,0.8c-0.2,0.3-0.3,0.6-0.5,0.9
			c0,0.1-0.2,0.5-0.6,1.7c-0.3,1-0.7,2.2-1,3.5c-0.3,1.3-0.6,2.7-0.9,4.1c-0.2,1.3-0.3,2.4-0.2,3.3c0,0.3,0.1,0.4,0.1,0.5
			c0.1,0.1,0.3,0.2,0.4,0.3c0.2,0.1,0.5,0.1,0.7,0.1c0.3,0,0.6,0,0.9,0c1.1-0.1,2.2-0.5,3.4-1.2c1.2-0.7,2.4-1.5,3.5-2.5
			c1.1-1,2.1-2.2,3-3.4c0.9-1.2,1.5-2.5,1.9-3.7l0-0.1c0.2-0.6,0.6-1,1-1.2c0.3-0.2,0.7-0.3,1-0.4c0.5-0.1,1.4,0,2.2,1.1
			c0.4,0.6,0.6,1.1,0.7,1.6l0,0c0.1,0.7,0,1.5-0.3,2.2c-0.2,0.6-0.5,1.3-0.9,1.9c-0.4,0.6-0.7,1.2-1.2,1.8c-0.4,0.5-0.8,1-1.2,1.4
			c-0.9,1-1.8,1.9-2.7,2.8c-0.9,0.9-1.9,1.7-3,2.5c-1.1,0.8-2.2,1.4-3.4,2c-1.2,0.5-2.5,0.9-3.9,1.1C19.2,98.1,18.8,98.2,18.3,98.2z
			"/>
	</g>
	<g>
		<path class="st1" d="M52.1,92.7c-1.2,0-2.4-0.3-3.5-0.8c-1.3-0.6-2.6-1.5-3.7-2.7c-1.1-1.1-2-2.4-2.8-3.9c-0.7-1.5-1.2-3-1.4-4.6
			c-0.3-2.1-0.3-3.9-0.2-5.5c0.1-1.2,0.2-2.4,0.5-3.5c-0.2-0.2-0.2-0.5-0.3-0.8c-0.1-0.9,0.4-1.5,0.8-1.9c0.4-0.4,0.8-0.8,1.3-1.1
			c0.5-0.4,1-0.7,1.5-0.9c0.6-0.3,1.1-0.5,1.6-0.6c0.4,0,0.7,0,1.3,0.2c0.1,0,0.3,0.1,0.7,0c0.1,0,0.2,0,0.2-0.1
			c0.3-0.1,0.5-0.1,0.8-0.2c1.1-0.1,2.2,0.2,3.4,0.9c1,0.6,2.1,1.5,3,2.6c0.9,1.1,1.8,2.3,2.6,3.7c0.8,1.4,1.3,2.8,1.7,4.3
			c0.1,0.5,0.2,0.9,0.3,1.2c0.1,0.3,0.1,0.6,0.1,0.9c0.1,1,0.1,2.1,0,3.4c-0.1,1.3-0.4,2.6-0.8,3.9c-0.5,1.3-1.2,2.5-2.1,3.4
			c-1,1.1-2.4,1.8-4.1,2C52.7,92.7,52.4,92.7,52.1,92.7z M46.8,71.9c0,0-0.1,0-0.2,0.2c-0.2,0.4-0.4,1-0.6,1.6
			c-0.1,0.8-0.2,1.7-0.2,2.7c0,1,0,2,0.2,3c0,0.1,0.1,0.5,0.5,1.9c0.3,0.9,0.8,1.9,1.4,2.9c0.6,0.9,1.3,1.7,2.2,2.4
			c0.7,0.5,1.5,0.7,2.5,0.6c0.7-0.1,1-0.4,1.2-0.6c0.4-0.5,0.7-1,0.8-1.7c0.2-0.8,0.3-1.5,0.3-2.3c0-0.8,0-1.5-0.1-2l0,0
			c0-0.4-0.2-1.1-0.7-2.4c-0.4-1.1-0.9-2.2-1.5-3.2c-0.6-1-1.3-1.9-2.1-2.6c-0.7-0.7-1.3-0.7-1.6-0.6c-0.1,0-0.3,0-0.5,0l-0.6,0
			c-0.2,0-0.5,0-0.7,0L46.8,71.9L46.8,71.9z M44,70.8C44,70.8,44,70.8,44,70.8C44,70.8,44,70.8,44,70.8C44,70.8,44,70.8,44,70.8z
			 M43.2,69.9C43.2,69.9,43.2,69.9,43.2,69.9C43.2,69.9,43.2,69.9,43.2,69.9z"/>
	</g>
	<g>
		<path class="st1" d="M75.7,89.8c-1.2,0-2.4-0.3-3.5-0.8c-1.3-0.6-2.6-1.5-3.7-2.7c-1.1-1.1-2-2.4-2.8-3.9c-0.7-1.5-1.2-3-1.4-4.6
			c-0.3-2.1-0.3-3.9-0.2-5.5c0.1-1.3,0.2-2.4,0.5-3.5c-0.1-0.2-0.2-0.5-0.3-0.8c-0.1-0.9,0.4-1.5,0.8-1.9c0.4-0.4,0.8-0.8,1.3-1.1
			c0.5-0.4,1-0.7,1.5-0.9c0.6-0.3,1.1-0.5,1.6-0.6c0.4,0,0.7,0,1.3,0.2c0.1,0,0.3,0.1,0.7,0c0.1,0,0.2,0,0.2-0.1
			c0.3-0.1,0.5-0.1,0.8-0.2c1.1-0.1,2.2,0.2,3.4,0.9c1,0.6,2.1,1.5,3,2.6c0.9,1.1,1.8,2.3,2.6,3.7c0.7,1.4,1.3,2.8,1.7,4.3
			c0.1,0.5,0.2,0.9,0.3,1.2c0.1,0.3,0.1,0.6,0.1,0.9c0.1,1,0.1,2.1,0,3.4c-0.1,1.3-0.4,2.6-0.8,3.9c-0.5,1.3-1.2,2.5-2.1,3.4
			c-1,1.1-2.4,1.8-4.1,2C76.4,89.8,76.1,89.8,75.7,89.8z M70.5,69.1c0,0-0.1,0-0.2,0.2c-0.2,0.4-0.4,1-0.6,1.6
			c-0.1,0.8-0.2,1.7-0.2,2.7c0,1,0,2,0.2,3c0,0.1,0.1,0.5,0.5,1.9c0.3,0.9,0.8,1.9,1.4,2.9c0.6,0.9,1.3,1.7,2.2,2.4
			c0.7,0.5,1.5,0.7,2.5,0.6c0.7-0.1,1-0.4,1.2-0.6c0.4-0.5,0.7-1,0.8-1.7c0.2-0.8,0.3-1.5,0.3-2.3c0-0.8,0-1.5-0.1-2
			c0-0.4-0.2-1.1-0.7-2.4c-0.4-1.1-0.9-2.2-1.5-3.2c-0.6-1-1.3-1.9-2.1-2.6c-0.7-0.7-1.3-0.7-1.6-0.6c-0.1,0-0.3,0-0.5,0l-0.6,0
			c-0.2,0-0.5,0-0.7,0L70.5,69.1z M67.6,67.9C67.6,67.9,67.6,67.9,67.6,67.9C67.6,67.9,67.6,67.9,67.6,67.9
			C67.6,67.9,67.6,67.9,67.6,67.9z"/>
	</g>
	<g>
		<path class="st1" d="M94.8,91.2c-1.2,0-1.9-1.1-2.2-1.5c-0.5-0.7-0.9-1.5-1.4-2.6c-0.5-1-0.9-2.3-1.4-3.7
			c-0.5-1.4-0.9-2.9-1.3-4.4c-0.4-1.5-0.8-3.1-1.1-4.8c-0.3-1.6-0.6-3.2-0.8-4.7c-0.3-2.3-0.4-4.1-0.3-5.5c0.1-1.4,0.3-2.5,0.5-3.3
			c0.3-1,0.7-1.6,1.1-1.9c0.3-0.3,0.7-0.6,1.2-0.6c0.8-0.1,1.5,0.2,2,0.8c0.4,0.5,0.7,1,0.7,1.5c0,0.3,0,0.7-0.2,1.3
			c-0.1,0.3-0.2,0.7-0.2,1.3c-0.1,0.6-0.1,1.3-0.1,2.2c0,0.9,0.1,2,0.2,3.3c0.1,1.2,0.4,2.4,0.6,3.7c0.3,1.3,0.6,2.6,0.9,3.8
			c0.4,1.3,0.7,2.4,1.1,3.5c0.4,1.1,0.8,2.1,1.1,2.9c0.3,0.6,0.5,1.1,0.7,1.5l1.1-0.6c0.6-0.4,1.3-0.7,2-1.1c0.7-0.4,1.5-0.7,2.3-1
			c0.3-0.1,0.7-0.3,1.2-0.5l1.3-0.5c0.4-0.2,0.8-0.3,1.1-0.4c0.5-0.2,0.7-0.2,0.9-0.2c1.6-0.2,2.4,0.8,2.6,1.8l0,0
			c0.1,0.7-0.2,1.4-0.8,1.9c-0.3,0.3-0.9,0.7-1.6,1.2c-0.7,0.5-1.5,1-2.4,1.5c-0.9,0.5-1.8,1.1-2.7,1.6c-1,0.6-1.8,1.1-2.6,1.5
			c-0.8,0.5-1.5,0.8-2,1.1c-0.9,0.5-1.1,0.6-1.4,0.6C94.9,91.2,94.9,91.2,94.8,91.2z M94.4,86.9c0.2,0.4,0.4,0.7,0.6,1
			c0.2-0.1,0.4-0.2,0.7-0.4C95.2,87.5,94.7,87.2,94.4,86.9z M105.9,81.3C105.9,81.3,105.9,81.3,105.9,81.3
			C105.9,81.3,105.9,81.3,105.9,81.3z"/>
	</g>
</g>
<g class="st0">
	<g>
		<path class="st1" d="M44.1,111c0,0.2,0,0.5-0.2,0.6c-0.2,0.2-0.3,0.3-0.5,0.3c-0.3,0-0.8,0.1-1.5,0.3c-0.7,0.2-1.4,0.3-2.1,0.5
			c-0.8,0.2-1.5,0.4-2.2,0.5c-0.7,0.2-1.3,0.3-1.8,0.4c-0.1,0-0.4,0.1-0.8,0.2c-0.4,0.1-0.9,0.2-1.4,0.3c-0.5,0.1-1.1,0.2-1.6,0.4
			c-0.5,0.1-0.9,0.2-1.2,0.3c-0.4,0.1-0.9,0.3-1.6,0.6c-0.7,0.3-1.3,0.5-1.9,0.8c-0.2,0.1-0.4,0.2-0.5,0.2c-0.2,0.1-0.3,0.1-0.4,0.2
			c-0.1,0.1-0.3,0.1-0.3,0.1l4,9.5c0.1,0.3,0.4,0.8,0.7,1.4c0.3,0.7,0.7,1.4,1.1,2.2c0.4,0.8,0.9,1.6,1.3,2.5
			c0.5,0.9,0.9,1.6,1.3,2.4c0.2,0.4,0.5,1,0.8,1.6c0.3,0.6,0.6,1.3,0.8,1.9c0.3,0.6,0.5,1.2,0.7,1.8c0.2,0.5,0.3,0.9,0.3,1.1
			c0.1,0.5,0,1-0.2,1.6c-0.2,0.6-0.5,0.9-1,0.9c-0.4,0-0.7-0.2-0.7-0.8l0-0.4c0-0.1,0-0.2,0-0.4c0-0.1,0-0.3,0-0.5
			c0-0.3-0.2-0.7-0.5-1.4c-0.3-0.6-0.6-1.4-1-2.2c-0.4-0.8-0.9-1.7-1.3-2.6c-0.5-0.9-0.9-1.8-1.4-2.6c-0.4-0.8-0.8-1.5-1.1-2.1
			c-0.3-0.6-0.5-1-0.6-1.2c-0.1-0.3-0.3-0.6-0.5-1.1c-0.2-0.5-0.5-1.1-0.8-1.7c-0.3-0.6-0.6-1.3-0.9-2c-0.3-0.7-0.6-1.4-0.9-2.1
			c-0.7-1.6-1.5-3.4-2.4-5.3c-0.2,0.1-0.7,0.2-1.6,0.4c-0.9,0.2-2,0.5-3.1,0.8c-1.2,0.3-2.3,0.5-3.3,0.8c-1.1,0.3-1.8,0.4-2.1,0.4
			c-0.9,0.1-1.4,0-1.7-0.2s-0.5-0.6-0.5-1c0-0.3,0-0.6,0.1-0.9s0.3-0.5,0.5-0.5c0.3,0,0.5,0,0.7,0.1c0.2,0.1,0.4,0.1,0.6,0.1
			c0.1,0,0.4-0.1,1-0.2c0.6-0.1,1.4-0.3,2.2-0.5c0.9-0.2,1.8-0.4,2.7-0.6c0.9-0.2,1.8-0.4,2.5-0.6c0.2,0,0.4-0.1,0.5-0.1
			c0.2,0,0.4-0.1,0.5-0.1c0.2-0.1,0.3-0.1,0.5-0.1c0-0.1,0-0.3,0.1-0.7c0.1-0.4,0.2-0.6,0.3-0.6c0.3,0,0.6,0.1,0.9,0.3
			c0.3,0.2,0.5,0.4,0.7,0.5c0.2-0.1,0.6-0.2,1.1-0.4c0.5-0.2,1-0.4,1.6-0.5c0.6-0.2,1.1-0.3,1.6-0.5c0.5-0.1,1-0.3,1.3-0.3l6-1.1
			c0.5-0.1,1.1-0.2,1.8-0.3c0.7-0.1,1.3-0.3,2-0.4c0.6-0.1,1.2-0.3,1.7-0.4c0.5-0.1,0.8-0.2,1-0.2c0.3,0,0.6,0.1,0.9,0.2
			C43.9,110.6,44,110.8,44.1,111z"/>
	</g>
	<g>
		<path class="st1" d="M57.2,123.3c0,0.2,0,0.3-0.2,0.4s-0.3,0.2-0.5,0.3c-0.2,0.1-0.4,0.2-0.6,0.3c-0.2,0.1-0.3,0.2-0.4,0.3
			l0.7,2.4c0.4,1.3,0.7,2.6,1,3.9s0.5,2.4,0.7,3.6c0.1,0.9,0.1,1.7,0,2.4c-0.1,0.7-0.4,1.1-0.9,1.2c-0.2,0-0.5-0.2-0.8-0.8
			c-0.3-0.6-0.5-1.2-0.7-2c-0.2-0.8-0.4-1.5-0.5-2.3c-0.1-0.8-0.2-1.3-0.3-1.7c0-0.2-0.1-0.6-0.2-1.2c-0.1-0.5-0.2-1.1-0.4-1.7
			c-0.1-0.6-0.3-1.2-0.4-1.7c-0.1-0.5-0.2-0.9-0.3-1.2c-0.6,0.1-1.4,0.3-2.3,0.5c-1,0.2-2.2,0.6-3.6,1.2l0.1,0.6
			c0.1,0.8,0.2,1.6,0.4,2.5s0.4,1.8,0.6,2.8c0.2,0.9,0.4,1.9,0.6,2.8c0.2,0.9,0.3,1.8,0.4,2.7c0,0.3,0,0.6,0,0.9
			c0,0.2-0.2,0.4-0.4,0.4c-0.4,0-0.8-0.1-1-0.5c-0.3-0.4-0.5-0.9-0.7-1.4c-0.2-0.6-0.3-1.1-0.4-1.8c-0.1-0.6-0.2-1.1-0.3-1.5
			c-0.2-0.9-0.5-1.9-0.7-3.1c-0.2-1.2-0.5-2.4-0.7-3.6c-0.1,0-0.3,0-0.5-0.1c-0.2-0.1-0.4-0.1-0.7-0.2c-0.2-0.1-0.4-0.2-0.6-0.3
			c-0.2-0.1-0.2-0.3-0.3-0.4c-0.1-0.4,0.1-0.8,0.4-1.1c0.3-0.3,0.7-0.6,1.2-0.8c-0.1-0.3-0.1-0.6-0.2-1c0-0.4-0.1-1-0.2-1.9
			c0-0.4-0.1-0.9-0.2-1.7c-0.1-0.7-0.2-1.6-0.3-2.5c-0.1-0.9-0.2-2-0.4-3.1c-0.1-1.1-0.3-2.3-0.4-3.5c0-0.3,0-0.6,0.1-1
			c0.1-0.4,0.3-0.6,0.6-0.7c0.2,0,0.5,0,0.7,0.2c0.2,0.2,0.4,0.4,0.5,0.6c0.1,0.3,0.2,0.5,0.3,0.8c0.1,0.3,0.1,0.5,0.2,0.7l1.5,12.3
			c0.3,0,0.7-0.1,1.2-0.2c0.5-0.1,1-0.2,1.6-0.3c0.5-0.1,1.1-0.2,1.6-0.4c0.5-0.1,1-0.3,1.3-0.4l-2.5-10.7c-0.1-0.2-0.1-0.5-0.2-0.8
			c-0.1-0.3-0.1-0.5-0.1-0.7c-0.1-0.7-0.1-1.3,0.1-1.7c0.1-0.5,0.4-0.7,0.8-0.7c0.5-0.1,0.8,0.1,1,0.6c0.2,0.4,0.3,1.1,0.4,1.9
			c0.1,0.5,0.2,1.1,0.3,1.6c0.1,0.5,0.2,1,0.3,1.6l2.2,8.6c0.4,0,0.8-0.1,1.3-0.1C57,122.8,57.2,123,57.2,123.3z"/>
	</g>
	<g>
		<path class="st1" d="M89.9,126.7c0.1,0.7-0.3,1.2-1,1.6c-0.8,0.4-1.6,0.8-2.6,1.3c-1,0.5-2,0.9-2.9,1.2c-0.9,0.4-1.8,0.7-2.5,1
			c-0.7,0.3-1.1,0.5-1.3,0.7c0,0.1,0,0.2,0,0.3c0,0.1,0,0.2,0.1,0.3l0.3,1.2c0,0.3,0,0.6,0,0.7c-0.1,0.2-0.2,0.3-0.5,0.3
			c-0.3,0-0.5,0-0.7-0.2c-0.1-0.2-0.3-0.4-0.4-0.6c-0.1-0.2-0.2-0.5-0.3-0.8c-0.1-0.3-0.2-0.5-0.4-0.6c-0.1,0-0.3,0.1-0.8,0.3
			c-0.5,0.2-1.1,0.4-1.8,0.7c-0.7,0.3-1.5,0.6-2.4,1c-0.9,0.4-1.7,0.7-2.6,1c-0.8,0.3-1.6,0.6-2.4,0.8c-0.7,0.2-1.3,0.4-1.7,0.4
			c-0.9,0.1-1.4-0.1-1.5-0.7c-0.1-0.4,0-0.8,0.3-1c0.2-0.2,0.5-0.4,0.8-0.6c0.1,0,0.4-0.2,1-0.4c0.6-0.2,1.3-0.5,2.1-0.8
			c0.8-0.3,1.7-0.6,2.7-1c1-0.4,1.8-0.7,2.7-1c0.8-0.3,1.5-0.6,2-0.8c0.5-0.2,0.8-0.4,0.8-0.5c0-0.2-0.1-0.6-0.4-1.1
			c-0.2-0.5-0.4-1-0.6-1.5l-0.4-1c-0.7-2.1-1.4-4.3-1.9-6.5c-0.5-2.2-1-4.4-1.5-6.5c-0.1-0.1-0.2-0.1-0.3-0.1
			c-0.2,0-0.6,0.2-1.3,0.7c-0.7,0.4-1.4,0.9-2.2,1.4c-0.8,0.5-1.5,1-2.2,1.4c-0.7,0.4-1.1,0.7-1.2,0.7c-0.2,0-0.5,0-0.7-0.2
			c-0.3-0.2-0.4-0.4-0.4-0.6c0-0.3,0.2-0.6,0.6-1c0.4-0.4,0.9-0.9,1.5-1.3c0.6-0.5,1.3-0.9,2.1-1.4c0.8-0.5,1.5-0.9,2.2-1.3
			c0.7-0.4,1.3-0.7,1.8-0.9c0.5-0.2,0.9-0.4,1-0.4c0.3,0,0.6-0.1,1.1-0.3c0.4-0.2,0.9-0.3,1.4-0.5c0.5-0.2,1-0.4,1.5-0.6
			c0.5-0.2,1-0.3,1.4-0.3c0.4-0.1,0.7,0.1,0.7,0.4c0,0.2,0,0.3-0.2,0.4l-1.4,0.6c-0.4,0.1-0.8,0.3-1.2,0.5c-0.4,0.2-0.8,0.4-1.1,0.6
			c-0.3,0.2-0.6,0.4-0.8,0.6s-0.3,0.4-0.3,0.6c0.1,0.9,0.3,2,0.7,3.3c0.4,1.4,0.8,2.8,1.2,4.4s0.9,3.2,1.4,4.8
			c0.5,1.6,1,3.1,1.3,4.6l9-3.5c0.2-0.1,0.4-0.1,0.6-0.2c0.2-0.1,0.3-0.2,0.5-0.2c0.2-0.1,0.3-0.1,0.5-0.1
			C89.7,126,89.9,126.3,89.9,126.7z"/>
	</g>
	<g>
		<path class="st1" d="M118.2,128.8c0,0.3-0.1,0.7-0.4,1c-0.3,0.3-0.6,0.5-1,0.5c-0.1,0-0.2,0-0.3-0.1c-0.1-0.1-0.3-0.1-0.3-0.2
			c-1.6-1.2-3.3-2.4-5.1-3.5c-1.8-1.1-3.6-2.3-5.4-3.5c-1.8-1.2-3.6-2.5-5.4-3.8c-1.8-1.4-3.5-2.9-5.1-4.5c0.7,1.8,1.5,3.7,2.5,5.7
			c1,2,2,3.9,2.9,5.6c0.9,1.7,1.7,3.2,2.4,4.5c0.7,1.3,1,2.1,1.1,2.4c0,0.4-0.1,0.8-0.4,1.1c-0.3,0.3-0.6,0.5-1,0.5
			c-0.2,0-0.5-0.2-0.8-0.6c-0.3-0.4-0.6-0.9-1-1.6c-0.4-0.7-0.8-1.4-1.2-2.2s-0.8-1.6-1.2-2.4c-0.4-0.8-0.7-1.6-1.1-2.3
			c-0.3-0.7-0.6-1.3-0.8-1.8l-1.9-4c-0.4-0.9-0.8-1.7-1.3-2.6c-0.4-0.9-0.8-1.8-1.2-2.6c-0.4-0.8-0.7-1.5-0.9-2.1
			c-0.2-0.6-0.4-1-0.4-1.2c0-0.4,0-0.8,0-1.2c0.1-0.4,0.2-0.6,0.5-0.7c0.2,0,0.3,0,0.4,0.1c0.1,0.1,0.2,0.1,0.2,0.1l0.6-0.3
			c0.2,0,0.5,0.2,1,0.5c0.5,0.4,1,0.9,1.7,1.5s1.4,1.3,2.1,2.1c0.8,0.8,1.5,1.5,2.3,2.3c0.8,0.7,1.5,1.4,2.2,2.1
			c0.7,0.6,1.3,1.2,1.8,1.5c0.8,0.6,1.7,1.2,2.5,1.7c0.8,0.5,1.7,1.1,2.5,1.6c0.9,0.5,1.8,1.1,2.7,1.7c0.9,0.6,2,1.3,3.1,2.1
			c0,0,0.1,0,0.3,0c0.1,0,0.1-0.1,0.1-0.3c0-0.2,0-0.4-0.1-0.6c-0.1-0.5-0.3-1.3-0.7-2.6c-0.4-1.2-1-2.6-1.7-4.2
			c-0.7-1.6-1.5-3.3-2.4-5.2c-0.9-1.8-1.8-3.6-2.8-5.3c-1-1.7-1.9-3.2-2.9-4.5c-1-1.3-1.9-2.4-2.8-3.1c-0.2-0.2-0.4-0.5-0.6-0.9
			c-0.1-0.4-0.2-0.7-0.3-1c0-0.2,0.1-0.5,0.4-0.9c0.3-0.3,0.6-0.5,0.9-0.5c0.4,0,0.9,0.3,1.5,1.1c0.6,0.8,1.3,1.8,2,3
			c0.7,1.3,1.5,2.7,2.3,4.3c0.8,1.6,1.6,3.2,2.4,4.8c0.9,1.9,1.8,3.8,2.7,5.7c0.8,1.9,1.6,3.6,2.3,5.3c0.7,1.6,1.2,3.1,1.7,4.4
			C117.7,127,118,128,118.2,128.8z"/>
	</g>
	<g>
		<path class="st1" d="M142.5,115.6c0.1,0.7,0.1,1.3,0.1,2c0,0.6-0.1,1.3-0.3,2c-0.2,0.7-0.5,1.4-1,2.2c-0.4,0.8-1,1.7-1.7,2.7
			c-0.9,1.2-1.9,2.3-3.2,3.4c-1.2,1-2.7,1.6-4.3,1.8c-1,0.1-2.1,0.1-3.1-0.1c-1.1-0.2-2-0.6-2.9-1.2c-0.9-0.6-1.6-1.4-2.2-2.4
			c-0.6-1-1-2.1-1.2-3.5c-0.3-2.2-0.1-4.6,0.4-7.1c0.5-2.5,1.4-5.3,2.5-8.2c0.7-1.9,1.4-3.7,2.1-5.2c0.7-1.5,1.3-2.8,2-3.8
			c0.7-1,1.4-1.9,2.1-2.4c0.7-0.6,1.5-0.9,2.4-1c0.7-0.1,1.3,0,1.8,0.2c0.5,0.2,0.8,0.7,0.9,1.4c0,0.2,0,0.5-0.1,0.7
			c-0.1,0.2-0.2,0.3-0.4,0.3c-0.3,0-0.5,0-0.6-0.2c-0.1-0.1-0.5-0.2-1-0.1c-0.9,0.1-1.8,0.7-2.6,1.6c-0.8,1-1.5,2.1-2.1,3.3
			c-0.6,1.2-1.2,2.4-1.6,3.6c-0.4,1.2-0.7,2-0.9,2.6c-0.3,0.9-0.6,2-1,3.2c-0.4,1.2-0.7,2.5-1,3.8c-0.3,1.3-0.5,2.5-0.7,3.7
			c-0.2,1.2-0.2,2.2-0.1,2.9c0.1,1,0.4,1.8,0.8,2.5c0.4,0.7,0.9,1.3,1.5,1.7s1.3,0.8,2.1,0.9c0.8,0.2,1.6,0.2,2.4,0.1
			c1.1-0.1,2.3-0.6,3.4-1.2c1.1-0.7,2.1-1.5,2.9-2.6c0.8-1,1.5-2.1,1.9-3.4s0.6-2.5,0.5-3.7c-0.1-1.2-0.6-2.2-1.3-2.9
			s-1.5-1-2.2-0.9c-0.5,0.1-0.8,0.2-1,0.4c-0.2,0.2-0.3,0.4-0.5,0.7c-0.2,0.4-0.4,0.7-0.6,1c-0.2,0.3-0.5,0.5-1,0.8
			c-0.8,0.4-1.4,0.7-1.9,0.8c-0.4,0.2-0.8,0.3-1,0.4l-0.4,0.2c-0.2,0-0.5-0.1-0.9-0.3c-0.4-0.2-0.6-0.5-0.6-0.6
			c-0.1-0.6,0.2-1.3,0.9-1.9c0.7-0.7,1.4-1.3,2.3-1.9c0.9-0.6,1.7-1.1,2.6-1.4c0.8-0.4,1.3-0.6,1.5-0.6c1-0.1,1.9,0,2.6,0.3
			s1.3,0.8,1.8,1.4c0.5,0.6,0.8,1.3,1.1,2C142.2,114.1,142.4,114.9,142.5,115.6z"/>
	</g>
	<g>
		<path class="st1" d="M170.2,116.9c0.2,1.5,0.1,2.8-0.4,3.7s-1.2,1.9-2.1,2.7c-0.3,0.2-0.6,0.5-1.1,0.8c-0.5,0.3-1,0.6-1.5,0.9
			c-0.6,0.3-1.2,0.5-1.8,0.7c-0.6,0.2-1.2,0.4-1.8,0.4c-1.5,0.2-2.7,0.2-3.6-0.1c-0.8-0.2-1.3-0.6-1.3-1c-0.1-0.5,0-0.9,0.3-1.2
			c0.2-0.3,0.5-0.5,0.7-0.6l0.6,0.3c0.2,0.2,0.5,0.3,0.8,0.5s0.8,0.2,1.5,0.1c0.7-0.1,1.4-0.3,2.3-0.6c0.9-0.3,1.7-0.8,2.5-1.4
			c0.8-0.6,1.4-1.2,2-2c0.5-0.8,0.7-1.6,0.6-2.5c-0.1-0.8-0.8-1.5-2-2c-1.3-0.5-3.2-0.8-5.8-0.7c-1.3,0.1-2.6,0-3.9,0
			c-1.3-0.1-2.5-0.2-3.5-0.5c-1.1-0.3-1.9-0.7-2.6-1.2c-0.7-0.5-1.1-1.2-1.2-2.1c-0.1-0.9,0-1.7,0.4-2.6c0.4-0.8,0.9-1.7,1.5-2.4
			s1.3-1.4,2-2c0.7-0.6,1.3-1.1,1.8-1.5c0.4-0.3,0.9-0.7,1.6-1.2c0.7-0.5,1.4-1,2.2-1.4c0.8-0.5,1.6-0.9,2.4-1.2
			c0.8-0.4,1.5-0.6,2.1-0.6c0.7-0.1,1.2,0,1.5,0.4c0.3,0.4,0.5,0.9,0.6,1.6c0.1,0.6,0.1,1.2,0,1.9c-0.1,0.7-0.1,1.3-0.2,2
			c-0.1,0.6-0.2,1.2-0.3,1.7c-0.1,0.5-0.2,0.8-0.2,0.9c-0.1,0.3-0.2,0.6-0.4,0.7c-0.2,0.1-0.3,0.2-0.3,0.2c-0.1,0-0.2-0.1-0.2-0.2
			c0-0.1,0-0.3,0-0.6c0-0.3,0-0.7,0.1-1.1c0-0.4,0.1-0.9,0-1.4c0-0.5,0-1-0.1-1.5c-0.1-0.8-0.2-1.3-0.3-1.6
			c-0.1-0.3-0.4-0.5-0.9-0.4c-0.5,0.1-1.1,0.3-1.9,0.6c-0.8,0.4-1.6,0.8-2.4,1.3c-0.9,0.5-1.7,1.2-2.5,1.9c-0.8,0.8-1.5,1.5-2.1,2.3
			c-0.6,0.8-1.1,1.5-1.4,2.2c-0.4,0.7-0.5,1.2-0.5,1.6c0,0.4,0.4,0.8,1,1.1c0.6,0.3,1.4,0.5,2.3,0.7c0.9,0.2,1.9,0.3,3,0.4
			c1.1,0.1,2.2,0.1,3.2,0.1c0.9,0,1.8,0,2.9,0.1c1.1,0,2,0.2,3,0.5c0.9,0.3,1.8,0.7,2.5,1.2C169.7,115.1,170.1,115.9,170.2,116.9z"
			/>
	</g>
</g>
<g class="st0">
	<g>
		<path class="st1" d="M35.5,145c-1,0-1.9-0.6-2.1-2.1l0-0.4c0-0.2,0-0.3,0-0.5c0-0.1,0-0.2,0-0.3l0,0c0,0,0-0.2-0.4-0.9
			c-0.3-0.6-0.6-1.3-1-2.1c-0.4-0.8-0.9-1.6-1.3-2.5c-0.5-0.9-0.9-1.8-1.4-2.6c-0.4-0.8-0.8-1.5-1.1-2.1c-0.3-0.6-0.6-1-0.7-1.2
			c-0.1-0.2-0.3-0.6-0.5-1.2c-0.2-0.5-0.5-1.1-0.7-1.7c-0.3-0.6-0.6-1.3-0.9-2c-0.3-0.7-0.6-1.4-0.9-2.1c-0.6-1.3-1.2-2.6-1.8-4.1
			c-0.1,0-0.3,0.1-0.4,0.1c-0.9,0.2-2,0.5-3.1,0.8c-1.2,0.3-2.3,0.5-3.3,0.8c-1.1,0.3-1.9,0.4-2.3,0.5c-0.8,0.1-2.1,0.2-2.9-0.6
			c-0.5-0.5-0.9-1.1-1-1.8l0-0.1c-0.1-0.5,0-1,0.2-1.5c0.3-0.9,0.9-1.4,1.8-1.5c0.5-0.1,0.9,0,1.3,0.1c0.1,0,0.4-0.1,0.9-0.2
			c0.6-0.1,1.4-0.3,2.2-0.5c0.9-0.2,1.8-0.4,2.7-0.6c0.9-0.2,1.8-0.4,2.5-0.6l0.1,0c0.1,0,0.3,0,0.4-0.1c0,0,0,0,0,0
			c0.3-1.2,1.1-1.5,1.6-1.6c0.7-0.1,1.4,0.1,2,0.6c0.1,0,0.2-0.1,0.3-0.1c0.5-0.2,1.1-0.4,1.6-0.6c0.6-0.2,1.1-0.3,1.6-0.5
			c0.6-0.2,1-0.3,1.4-0.4l6-1.1c0.5-0.1,1.1-0.2,1.7-0.3c0.7-0.1,1.3-0.3,1.9-0.4l1.7-0.4c0.6-0.1,0.9-0.2,1.1-0.2l0.2,0
			c0.6,0,1.1,0.1,1.6,0.4c0.9,0.5,1.2,1.3,1.2,1.7l0,0c0.1,0.7-0.1,1.3-0.6,1.9c-0.5,0.5-1,0.7-1.4,0.7c-0.2,0-0.6,0.1-1.3,0.3
			c-0.7,0.2-1.4,0.3-2.1,0.5l-2.2,0.5c-0.7,0.2-1.3,0.3-1.7,0.4l-0.2,0c-0.1,0-0.4,0.1-0.7,0.1c-0.4,0.1-0.9,0.2-1.4,0.3
			c-0.5,0.1-1,0.2-1.5,0.4c-0.5,0.1-0.9,0.2-1.2,0.3c-0.4,0.1-0.8,0.3-1.5,0.5c-0.6,0.2-1.2,0.5-1.7,0.7l3.4,8.1
			c0.1,0.2,0.3,0.7,0.7,1.4c0.3,0.6,0.7,1.3,1.1,2.1c0.4,0.8,0.9,1.6,1.3,2.4c0.5,0.9,0.9,1.7,1.3,2.4c0.2,0.4,0.5,1,0.8,1.6
			c0.3,0.7,0.6,1.3,0.8,2c0.3,0.7,0.5,1.3,0.7,1.8c0.3,0.8,0.4,1.2,0.4,1.4c0.1,0.7,0,1.5-0.3,2.3c-0.6,1.5-1.6,1.8-2.2,1.9
			C35.7,145,35.6,145,35.5,145z M12.7,115.9C12.7,115.9,12.7,115.9,12.7,115.9C12.7,115.9,12.7,115.9,12.7,115.9z"/>
	</g>
	<g>
		<path class="st1" d="M49.1,141.5c-0.8,0-1.6-0.4-2.1-1.1c-0.4-0.5-0.7-1.1-0.9-1.8c-0.2-0.6-0.3-1.2-0.5-1.9l-0.3-1.5
			c-0.3-0.9-0.5-2-0.7-3.2c-0.2-0.9-0.3-1.7-0.5-2.6c-0.2-0.1-0.3-0.1-0.5-0.2c-0.3-0.1-0.6-0.3-0.9-0.5c-0.5-0.4-0.8-0.9-0.8-1.4
			c-0.1-0.9,0.2-1.8,0.9-2.4c0.2-0.1,0.3-0.3,0.5-0.4c0,0,0-0.1,0-0.1l-0.7-6.1c-0.1-1-0.2-2-0.4-3.1c-0.1-1.1-0.3-2.3-0.4-3.4
			l0-0.1l0-0.1c0-0.4,0.1-0.8,0.2-1.4c0.2-1,0.9-1.7,1.9-1.8c0.7-0.1,1.3,0.1,1.8,0.6c0.3,0.3,0.6,0.7,0.9,1.1
			c0.2,0.3,0.3,0.7,0.4,1.1c0.1,0.4,0.2,0.7,0.2,1l1.3,10.8c0.4-0.1,0.8-0.2,1.2-0.2c0.5-0.1,1-0.2,1.4-0.3l-2.2-9.3
			c-0.1-0.2-0.1-0.5-0.2-0.8c-0.1-0.3-0.1-0.6-0.1-0.8c-0.1-0.9-0.1-1.7,0.1-2.3c0.3-1,1-1.7,2-1.8c1.2-0.1,2.2,0.5,2.5,1.5
			c0.2,0.5,0.4,1.2,0.5,2.2l0.3,1.6c0.1,0.5,0.2,1,0.3,1.5l1.9,7.4c0,0,0.1,0,0.1,0c1.5,0,2.1,1,2.2,1.8l0,0
			c0.1,0.7-0.2,1.3-0.7,1.8c-0.2,0.2-0.5,0.3-0.7,0.5l0.4,1.3c0.4,1.3,0.7,2.6,1,3.9c0.3,1.3,0.6,2.6,0.7,3.8c0.1,1,0.1,2,0,2.8
			c-0.3,2-1.6,2.4-2.2,2.5c-0.7,0.1-1.6-0.1-2.3-1.7c-0.3-0.6-0.6-1.4-0.8-2.2c-0.2-0.8-0.4-1.6-0.6-2.4c-0.2-0.8-0.3-1.4-0.3-1.8
			c0-0.2-0.1-0.6-0.2-1.1c-0.1-0.5-0.2-1-0.3-1.6c-0.1-0.5-0.2-1-0.4-1.5c-0.3,0.1-0.6,0.1-0.9,0.2c-0.7,0.2-1.4,0.4-2.3,0.7
			c0.1,0.6,0.2,1.2,0.3,1.8c0.2,0.9,0.4,1.8,0.6,2.7c0.2,0.9,0.4,1.9,0.6,2.8c0.2,1,0.3,1.9,0.4,2.8c0.1,0.5,0.1,0.9,0,1.3
			c-0.2,0.9-0.8,1.5-1.7,1.6C49.3,141.5,49.2,141.5,49.1,141.5z M46.3,126.1l-0.6,0.3c-0.1,0-0.1,0.1-0.1,0.1l0.5-0.1l0-0.1l0.7-0.3
			L46.3,126.1z M44.5,126.2C44.5,126.2,44.5,126.2,44.5,126.2C44.5,126.2,44.5,126.2,44.5,126.2z"/>
	</g>
	<g>
		<path class="st1" d="M65.7,139c-1.7,0-2.5-1.1-2.6-2.1c-0.1-1.1,0.3-1.9,0.7-2.3c0.3-0.4,0.8-0.6,1.2-0.9c0.2-0.1,0.4-0.2,1.1-0.5
			c0.6-0.2,1.3-0.5,2.1-0.8c0.8-0.3,1.7-0.6,2.6-1l2.7-1c0.6-0.2,1-0.4,1.5-0.6l-1-2.4c-0.8-2.2-1.4-4.4-2-6.7
			c-0.4-1.6-0.8-3.2-1.1-4.8l-1.8,1.2c-0.8,0.5-1.5,1-2.2,1.4c-1.1,0.7-1.5,0.9-1.8,0.9c-0.4,0-1.1,0-1.8-0.5c-0.8-0.5-1-1.2-1-1.6
			c-0.1-1.1,0.7-2,1-2.3c0.5-0.5,1-1,1.7-1.5c0.7-0.5,1.4-1,2.2-1.5c0.8-0.5,1.5-0.9,2.3-1.3c0.7-0.4,1.4-0.7,1.9-1
			c0.7-0.3,1.1-0.5,1.5-0.5c0.1,0,0.3,0,0.7-0.2c0.4-0.2,0.9-0.3,1.3-0.5c0.5-0.2,1.1-0.4,1.6-0.6c0.6-0.2,1.2-0.3,1.7-0.4
			c1.5-0.2,2.3,0.7,2.4,1.7c0.1,0.6-0.1,1.3-0.6,1.7l-0.2,0.2l-1.7,0.7c-0.4,0.1-0.8,0.3-1.2,0.5c-0.4,0.1-0.7,0.3-1,0.5
			c-0.1,0.1-0.2,0.1-0.3,0.2c0.1,0.7,0.3,1.7,0.6,2.7c0.4,1.4,0.8,2.8,1.2,4.4c0.4,1.6,0.9,3.1,1.4,4.7c0.3,1,0.6,2,0.9,3l7.5-2.9
			c0.1,0,0.3-0.1,0.4-0.1c0.2-0.1,0.4-0.2,0.7-0.3c0.3-0.1,0.5-0.1,0.8-0.2c0.9-0.1,2,0.5,2.2,2l0,0c0.2,1.3-0.5,2.4-1.8,3.1
			c-0.8,0.4-1.7,0.9-2.7,1.3c-1,0.5-2,0.9-3,1.3c-0.9,0.4-1.7,0.7-2.4,1c-0.1,0-0.1,0.1-0.2,0.1l0.2,0.8c0.1,0.5,0,1-0.1,1.4
			c-0.3,0.7-0.9,1.2-1.7,1.3c-1.1,0.1-1.7-0.4-2-0.7c-0.2-0.3-0.4-0.6-0.6-0.9c0,0,0-0.1,0-0.1l-1.3,0.5c-0.7,0.3-1.5,0.6-2.4,1
			c-0.9,0.4-1.8,0.7-2.6,1c-0.8,0.3-1.6,0.6-2.4,0.8c-0.9,0.3-1.5,0.4-2,0.5C66.1,139,65.9,139,65.7,139z M79.9,134.2
			C79.9,134.2,79.9,134.2,79.9,134.2C79.9,134.2,79.9,134.2,79.9,134.2z M88.4,126.9C88.4,126.9,88.4,126.9,88.4,126.9l1.5-0.2
			L88.4,126.9z M64.5,116.8L64.5,116.8L64.5,116.8z M72.7,112.8C72.7,112.8,72.7,112.8,72.7,112.8C72.7,112.8,72.7,112.8,72.7,112.8
			z"/>
	</g>
	<g>
		<path class="st1" d="M102.7,135.9c-0.7,0-1.3-0.4-1.9-1.2c-0.3-0.5-0.7-1-1.1-1.7c-0.4-0.7-0.8-1.5-1.2-2.3
			c-0.4-0.8-0.8-1.6-1.2-2.5l-1.1-2.3c-0.3-0.7-0.6-1.3-0.8-1.8l-1.9-4c-0.4-0.8-0.8-1.7-1.3-2.7c-0.4-0.9-0.8-1.8-1.2-2.6
			c-0.4-0.8-0.7-1.5-0.9-2.2c-0.4-0.9-0.4-1.3-0.5-1.6c-0.1-0.5-0.1-1,0-1.6c0.2-1.3,1-1.9,1.8-2c0.2,0,0.5,0,0.7,0l0.2-0.1l0.3,0
			c0.7-0.1,1.4,0.3,2.1,0.8c0.5,0.4,1.1,0.9,1.8,1.6c0.7,0.6,1.4,1.3,2.2,2.1c0.7,0.8,1.5,1.5,2.3,2.3c0.8,0.7,1.5,1.4,2.2,2.1
			c0.6,0.6,1.2,1,1.6,1.3c0.8,0.6,1.7,1.1,2.5,1.7l2.5,1.6c0.9,0.5,1.8,1.1,2.7,1.8c0.1,0.1,0.2,0.2,0.4,0.2
			c-0.4-1.1-0.9-2.5-1.6-3.9c-0.7-1.6-1.5-3.3-2.4-5.1c-0.9-1.8-1.8-3.5-2.7-5.2c-0.9-1.6-1.9-3.1-2.8-4.4c-0.9-1.2-1.7-2.2-2.5-2.8
			c-0.4-0.3-0.8-0.9-1-1.6c-0.2-0.5-0.3-0.9-0.3-1.3c-0.1-0.7,0.2-1.4,0.8-2c0.5-0.6,1.1-1,1.8-1c1.3-0.2,2.3,0.8,2.9,1.6
			c0.7,0.8,1.4,1.9,2.2,3.2c0.8,1.3,1.6,2.7,2.4,4.3c0.8,1.6,1.6,3.2,2.4,4.8c0.9,1.9,1.8,3.8,2.7,5.7c0.8,1.9,1.6,3.7,2.3,5.3
			c0.7,1.6,1.3,3.2,1.7,4.5c0.5,1.4,0.8,2.5,1,3.3l0,0.1c0.1,0.5,0,1.4-0.7,2.2c-0.5,0.6-1.2,0.9-1.9,1c-0.5,0.1-0.9-0.1-1.1-0.2
			c-0.3-0.1-0.5-0.2-0.6-0.4c-1.5-1.2-3.2-2.3-5-3.4c-1.8-1.1-3.6-2.3-5.4-3.5c-1.8-1.2-3.7-2.5-5.5-3.9c0,0,0,0,0,0
			c0.9,1.7,1.7,3.4,2.5,4.9c0.9,1.7,1.7,3.2,2.4,4.5c1,1.8,1.2,2.5,1.2,2.9c0.1,0.9-0.2,1.7-0.8,2.3c-0.5,0.5-1.2,0.9-1.8,0.9
			C102.8,135.8,102.8,135.9,102.7,135.9z M117,129l-0.5,1.2l0.6-1.2L117,129z M117.1,128.8L117.1,128.8l0.1,0
			C117.2,128.8,117.1,128.8,117.1,128.8z M115.6,127.7c0.3,0.2,0.7,0.5,1,0.7c-0.1-0.3-0.2-0.7-0.3-1.1
			C116,127.5,115.8,127.6,115.6,127.7z M93.1,108.2C93.1,108.2,93.1,108.2,93.1,108.2C93.1,108.2,93.1,108.2,93.1,108.2z"/>
	</g>
	<g>
		<path class="st1" d="M130.9,131.2c-0.8,0-1.5-0.1-2.3-0.2c-1.2-0.3-2.4-0.8-3.4-1.5c-1-0.7-1.9-1.6-2.6-2.8
			c-0.7-1.2-1.2-2.5-1.4-4.1c-0.3-2.4-0.1-4.9,0.4-7.6c0.5-2.6,1.4-5.4,2.6-8.5c0.7-1.9,1.5-3.7,2.1-5.2c0.7-1.6,1.4-2.9,2.1-4
			c0.8-1.2,1.6-2.1,2.4-2.8c0.9-0.7,2-1.2,3.2-1.3c0.9-0.1,1.8,0,2.5,0.3c0.6,0.2,1.7,0.9,1.9,2.7c0.1,0.5,0,1-0.2,1.4
			c-0.3,0.7-0.9,1.2-1.6,1.3c-0.7,0.1-1.2-0.1-1.5-0.3c0,0-0.1,0-0.2,0c-0.5,0.1-1.1,0.4-1.6,1.1c-0.7,0.9-1.4,1.9-2,3
			c-0.6,1.1-1.1,2.3-1.5,3.4c-0.4,1.1-0.7,2-0.9,2.5c-0.3,0.9-0.6,2-1,3.2c-0.3,1.2-0.7,2.4-1,3.7c-0.3,1.3-0.5,2.5-0.7,3.6
			c-0.2,1.1-0.2,1.9-0.1,2.5c0.1,0.8,0.3,1.4,0.6,1.9c0.3,0.5,0.7,1,1.1,1.3c0.4,0.3,0.9,0.5,1.5,0.7c0.6,0.1,1.2,0.2,1.9,0.1
			c0.9-0.1,1.8-0.5,2.8-1c1-0.6,1.8-1.4,2.6-2.2c0.7-0.9,1.3-1.9,1.7-2.9c0.4-1,0.5-2,0.4-3c-0.1-0.9-0.4-1.5-0.9-2
			c-0.4-0.4-0.7-0.5-1-0.5c-0.1,0-0.1,0-0.2,0c0,0.1-0.1,0.1-0.1,0.2c-0.2,0.4-0.4,0.8-0.6,1.1c-0.3,0.5-0.9,0.9-1.6,1.3
			c-0.8,0.4-1.5,0.7-2,0.9c-0.4,0.2-0.7,0.3-0.9,0.4l-0.9,0.3c-0.8,0.1-1.4-0.3-1.9-0.6c-0.5-0.3-1.2-0.8-1.3-1.7
			c-0.1-1.1,0.3-2.2,1.3-3.2c0.7-0.7,1.6-1.4,2.5-2c0.9-0.6,1.9-1.1,2.8-1.5c1.2-0.6,1.7-0.7,2-0.7c1.3-0.2,2.5,0,3.4,0.4
			c0.9,0.4,1.7,1,2.3,1.8c0.6,0.7,1,1.6,1.3,2.5c0.3,0.9,0.5,1.7,0.6,2.5c0.1,0.7,0.1,1.5,0.1,2.2c0,0.8-0.2,1.6-0.4,2.4
			c-0.2,0.8-0.6,1.6-1.1,2.4c-0.5,0.8-1.1,1.8-1.8,2.9c-0.9,1.3-2.1,2.6-3.4,3.7c-1.5,1.2-3.2,1.9-5.1,2.2
			C131.8,131.2,131.4,131.2,130.9,131.2z M130.8,114.9L130.8,114.9L130.8,114.9z M134.3,112.2c-0.4,0.2-0.8,0.5-1.2,0.7
			c-0.8,0.5-1.5,1.1-2.1,1.7c0,0,0,0,0,0c0.1-0.1,0.3-0.1,0.4-0.2c0.4-0.2,1-0.4,1.8-0.8c0.3-0.2,0.4-0.3,0.4-0.3
			c0.1-0.2,0.3-0.5,0.4-0.8C134.2,112.5,134.2,112.3,134.3,112.2z M136.9,96C137,96,137,96,136.9,96C137,96,137,96,136.9,96z"/>
	</g>
	<g>
		<path class="st1" d="M159.7,127.8c-0.8,0-1.5-0.1-2.1-0.2c-1.8-0.5-2.3-1.5-2.4-2.3c-0.1-0.8,0.1-1.6,0.5-2.3
			c0.4-0.6,0.9-1,1.5-1.2l0.6-0.2l1.4,0.8c0,0,0.2,0.1,0.5,0.3c0,0,0,0,0,0c0,0,0.2,0,0.7,0c0.5-0.1,1.2-0.2,2-0.5
			c0.8-0.3,1.5-0.7,2.2-1.2c0.6-0.5,1.2-1,1.6-1.6c0.3-0.5,0.4-0.9,0.4-1.5c0-0.1-0.2-0.4-1.1-0.8c-0.7-0.3-2.2-0.7-5.2-0.6
			c-1.3,0.1-2.7,0-4.1,0c-1.4-0.1-2.7-0.3-3.8-0.6c-1.3-0.3-2.3-0.8-3.2-1.5c-1-0.8-1.6-1.9-1.8-3.1c-0.1-1.1,0-2.3,0.5-3.4
			c0.4-1,1-1.9,1.7-2.7c0.7-0.8,1.4-1.6,2.1-2.2c0.7-0.6,1.3-1.1,1.8-1.5c0.5-0.4,1-0.8,1.7-1.3c0.7-0.5,1.5-1,2.3-1.5
			c0.8-0.5,1.7-0.9,2.6-1.3c1-0.4,1.8-0.7,2.5-0.8c1.5-0.2,2.4,0.4,2.8,0.9c0.5,0.6,0.8,1.3,0.9,2.3c0.1,0.7,0.1,1.4,0,2.2
			c-0.1,0.7-0.1,1.4-0.2,2.1c-0.1,0.7-0.2,1.3-0.3,1.8c-0.1,0.7-0.2,1-0.3,1.1c-0.2,0.6-0.5,1-0.9,1.4c-0.3,0.2-0.6,0.5-1.1,0.5
			c-0.5,0.1-0.9-0.1-1.2-0.3c-0.4-0.3-0.6-0.7-0.6-1.2c0-0.2,0-0.4,0-0.9c0-0.3,0-0.7,0.1-1.1c0-0.4,0-0.8,0-1.2
			c0-0.4,0-0.9-0.1-1.3c0-0.2-0.1-0.4-0.1-0.6c-0.2,0.1-0.5,0.2-0.9,0.4c-0.7,0.3-1.5,0.7-2.3,1.2c-0.8,0.5-1.5,1-2.2,1.7
			c-0.7,0.7-1.4,1.4-2,2.1c-0.5,0.7-1,1.3-1.3,1.9c-0.1,0.3-0.2,0.4-0.3,0.6c0,0,0.1,0,0.1,0c0.5,0.2,1.1,0.4,1.9,0.6
			c0.9,0.2,1.8,0.3,2.8,0.3c1,0.1,2.1,0.1,3.1,0.1c0.9,0,1.9,0,3,0.1c1.2,0.1,2.3,0.2,3.3,0.5c1.1,0.3,2.1,0.8,3,1.5
			c1,0.8,1.6,1.9,1.8,3.3l0,0c0.2,1.9,0.1,3.3-0.5,4.6c-0.5,1.1-1.4,2.2-2.5,3.2c-0.4,0.3-0.7,0.6-1.2,0.9c-0.5,0.3-1.1,0.7-1.7,1
			c-0.6,0.3-1.3,0.6-2,0.8c-0.7,0.3-1.4,0.4-2.1,0.5C161,127.8,160.3,127.8,159.7,127.8z"/>
	</g>
</g>
</svg>
