<svg xmlns="http://www.w3.org/2000/svg" width="41.346" height="30.12" viewBox="0 0 41.346 30.12">
  <g id="Group_243" data-name="Group 243" transform="translate(0 0)">
    <path id="Path_895" data-name="Path 895" d="M684.779,952.469c-2.9-2.952-3.395-7.5-3.144-11.63.174-2.858.683-5.842,2.447-8.093,2.868-3.658,8.075-4.323,12.72-4.4a107.873,107.873,0,0,1,15.6.853c3.921.5,8.423,1.675,9.977,5.306,1,2.349.428,5.052-.282,7.512a80.446,80.446,0,0,1-3.729,10.241c-.884,2-1.952,4.069-3.828,5.19s-4.207,1.072-6.386.925a105.8,105.8,0,0,1-14.751-2.059c-3.126-.665-6.387-1.563-8.629-3.841m3.046-14.636a20.825,20.825,0,0,0-.719,6.19,7.045,7.045,0,0,0,2.832,5.341,9.863,9.863,0,0,0,3.327,1.2,102.019,102.019,0,0,0,16.23,2.291,4.032,4.032,0,0,0,2.233-.3,4.127,4.127,0,0,0,1.532-2.273l4.413-11.612a8.357,8.357,0,0,0-4.132,1.443c-3.273,1.876-6.525,3.935-10.187,4.855s-7.909.5-10.638-2.108c-1.706-1.63-2.76-4.019-4.891-5.024m24.322-2.675c.407-.59-.584-1.134-1.3-1.17a157.409,157.409,0,0,0-16.927-.014c-.678.036-1.581.3-1.541.983,2.032,1.264,3.033,3.868,5.212,4.855,2.22,1.009,4.787-.027,7-1.05l7.119-3.3A1.05,1.05,0,0,0,712.147,935.158Z" transform="translate(-681.578 -928.325)" fill="#0600ff"/>
  </g>
</svg>
