<svg id="Group_243" data-name="Group 243" xmlns="http://www.w3.org/2000/svg" width="27.123" height="19.758" viewBox="0 0 27.123 19.758">
  <path id="Path_895" data-name="Path 895" d="M683.678,944.163c-1.9-1.937-2.227-4.919-2.062-7.629a9.416,9.416,0,0,1,1.605-5.309c1.881-2.4,5.3-2.836,8.344-2.889a70.771,70.771,0,0,1,10.237.56c2.572.328,5.526,1.1,6.545,3.48.659,1.541.281,3.314-.185,4.928a52.735,52.735,0,0,1-2.446,6.718,7.061,7.061,0,0,1-2.511,3.4,7.193,7.193,0,0,1-4.19.606,69.429,69.429,0,0,1-9.677-1.351c-2.051-.436-4.19-1.025-5.66-2.52m2-9.6a13.655,13.655,0,0,0-.472,4.061,4.622,4.622,0,0,0,1.858,3.5,6.472,6.472,0,0,0,2.182.788,66.9,66.9,0,0,0,10.647,1.5,2.642,2.642,0,0,0,1.465-.2,2.706,2.706,0,0,0,1-1.491l2.895-7.617a5.483,5.483,0,0,0-2.71.946,27.151,27.151,0,0,1-6.683,3.185c-2.4.6-5.188.328-6.979-1.383-1.119-1.069-1.81-2.637-3.208-3.3m15.955-1.755c.267-.387-.384-.744-.856-.768a103.255,103.255,0,0,0-11.1-.009c-.445.024-1.037.2-1.011.645,1.333.829,1.989,2.537,3.419,3.185,1.456.662,3.14-.017,4.594-.688l4.67-2.162A.692.692,0,0,0,701.632,932.807Z" transform="translate(-681.578 -928.325)" fill="#171717"/>
</svg>
