<svg xmlns="http://www.w3.org/2000/svg" width="92.548" height="82.313" viewBox="0 0 92.548 82.313">
  <g id="Group_953" data-name="Group 953" transform="translate(8534.351 -2268.764)">
    <path id="Path_2830" data-name="Path 2830" d="M279.271,422.644A49.775,49.775,0,0,1,254.219,408a39.792,39.792,0,0,1-10.395-26.828c.229-13.172,8.135-25.678,19.376-32.55s25.389-8.313,38.146-5.014a49.636,49.636,0,0,1,25,15.01,39.738,39.738,0,0,1,10,27.127c-.475,12.965-8.384,25.152-19.485,31.869s-25,8.166-37.589,5.034m-4.568-8.639a45.876,45.876,0,0,0,21.731,3.152c14.579-1.445,28.879-11.363,32.226-25.627,2.308-9.833-.859-20.564-7.418-28.246s-16.211-12.406-26.2-13.907c-9.54-1.432-19.644.02-27.951,4.926s-14.615,13.414-16,22.961C248.845,392.791,260.172,408.087,274.7,414.005Z" transform="translate(-8778.17 1926.853)" fill="#0600ff"/>
    <path id="Path_2904" data-name="Path 2904" d="M272.348,366.422a5.341,5.341,0,0,1-4.386,1.6,7.341,7.341,0,0,1-6.047-3.474,5.428,5.428,0,0,1,.994-6.637,5.717,5.717,0,0,1,3.96-1.2c3.543.184,6.732,3.48,6.482,7.019A4.711,4.711,0,0,1,272.348,366.422Z" transform="translate(-8756.95 1944.896)" fill="#0600ff"/>
    <path id="Path_2907" data-name="Path 2907" d="M264.545,364.5c-1.165-2.291-3.745-3.458-5.469-5.365s-1.987-5.722.491-6.408c1.658-.459,3.225.879,4.428,2.111q2.85,2.91,5.7,5.825c1.676,1.714,4.746-.235,5.3-2.568s-.253-4.777-.04-7.165,2.366-5.008,4.6-4.144c1.827.706,2.2,3.156,1.833,5.079s-1.168,3.9-.606,5.771,3.485,2.981,4.428,1.265l5.1-9.274c.948-1.725,3.774-1.611,5-.069a5.134,5.134,0,0,1,.073,5.569,15.043,15.043,0,0,1-4.1,4.2c-1.521,1.2-.309,3.96,1.587,4.344s3.754-.812,5.11-2.189,2.51-3.025,4.2-3.96,4.206-.819,5.145.872c1.245,2.244-1.125,4.726-3.225,6.2l-7.531,5.283c3.119,2.229,7.767-4.015,10.666-1.509,2.027,1.751-.16,5.085-2.586,6.215s-5.554,1.969-6.255,4.55c2.761-.049,5.529-1.214,8.217-.577s4.559,4.679,2.173,6.069a4.854,4.854,0,0,1-2.317.459l-10.029.306c-1.569.049-2.211,2.275-1.447,3.647s2.28,2.1,3.612,2.93,2.668,2.075,2.628,3.645c-.076,3.032-4.841,3.356-7.114,1.35s-3.454-5.154-6.047-6.728a1.5,1.5,0,0,0-1.472-.224c-.639.373-.5,1.323-.273,2.027q2.171,6.789,4.337,13.576c.728,2.275-2.772,3.96-4.8,2.706s-2.695-3.847-3.185-6.182l-2.581-12.288c-1.467,1.838-1.365,4.419-1.847,6.721s-2.328,4.828-4.624,4.311c-2.937-.661-2.668-5.041-1.13-7.631.688-1.154,1.518-2.388,1.319-3.718s-2.182-2.253-2.895-1.114a49.4,49.4,0,0,1-8.5,10.2c-1.381,1.265-3.434,2.5-4.981,1.447-2.011-1.37-.579-4.5,1.03-6.328q3.619-4.1,7.616-7.847c-3.778-1.059-8.042,4.934-10.846,2.189-1.838-1.8.149-4.99,2.5-6.038s5.23-1.316,6.877-3.294c-1.8-.89-3.947-.553-5.924-.189s-4.113.719-5.933-.14-2.908-3.478-1.532-4.946a4.876,4.876,0,0,1,3.425-1.077l9.463-.468c-1.352-2.171-4.344-2.362-6.819-3s-5.163-3.11-3.9-5.334c.994-1.758,3.6-1.623,5.456-.823s3.709,2.047,5.7,1.734m13.571,2.291a9.971,9.971,0,0,0-6.4,3.356,6.789,6.789,0,0,0-1.083,6.939,9.591,9.591,0,0,0,4.695,4.164c3.165,1.585,6.832,2.568,10.253,1.658s6.368-4.173,5.991-7.691a8.3,8.3,0,0,0-2.71-4.952A13.18,13.18,0,0,0,278.117,366.792Z" transform="translate(-8769.899 1932.593)" fill="#0600ff"/>
    <g id="Group_952" data-name="Group 952" transform="translate(858 273)">
      <path id="Path_2909" data-name="Path 2909" d="M279.271,422.644A49.775,49.775,0,0,1,254.219,408a39.792,39.792,0,0,1-10.395-26.828c.229-13.172,8.135-25.678,19.376-32.55s25.389-8.313,38.146-5.014a49.636,49.636,0,0,1,25,15.01,39.738,39.738,0,0,1,10,27.127c-.475,12.965-8.384,25.152-19.485,31.869s-25,8.166-37.589,5.034m-4.568-8.639a45.876,45.876,0,0,0,21.731,3.152c14.579-1.445,28.879-11.363,32.226-25.627,2.308-9.833-.859-20.564-7.418-28.246s-16.211-12.406-26.2-13.907c-9.54-1.432-19.644.02-27.951,4.926s-14.615,13.414-16,22.961C248.845,392.791,260.172,408.087,274.7,414.005Z" transform="translate(-9636.17 1653.853)" fill="#0600ff"/>
      <path id="Path_2910" data-name="Path 2910" d="M272.348,366.422a5.341,5.341,0,0,1-4.386,1.6,7.341,7.341,0,0,1-6.047-3.474,5.428,5.428,0,0,1,.994-6.637,5.717,5.717,0,0,1,3.96-1.2c3.543.184,6.732,3.48,6.482,7.019A4.711,4.711,0,0,1,272.348,366.422Z" transform="translate(-9614.95 1671.896)" fill="#0600ff"/>
      <path id="Path_2911" data-name="Path 2911" d="M264.545,364.5c-1.165-2.291-3.745-3.458-5.469-5.365s-1.987-5.722.491-6.408c1.658-.459,3.225.879,4.428,2.111q2.85,2.91,5.7,5.825c1.676,1.714,4.746-.235,5.3-2.568s-.253-4.777-.04-7.165,2.366-5.008,4.6-4.144c1.827.706,2.2,3.156,1.833,5.079s-1.168,3.9-.606,5.771,3.485,2.981,4.428,1.265l5.1-9.274c.948-1.725,3.774-1.611,5-.069a5.134,5.134,0,0,1,.073,5.569,15.043,15.043,0,0,1-4.1,4.2c-1.521,1.2-.309,3.96,1.587,4.344s3.754-.812,5.11-2.189,2.51-3.025,4.2-3.96,4.206-.819,5.145.872c1.245,2.244-1.125,4.726-3.225,6.2l-7.531,5.283c3.119,2.229,7.767-4.015,10.666-1.509,2.027,1.751-.16,5.085-2.586,6.215s-5.554,1.969-6.255,4.55c2.761-.049,5.529-1.214,8.217-.577s4.559,4.679,2.173,6.069a4.854,4.854,0,0,1-2.317.459l-10.029.306c-1.569.049-2.211,2.275-1.447,3.647s2.28,2.1,3.612,2.93,2.668,2.075,2.628,3.645c-.076,3.032-4.841,3.356-7.114,1.35s-3.454-5.154-6.047-6.728a1.5,1.5,0,0,0-1.472-.224c-.639.373-.5,1.323-.273,2.027q2.171,6.789,4.337,13.576c.728,2.275-2.772,3.96-4.8,2.706s-2.695-3.847-3.185-6.182l-2.581-12.288c-1.467,1.838-1.365,4.419-1.847,6.721s-2.328,4.828-4.624,4.311c-2.937-.661-2.668-5.041-1.13-7.631.688-1.154,1.518-2.388,1.319-3.718s-2.182-2.253-2.895-1.114a49.4,49.4,0,0,1-8.5,10.2c-1.381,1.265-3.434,2.5-4.981,1.447-2.011-1.37-.579-4.5,1.03-6.328q3.619-4.1,7.616-7.847c-3.778-1.059-8.042,4.934-10.846,2.189-1.838-1.8.149-4.99,2.5-6.038s5.23-1.316,6.877-3.294c-1.8-.89-3.947-.553-5.924-.189s-4.113.719-5.933-.14-2.908-3.478-1.532-4.946a4.876,4.876,0,0,1,3.425-1.077l9.463-.468c-1.352-2.171-4.344-2.362-6.819-3s-5.163-3.11-3.9-5.334c.994-1.758,3.6-1.623,5.456-.823s3.709,2.047,5.7,1.734m13.571,2.291a9.971,9.971,0,0,0-6.4,3.356,6.789,6.789,0,0,0-1.083,6.939,9.591,9.591,0,0,0,4.695,4.164c3.165,1.585,6.832,2.568,10.253,1.658s6.368-4.173,5.991-7.691a8.3,8.3,0,0,0-2.71-4.952A13.18,13.18,0,0,0,278.117,366.792Z" transform="translate(-9627.899 1659.593)" fill="#0600ff"/>
    </g>
  </g>
</svg>
