<svg id="Group_950" data-name="Group 950" xmlns="http://www.w3.org/2000/svg" width="112.159" height="133.619" viewBox="0 0 112.159 133.619">
  <path id="Path_2363" data-name="Path 2363" d="M551.037,293.365a33.945,33.945,0,0,1,23.838-4.189,26.263,26.263,0,0,1,14.277,7.545c6.047,6.544,7.365,16.73,4.087,25.014s-10.677,14.588-19.085,17.534a31.972,31.972,0,0,1-20.353.524,25.059,25.059,0,0,1-15.125-13.278c-5.2-11.791,1.325-26.5,12.362-33.149m5.336,38.865a25.512,25.512,0,0,0,24.868-6.206c4.231-4.213,6.912-10.326,5.831-16.2-1.145-6.231-6.47-11.241-12.584-12.9s-12.794-.286-18.315,2.828c-6.946,3.918-12.539,11.434-11.591,19.354a15.244,15.244,0,0,0,5.867,10.215A18.851,18.851,0,0,0,556.373,332.23Z" transform="translate(-517.198 -249.585)" fill="#0600ff"/>
  <path id="Path_2364" data-name="Path 2364" d="M593.207,329.626a3.684,3.684,0,0,1-3.722.981,10.773,10.773,0,0,1-3.556-1.916l-17.016-12.135c-1.481-1.054-3.134-2.477-2.919-4.282.209-1.738,2.2-2.8,3.938-2.637a10.265,10.265,0,0,1,4.7,2.191l15.314,10.648a10.788,10.788,0,0,1,3.241,2.986A3.7,3.7,0,0,1,593.207,329.626Z" transform="translate(-481.682 -223.893)" fill="#0600ff"/>
  <path id="Path_2365" data-name="Path 2365" d="M556.943,272a5.1,5.1,0,0,1,.6,3.425l-1.318,21.292a9.663,9.663,0,0,1-.773,3.849,3.307,3.307,0,0,1-3.152,1.958c-2.2-.282-2.877-3.1-2.97-5.312a128.92,128.92,0,0,1,.648-19.416c.213-1.951.526-4.024,1.831-5.489S555.762,270.432,556.943,272Z" transform="translate(-502.127 -271)" fill="#0600ff"/>
  <path id="Path_2366" data-name="Path 2366" d="M582.211,281.764c1.27-1.09,2.823-2.253,4.45-1.86,1.9.457,2.695,2.935,2.069,4.79s-2.2,3.2-3.709,4.453L571.454,300.4a10.344,10.344,0,0,1-3.833,2.331,3.537,3.537,0,0,1-3.973-1.37c-1.128-2.051.824-4.386,2.6-5.911Z" transform="translate(-484.928 -260.235)" fill="#0600ff"/>
  <path id="Path_2367" data-name="Path 2367" d="M547.507,295.754c1.485,1.631,3.052,3.982,1.86,5.836a3.48,3.48,0,0,1-4.084,1.028,10.185,10.185,0,0,1-3.583-2.737L530.788,288.6a11.111,11.111,0,0,1-2.417-3.2,3.36,3.36,0,0,1,4.666-4.55,11.137,11.137,0,0,1,3.629,2.994Z" transform="translate(-528 -259.43)" fill="#0600ff"/>
  <path id="Path_2368" data-name="Path 2368" d="M555.793,319.387a6.421,6.421,0,0,1,.8,3.432l.735,17.565a10.921,10.921,0,0,1-.4,4.3,3.3,3.3,0,0,1-6.379.206,10.925,10.925,0,0,1-.664-4.138l-.468-15.929c-.073-2.448.167-5.445,2.377-6.5A3.288,3.288,0,0,1,555.793,319.387Z" transform="translate(-501.888 -213.635)" fill="#0600ff"/>
  <path id="Path_2369" data-name="Path 2369" d="M548.854,314.57a3.377,3.377,0,0,1,.693,3.734,9.44,9.44,0,0,1-2.417,3.208,129.281,129.281,0,0,1-11.471,10,9.754,9.754,0,0,1-3.43,1.947,3.106,3.106,0,0,1-3.674-4.686,10.262,10.262,0,0,1,2.6-2.855l11.491-9.8C544.419,314.605,547.074,313.063,548.854,314.57Z" transform="translate(-527.921 -218.609)" fill="#0600ff"/>
  <path id="Path_2370" data-name="Path 2370" d="M549.758,298.376a9.656,9.656,0,0,1,7.367-1.188,7.222,7.222,0,0,1,5.165,5.152c.821,3.674-1.947,7.427-5.432,8.854a9.4,9.4,0,0,1-7.061.162,7.017,7.017,0,0,1-4.333-5.387C545.077,302.915,547.115,299.952,549.758,298.376Z" transform="translate(-506.756 -239.409)" fill="#0600ff"/>
</svg>
