<?xml version="1.0" encoding="utf-8"?>
<!-- Generator: Adobe Illustrator 24.1.3, SVG Export Plug-In . SVG Version: 6.00 Build 0)  -->
<svg version="1.1" id="Laag_1" xmlns="http://www.w3.org/2000/svg" xmlns:xlink="http://www.w3.org/1999/xlink" x="0px" y="0px"
	 viewBox="0 0 64 64" style="enable-background:new 0 0 64 64;" xml:space="preserve">
<style type="text/css">
	.st0{fill:#0600FF;}
</style>
<path id="Path_1603" class="st0" d="M54.55,30.07c0.1,1.51-0.88,2.86-1.89,3.99c-10.35,11.62-27.21,14.83-41.11,7.85
	c-1.09-0.55-2.25-1.29-2.51-2.48c-0.08-1.16,0.32-2.3,1.11-3.16c3.37-4.61,7.67-8.47,12.62-11.33c4.74-2.88,10.19-4.41,15.74-4.4
	c5.59,0.05,10.9,2.47,14.62,6.65c0.76,0.8,1.26,1.81,1.41,2.9 M12.84,38.63c12.61,6.43,27.97,3.56,37.4-7
	c0.35-0.32,0.58-0.75,0.64-1.21c-0.04-0.47-0.26-0.91-0.61-1.23c-2.9-3.11-6.91-4.94-11.16-5.11c-4.22-0.14-8.4,0.77-12.18,2.66
	C21.28,29.4,16.42,33.5,12.84,38.63z"/>
<path id="Path_1604" class="st0" d="M12.32,19.15l-5.68-5.21c-0.69-0.64-1.45-1.53-1.1-2.4c0.37-0.68,1.17-1.01,1.91-0.77
	c0.71,0.25,1.35,0.67,1.87,1.22l4.04,3.68c1.18,0.93,2.75,1.18,4.16,0.66c1.38-0.53,2.65-1.29,3.77-2.25l-3.53-5.93
	c-0.55-0.67-0.74-1.56-0.5-2.39c0.48-0.99,2.03-0.91,2.83-0.17c0.71,0.84,1.23,1.83,1.52,2.89c0.58,1.69,1.74,3.12,3.28,4.03
	c1.59,0.89,3.58,0.62,4.89-0.65l-0.45-5.93c-0.08-1-0.01-2.25,0.91-2.66c0.86-0.25,1.77,0.2,2.09,1.04
	c0.28,0.82,0.38,1.69,0.28,2.55c-0.11,1.29,0.13,2.58,0.7,3.74c0.6,1.18,1.89,1.83,3.2,1.63c1.49-0.36,2.22-2.06,2.43-3.58
	s0.13-3.15,0.91-4.48c0.17-0.32,0.43-0.59,0.75-0.77c1.35-0.66,2.49,1.43,2.13,2.89s-1.36,2.9-0.92,4.34
	c0.54,1.77,2.79,2.22,4.63,2.37c1.12,0.09,1.99-0.98,2.39-2.02c0.26-1.09,0.73-2.13,1.37-3.05c0.76-0.82,2.41-0.92,2.81,0.13
	c0.13,0.59,0.04,1.2-0.26,1.72l-1.85,4.36c0.78,1.02,2.19,1.24,3.35,1.78s2.21,2,1.44,3.02s-2.34,0.5-3.48-0.05
	c-14.18-6.82-32.57-3.51-43.49,7.83c-0.59,0.73-1.34,1.31-2.2,1.69c-0.9,0.35-1.93-0.07-2.31-0.96c-0.09-0.84,0.25-1.66,0.89-2.2
	C7.2,22.9,9.64,20.84,12.32,19.15z"/>
<path id="Path_1605" class="st0" d="M58.96,53.19c-0.28,1.08-1.85,1.27-2.8,0.67c-0.85-0.72-1.61-1.55-2.26-2.47
	c-2.48-2.45-6.47-2.42-8.92,0.05c-0.01,0.01-0.01,0.01-0.02,0.02l1.64,3.65c0.43,0.67,0.51,1.5,0.21,2.24
	c-0.72,1.12-2.55,0.26-3.14-0.93s-0.72-2.69-1.75-3.53c-1.23-0.99-3.03-0.52-4.53,0.01c-1.35,0.47-1.16,2.42-0.74,3.8
	s0.39,3.4-1.02,3.65c-1.43,0.25-2.13-1.7-2.14-3.15s-0.32-3.4-1.77-3.54s-3.14-0.21-4.13,0.87c-0.84,0.92-0.82,2.3-0.81,3.54
	s-0.1,2.65-1.07,3.42s-2.89-0.04-2.5-1.21c0.48-1.19,0.74-2.46,0.77-3.74c0.15-1.8-1.18-3.38-2.98-3.54
	c-1.21-0.1-2.38,0.48-3.04,1.5c-0.95,1.26-1.61,2.72-1.94,4.27c-0.31,1.07-2.07,0.94-2.61-0.03c-0.42-1.05-0.28-2.24,0.36-3.17
	c0.64-0.91,1.13-1.92,1.44-2.98l-5.14-2.05c-1.16-0.46-2.55-1.36-2.22-2.57c0.39-1.43,2.48-1.14,3.86-0.6
	c15.19,5.76,32.29,3.01,44.9-7.23c0.6-0.5,1.33-1.05,2.08-0.84c0.8,0.35,1.18,1.27,0.87,2.08c-0.34,0.77-0.87,1.45-1.56,1.94
	l-4.39,3.83l4.16,3.76C58.46,51.52,59.19,52.32,58.96,53.19z"/>
<path id="Path_1606" class="st0" d="M27.84,31.18c0.33-0.55,0.76-1.05,1.25-1.46c1.81-1.62,4.33-2.17,6.65-1.47
	c2.32,0.8,3.79,3.09,3.54,5.54c-0.28,1.42-1.08,2.69-2.25,3.54c-2.09,1.64-4.95,1.88-7.28,0.6C27.47,36.51,26.64,33.59,27.84,31.18
	 M33.99,35.03c0.97-0.37,1.95-1.28,1.69-2.29c-0.24-0.97-1.45-1.35-2.44-1.23c-0.72,0.06-1.4,0.37-1.91,0.89
	c-0.51,0.53-0.64,1.32-0.34,1.99C31.52,35.37,32.95,35.43,33.99,35.03L33.99,35.03z"/>
</svg>
