<svg xmlns="http://www.w3.org/2000/svg" width="105.855" height="111.768" viewBox="0 0 105.855 111.768">
  <g id="Group_951" data-name="Group 951" transform="translate(0 0)">
    <path id="Path_2404" data-name="Path 2404" d="M689.006,308.1c.2,2.875-1.676,5.449-3.594,7.6a65.542,65.542,0,0,1-78.37,14.961c-2.075-1.043-4.3-2.462-4.777-4.732-.453-2.146.823-4.246,2.118-6.018A78.5,78.5,0,0,1,628.437,298.3c9.11-5.261,19.489-8.686,30-8.4s21.134,4.6,27.871,12.672a10.068,10.068,0,0,1,2.695,5.523M609.5,324.423a59.414,59.414,0,0,0,71.3-13.347,3.816,3.816,0,0,0,1.221-2.311,3.66,3.66,0,0,0-1.159-2.355c-5.285-6.011-13.274-9.274-21.267-9.749s-15.975,1.656-23.218,5.063A68.384,68.384,0,0,0,609.5,324.423Z" transform="translate(-592.911 -256.792)" fill="#0600ff"/>
    <path id="Path_2405" data-name="Path 2405" d="M613.6,305.468l-10.823-9.933c-1.323-1.212-2.77-2.914-2.1-4.579a3.07,3.07,0,0,1,3.64-1.469,8.949,8.949,0,0,1,3.561,2.32l7.709,7.012c2.075,1.887,5.261,2.1,7.933,1.256a24.264,24.264,0,0,0,7.185-4.291l-6.728-11.31c-.83-1.4-1.678-3.1-.961-4.559.923-1.88,3.862-1.742,5.4-.32s2.12,3.563,2.888,5.512c1.239,3.141,3.259,6.133,6.255,7.687s7.083,1.287,9.314-1.245l-.852-11.31c-.144-1.9-.016-4.293,1.729-5.068,1.505-.668,3.305.475,3.989,1.973a11.115,11.115,0,0,1,.537,4.863,13.726,13.726,0,0,0,1.332,7.136c1.21,2.131,3.718,3.7,6.1,3.112,2.844-.693,4.242-3.924,4.633-6.823s.242-6.011,1.727-8.53a3.587,3.587,0,0,1,1.423-1.458c2.579-1.265,4.752,2.73,4.06,5.516s-2.6,5.534-1.758,8.28c1.03,3.37,5.314,4.237,8.826,4.519,2.133.173,3.789-1.865,4.564-3.856s1.15-4.242,2.6-5.809,4.6-1.756,5.349.246a4.55,4.55,0,0,1-.493,3.285l-3.531,8.32c1.487,1.94,4.173,2.362,6.386,3.4s4.206,3.8,2.75,5.765c-1.441,1.936-4.464.957-6.637-.089-27.038-13-62.094-6.692-82.9,14.919a11.018,11.018,0,0,1-4.2,3.216c-1.691.553-3.933-.115-4.411-1.831-.424-1.518.65-3.014,1.7-4.191A64.511,64.511,0,0,1,613.6,305.468Z" transform="translate(-598 -274.976)" fill="#0600ff"/>
    <path id="Path_2406" data-name="Path 2406" d="M698.659,332.546c-.526,2.069-3.534,2.415-5.338,1.274s-2.852-3.139-4.3-4.7c-4.344-4.681-12.763-4.615-17.032.138l3.119,6.959c.61,1.363,1.205,3.014.4,4.266-1.378,2.127-4.87.493-5.986-1.782s-1.37-5.132-3.343-6.721c-2.344-1.891-5.785-.983-8.626.013-2.579.9-2.2,4.624-1.421,7.245s.75,6.475-1.942,6.952c-2.73.484-4.055-3.241-4.08-6.013s-.61-6.479-3.372-6.755-5.991-.4-7.867,1.663c-1.594,1.747-1.565,4.377-1.538,6.741s-.186,5.052-2.033,6.528-5.507-.073-4.759-2.315a20.6,20.6,0,0,0,1.47-7.128c-.084-2.439-1.217-4.994-3.394-6.093-2.686-1.354-6.1-.047-8.082,2.213s-2.87,5.252-3.7,8.142c-.588,2.036-3.953,1.794-4.979-.06s-.333-4.189.693-6.042,2.391-3.6,2.752-5.687l-9.8-3.918c-2.2-.881-4.859-2.6-4.238-4.89.739-2.721,4.728-2.171,7.354-1.139,28.215,11.1,62.281,5.614,85.593-13.773,1.143-.952,2.539-2,3.971-1.594,1.54.437,2.153,2.446,1.654,3.969a9.021,9.021,0,0,1-2.966,3.7l-8.366,7.3,7.922,7.174C697.689,329.363,699.081,330.886,698.659,332.546Z" transform="translate(-594.142 -237.163)" fill="#0600ff"/>
    <path id="Path_2407" data-name="Path 2407" d="M618.957,302.447a11.131,11.131,0,0,1,2.391-2.786c3.436-2.959,8.4-4.293,12.681-2.8s7.461,6.073,6.752,10.553a10.949,10.949,0,0,1-4.3,6.746c-3.909,3.008-9.665,3.722-13.873,1.145s-6.133-8.593-3.654-12.857m11.738,7.347c1.856-.706,3.707-2.444,3.23-4.371-.457-1.845-2.764-2.568-4.65-2.346a5.782,5.782,0,0,0-3.643,1.689,3.439,3.439,0,0,0-.641,3.8C625.987,310.444,628.7,310.553,630.7,309.794Z" transform="translate(-573.78 -249.034)" fill="#0600ff"/>
  </g>
</svg>
