<svg xmlns="http://www.w3.org/2000/svg" width="19.171" height="27.866" viewBox="0 0 19.171 27.866">
  <path id="Path_889" data-name="Path 889" d="M676.436,1006.147a11.058,11.058,0,0,1,2.9-7.981c2.075-2.039,5.536-2.783,7.991-1.222,1.987,1.264,2.917,3.633,3.726,5.843a2.126,2.126,0,0,1-1.355,3.31,6.012,6.012,0,0,1-2.46.712,2.05,2.05,0,0,1-2.008-1.321,1.38,1.38,0,1,0-1.008,1.7,3.06,3.06,0,0,1,3.57,2.438,3.279,3.279,0,0,1-2.564,3.566c-.489.093-1.06.107-1.374.492a1.652,1.652,0,0,0-.214,1.157l.387,5.914a2.3,2.3,0,0,1-1.3,2.037,6.778,6.778,0,0,1-2.455.624c-.783.1-1.718.132-2.2-.494a2.3,2.3,0,0,1-.34-1.26l-.536-7.79c-.04-.6-.758-.9-1.355-.882a5.8,5.8,0,0,1-1.777.054c-1.252-.355-1.445-2.033-1.346-3.331.08-1.06.357-2.339,1.37-2.656a7.452,7.452,0,0,1,1.375-.1c.458-.053.966-.353.964-.815m12.265-2.5c-.519-1.886-1.212-3.989-2.972-4.845-2.107-1.021-4.746.422-5.854,2.486s-1.1,4.524-1.063,6.866c.011.642-.767.985-1.409,1a3.178,3.178,0,0,0-1.865.286c-.514.386-.269,1.495.346,1.309a3.02,3.02,0,0,1,3.711,2.6l.372,6.624a1.158,1.158,0,0,0,.3.863.8.8,0,0,0,1.115-.317,2.305,2.305,0,0,0,.187-1.285l-.227-4.724c-.065-1.357.141-3.11,1.453-3.459a5.989,5.989,0,0,1,1.254-.061,1.242,1.242,0,0,0,1.079-.533c.195-.372-.111-.954-.519-.855a3.756,3.756,0,0,1-4.2-2.159,3.858,3.858,0,0,1,1.39-4.534,3.971,3.971,0,0,1,4.749.384,3.583,3.583,0,0,0,1.077.863C688.053,1004.325,688.67,1004.114,688.7,1003.65Z" transform="translate(-672.449 -995.849)" fill="#171717" stroke="#000" stroke-width="0.5"/>
</svg>
