<svg xmlns="http://www.w3.org/2000/svg" width="28.481" height="41.719" viewBox="0 0 28.481 41.719">
  <path id="Path_889" data-name="Path 889" d="M678.392,1011.412c-.021-4.435,1.263-9.062,4.426-12.167S691.257,995,695,997.383c3.029,1.926,4.446,5.537,5.68,8.907a3.24,3.24,0,0,1-2.066,5.046,9.173,9.173,0,0,1-3.751,1.085,3.125,3.125,0,0,1-3.061-2.014,2.1,2.1,0,1,0-1.537,2.6,4.665,4.665,0,0,1,5.442,3.716,5,5,0,0,1-3.908,5.435c-.745.143-1.615.163-2.1.751a2.519,2.519,0,0,0-.326,1.763l.591,9.015a3.506,3.506,0,0,1-1.976,3.1,10.324,10.324,0,0,1-3.742.951c-1.193.146-2.619.2-3.349-.754a3.507,3.507,0,0,1-.518-1.92l-.818-11.876c-.061-.907-1.155-1.37-2.066-1.344a8.856,8.856,0,0,1-2.709.082c-1.909-.542-2.2-3.1-2.051-5.078.122-1.615.544-3.565,2.089-4.048a11.345,11.345,0,0,1,2.1-.151c.7-.081,1.472-.538,1.469-1.242m18.7-3.806c-.791-2.875-1.848-6.082-4.531-7.385-3.213-1.557-7.234.643-8.924,3.789s-1.676,6.9-1.621,10.467c.017.978-1.17,1.5-2.148,1.528s-2.06-.148-2.843.437-.41,2.278.527,2a4.6,4.6,0,0,1,5.657,3.963l.567,10.1a1.765,1.765,0,0,0,.451,1.316,1.213,1.213,0,0,0,1.7-.483,3.514,3.514,0,0,0,.285-1.958l-.346-7.2c-.1-2.069.215-4.74,2.215-5.273a9.127,9.127,0,0,1,1.911-.093,1.9,1.9,0,0,0,1.644-.812c.3-.567-.169-1.455-.791-1.3a5.727,5.727,0,0,1-6.4-3.291,5.882,5.882,0,0,1,2.118-6.911,6.053,6.053,0,0,1,7.24.585,5.455,5.455,0,0,0,1.641,1.315C696.1,1008.635,697.042,1008.313,697.088,1007.605Z" transform="translate(-672.704 -996.106)" fill="#0600ff"/>
</svg>
