<svg xmlns="http://www.w3.org/2000/svg" width="118.019" height="116.469" viewBox="0 0 118.019 116.469">
  <g id="Group_615" data-name="Group 615" transform="translate(-718 -426.359)">
    <path id="Path_1713" data-name="Path 1713" d="M412.638,50.792a2.828,2.828,0,0,1,.632,3.373,8.26,8.26,0,0,1-2.417,2.773L397.491,68.28a7.853,7.853,0,0,1-2.773,1.749,2.67,2.67,0,0,1-2.959-.867c-1.011-1.555.509-3.483,1.906-4.7L407.732,52.18C409.121,50.968,411.147,49.7,412.638,50.792Z" transform="translate(407.674 385.831)" fill="#0a23fb"/>
    <path id="Path_1714" data-name="Path 1714" d="M377.065,45.72a2.824,2.824,0,0,1,3.235.856,8.235,8.235,0,0,1,1.511,3.236l5.2,17.358c.484,1.615.789,3.755-.648,4.644a2.666,2.666,0,0,1-3.183-.668,7.774,7.774,0,0,1-1.537-3.132l-5.385-17.086C375.681,49.1,375.358,46.6,377.065,45.72Z" transform="translate(394.768 381.8)" fill="#0a23fb"/>
    <path id="Path_1715" data-name="Path 1715" d="M378.282,101.9c-1.108-.2-1.88,1.04-2.313,2.081l-4.863,11.725c4.366,3.041,9.224,7.015,8.985,12.334-.2,4.558-4.456,8.163-8.948,8.966s-9.083-.61-13.256-2.457a22.4,22.4,0,0,1-8.218-5.533c-2.161-2.535-3.333-6.122-2.273-9.28.984-2.93,3.718-5.013,6.661-5.96a26.157,26.157,0,0,1,9.191-.779,4.067,4.067,0,0,0,2.636-.473A4.009,4.009,0,0,0,367,110.889l4.419-9.653c.354-.776.637-1.858-.062-2.346a24.491,24.491,0,0,1-9.08-26.731,12.2,12.2,0,0,1,3.151-5.431,14.151,14.151,0,0,1,5.754-2.809,41.4,41.4,0,0,1,21.729-.686,29.538,29.538,0,0,1,17.58,12.349,11.372,11.372,0,0,1,1.911,4.876c.246,2.539-.847,5.018-2.183,7.19A31.8,31.8,0,0,1,378.282,101.9m26.89-17.055a110.565,110.565,0,0,1-36.033-10.394.974.974,0,0,0-.548-.142c-.319.047-.5.385-.619.685-2.317,5.847-.172,12.969,4.58,17.091s11.664,5.319,17.747,3.718a26.809,26.809,0,0,0,14.873-10.958m-1.692-6.221a2.07,2.07,0,0,0,1.166-.1,1.051,1.051,0,0,0,.557-.736A29.436,29.436,0,0,0,372.26,70.1a105.229,105.229,0,0,0,31.22,8.526m-29.686,50.553c1.031-2.006-.641-4.31-2.285-5.852a4.82,4.82,0,0,0-2.415-1.466,1.767,1.767,0,0,0-2.1,1.426c-.068,2.214-3.262,3.474-4.925,2.008s-1.019-4.624,1.028-5.474c.52-.217.495-1.04.073-1.415a2.327,2.327,0,0,0-1.6-.407,17.036,17.036,0,0,0-4.989.821,6.29,6.29,0,0,0-3.359,2.147,2.849,2.849,0,0,0,.217,3.693c4.6,3.89,10.328,7.044,16.33,6.562C371.336,131.1,373.076,130.581,373.793,129.181Z" transform="translate(371 395.498)" fill="#0a23fb"/>
    <path id="Path_1716" data-name="Path 1716" d="M388.721,67.949a2.665,2.665,0,0,1-2.108-2.159,7.813,7.813,0,0,1,.173-3.193L389.3,49.7a8.3,8.3,0,0,1,1.194-3.4,2.841,2.841,0,0,1,3.16-1.174c1.8.714,1.711,3.257,1.3,5.146l-2.944,13.694C391.611,65.821,390.607,68.148,388.721,67.949Z" transform="translate(403.609 381.377)" fill="#0a23fb"/>
    <path id="Path_1717" data-name="Path 1717" d="M399.08,122.778c1.216-.363,2.583-.759,3.2-1.867a4.64,4.64,0,0,0,.42-2.041l.613-11.969a25.425,25.425,0,0,1-19.128-19.975,12.754,12.754,0,0,1,.4-6.871,13.711,13.711,0,0,1,3.019-4.31c10.591-11.007,28.914-13.548,42.1-5.838a10.059,10.059,0,0,1,4.007,3.651,9.844,9.844,0,0,1,.809,5.285c-.832,13.331-11.575,25.4-24.72,27.775-.964.173-1.227,1.411-1.278,2.388l-.456,8.758c-.1,1.964.173,4.492,2.064,5.031,4.08,1.163,8.589,2.692,10.522,6.469,2.344,4.574-.546,10.483-5.009,13.032s-9.928,2.512-15.036,1.933c-4.878-.551-10.454-2.106-12.34-6.639-1.327-3.191-.259-7.022,2-9.638a18.367,18.367,0,0,1,8.818-5.173m29.5-41.455a10.073,10.073,0,0,0-3.685.5,97.192,97.192,0,0,1-33.921,2.587c-.394-.04-.562.487-.571.883-.144,6.283,4.372,12.2,10.27,14.377s12.787.831,17.9-2.828a26.907,26.907,0,0,0,10.01-15.516m-2.541-5.677c.318-.716-.456-1.416-1.146-1.787a25.629,25.629,0,0,0-16.372-2.388,36.848,36.848,0,0,0-15.277,6.758,1,1,0,0,0-.438.513c-.139.577.683.852,1.274.856a125.72,125.72,0,0,0,31.959-3.952m-25.921,52.146a19.168,19.168,0,0,0-4.677,2.972c-1.438,1.239-2.769,3.255-1.838,4.907a4.551,4.551,0,0,0,2.859,1.769c5.732,1.716,12.455,2.49,17.248-1.09,1.134-.847,2.183-2.174,1.847-3.55a4.393,4.393,0,0,0-1.794-2.2,7.279,7.279,0,0,0-4.054-1.968c-1.53-.042-3.158,1.395-2.687,2.851a2.648,2.648,0,0,1-2.22,3.22,3.341,3.341,0,0,1-3.388-2.346,4.562,4.562,0,0,1,.953-4.178C402.161,127.332,400.916,127.434,400.119,127.792Z" transform="translate(401.461 398.277)" fill="#0a23fb"/>
  </g>
</svg>
