<svg id="Group_237" data-name="Group 237" xmlns="http://www.w3.org/2000/svg" width="22.897" height="24.482" viewBox="0 0 22.897 24.482">
  <path id="Path_896" data-name="Path 896" d="M640.628,966.42a26.055,26.055,0,0,1,.513-8.333c.568-2.515,1.642-5.108,3.809-6.5a10.822,10.822,0,0,1,4.974-1.373,42.68,42.68,0,0,1,8.481.1c2.652.294,3.991,3.329,4.471,5.953a32.23,32.23,0,0,1-.018,11.642c-.358,1.924-.977,3.948-2.515,5.154a7.985,7.985,0,0,1-4.273,1.365,26.693,26.693,0,0,1-8.823-.69c-2.012-.5-4.085-1.332-5.286-3.022a8.8,8.8,0,0,1-1.332-4.289m5.235-11.6a5.844,5.844,0,0,0-1.16,2.322,23.741,23.741,0,0,0-.967,8.557,4.572,4.572,0,0,0,4.151,5.035,22.942,22.942,0,0,0,9.2.274,2.841,2.841,0,0,0,1.7-.741,2.87,2.87,0,0,0,.536-1.21,28.8,28.8,0,0,0,.421-12.416c-.289-1.558-1.051-3.4-2.629-3.548a32.446,32.446,0,0,0-7.521.193A6.087,6.087,0,0,0,645.863,954.821Z" transform="translate(-640.499 -950.045)" fill="#171717"/>
  <path id="Path_1041" data-name="Path 1041" d="M648.951,953.676a1.322,1.322,0,1,1-.9-1.857A1.4,1.4,0,0,1,648.951,953.676Z" transform="translate(-631.331 -947.359)" fill="#171717"/>
  <path id="Path_1049" data-name="Path 1049" d="M649.212,952.831a5.481,5.481,0,0,1,.809,10.643,5.581,5.581,0,0,1-6.318-2.5,5.462,5.462,0,0,1-.505-4.058,5.836,5.836,0,0,1,2.16-3.106,5.259,5.259,0,0,1,1.893-.911,5.013,5.013,0,0,1,1.962-.064m-3.238,5.821a2.361,2.361,0,1,0,1.89-2.693A2.453,2.453,0,0,0,645.974,958.652Z" transform="translate(-636.631 -945.864)" fill="#171717"/>
</svg>
