<svg xmlns="http://www.w3.org/2000/svg" width="34.904" height="37.32" viewBox="0 0 34.904 37.32">
  <g id="Group_237" data-name="Group 237" transform="translate(0 0)">
    <path id="Path_896" data-name="Path 896" d="M640.7,975.008a39.718,39.718,0,0,1,.781-12.7c.866-3.833,2.5-7.787,5.806-9.914a16.493,16.493,0,0,1,7.582-2.093,65.058,65.058,0,0,1,12.927.147c4.043.449,6.085,5.075,6.816,9.075a49.13,49.13,0,0,1-.027,17.747c-.545,2.932-1.489,6.019-3.834,7.857a12.174,12.174,0,0,1-6.514,2.081,40.682,40.682,0,0,1-13.45-1.052c-3.067-.766-6.228-2.031-8.058-4.607a13.415,13.415,0,0,1-2.031-6.537m7.98-17.682a8.908,8.908,0,0,0-1.768,3.539,36.192,36.192,0,0,0-1.474,13.044c.139,1.973.5,4.066,1.853,5.5a8.717,8.717,0,0,0,4.476,2.17,34.966,34.966,0,0,0,14.026.418,4.331,4.331,0,0,0,2.592-1.13,4.376,4.376,0,0,0,.816-1.845,43.9,43.9,0,0,0,.642-18.927c-.441-2.375-1.6-5.187-4.008-5.408a49.454,49.454,0,0,0-11.465.294C652.3,955.28,650.1,955.786,648.676,957.326Z" transform="translate(-640.499 -950.045)" fill="#0600ff"/>
    <path id="Path_1041" data-name="Path 1041" d="M650.256,954.664a2.015,2.015,0,1,1-1.366-2.832A2.127,2.127,0,0,1,650.256,954.664Z" transform="translate(-623.395 -945.035)" fill="#0600ff"/>
    <path id="Path_1049" data-name="Path 1049" d="M652.462,952.866A8.355,8.355,0,0,1,653.7,969.09a8.507,8.507,0,0,1-9.632-3.818,8.326,8.326,0,0,1-.77-6.186,8.9,8.9,0,0,1,3.292-4.735,8.02,8.02,0,0,1,2.886-1.389,7.642,7.642,0,0,1,2.99-.1m-4.936,8.874a3.6,3.6,0,1,0,2.882-4.1A3.739,3.739,0,0,0,647.527,961.74Z" transform="translate(-633.284 -942.246)" fill="#0600ff"/>
  </g>
</svg>
