<svg id="Group_583" data-name="Group 583" xmlns="http://www.w3.org/2000/svg" width="54.721" height="66.11" viewBox="0 0 54.721 66.11">
  <path id="Path_1653" data-name="Path 1653" d="M461.55,911.962a1.633,1.633,0,0,1-1.786.762,4.772,4.772,0,0,1-1.844-.951l-4.607-3.311a4.919,4.919,0,0,1-1.557-1.516,1.687,1.687,0,0,1,.188-2.023c.833-.745,2.129-.087,3.027.577q2.593,1.913,5.184,3.828c.869.641,1.846,1.652,1.4,2.633Z" transform="translate(-449.747 -896.409)" fill="#0600ff"/>
  <path id="Path_1654" data-name="Path 1654" d="M449.948,921.73c-.07-1.105,1.22-1.729,2.282-2.046l4.6-1.378a3,3,0,0,1,2.507.006,1.52,1.52,0,0,1,.438,1.965,2.97,2.97,0,0,1-1.749,1.082l-4.344,1.42a4.977,4.977,0,0,1-2.206.366A1.706,1.706,0,0,1,449.948,921.73Z" transform="translate(-449.946 -894.704)" fill="#0600ff"/>
  <path id="Path_1655" data-name="Path 1655" d="M468.766,907.882a1.58,1.58,0,0,1-1.989-.575,4.6,4.6,0,0,1-.656-2.156l-.582-4.462a4.754,4.754,0,0,1,.054-2.172,1.631,1.631,0,0,1,1.642-1.174c.921.144,1.317,1.231,1.5,2.145a39.134,39.134,0,0,1,.736,6.283C469.5,906.55,469.429,907.472,468.766,907.882Z" transform="translate(-447.979 -897.33)" fill="#0600ff"/>
  <path id="Path_1656" data-name="Path 1656" d="M480.618,961.118c-.927-.163-2.014-.457-2.326-1.345-.335-.956.545-1.979,1.529-2.219a6.758,6.758,0,0,1,3,.264c2.189.473,4.686.5,6.431-.9,1.416-1.137,2.055-2.984,3.279-4.326s2.972-2.1,4.486-3.134,2.919-2.587,2.841-4.416-2.476-3.368-3.828-2.135c-.957.873-2.467.139-3.524-.608l-15.141-10.7c-2.281-1.612-4.7-3.277-7.473-3.568a8.428,8.428,0,1,1,3.243-16.472c2.781.814,4.929,2.972,6.947,5.049l18.058,18.591c1.182,1.217,2.391,3.192,1.209,4.408,3.976,1.833,5.048,7.942,1.936,11.021-1.469,1.453-3.523,2.17-5.074,3.534-1.987,1.744-3.02,4.429-5.151,5.994-2.9,2.13-6.9,1.6-10.439.97m-4.449-34.738q8.778,6.323,17.7,12.437a1.55,1.55,0,0,0,1,.381,1.066,1.066,0,0,0,.754-1.323,3.1,3.1,0,0,0-.957-1.4l-15.142-15.144q-1.679,2.525-3.358,5.051m-5.9-11.78a5.211,5.211,0,0,0-4.273,5.443,5.485,5.485,0,0,0,5.085,4.8,3.22,3.22,0,0,0,2.774-1.105l1.894-2.6c.545-.75,1.118-1.691.753-2.544C475.457,916.148,472.892,914.233,470.266,914.6Z" transform="translate(-448.37 -895.564)" fill="#0600ff"/>
  <path id="Path_1657" data-name="Path 1657" d="M471.386,920.8a1.511,1.511,0,0,1-.618-1.681,1.467,1.467,0,1,1,.618,1.681Z" transform="translate(-447.311 -894.695)" fill="#0600ff"/>
  <path id="Path_1658" data-name="Path 1658" d="M467.624,919.4a1.418,1.418,0,0,1-1.069-.788,1.412,1.412,0,1,1,1.069.788Z" transform="translate(-447.854 -894.887)" fill="#0600ff"/>
  <path id="Path_1659" data-name="Path 1659" d="M470.761,917.68a1.477,1.477,0,0,1-1.637-1.662,1.414,1.414,0,0,1,.3-.624,1.405,1.405,0,1,1,1.334,2.286Z" transform="translate(-447.515 -895.096)" fill="#0600ff"/>
</svg>
