<svg xmlns="http://www.w3.org/2000/svg" width="110.264" height="133.217" viewBox="0 0 110.264 133.217">
  <g id="Group_729" data-name="Group 729" transform="translate(0 0)">
    <path id="Path_2454" data-name="Path 2454" d="M471.741,919.441a3.291,3.291,0,0,1-3.6,1.535,9.618,9.618,0,0,1-3.715-1.917q-4.639-3.334-9.283-6.671a9.91,9.91,0,0,1-3.138-3.054,3.4,3.4,0,0,1,.379-4.076c1.678-1.5,4.289-.175,6.1,1.163q5.225,3.856,10.445,7.714c1.751,1.292,3.719,3.329,2.811,5.307Z" transform="translate(-447.956 -888.101)" fill="#0600ff"/>
    <path id="Path_2455" data-name="Path 2455" d="M449.951,925.488c-.141-2.228,2.459-3.483,4.6-4.124l9.276-2.777c1.671-.5,3.606-.965,5.052.011a3.064,3.064,0,0,1,.883,3.96c-.724,1.215-2.18,1.741-3.524,2.18l-8.754,2.861a10.026,10.026,0,0,1-4.446.738A3.438,3.438,0,0,1,449.951,925.488Z" transform="translate(-449.946 -871.03)" fill="#0600ff"/>
    <path id="Path_2456" data-name="Path 2456" d="M472.142,918.593c-1.3.8-3.109.08-4.008-1.158a9.279,9.279,0,0,1-1.322-4.344L465.64,904.1a9.576,9.576,0,0,1,.109-4.376,3.286,3.286,0,0,1,3.308-2.366c1.855.291,2.654,2.48,3.022,4.321a78.872,78.872,0,0,1,1.483,12.661C473.618,915.909,473.477,917.766,472.142,918.593Z" transform="translate(-430.255 -897.33)" fill="#0600ff"/>
    <path id="Path_2457" data-name="Path 2457" d="M499.15,1011.733c-1.869-.329-4.058-.922-4.687-2.711-.674-1.926,1.1-3.988,3.082-4.471s4.044.1,6.038.531c4.412.954,9.442,1,12.959-1.821,2.854-2.291,4.142-6.013,6.608-8.717,2.484-2.725,5.988-4.242,9.04-6.315s5.881-5.214,5.724-8.9-4.989-6.787-7.714-4.3c-1.928,1.76-4.971.279-7.1-1.226L492.59,952.233c-4.6-3.247-9.462-6.6-15.059-7.189-9.351-.981-16.71-10.947-14.894-20.173s12.405-15.659,21.429-13.02c5.6,1.639,9.932,5.988,14,10.175q18.2,18.73,36.388,37.462c2.382,2.452,4.818,6.433,2.437,8.883,8.011,3.694,10.173,16,3.9,22.208-2.961,2.927-7.1,4.373-10.225,7.121-4,3.515-6.086,8.924-10.38,12.078-5.845,4.292-13.9,3.222-21.036,1.955m-8.965-70q17.688,12.742,35.669,25.062a3.122,3.122,0,0,0,2.019.768,2.149,2.149,0,0,0,1.519-2.666,6.238,6.238,0,0,0-1.928-2.825l-30.512-30.516q-3.382,5.089-6.767,10.177M478.292,918a10.5,10.5,0,0,0-8.611,10.968,11.053,11.053,0,0,0,10.245,9.669,6.489,6.489,0,0,0,5.591-2.228l3.817-5.248c1.1-1.512,2.253-3.408,1.517-5.127C488.75,921.115,483.582,917.257,478.292,918Z" transform="translate(-434.17 -879.636)" fill="#0600ff"/>
    <path id="Path_2458" data-name="Path 2458" d="M472.076,923.534a3.044,3.044,0,0,1-1.244-3.388,2.956,2.956,0,1,1,1.244,3.388Z" transform="translate(-423.565 -870.936)" fill="#0600ff"/>
    <path id="Path_2459" data-name="Path 2459" d="M468.833,922.243a2.858,2.858,0,0,1-2.155-1.587,2.846,2.846,0,1,1,2.155,1.587Z" transform="translate(-428.994 -872.853)" fill="#0600ff"/>
    <path id="Path_2460" data-name="Path 2460" d="M472.447,920.462a2.976,2.976,0,0,1-3.3-3.349,2.847,2.847,0,0,1,.611-1.258,2.832,2.832,0,1,1,2.688,4.607Z" transform="translate(-425.606 -874.955)" fill="#0600ff"/>
  </g>
</svg>
