<svg xmlns="http://www.w3.org/2000/svg" width="47.088" height="45.702" viewBox="0 0 47.088 45.702">
  <g id="Group_336" data-name="Group 336" transform="translate(0.511 0.502)">
    <path id="Path_607" data-name="Path 607" d="M2969.084,605.889a25.974,25.974,0,0,1,12.826-2.606c7.183.283,13.828,3.357,17.315,11.516,3.248,7.6,2.426,15.917-1.172,21.6-3.142,4.963-9.027,8.063-14.485,9.857-12.714,4.183-28.532-6.478-27.295-22.317C2956.816,616.983,2960.468,610.3,2969.084,605.889Zm4.349,2.36a19.791,19.791,0,0,0,2.864-1.368c-1.176-1.42-2.475-2.555-4.82-1.263C2972.052,606.673,2972.842,607.232,2973.434,608.249Zm-6.12,1.754a8.842,8.842,0,0,0,2.432-.741c-.209-1.011.252-1.734.044-2.745C2967.437,607.021,2967.713,608.658,2967.314,610Zm3.1-.779a6.12,6.12,0,0,0,2.236-.663c-.664-.848-1.168-2.07-2.073-2.356A13.588,13.588,0,0,1,2970.413,609.224Zm-5.491,1.049c.568-.188.96.035,1.529-.154-.123-.6.812-1.59.159-1.882C2966.281,609.017,2964.529,609.183,2964.922,610.273Zm12.083-3.9a6.424,6.424,0,0,0,2.161-1.995c-1.245.366-2.848-.428-3.843.62A7.429,7.429,0,0,1,2977,606.371Zm-13.693,5c-.055-.263.146-.523-.353-.314-1.011,1.407-2.833,2.464-2.83,4.308.486-.123.637.536,1.215.2C2962.189,614.246,2962.135,612.542,2963.312,611.369Zm-.752,4.391c.961.035,1.964-.032,2.942-.035.052-1.656.658-3.075.595-4.783C2963.355,610.542,2963.083,613.775,2962.56,615.76Zm15.229-8.562c1.26.6,1.883,2.674,3.131,3.3a44.837,44.837,0,0,0,3.221-3.327C2982.316,604.863,2979.47,604.16,2977.789,607.2Zm6.628-1.049c.589-.289.543-.849.865-1.253-1.085-.129-2.773-.851-3.567-.4A9.351,9.351,0,0,1,2984.417,606.149Zm-18.052,9.46a13.957,13.957,0,0,0,3.569-.739c-.5-1.626-.159-2.887-.386-4.393a6.564,6.564,0,0,0-2.51.545C2966.867,612.573,2966.479,614.033,2966.364,615.609Zm4.157-.973c1.524-.139,3.229-.7,4.827-1.012a20.1,20.1,0,0,0-2.111-4.159c-.836-.074-2.069.775-2.9.7C2970.363,611.641,2970.457,613.144,2970.521,614.636ZM2977,607.51c-.966.559-1.9,1.131-2.983,1.641.74,1.305,1.407,2.775,2.11,4.161,1.665-.53,2.28-1.512,3.69-2.15A11.128,11.128,0,0,0,2977,607.51Zm8.392-.614a37.007,37.007,0,0,1,4.069,5.652c1.573-1.489,2.159-3.405,2.91-5.25-1.83-1.664-4.243-1.977-6.622-2.362C2986.343,605.893,2985.175,606.1,2985.4,606.9Zm-27.669,15.561c.824.353,1.5,1.048,2.584.789.066-2.41.732-4.562.875-6.939C2958.307,615.4,2958.231,620.284,2957.727,622.457Zm4.479-5.873c-.284,2.369-1.088,4.516-.8,7.135a14.6,14.6,0,0,0,4.745-.072,51.2,51.2,0,0,1-.812-7.177C2964.22,616.683,2963.3,616.432,2962.206,616.583Zm22.247-8.631c-.655,1.4-2.379,2.335-3.337,3.6,1.413,1.5,2.368,4.063,3.675,5.808a24.558,24.558,0,0,0,4.2-3.717C2987.7,611.241,2986.457,608.709,2984.453,607.952Zm-18.168,8.6a26.935,26.935,0,0,0,.812,7.176c1.68-.374,3.134-.231,4.9-.815-.493-2.325-1.553-4.9-1.95-7.178C2968.706,616.212,2967.6,616.136,2966.285,616.55Zm6.576,6.246a52.519,52.519,0,0,0,5.966-2.148c-.943-2.217-2.029-4.1-2.972-6.317-1.726.483-3.324.675-5.14,1.364C2971.58,618.126,2971.956,620.347,2972.86,622.8Zm3.583-8.7c1.195,1.629,1.966,4.247,3.089,6.043a31.872,31.872,0,0,0,4.355-2.188c-1.215-2.209-2.16-5.052-3.951-5.928A19.413,19.413,0,0,1,2976.443,614.1Zm13.609-.645c1.171,1.683,2.086,3.964,3.324,5.5a13.055,13.055,0,0,0,3.578-6.426c-1.281-1.68-2.394-3.754-3.951-4.79C2992.694,609.929,2991.27,611.645,2990.052,613.451Zm-32.495,16.574a6.293,6.293,0,0,0,3.8.986,16.75,16.75,0,0,1-.969-6.432c-.851-.918-2.121-.866-3.1-1.5A26.049,26.049,0,0,0,2957.558,630.025Zm5.017,1.185c2.125-.406,3.807.219,6.118-.619-.7-1.983-1.869-4.163-2.147-5.965a28.9,28.9,0,0,1-5.293-.163A14.794,14.794,0,0,0,2962.575,631.21ZM2985.1,618.15a31.589,31.589,0,0,1,2.657,5.532c2.165-1.074,3.205-2.63,4.791-3.952-.956-1.809-1.981-3.455-2.854-5.455A41.128,41.128,0,0,1,2985.1,618.15Zm-15.548,12.327a20,20,0,0,0,5.413-1.247,29.839,29.839,0,0,1-2.657-5.533c-1.861.672-3.313.4-5.1.894Q2968.384,627.533,2969.555,630.476Zm10.289-9.552c.7,2.148,1.675,3.664,2.462,5.612a20.592,20.592,0,0,0,4.748-2.344c-1.029-1.761-1.546-4.715-3.049-5.378A25.19,25.19,0,0,1,2979.844,620.924Zm-4.013,8.189c1.9-.726,3.418-1.019,5.768-2.068-.84-1.827-1.434-4.225-2.461-5.612-2.113,1.006-3.925,1.316-5.966,2.147A23.463,23.463,0,0,0,2975.831,629.113Zm17.661-9.3c.676,1.325,1.042,3.372,1.915,4.239a58.327,58.327,0,0,0,4.125-5.052c-.612-1.427-.882-4.358-2.226-5.022A9.586,9.586,0,0,1,2993.492,619.808Zm-33.279,16.887a9.42,9.42,0,0,0,3.686.124,39.015,39.015,0,0,1-2.227-5.022c-1.607.334-2.643-.657-4.117-.633C2958.28,633.381,2959.355,634.786,2960.213,636.695Zm4.9.321a19.032,19.032,0,0,0,6.705-.852,43.06,43.06,0,0,1-2.814-4.788c-2.381.872-4.065.128-6.314.694A35.61,35.61,0,0,0,2965.115,637.016Zm23.036-12.354,1.642,4.12c1.928-1.12,3.009-2.606,4.594-3.875-.777-1.525-.7-2.686-1.444-4.2C2991.218,621.973,2989.972,623.442,2988.15,624.663Zm-15.468,11.386a20.814,20.814,0,0,0,5.611-1.324c-1.063-1.433-1.957-3.26-3.013-4.71-1.931.836-3.488.8-5.335,1.442C2970.853,633,2971.746,634.577,2972.682,636.049Zm10.015-8.531q.938,2.351,1.875,4.708c1.43-1.01,3.022-1.949,4.513-2.934q-.82-2.06-1.64-4.121A52.383,52.383,0,0,0,2982.7,627.518Zm12.631-2.53a34.512,34.512,0,0,1,1.05,5.492c1.517-.865,2.16-2.1,3.573-3.015.175-1.992.482-5.629-.538-7.059A15.263,15.263,0,0,1,2995.328,624.988Zm-16.25,9.424a13.71,13.71,0,0,0,4.708-1.874q-.937-2.356-1.875-4.709c-1.877.958-4.407,1.433-5.689,2.266C2977.236,631.389,2978.036,633.185,2979.078,634.412Zm-11.111,8.06a20.864,20.864,0,0,1-3.208-4.632,18.332,18.332,0,0,0-3.959-.244C2962.829,639.806,2965.172,643.3,2967.967,642.473Zm26.22-16.349a16.557,16.557,0,0,1-4.083,3.444c.515,1.685.84,3.288,1.286,4.943,1.474-1.1,2.983-2.184,4.356-3.326C2994.94,629.568,2995.57,626.911,2994.187,626.124Zm-25,16.545c2.257-.959,4.741-.441,6.592-1.713-1.281-.928-2.232-2.622-3.367-3.888-2.236.659-4.927.373-6.628,1.048C2966.973,639.5,2967.962,641.353,2969.183,642.669Zm15.5-9.581c.839,1.661.849,2.966,1.6,4.59a39.19,39.19,0,0,0,4.2-2.581c-.342-1.449-.324-3.6-1.482-4.865C2987.724,631.253,2986.132,632.138,2984.687,633.088Zm-7.972,7.947c1.727-.361,3.546-.938,5.335-1.441a41.3,41.3,0,0,0-3.249-4.162,44.3,44.3,0,0,1-5.336,1.442A39.023,39.023,0,0,0,2976.715,641.036Zm6.12-1.755,2.549-1.014c-.039-1.428-.842-3.182-1.208-4.747-1.022.056-2.723.906-4.394,1.522C2980.669,636.759,2981.862,637.764,2982.834,639.28Zm16.407-10.168c-.661.962-1.921,1.666-2.591,2.622.736,1.351-.076,2.891.815,3.767C2997.889,633.505,3000.19,630.616,2999.241,629.112Zm-29.9,15.088c-.254-.809-1.51-1.253-1.842-.631C2968.183,643.61,2968.65,644.16,2969.337,644.2Zm22.05-8.551c.686,1.919.583,3.5.973,5.294,3.257-2.012,4.771-4.775,3.583-8.7C2994.282,633.316,2992.929,634.524,2991.387,635.649Zm-10.642,10.373c-1.311-1.489-2.839-2.466-4.11-4.045-2.33.5-4.558.772-6.825,1.126C2972.25,646.876,2976.6,646.216,2980.745,646.022Zm5.658-7.481a31.225,31.225,0,0,0,1.678,4.786,22.711,22.711,0,0,0,3.376-1.8c-.185-1.758-.43-3.543-.776-5.373C2989.043,636.86,2988.1,637.865,2986.4,638.541Zm-4.4,7.208c1.063-.572,2.847-.835,3.455-1.6-1.223-.683-1.93-2.569-2.9-3.847a42.061,42.061,0,0,1-4.941,1.286A20.342,20.342,0,0,0,2982,645.75Zm4.906-1.953c.3-1.278-.7-3.119-1.21-4.747l-2.353.938C2984.433,641.483,2985.113,643.932,2986.906,643.8Z" transform="translate(-2955.808 -602.86)" fill="#0600ff" stroke="#0626ff" stroke-width="1" fill-rule="evenodd"/>
    <path id="Path_608" data-name="Path 608" d="M2977.213,646.958a22.235,22.235,0,0,1-13.595-4.809,21.5,21.5,0,0,1-8.343-18.837c.434-5.565,3.045-13.271,13.026-18.379h0a26.569,26.569,0,0,1,13.024-2.65c8.411.332,14.52,4.4,17.665,11.758,3.159,7.39,2.7,15.81-1.2,21.974-3.428,5.417-9.883,8.44-14.7,10.022A18.8,18.8,0,0,1,2977.213,646.958Zm-10.358-3.595a20.444,20.444,0,0,0,14.127,2.416l-.82.038c-.391.018-.785.041-1.177.063-3.824.219-7.776.446-10.111-3.164l-.173-.268-.221.095-.19-.205q-.116-.126-.23-.258l-.58.172-.093.026a1.579,1.579,0,0,1,.193,0,1.854,1.854,0,0,1,1.535,1.2l.173.55-.576-.034a2.668,2.668,0,0,1-1.079-.358,1.957,1.957,0,0,0-.763-.273Zm9.335-2.429.154.191a17.914,17.914,0,0,0,2.168,2.163,21.455,21.455,0,0,1,1.931,1.869l.546.621a17.152,17.152,0,0,0,1.854-.5c4.667-1.535,10.914-4.448,14.228-9.622l-.485-.476a1.771,1.771,0,0,1-.455-.753c-.1,2.5-1.491,4.6-4.163,6.249l-.479.3-.119-.55c-.154-.708-.233-1.386-.311-2.043a13.611,13.611,0,0,0-.642-3.185l.054.283c.322,1.7.577,3.467.78,5.4l.026.242-.2.133a23.276,23.276,0,0,1-3.435,1.83l-.369.16-.156-.372c-.16-.382-.321-.769-.476-1.159a3.5,3.5,0,0,1,.054,1.567l-.067.283-.29.022a2.084,2.084,0,0,1-.912-.127l-.258.326a4.842,4.842,0,0,1-2.22,1.171,9.57,9.57,0,0,0-1.358.537l-.236.128-.207-.173c-.326-.273-.656-.534-.986-.8a15.467,15.467,0,0,1-3.472-3.448l-.291-.427-.2.043-.25.052-.152-.2c-.042-.058-.086-.114-.129-.171l-.266.182a5.224,5.224,0,0,1-1.54.7c.692-.119,1.391-.249,2.091-.4Zm-6.282,1.862c2.118,2.686,5.481,2.492,9.031,2.29l.327-.019c-.419-.418-.856-.806-1.282-1.184a19.9,19.9,0,0,1-2.1-2.069c-1.64.343-3.249.58-4.807.809Zm7.813-1.518a16.351,16.351,0,0,0,2.931,2.753c.268.213.536.426.8.644a12.916,12.916,0,0,1,1.236-.468,7.757,7.757,0,0,0,1.518-.629,8.674,8.674,0,0,1-1.679-2.256c-.236-.4-.48-.809-.735-1.172-.492.131-1,.287-1.5.439A24.68,24.68,0,0,1,2977.721,641.278Zm-13.324.466a22.268,22.268,0,0,0,1.983,1.342l.163-.307a.918.918,0,0,1,.477-.424A3.859,3.859,0,0,1,2964.4,641.744Zm18.951-2.172c.2.312.381.643.563.967.6,1.079,1.175,2.1,2.05,2.246a8.105,8.105,0,0,0-.743-2.819c-.125-.327-.252-.661-.368-.992Zm2.921-1.4a31.253,31.253,0,0,0,1.422,4.023,22.392,22.392,0,0,0,2.744-1.473c-.177-1.63-.391-3.141-.653-4.593a15.4,15.4,0,0,0-1.515.9A13.816,13.816,0,0,1,2986.269,638.174Zm-21.314-.309a19.638,19.638,0,0,0,2.7,3.732l.038.041c-.439-.556-.852-1.16-1.256-1.75C2965.961,639.194,2965.471,638.476,2964.955,637.866Zm.9-.152c.431.549.84,1.145,1.238,1.726a23.76,23.76,0,0,0,1.6,2.155,12.644,12.644,0,0,1,2.919-.614,8.983,8.983,0,0,0,2.868-.679,14.859,14.859,0,0,1-1.818-2.126c-.321-.426-.649-.864-.988-1.259a18.833,18.833,0,0,1-3.244.455A16,16,0,0,0,2965.856,637.713Zm-4.771-.319.413.477c1.529,1.774,3.24,3.779,5.084,3.723a21.908,21.908,0,0,1-2.689-4.006A14.463,14.463,0,0,0,2961.085,637.394Zm21.03,1.853.16.21a14.849,14.849,0,0,1,.881,1.365,12.252,12.252,0,0,0-.736-1.2l-.3-.414,3.229-1.286.127.41c.021.064.041.129.063.194q-.067-.248-.124-.493l-.078-.333.318-.127a11.9,11.9,0,0,0,2.178-1.2,13.538,13.538,0,0,1,2.091-1.18l.426-.183-.038-.1.241-.175c.577-.421,1.141-.865,1.685-1.293.905-.712,1.841-1.449,2.888-2.125l.443-.286.022.071.131-.187a7.948,7.948,0,0,1,1.353-1.371,7.116,7.116,0,0,0,1.237-1.248l.1-.141c-.141.137-.28.277-.42.419a9.112,9.112,0,0,1-2.015,1.66l-.438.249.108.215-.242.2c-1.1.914-2.3,1.8-3.462,2.662l-.912.676-.469.35-.153-.566c-.175-.649-.331-1.29-.488-1.931-.238-.975-.484-1.982-.8-3l-.1-.319.3-.152a11.556,11.556,0,0,0,3.133-2.519c.263-.27.527-.54.8-.805-.283.259-.556.523-.823.782a15.476,15.476,0,0,1-3.042,2.455l-.4.231-1.93-4.848.267-.179a23.37,23.37,0,0,0,2.6-2.113,27.658,27.658,0,0,1,2.181-1.83l.382-.28.209.426a10.229,10.229,0,0,1,.729,2.133,9.173,9.173,0,0,0,.713,2.061l.148.288-.254.2c-.169.136-.335.276-.5.418l.248.141c.991.564,1.123,1.824,1.251,3.042a8.051,8.051,0,0,0,.358,1.936l-.015-.253a26.645,26.645,0,0,0-.818-4.484c-.074-.314-.149-.627-.222-.94l-.058-.246.2-.157c.073-.058.146-.116.217-.174l-.172-.172a7.317,7.317,0,0,1-1.327-2.671,14.227,14.227,0,0,0-.66-1.668l-.149-.292.257-.2.038-.03-.217-.269a20.8,20.8,0,0,1-1.909-3.084c-.315-.583-.639-1.179-.978-1.733.563,1.25,1.194,2.386,1.807,3.487.308.554.615,1.107.916,1.677l.15.285-.248.206c-.5.42-.964.878-1.41,1.321a12.848,12.848,0,0,1-3.458,2.681l-.4.2-.153-.414a31.306,31.306,0,0,0-2.625-5.462l-.2-.33.324-.212a25,25,0,0,0,3.281-2.692c.418-.385.835-.771,1.27-1.149l.308-.268c-.007-.009-.013-.019-.02-.028l-.155-.224.152-.226c.192-.286.39-.57.588-.853a11.5,11.5,0,0,0,2.27-4.521c-.052.13-.1.26-.153.389a11.787,11.787,0,0,1-2.689,4.593l-.387.366-.241-.474a17.646,17.646,0,0,0-1.861-2.865,28.288,28.288,0,0,1,1.834,3.109l.4.741-.4.416a23.753,23.753,0,0,1-4.069,3.566l-.313.2-.223-.3a22.47,22.47,0,0,1-1.6-2.631,15.892,15.892,0,0,0-2.045-3.142l-.231-.245.2-.268a11.027,11.027,0,0,1,1.522-1.532,7.407,7.407,0,0,0,1.709-1.872c-.714.807-1.507,1.579-2.278,2.33l-.754.736-.253-.127a5.1,5.1,0,0,1-1.7-1.769,4.481,4.481,0,0,0-1.406-1.515,10.753,10.753,0,0,1,2.544,3.43l.163.362-.362.164-.083.039.211.1c1.477.724,2.392,2.605,3.278,4.424.273.561.554,1.141.847,1.669l.19.348-.925.516a27.613,27.613,0,0,1-3.83,1.888l-.307.116-.173-.278c-.082-.13-.16-.263-.238-.4.08.179.159.36.236.542l.156.366-.365.156q-1.551.662-3.086,1.213a22.785,22.785,0,0,0,3.071-1.154l.3-.141.195.263c.037.05.073.1.109.154q-.051-.149-.1-.3l-.117-.358.35-.137a24.739,24.739,0,0,0,4.1-2.079l.179-.11.191.085c1.138.5,1.739,2.03,2.321,3.507a15.4,15.4,0,0,0,.911,2.034l.182.312-.292.212a20.659,20.659,0,0,1-4.842,2.4l-.363.136-.146-.36c-.2-.493-.413-.965-.63-1.423.207.558.423,1.115.654,1.616l.169.366-.369.164a32.584,32.584,0,0,1-3.7,1.365c-.7.224-1.363.434-2.089.712l-.279.107-.18-.238-.029-.038.073.12-.453.167a20.494,20.494,0,0,1-5.521,1.271l-.292.021-2.13-5.347a28.031,28.031,0,0,0,1.067,2.813c.292.693.593,1.41.837,2.1l.132.373-.372.135a8.092,8.092,0,0,1-2.262.466,7.2,7.2,0,0,0,2.3-.429l.314-.115.167.288c.011.018.021.036.032.054l.436-.15a17.466,17.466,0,0,1,2.354-.594,13.761,13.761,0,0,0,2.952-.838l.292-.126.188.257c.039.055.079.11.118.166l.285-.185a13.4,13.4,0,0,1,2.866-1.181,21.142,21.142,0,0,0,2.858-1.1l.389-.2,2.163,5.432-.294.174c-.16.094-.411.237-.723.405a4.2,4.2,0,0,1,.89-.165l.1-.006-.083-.165.206-.136-2.175-5.464.289-.174c1.116-.673,3.278-1.7,4.791-2.369l.378-.168,1.914,4.806-.271.178-.2.13.193.209a7.041,7.041,0,0,1,1.36,3.814c.068.444.13.863.217,1.229l.063.265-.224.154a39.309,39.309,0,0,1-4.243,2.607l-.37.193-.175-.378c-.109-.234-.2-.463-.286-.685a6.1,6.1,0,0,1,.141,1.094l.008.278-3.113,1.238-.177-.276a16.118,16.118,0,0,0-1.11-1.49c.179.244.355.489.53.732l.788,1.086-.551.155c-.458.129-.918.262-1.378.4-.846.246-1.71.5-2.563.717a24.475,24.475,0,0,0,2.448-.661c.594-.181,1.207-.369,1.8-.516Zm-8.639-2.728a17.529,17.529,0,0,0,1.683,2.138c.371.424.753.86,1.119,1.334,1.2-.263,2.456-.629,3.678-.984l.837-.242-.119-.165a36.419,36.419,0,0,0-2.58-3.3,20.8,20.8,0,0,1-3.22.9C2974.418,636.3,2973.949,636.4,2973.477,636.519Zm-1.542-.506.168.187c.417.466.812.989,1.193,1.5a13.88,13.88,0,0,0,1.752,2.048c-.163-.191-.327-.378-.487-.562a16.106,16.106,0,0,1-2.042-2.713l-.25-.44.486-.139c.425-.122.844-.224,1.254-.318-.648.114-1.272.2-1.879.27l-.248.03-.066-.1-.459.168a12.8,12.8,0,0,1-2.007.557,12.714,12.714,0,0,0,2.345-.408Zm19.322-.82a15.236,15.236,0,0,1,.593,3.1c.054.456.108.922.188,1.4,2.808-1.918,3.814-4.35,3.064-7.408-.839.573-1.616,1.185-2.374,1.78C2992.253,634.432,2991.763,634.818,2991.257,635.194Zm-30.9,2.571a21.338,21.338,0,0,0,1.573,1.8c-.354-.387-.7-.785-1.03-1.174C2960.712,638.178,2960.531,637.969,2960.353,637.765Zm19.4-3.116a15.535,15.535,0,0,0,1.495,2.054c.382.466.773.946,1.143,1.485l1.98-.787a13.244,13.244,0,0,0-.657-2.6c-.151-.476-.309-.965-.436-1.442a15.171,15.171,0,0,0-2.452.862C2980.472,634.361,2980.112,634.508,2979.75,634.649Zm-16.773,2.01a8.973,8.973,0,0,1,1.271.193l.178.041.085.162.13.245.391-.155a6.784,6.784,0,0,1,1.471-.371c-.334.009-.665.015-.994.019s-.656.01-.985.02l-.259.008-.111-.235c-.279-.584-.585-1.13-.884-1.657a17,17,0,0,1-1.558-3.337l-.13-.4.412-.1a8.159,8.159,0,0,1,1.518-.228,8.734,8.734,0,0,0-1.463.143l-.3.058-.132-.279a15.039,15.039,0,0,1-1.359-6.911l-.007-.472.2.031-.03-.266a15.975,15.975,0,0,1,.42-5.016c.141-.719.287-1.463.376-2.21l.037-.3.3-.042c.108-.015.213-.026.318-.035l-.42-.015.126-.481c.072-.272.138-.568.208-.876a11,11,0,0,1,.875-2.734,6.419,6.419,0,0,0-.786,1.829,7.672,7.672,0,0,1-.793,1.9l-.052.081-.083.048a1.243,1.243,0,0,1-.116.061l.172.054-.019.311a29.669,29.669,0,0,1-.431,3.267,26,26,0,0,0-.442,3.659l-.008.306-.3.071a2.413,2.413,0,0,1-.522.068,2.974,2.974,0,0,1,.8.608l.122.131-.018.178a16.31,16.31,0,0,0,.954,6.275l.142.454.046-.009.119.322a38.679,38.679,0,0,0,2.2,4.971l.27.5-.565.08Q2963.163,636.637,2962.977,636.658Zm-3.473-.065.549,0c-.185-.033-.365-.073-.542-.119l-.1-.027C2959.44,636.5,2959.471,636.547,2959.5,636.594Zm25.092-3.965a13.488,13.488,0,0,1,.739,2.183,14.451,14.451,0,0,0,.543,1.71,39.06,39.06,0,0,0,3.562-2.2c-.064-.322-.117-.665-.171-1.025a7.515,7.515,0,0,0-.932-3.11c-.81.61-1.722,1.178-2.606,1.729C2985.351,632.15,2984.97,632.388,2984.6,632.629Zm-26.943.57a20.481,20.481,0,0,0,1.516,2.883c-.3-.65-.634-1.256-.957-1.844C2958.027,633.9,2957.838,633.556,2957.653,633.2Zm4.958-1.436a17.635,17.635,0,0,0,1.352,2.773c.266.47.539.954.8,1.473.247-.006.492-.01.739-.013a16.435,16.435,0,0,0,5.076-.634,27.22,27.22,0,0,1-1.642-2.8c-.231-.433-.469-.878-.71-1.305a9.974,9.974,0,0,1-3.341.375A11.222,11.222,0,0,0,2962.611,631.763Zm-2.717,3.989a8.838,8.838,0,0,0,2.782.137,39.972,39.972,0,0,1-1.865-4.251,5.022,5.022,0,0,1-2.226-.348,7.435,7.435,0,0,0-1.053-.286,21.335,21.335,0,0,0,1.38,2.851C2959.241,634.456,2959.58,635.076,2959.894,635.752Zm18.407-1.394.187.2c.311.326.613.672.909,1.032a10.078,10.078,0,0,1-.568-.965l-.207-.4.106-.039c-.073.01-.144.018-.215.024l-.205.019-.134-.157c-.119-.14-.235-.286-.347-.438.062.087.123.172.186.256l.306.413-.476.193a17.748,17.748,0,0,1-1.8.62,14.631,14.631,0,0,0,2.007-.649Zm20.4-6.493.272.432c.725,1.148-.054,2.791-.806,4.38a11.827,11.827,0,0,0-.916,2.3l-.125.584c3.692-5.854,4.136-14.177,1.128-21.212a18.965,18.965,0,0,0-4.2-6.24,24.967,24.967,0,0,1,1.587,2.133c.331.48.673.976,1.02,1.431l.122.159-.056.193q-.114.4-.24.794l.385.19c1.091.541,1.534,2.188,1.924,3.643a12.74,12.74,0,0,0,.491,1.579l.087.2-.125.182c-.132.188-.266.375-.4.561l.278.392c1.119,1.566.788,5.312.61,7.324l-.016.194-.164.105A6.585,6.585,0,0,0,2998.7,627.865Zm-29.383,3.737c.106.2.209.392.313.584a21.756,21.756,0,0,0,1.884,3.114c-.633-1.012-1.252-2.076-1.854-3.108Zm.618-.52c.137.236.275.473.413.71.627,1.075,1.273,2.185,1.931,3.229a20.522,20.522,0,0,0,4.787-1.084c-.44-.64-.856-1.335-1.26-2.012s-.831-1.391-1.271-2.023a15.555,15.555,0,0,1-2.812.763C2971.121,630.787,2970.544,630.9,2969.939,631.082Zm26.573.1a4.641,4.641,0,0,1,.285,1.921c0,.248,0,.464.017.656.187-.465.413-.946.637-1.418a8,8,0,0,0,1.02-3c-.273.282-.577.545-.875.8A8.886,8.886,0,0,0,2996.512,631.178Zm-20.3-1.563c.385.539.741,1.135,1.087,1.716a18.855,18.855,0,0,0,1.352,2.06,13.83,13.83,0,0,0,4.042-1.626l-1.59-3.992a25.487,25.487,0,0,1-2.576.961A17.819,17.819,0,0,0,2976.208,629.615Zm13.77-.451c.274.93.5,1.842.712,2.728.109.448.218.9.334,1.346l.442-.327c1.071-.793,2.175-1.61,3.194-2.444a8.5,8.5,0,0,1-.417-2.166,4.066,4.066,0,0,0-.625-2.255c-.2.2-.4.4-.593.6A12.9,12.9,0,0,1,2989.978,629.164Zm5.636,2,.109.359a10.631,10.631,0,0,1,.274,1.122,2.874,2.874,0,0,0-.3-1.325Zm-7.95-1.472-.72.456c-.856.541-1.739,1.1-2.559,1.669.307-.195.617-.388.927-.582C2986.11,630.74,2986.93,630.23,2987.663,629.694Zm-5.071-2.608,1.563,3.924c.768-.525,1.578-1.037,2.363-1.533.5-.313.99-.626,1.475-.942l-1.367-3.433C2985,625.835,2983.49,626.577,2982.592,627.087Zm-22.742,3.726a2.953,2.953,0,0,0,1.139-.008l.141-.029-.337.031A5.736,5.736,0,0,1,2959.85,630.813Zm-2.844-.65a3.921,3.921,0,0,1,.6.048c-.309-.141-.593-.294-.852-.442l-.167-.1-.029-.191a26,26,0,0,1-.265-7.049l.079-.629.307.2.056-.237c.09-.394.169-.894.253-1.424.288-1.814.646-4.073,1.915-4.859a1.886,1.886,0,0,1,.864-.28c-.092-.057-.114-.062-.145-.054l-.5.125v-.51a3.091,3.091,0,0,1,.188-1.074,20.24,20.24,0,0,0-3.249,9.686,21.046,21.046,0,0,0,.561,6.794l.317-.005Zm4.05-5.842a13.978,13.978,0,0,0,1.151,5.844,13.613,13.613,0,0,1,2.253-.105,9.685,9.685,0,0,0,3.116-.318c-.209-.551-.448-1.12-.681-1.674a21.085,21.085,0,0,1-1.283-3.634A30.212,30.212,0,0,1,2961.056,624.321Zm-3.734,4.851a5.942,5.942,0,0,0,2.905.863,16.4,16.4,0,0,1-.852-5.907,3.843,3.843,0,0,0-1.5-.719c-.282-.09-.57-.181-.853-.3A26.411,26.411,0,0,0,2957.322,629.171Zm9.827-4.906,2.066,5.188a19.626,19.626,0,0,0,4.563-1.038,30,30,0,0,1-2.31-4.822,12.008,12.008,0,0,1-2.551.432A14.078,14.078,0,0,0,2967.149,624.265Zm28.021.275c.054.23.109.46.164.691a33.121,33.121,0,0,1,.782,3.953,10.574,10.574,0,0,0,1.306-1.181,10.6,10.6,0,0,1,1.546-1.366c.14-1.6.364-4.446-.183-6A16.123,16.123,0,0,1,2995.17,624.54Zm-22.087-1.337a23.371,23.371,0,0,0,2.289,4.829c.637-.234,1.227-.423,1.847-.62a33.211,33.211,0,0,0,3.252-1.174c-.247-.575-.473-1.192-.695-1.792a16.975,16.975,0,0,0-1.377-3.114,26.866,26.866,0,0,1-3.173,1.148C2974.532,622.7,2973.815,622.923,2973.083,623.2Zm14.953,1.005,1.349,3.386a16.1,16.1,0,0,0,2.493-2.1c.446-.432.906-.877,1.413-1.3a10.689,10.689,0,0,1-.636-1.936,11.306,11.306,0,0,0-.473-1.535c-.612.478-1.177.987-1.725,1.481A25.773,25.773,0,0,1,2988.037,624.208Zm-16.086-1.625.134.377a27.236,27.236,0,0,0,1.169,2.795c-.372-.854-.715-1.751-1.054-2.635l-.14-.364.36-.147c.173-.07.342-.136.511-.2-.187.057-.374.113-.561.167l-.355.1-.129-.348q-.109-.295-.208-.587.058.242.108.482l.075.349-.339.111a13.126,13.126,0,0,1-2.967.544,16.124,16.124,0,0,0-1.973.281l-.364.081-.1-.359a24.548,24.548,0,0,1-.807-6.542l-.03-1.034.287-.091a11.147,11.147,0,0,1,1.742-.369c-.159.021-.317.04-.473.059-.341.041-.663.079-1,.14l-.506.091.039-.512a25.869,25.869,0,0,1,.365-2.6c.116-.653.235-1.327.31-2l.024-.228.21-.092a6.915,6.915,0,0,1,2.654-.579l.357-.016.054.351q0-.121-.006-.241l-.009-.444.443.039a3.69,3.69,0,0,0,1.275-.326,3.949,3.949,0,0,1,1.626-.374l.2.018.1.177c.121.208.245.413.369.618l.168.279c-.146-.277-.293-.549-.442-.813l-.21-.373.387-.183c.881-.418,1.687-.888,2.466-1.343l.746-.433.216.205.029.027.134-.243a5.916,5.916,0,0,1,.521-.79,8.058,8.058,0,0,1-.756.5l-.279.163-.217-.239a6.893,6.893,0,0,0-.666-.641c.193.2.379.411.559.629l.343.413-.5.207a9.088,9.088,0,0,0-1.044.543,7.45,7.45,0,0,1-1.867.842l-.271.075.013.016-.477.2a6.6,6.6,0,0,1-2.4.695l-.437-.01v-.016l-.044.022a9.007,9.007,0,0,1-2.46.761l-.717.142.026-.09-.2.065a1.986,1.986,0,0,1-.286.072l.19.028.013.331a11.571,11.571,0,0,1-.3,2.725,12.887,12.887,0,0,0-.29,2.085l-.012.384h-.181l.031.306c.079.751.13,1.5.179,2.222a28.67,28.67,0,0,0,.626,4.9l.094.395-.4.087a10.426,10.426,0,0,1-1.932.235c.714,0,1.451-.017,2.225-.042l.352-.011.007.048.213-.059a12.7,12.7,0,0,1,2.342-.371,10.261,10.261,0,0,0,2.728-.514Zm7.791-2.032a27.358,27.358,0,0,0,1.3,2.972c.3.608.6,1.233.885,1.9a20.245,20.245,0,0,0,4.006-1.958,19.783,19.783,0,0,1-.787-1.821c-.485-1.233-.986-2.505-1.727-2.977A25.685,25.685,0,0,1,2979.741,620.552Zm18.517-.579c-.838,1.08-1.735,2.122-2.591,3.095A13.724,13.724,0,0,0,2998.258,619.972Zm-37.084,2.777a14.084,14.084,0,0,0,3.9-.015,31.188,31.188,0,0,1-.554-4.632c-.038-.582-.079-1.18-.134-1.78a9.382,9.382,0,0,1-1.347.02,9.495,9.495,0,0,0-1.081,0c-.092.666-.221,1.319-.345,1.953A15.882,15.882,0,0,0,2961.174,622.749Zm32.213-3.43c.207.46.387.974.562,1.474a9.9,9.9,0,0,0,.872,2.035,56.652,56.652,0,0,0,3.661-4.487c-.162-.428-.3-.94-.444-1.478a8.264,8.264,0,0,0-1.083-2.779A10.136,10.136,0,0,1,2993.387,619.319Zm-27.3-3.075.013.427a24.9,24.9,0,0,0,.676,5.989c.587-.109,1.15-.166,1.7-.22a13.51,13.51,0,0,0,2.455-.4c-.222-.952-.533-1.956-.835-2.932-.354-1.149-.721-2.333-.952-3.457a12.522,12.522,0,0,1-1.64.327A12.429,12.429,0,0,0,2966.09,616.244Zm18.949,1.422a32.149,32.149,0,0,1,2.333,4.851,12.844,12.844,0,0,0,2.861-2.328c.385-.383.782-.778,1.215-1.157-.25-.466-.505-.924-.759-1.381-.584-1.05-1.186-2.132-1.735-3.323-.287.258-.568.517-.849.777A27.445,27.445,0,0,1,2985.039,617.667Zm-27.459,3.964c.129.066.252.136.374.2a2.506,2.506,0,0,0,1.372.464,28.76,28.76,0,0,1,.441-3.437c.157-.925.319-1.879.4-2.85a1.193,1.193,0,0,0-.838.146c-.96.6-1.3,2.741-1.548,4.308C2957.712,620.88,2957.65,621.279,2957.58,621.631Zm13.04-6.3c.355,1.048.63,2.068.9,3.057.289,1.074.588,2.182.988,3.317a52.287,52.287,0,0,0,5.194-1.871c-.423-.964-.877-1.882-1.318-2.774-.454-.916-.919-1.859-1.357-2.859-.53.139-1.051.256-1.558.369A24.392,24.392,0,0,0,2970.619,615.333Zm5.809-1.688a22.092,22.092,0,0,1,1.485,2.951,26.842,26.842,0,0,0,1.185,2.448,28.741,28.741,0,0,0,3.415-1.716l.239-.135c-.234-.444-.459-.907-.678-1.357-.778-1.6-1.582-3.249-2.7-3.94A19.34,19.34,0,0,1,2976.428,613.645Zm-6.256,2.9c.123.47.264.947.407,1.423C2970.451,617.5,2970.317,617.028,2970.172,616.548Zm26.107-3.075a12.689,12.689,0,0,1-2.459,4.382A8.515,8.515,0,0,0,2996.279,613.474Zm-6.347-.625c.471.71.9,1.507,1.324,2.282a24.211,24.211,0,0,0,1.566,2.621,12.849,12.849,0,0,0,3.093-5.753c-.316-.423-.623-.868-.922-1.3a15.264,15.264,0,0,0-2.323-2.863,13.3,13.3,0,0,1-2.31,4.394Q2990.147,612.539,2989.932,612.849Zm-13.845,1.776c.322.7.653,1.369.979,2.028C2976.755,615.953,2976.434,615.25,2976.087,614.625Zm4.949-3.685a18.452,18.452,0,0,1,1.93,3.046c.421.766.854,1.555,1.321,2.229a24.46,24.46,0,0,0,3.615-3.24l-.123-.228c-1.078-2.015-2.19-4.094-3.752-4.885a8.808,8.808,0,0,1-1.782,1.916A12.727,12.727,0,0,0,2981.037,610.94Zm-17.706,4.615a7.251,7.251,0,0,0,.982-.026c-.181,0-.362.009-.542.014Zm6.473-1.111.015.048-.33.141a7.254,7.254,0,0,1-1.581.471,8.039,8.039,0,0,0,1.407-.349l.444-.158.035.192.179-.068a23.179,23.179,0,0,1,3.319-.926c.592-.133,1.2-.269,1.819-.44l-.289.057c-.579.113-1.186.264-1.775.409a21.538,21.538,0,0,1-3.091.609Zm-7.339.325c.421,0,.859-.01,1.284-.022.259-.008.517-.015.774-.019a16.031,16.031,0,0,1,.284-1.832,12.344,12.344,0,0,0,.294-2.192c-1.579-.036-2.058,1.5-2.542,3.651C2962.527,614.5,2962.495,614.634,2962.465,614.77Zm-2.512-.366a1.508,1.508,0,0,1,.3.164c.121.079.158.1.207.087a7.414,7.414,0,0,0,.649-1.619c.1-.314.2-.632.32-.945A4.581,4.581,0,0,0,2959.953,614.4Zm6.852-3.707c-.077.621-.185,1.23-.29,1.821-.115.657-.235,1.331-.309,2.016.179-.025.356-.046.531-.067a8.87,8.87,0,0,0,2.115-.438,9.481,9.481,0,0,1-.215-2.416c0-.447,0-.875-.039-1.319A5.958,5.958,0,0,0,2966.8,610.7Zm3.334-.755c.024.884.069,1.786.112,2.663q.024.492.047.985a25.459,25.459,0,0,0,2.559-.542c.448-.111.908-.224,1.364-.324a17.345,17.345,0,0,0-1.556-3.036l-.255-.427a4.967,4.967,0,0,0-1.086.323A6.1,6.1,0,0,1,2970.139,609.942Zm4.864,2.609c.042.112.082.228.12.346l.139.417.115-.032.289-.143.373-.187c-.124.048-.253.094-.389.138l-.322.1-.154-.3C2975.117,612.777,2975.061,612.664,2975,612.551Zm-5.567-.3c0,.2.013.406.03.611l-.01-.214C2969.45,612.512,2969.443,612.38,2969.437,612.247Zm9.795-1.255a8.45,8.45,0,0,0-1.3.841c-.213.157-.429.316-.661.47a13.113,13.113,0,0,0,1.82-1.192Zm-5.261-2.269c.421.773.824,1.6,1.215,2.4.18.367.36.735.542,1.1a7.1,7.1,0,0,0,1.727-1.025,10.009,10.009,0,0,1,1.237-.817,10.522,10.522,0,0,0-2.348-2.974l-.227.132C2975.436,607.932,2974.734,608.342,2973.971,608.723Zm11.2-2.6c.379.5.777.991,1.162,1.464a24.9,24.9,0,0,1,2.631,3.689,12.125,12.125,0,0,0,2.125-3.927c.071-.181.142-.362.214-.542-1.554-1.293-3.508-1.648-5.583-1.982a1.434,1.434,0,0,1-.352.874C2985.216,605.9,2985.154,606,2985.167,606.126Zm-22.546,3.853a.482.482,0,0,1,.284.087.542.542,0,0,1,.2.517.5.5,0,0,0,0,.1l.017.083a2.441,2.441,0,0,1,.93-.68l-.1-.281c-.348-.964.471-1.452,1.012-1.775.3-.177.6-.359.685-.551l.037-.089a24.686,24.686,0,0,0-3.283,2.623A.8.8,0,0,1,2962.62,609.979Zm3.855-1.315c-.021.052-.04.1-.059.146a1.643,1.643,0,0,0-.177.628l.019.1.073-.245C2966.39,609.089,2966.434,608.882,2966.475,608.664Zm11.26-2.206a6.32,6.32,0,0,1,1.362,1.566,5.794,5.794,0,0,0,1.164,1.369l.332-.324c.831-.809,1.689-1.643,2.428-2.505a3.965,3.965,0,0,0-3.125-1.589A2.9,2.9,0,0,0,2977.735,606.458Zm-12.861,2.733c.077,0,.152,0,.224.005a2.62,2.62,0,0,0,.36,0,3.235,3.235,0,0,1,.214-.667c-.1.065-.2.127-.306.188a2.21,2.21,0,0,0-.643.481C2964.774,609.193,2964.825,609.192,2964.874,609.192Zm3.972-2.774c-1.218.4-1.368,1.209-1.554,2.207-.016.086-.033.175-.05.263a7.3,7.3,0,0,0,1.465-.461,4.669,4.669,0,0,1,.066-1.2A4.929,4.929,0,0,0,2968.846,606.418Zm14.935.48.211.08a5.157,5.157,0,0,1,1.989,1.446l-.269-.332c-.409-.5-.83-1.019-1.235-1.56l-.045-.06-.02-.073a1.27,1.27,0,0,1,.312-1.167c.169-.231.248-.338.172-.533-.034.069-.065.146-.1.229a1.627,1.627,0,0,1-.805.976l-.2.1-.188-.12c-.129-.082-.255-.169-.378-.259a7.158,7.158,0,0,1,.628.7l.2.252-.2.248Zm-13.374-.547a14.77,14.77,0,0,1-.141,1.827,6.9,6.9,0,0,0,1.167-.391c-.089-.131-.175-.265-.261-.4A6.747,6.747,0,0,0,2970.407,606.351Zm-.851,1.016a6.029,6.029,0,0,0-.066.6C2969.514,607.766,2969.538,607.566,2969.557,607.367Zm2.259-.447.024.037c.176.271.343.529.521.756l.2.25-.068-.117A6.346,6.346,0,0,0,2971.816,606.92Zm-5.83.269.186.083a.706.706,0,0,1,.459.608,2.955,2.955,0,0,1,.887-1.622Q2966.726,606.707,2965.986,607.189Zm5.451-2.012a9.387,9.387,0,0,0,.753.955,10.115,10.115,0,0,1,.819,1.045,7.393,7.393,0,0,0,1.4-.677c.207-.12.417-.241.645-.358C2973.969,604.943,2972.986,604.461,2971.437,605.177Zm-1.939.265.082.392c.008.043.016.086.022.127-.005-.106-.014-.213-.023-.32l-.041-.422q-.438.2-.873.422h0c.138-.043.284-.082.442-.115Zm.264-.324.333.105a2,2,0,0,1,.665.372c-.081-.123-.158-.251-.234-.388l-.183-.336Q2970.052,604.99,2969.762,605.118Zm5.66-.742a7.667,7.667,0,0,1,1.048.886,6.191,6.191,0,0,0,1.191-.984c-.226,0-.448-.015-.67-.028A3.441,3.441,0,0,0,2975.422,604.376Zm7.337-.1c.165.119.326.243.486.365.195.149.38.292.57.424a1.264,1.264,0,0,0,.241-.438c.006-.013.011-.026.017-.039-.212-.046-.432-.1-.659-.156C2983.205,604.382,2982.981,604.326,2982.759,604.278Zm1.6-.476,1.219.2a24.744,24.744,0,0,1,3.289.68,21.439,21.439,0,0,0-7.569-1.6,27.6,27.6,0,0,0-8.591.979,3.1,3.1,0,0,1,1.46.347l.269-.284a3.037,3.037,0,0,1,2.608-.665,4.319,4.319,0,0,0,1.413-.062l1.05-.309-.607.911a6.6,6.6,0,0,1-.524.683,3.187,3.187,0,0,1,1.459-.5,3.767,3.767,0,0,1,1.973.421,2.786,2.786,0,0,0-.78-.319l-1-.227.89-.508a3.989,3.989,0,0,1,2.691.112c.272.068.534.133.774.18Z" transform="translate(-2955.207 -602.258)" fill="#0600ff" stroke="#0626ff" stroke-width="1"/>
  </g>
</svg>
