<svg xmlns="http://www.w3.org/2000/svg" width="30.935" height="30.024" viewBox="0 0 30.935 30.024">
  <g id="Group_336" data-name="Group 336" transform="translate(0.359 0.351)">
    <path id="Path_607" data-name="Path 607" d="M2964.654,604.984a17.041,17.041,0,0,1,8.414-1.71c4.711.186,9.071,2.2,11.359,7.555a15.568,15.568,0,0,1-.769,14.173c-2.061,3.256-5.922,5.289-9.5,6.466-8.341,2.744-18.717-4.249-17.905-14.64C2956.606,612.262,2959,607.876,2964.654,604.984Zm2.853,1.548a13,13,0,0,0,1.88-.9c-.772-.931-1.624-1.676-3.163-.828C2966.6,605.5,2967.119,605.865,2967.507,606.532Zm-4.014,1.151a5.8,5.8,0,0,0,1.6-.486c-.137-.663.166-1.138.029-1.8C2963.573,605.727,2963.755,606.8,2963.493,607.683Zm2.033-.511a4.016,4.016,0,0,0,1.467-.435c-.435-.557-.766-1.358-1.36-1.546A8.924,8.924,0,0,1,2965.526,607.172Zm-3.6.688c.373-.123.63.023,1-.1-.08-.4.532-1.043.1-1.235C2962.815,607.036,2961.666,607.145,2961.924,607.86Zm7.926-2.56a4.219,4.219,0,0,0,1.418-1.309c-.817.24-1.869-.281-2.522.407A4.853,4.853,0,0,1,2969.85,605.3Zm-8.982,3.278c-.036-.172.1-.343-.231-.206-.664.923-1.858,1.616-1.856,2.826.319-.081.418.352.8.129C2960.132,610.466,2960.1,609.349,2960.867,608.579Zm-.493,2.88c.631.023,1.289-.021,1.93-.023.034-1.086.432-2.017.39-3.137C2960.9,608.036,2960.718,610.157,2960.374,611.459Zm9.99-5.617c.826.39,1.235,1.754,2.053,2.163a29.4,29.4,0,0,0,2.114-2.183C2973.334,604.311,2971.467,603.85,2970.365,605.842Zm4.348-.688c.385-.189.356-.557.567-.822-.712-.085-1.82-.558-2.34-.262A6.149,6.149,0,0,1,2974.713,605.154Zm-11.843,6.206a9.158,9.158,0,0,0,2.342-.485,16.051,16.051,0,0,1-.253-2.882,4.309,4.309,0,0,0-1.647.358C2963.2,609.369,2962.945,610.326,2962.87,611.36Zm2.727-.638c1-.091,2.118-.458,3.166-.664a13.16,13.16,0,0,0-1.385-2.729c-.549-.049-1.357.508-1.9.46C2965.493,608.757,2965.554,609.743,2965.6,610.722Zm4.252-4.675c-.633.367-1.248.742-1.957,1.077.486.856.923,1.82,1.385,2.729,1.092-.347,1.5-.992,2.42-1.41A7.291,7.291,0,0,0,2969.849,606.047Zm5.506-.4a24.239,24.239,0,0,1,2.669,3.708,8.943,8.943,0,0,0,1.909-3.444c-1.2-1.092-2.783-1.3-4.344-1.549C2975.976,604.987,2975.21,605.119,2975.354,605.644ZM2957.2,615.852c.541.232.984.688,1.7.518.043-1.581.48-2.993.573-4.552C2957.584,611.226,2957.535,614.427,2957.2,615.852Zm2.938-3.853c-.186,1.554-.714,2.962-.522,4.681a9.576,9.576,0,0,0,3.113-.047,33.682,33.682,0,0,1-.533-4.708C2961.464,612.065,2960.86,611.9,2960.142,612Zm14.594-5.662c-.429.918-1.561,1.532-2.189,2.363.927.983,1.553,2.665,2.41,3.81a16.137,16.137,0,0,0,2.756-2.439C2976.865,608.495,2976.051,606.834,2974.736,606.338Zm-11.918,5.64a17.683,17.683,0,0,0,.532,4.707,28.14,28.14,0,0,0,3.216-.534c-.323-1.526-1.019-3.211-1.279-4.709C2964.406,611.756,2963.68,611.706,2962.818,611.978Zm4.314,4.1a34.506,34.506,0,0,0,3.912-1.409c-.618-1.454-1.33-2.69-1.949-4.144-1.132.317-2.18.443-3.371.9C2966.291,613.011,2966.538,614.469,2967.132,616.075Zm2.35-5.707c.784,1.068,1.29,2.786,2.026,3.964a20.923,20.923,0,0,0,2.858-1.435c-.8-1.449-1.418-3.314-2.592-3.889A12.736,12.736,0,0,1,2969.482,610.368Zm8.927-.423c.769,1.1,1.369,2.6,2.181,3.6a8.569,8.569,0,0,0,2.347-4.216,13.583,13.583,0,0,0-2.592-3.142A9.305,9.305,0,0,1,2978.409,609.945Zm-21.316,10.872a4.124,4.124,0,0,0,2.493.647,10.981,10.981,0,0,1-.636-4.219c-.558-.6-1.391-.568-2.031-.981A17.055,17.055,0,0,0,2957.093,620.817Zm3.291.778c1.394-.266,2.5.144,4.014-.406a25.882,25.882,0,0,1-1.408-3.913,18.969,18.969,0,0,1-3.472-.107A9.713,9.713,0,0,0,2960.384,621.595Zm14.779-8.568a20.714,20.714,0,0,1,1.743,3.629,15.111,15.111,0,0,0,3.143-2.593c-.627-1.187-1.3-2.267-1.872-3.579A27.075,27.075,0,0,1,2975.163,613.027Zm-10.2,8.086a13.116,13.116,0,0,0,3.551-.818,19.518,19.518,0,0,1-1.743-3.63c-1.22.441-2.174.261-3.345.586Zm6.75-6.266c.459,1.409,1.1,2.4,1.614,3.681a13.491,13.491,0,0,0,3.115-1.538c-.675-1.155-1.014-3.093-2-3.528A16.548,16.548,0,0,1,2971.713,614.847Zm-2.633,5.372c1.246-.476,2.242-.668,3.784-1.357a23.639,23.639,0,0,0-1.615-3.681c-1.385.66-2.575.863-3.913,1.409A15.385,15.385,0,0,0,2969.08,620.219Zm11.586-6.1c.443.869.684,2.212,1.255,2.78a38.045,38.045,0,0,0,2.707-3.314c-.4-.936-.579-2.859-1.46-3.295A6.289,6.289,0,0,1,2980.666,614.115Zm-21.832,11.077a6.178,6.178,0,0,0,2.418.081,25.7,25.7,0,0,1-1.461-3.294c-1.053.219-1.733-.431-2.7-.415A32.578,32.578,0,0,0,2958.834,625.193Zm3.215.211a12.485,12.485,0,0,0,4.4-.559,28.216,28.216,0,0,1-1.846-3.141c-1.562.572-2.666.084-4.142.456A23.321,23.321,0,0,0,2962.05,625.4Zm15.112-8.1q.538,1.352,1.076,2.7a23.554,23.554,0,0,0,3.014-2.542c-.509-1-.46-1.762-.947-2.754C2979.174,615.535,2978.356,616.5,2977.162,617.3Zm-10.147,7.47a13.662,13.662,0,0,0,3.68-.869c-.7-.94-1.284-2.139-1.976-3.09-1.267.548-2.288.527-3.5.946C2965.814,622.769,2966.4,623.8,2967.015,624.769Zm6.569-5.6q.616,1.543,1.23,3.088c.938-.663,1.983-1.279,2.961-1.924l-1.076-2.7A34.549,34.549,0,0,0,2973.584,619.172Zm8.286-1.659a22.617,22.617,0,0,1,.689,3.6c1-.567,1.418-1.38,2.343-1.978.116-1.307.317-3.693-.352-4.63A10.021,10.021,0,0,1,2981.87,617.513Zm-10.66,6.182a9,9,0,0,0,3.089-1.229l-1.23-3.089c-1.232.628-2.891.94-3.732,1.486C2970,621.712,2970.526,622.891,2971.21,623.7Zm-7.288,5.288a13.642,13.642,0,0,1-2.1-3.038,12.013,12.013,0,0,0-2.6-.16C2960.551,627.234,2962.088,629.525,2963.922,628.983Zm17.2-10.725a10.859,10.859,0,0,1-2.678,2.26c.338,1.105.551,2.157.844,3.242.967-.721,1.957-1.433,2.858-2.182C2981.615,620.518,2982.029,618.774,2981.122,618.258Zm-16.4,10.854c1.481-.629,3.11-.29,4.324-1.124a17.427,17.427,0,0,1-2.209-2.551c-1.467.432-3.233.245-4.348.688C2963.269,627.031,2963.918,628.248,2964.719,629.112Zm10.17-6.285c.551,1.09.557,1.946,1.05,3.011a25.787,25.787,0,0,0,2.756-1.693c-.225-.95-.213-2.365-.973-3.192C2976.881,621.623,2975.837,622.2,2974.889,622.827Zm-5.229,5.213c1.132-.237,2.326-.616,3.5-.945a27.087,27.087,0,0,0-2.131-2.73,29.092,29.092,0,0,1-3.5.946A25.513,25.513,0,0,0,2969.66,628.04Zm4.014-1.151,1.672-.665a18.535,18.535,0,0,0-.792-3.114,14.731,14.731,0,0,0-2.882,1A31.784,31.784,0,0,0,2973.674,626.889Zm10.762-6.67c-.433.631-1.26,1.093-1.7,1.72.483.886-.05,1.9.535,2.471C2983.549,623.1,2985.059,621.2,2984.437,620.218Zm-19.617,9.9c-.167-.53-.991-.822-1.208-.414C2964.063,629.729,2964.369,630.09,2964.82,630.116Zm14.465-5.609a23.571,23.571,0,0,1,.638,3.473c2.136-1.32,3.129-3.132,2.35-5.707C2981.184,622.976,2980.3,623.768,2979.285,624.506Zm-6.981,6.8c-.859-.977-1.863-1.618-2.7-2.654-1.528.329-2.99.506-4.477.739C2966.73,631.871,2969.583,631.439,2972.3,631.311Zm3.711-4.907a20.581,20.581,0,0,0,1.1,3.14,14.9,14.9,0,0,0,2.214-1.18c-.121-1.153-.282-2.324-.509-3.524C2977.747,625.3,2977.131,625.96,2976.015,626.4Zm-2.888,4.729c.7-.375,1.867-.548,2.266-1.052-.8-.448-1.266-1.685-1.9-2.524a27.559,27.559,0,0,1-3.242.844A13.333,13.333,0,0,0,2973.127,631.133Zm3.218-1.281c.2-.838-.46-2.046-.793-3.114l-1.544.615C2974.723,628.334,2975.169,629.94,2976.345,629.852Z" transform="translate(-2955.945 -602.997)" fill="#171717" stroke="#171717" stroke-width="0.7" fill-rule="evenodd"/>
    <path id="Path_608" data-name="Path 608" d="M2969.643,631.581a14.587,14.587,0,0,1-8.917-3.155,14.1,14.1,0,0,1-5.473-12.357c.284-3.651,2-8.706,8.545-12.057h0a17.431,17.431,0,0,1,8.544-1.738c5.518.218,9.524,2.885,11.588,7.713a15.745,15.745,0,0,1-.789,14.415c-2.249,3.553-6.484,5.536-9.641,6.575A12.338,12.338,0,0,1,2969.643,631.581Zm-6.794-2.358a13.413,13.413,0,0,0,9.268,1.585l-.538.025c-.256.012-.515.027-.773.042-2.508.143-5.1.292-6.631-2.076l-.114-.176-.145.062-.125-.135c-.051-.055-.1-.112-.151-.169l-.381.113-.06.017a.978.978,0,0,1,.125,0,1.217,1.217,0,0,1,1.008.785l.113.361-.378-.022a1.749,1.749,0,0,1-.708-.235,1.287,1.287,0,0,0-.5-.179Zm6.124-1.594.1.125a11.681,11.681,0,0,0,1.421,1.419,14,14,0,0,1,1.267,1.226l.358.407a11.259,11.259,0,0,0,1.216-.326c3.062-1.007,7.16-2.918,9.334-6.312l-.319-.312a1.16,1.16,0,0,1-.3-.494,5.019,5.019,0,0,1-2.731,4.1l-.314.194-.079-.361c-.1-.464-.152-.909-.2-1.34a8.952,8.952,0,0,0-.421-2.089l.035.185c.211,1.115.378,2.275.512,3.546l.017.159-.134.087a15.252,15.252,0,0,1-2.253,1.2l-.242.105-.1-.244c-.1-.25-.21-.5-.312-.76a2.294,2.294,0,0,1,.036,1.028l-.044.186-.19.014a1.368,1.368,0,0,1-.6-.084l-.169.214a3.181,3.181,0,0,1-1.456.768,6.21,6.21,0,0,0-.891.352l-.156.083-.136-.114c-.213-.179-.431-.351-.647-.523a10.128,10.128,0,0,1-2.277-2.262l-.191-.28-.131.028-.164.034-.1-.134c-.028-.038-.057-.075-.085-.112l-.173.12a3.445,3.445,0,0,1-1.01.461c.453-.078.912-.163,1.371-.262Zm-4.121,1.222c1.39,1.762,3.6,1.635,5.924,1.5l.214-.012c-.275-.274-.561-.528-.841-.777a13.126,13.126,0,0,1-1.379-1.357c-1.076.225-2.131.38-3.153.531Zm5.125-1a10.7,10.7,0,0,0,1.922,1.806c.176.139.352.279.526.422a8.5,8.5,0,0,1,.811-.307,5.089,5.089,0,0,0,1-.412,5.685,5.685,0,0,1-1.1-1.48c-.156-.262-.316-.531-.482-.769-.323.086-.658.188-.983.288A16.151,16.151,0,0,1,2969.977,627.855Zm-8.741.305a14.6,14.6,0,0,0,1.3.88l.107-.2a.6.6,0,0,1,.313-.278A2.529,2.529,0,0,1,2961.236,628.161Zm12.432-1.425c.129.2.251.422.369.634.4.708.771,1.38,1.345,1.473a5.308,5.308,0,0,0-.487-1.849c-.081-.214-.166-.434-.24-.651Zm1.917-.917a20.448,20.448,0,0,0,.933,2.639,14.682,14.682,0,0,0,1.8-.966c-.116-1.07-.257-2.06-.428-3.013a9.928,9.928,0,0,0-.994.593A9.152,9.152,0,0,1,2975.584,625.819Zm-13.983-.2a12.9,12.9,0,0,0,1.773,2.449l.025.027c-.288-.365-.559-.761-.824-1.148C2962.263,626.488,2961.94,626.017,2961.6,625.617Zm.592-.1c.283.36.551.751.812,1.132a15.448,15.448,0,0,0,1.048,1.414,8.278,8.278,0,0,1,1.915-.4,5.892,5.892,0,0,0,1.881-.446,9.749,9.749,0,0,1-1.192-1.395c-.21-.279-.427-.567-.649-.826a12.364,12.364,0,0,1-2.128.3A10.474,10.474,0,0,0,2962.193,625.517Zm-3.129-.209.271.313c1,1.164,2.125,2.479,3.334,2.442a14.42,14.42,0,0,1-1.764-2.628A9.476,9.476,0,0,0,2959.064,625.307Zm13.8,1.216.1.138a9.778,9.778,0,0,1,.579.9,8.175,8.175,0,0,0-.483-.789l-.2-.272,2.119-.844.083.269.041.127c-.029-.109-.057-.216-.081-.324l-.052-.219.209-.083a7.819,7.819,0,0,0,1.429-.788,8.874,8.874,0,0,1,1.372-.774l.28-.12-.025-.069.158-.115c.379-.276.748-.567,1.105-.848.594-.467,1.208-.95,1.895-1.394l.291-.188.015.047.086-.123a5.227,5.227,0,0,1,.887-.9,4.666,4.666,0,0,0,.812-.819l.063-.092c-.092.09-.183.182-.275.275a5.977,5.977,0,0,1-1.322,1.089l-.287.163.071.141-.159.132c-.721.6-1.509,1.183-2.271,1.746l-.6.444-.308.23-.1-.371c-.115-.426-.217-.846-.32-1.267-.155-.639-.317-1.3-.521-1.967l-.065-.209.2-.1a7.593,7.593,0,0,0,2.056-1.652c.172-.177.345-.354.525-.529-.186.17-.365.343-.541.513a10.152,10.152,0,0,1-2,1.611l-.262.152-1.266-3.18.175-.117a15.234,15.234,0,0,0,1.7-1.386,18.22,18.22,0,0,1,1.431-1.2l.251-.184.137.279a6.729,6.729,0,0,1,.478,1.4,6.04,6.04,0,0,0,.468,1.352l.1.189-.166.133c-.111.089-.22.181-.326.274l.162.092c.65.37.737,1.2.821,2a5.287,5.287,0,0,0,.235,1.27l-.01-.166a17.447,17.447,0,0,0-.537-2.941c-.049-.206-.1-.412-.146-.616l-.037-.162.13-.1.143-.114-.114-.113a4.813,4.813,0,0,1-.871-1.753,9.139,9.139,0,0,0-.433-1.094l-.1-.191.169-.133.024-.02-.142-.176a13.64,13.64,0,0,1-1.252-2.023c-.207-.382-.42-.773-.642-1.137.37.82.784,1.565,1.186,2.287.2.363.4.726.6,1.1l.1.187-.163.135c-.331.276-.633.576-.925.867a8.421,8.421,0,0,1-2.269,1.759l-.26.129-.1-.272a20.529,20.529,0,0,0-1.721-3.583l-.133-.216.213-.139a16.389,16.389,0,0,0,2.152-1.766c.274-.253.548-.506.833-.754l.2-.176-.013-.018-.1-.147.1-.148c.126-.188.256-.374.386-.56a7.545,7.545,0,0,0,1.489-2.966l-.1.255a7.738,7.738,0,0,1-1.764,3.013l-.253.24-.158-.311a11.547,11.547,0,0,0-1.221-1.879,18.519,18.519,0,0,1,1.2,2.04l.261.486-.266.273a15.56,15.56,0,0,1-2.669,2.339l-.205.134-.146-.2a14.753,14.753,0,0,1-1.05-1.726,10.385,10.385,0,0,0-1.342-2.061l-.151-.161.133-.176a7.25,7.25,0,0,1,1-1.005,4.862,4.862,0,0,0,1.121-1.228c-.468.529-.988,1.036-1.494,1.529l-.5.483-.166-.083a3.343,3.343,0,0,1-1.113-1.16,2.941,2.941,0,0,0-.922-.994,7.05,7.05,0,0,1,1.668,2.25l.106.238-.237.108-.055.025.139.067c.969.475,1.569,1.709,2.15,2.9.179.368.364.748.555,1.095l.125.228-.606.339a18.131,18.131,0,0,1-2.513,1.239l-.2.076-.114-.182c-.053-.085-.1-.173-.156-.263.052.118.1.236.155.356l.1.24-.239.1c-.678.29-1.354.555-2.024.8a14.973,14.973,0,0,0,2.014-.757l.195-.092.127.173c.024.033.048.067.071.1q-.034-.1-.066-.2l-.077-.234.229-.09a16.257,16.257,0,0,0,2.687-1.364l.117-.072.125.056c.746.33,1.141,1.332,1.522,2.3a10.113,10.113,0,0,0,.6,1.334l.12.2-.192.139a13.557,13.557,0,0,1-3.176,1.571l-.238.089-.1-.236c-.131-.323-.271-.633-.414-.933.136.366.278.732.429,1.06l.11.24-.241.108a21.428,21.428,0,0,1-2.426.9c-.46.147-.895.285-1.371.467l-.183.07-.119-.156-.018-.025.047.079-.3.109a13.432,13.432,0,0,1-3.621.834l-.191.014-1.4-3.508a18.148,18.148,0,0,0,.7,1.846c.191.455.389.925.549,1.376l.087.244-.244.088a5.315,5.315,0,0,1-1.484.306,4.724,4.724,0,0,0,1.51-.281l.206-.075.11.189.021.036.285-.1a11.54,11.54,0,0,1,1.544-.389,9.011,9.011,0,0,0,1.937-.549l.192-.083.123.169c.026.036.053.072.079.109l.187-.121a8.8,8.8,0,0,1,1.88-.775,13.872,13.872,0,0,0,1.875-.725l.255-.13,1.419,3.563-.193.114c-.106.061-.27.156-.475.266a2.754,2.754,0,0,1,.584-.108l.066,0-.055-.108.135-.089-1.427-3.584.189-.114c.732-.441,2.15-1.113,3.143-1.554l.248-.11,1.256,3.153-.178.117-.13.085.126.137a4.617,4.617,0,0,1,.893,2.5c.044.291.086.566.143.806l.041.174-.146.1a25.894,25.894,0,0,1-2.784,1.71l-.243.127-.115-.248c-.071-.154-.132-.3-.187-.449a4.115,4.115,0,0,1,.093.718l0,.182-2.042.812-.117-.181a10.421,10.421,0,0,0-.727-.978c.117.16.233.321.348.48l.517.712-.361.1c-.3.084-.6.172-.905.26-.555.161-1.121.326-1.681.471a16.1,16.1,0,0,0,1.606-.433c.39-.119.792-.242,1.179-.339Zm-5.667-1.789a11.455,11.455,0,0,0,1.1,1.4c.244.278.494.564.733.875.785-.173,1.611-.412,2.413-.645l.549-.159-.078-.108a24.016,24.016,0,0,0-1.691-2.165,13.653,13.653,0,0,1-2.113.588C2967.81,624.587,2967.5,624.654,2967.192,624.733Zm-1.012-.332.11.123c.274.306.533.649.783.981a9.082,9.082,0,0,0,1.149,1.343c-.107-.125-.214-.248-.32-.369a10.641,10.641,0,0,1-1.34-1.779l-.164-.288.319-.091c.279-.08.554-.147.822-.208-.424.074-.834.128-1.232.177l-.163.019-.044-.068-.3.11a8.375,8.375,0,0,1-1.316.365,8.375,8.375,0,0,0,1.538-.268Zm12.675-.538a10.016,10.016,0,0,1,.39,2.031c.035.3.071.6.124.915a4.229,4.229,0,0,0,2.01-4.86c-.55.376-1.061.777-1.557,1.168C2979.509,623.364,2979.188,623.617,2978.856,623.864Zm-20.273,1.687a13.861,13.861,0,0,0,1.032,1.181c-.231-.254-.456-.515-.676-.77Zm12.724-2.044a10.136,10.136,0,0,0,.981,1.347c.25.306.507.621.749.975l1.3-.516a8.743,8.743,0,0,0-.431-1.707c-.1-.312-.2-.633-.286-.946a9.945,9.945,0,0,0-1.608.565C2971.781,623.318,2971.545,623.414,2971.307,623.506Zm-11,1.318a5.92,5.92,0,0,1,.834.127l.116.027.056.106.085.16.256-.1a4.475,4.475,0,0,1,.965-.244c-.219.006-.436.01-.652.013s-.43.007-.646.013l-.17,0-.073-.154c-.183-.383-.384-.741-.58-1.087a11.2,11.2,0,0,1-1.022-2.189l-.085-.265.27-.068a5.356,5.356,0,0,1,1-.15,5.734,5.734,0,0,0-.959.094l-.2.038-.087-.183a9.859,9.859,0,0,1-.891-4.533l0-.31.127.02-.019-.175a10.443,10.443,0,0,1,.275-3.29c.093-.472.188-.96.247-1.45l.024-.2.2-.027c.071-.01.14-.017.209-.023l-.276-.01.083-.316c.047-.179.091-.373.136-.574a7.248,7.248,0,0,1,.574-1.794,4.243,4.243,0,0,0-.515,1.2,5.04,5.04,0,0,1-.52,1.246l-.034.053-.055.032a.708.708,0,0,1-.077.04l.114.036-.012.2a19.774,19.774,0,0,1-.283,2.143,16.914,16.914,0,0,0-.29,2.4l-.005.2-.195.046a1.588,1.588,0,0,1-.343.044,1.943,1.943,0,0,1,.524.4l.08.086-.012.117a10.68,10.68,0,0,0,.626,4.116l.093.3.03-.006.077.211a25.373,25.373,0,0,0,1.446,3.261l.177.329-.371.053C2960.468,624.8,2960.385,624.815,2960.3,624.825Zm-2.279-.042.361,0c-.121-.022-.239-.048-.354-.078l-.069-.017Zm16.461-2.6a8.768,8.768,0,0,1,.485,1.432,9.458,9.458,0,0,0,.357,1.122,25.759,25.759,0,0,0,2.336-1.446c-.042-.211-.077-.436-.113-.672a4.925,4.925,0,0,0-.611-2.04c-.531.4-1.129.773-1.709,1.134C2974.982,621.867,2974.731,622.023,2974.486,622.182Zm-17.674.374a13.393,13.393,0,0,0,.994,1.891c-.2-.426-.416-.824-.627-1.21C2957.057,623.014,2956.934,622.789,2956.813,622.556Zm3.251-.942a11.6,11.6,0,0,0,.888,1.82c.174.308.354.626.522.966l.485-.009a10.783,10.783,0,0,0,3.33-.416,17.85,17.85,0,0,1-1.077-1.837c-.152-.284-.309-.576-.467-.856a6.536,6.536,0,0,1-2.191.246A7.413,7.413,0,0,0,2960.063,621.613Zm-1.782,2.617a5.8,5.8,0,0,0,1.825.09,26.4,26.4,0,0,1-1.224-2.789,3.3,3.3,0,0,1-1.46-.228,4.834,4.834,0,0,0-.691-.188,14.068,14.068,0,0,0,.9,1.87C2957.853,623.38,2958.076,623.787,2958.282,624.23Zm12.075-.915.123.129c.2.214.4.441.6.677a6.527,6.527,0,0,1-.373-.633l-.136-.262.069-.026c-.047.007-.095.012-.141.016l-.135.012-.088-.1q-.116-.138-.228-.288c.041.057.081.113.122.168l.2.271-.312.127a11.615,11.615,0,0,1-1.181.407,9.557,9.557,0,0,0,1.317-.426Zm13.385-4.259.179.284c.476.753-.035,1.831-.529,2.873a7.818,7.818,0,0,0-.6,1.511l-.081.383a15.434,15.434,0,0,0,.74-13.915,12.448,12.448,0,0,0-2.753-4.093,16.221,16.221,0,0,1,1.041,1.4c.217.315.442.64.669.939l.081.1-.037.127c-.05.173-.1.347-.158.521l.253.125c.716.355,1.007,1.436,1.263,2.39a8.333,8.333,0,0,0,.322,1.036l.057.133-.083.119q-.129.185-.263.368l.183.257c.734,1.027.517,3.485.4,4.8l-.011.127-.107.069A4.424,4.424,0,0,0,2983.741,619.056Zm-19.275,2.451c.069.129.137.257.205.384a14.387,14.387,0,0,0,1.236,2.042c-.416-.664-.822-1.362-1.216-2.039Zm.405-.341.271.465c.411.706.834,1.434,1.266,2.119a13.464,13.464,0,0,0,3.14-.711c-.289-.42-.562-.876-.827-1.32s-.544-.912-.833-1.327a10.213,10.213,0,0,1-1.845.5C2965.647,620.973,2965.268,621.049,2964.872,621.167Zm17.432.063a3.051,3.051,0,0,1,.187,1.261c0,.162,0,.3.011.43.122-.305.271-.621.417-.93a5.248,5.248,0,0,0,.669-1.97c-.179.185-.378.357-.574.526A5.8,5.8,0,0,0,2982.3,621.229Zm-13.319-1.025c.252.354.486.745.713,1.126a12.511,12.511,0,0,0,.886,1.351,9.057,9.057,0,0,0,2.652-1.067L2972.192,619a16.649,16.649,0,0,1-1.69.631A11.671,11.671,0,0,0,2968.984,620.2Zm9.033-.3c.18.61.326,1.208.468,1.79.071.294.143.588.219.883l.29-.214c.7-.52,1.427-1.056,2.1-1.6a5.6,5.6,0,0,1-.273-1.421,2.665,2.665,0,0,0-.41-1.479c-.132.131-.26.263-.389.4A8.463,8.463,0,0,1,2978.017,619.908Zm3.7,1.314.072.236a6.844,6.844,0,0,1,.18.736,1.893,1.893,0,0,0-.195-.869Zm-5.215-.966-.472.3c-.562.355-1.141.721-1.679,1.095.2-.128.4-.255.608-.382C2975.479,620.942,2976.018,620.608,2976.5,620.256Zm-3.327-1.711,1.025,2.574c.5-.345,1.035-.68,1.551-1.006.325-.205.649-.411.967-.618l-.9-2.252C2974.75,617.725,2973.761,618.212,2973.172,618.546Zm-14.919,2.445a1.942,1.942,0,0,0,.748-.005l.092-.02-.221.02A3.779,3.779,0,0,1,2958.253,620.99Zm-1.865-.427a2.556,2.556,0,0,1,.4.032c-.2-.093-.389-.193-.56-.29l-.109-.063-.019-.125a17.055,17.055,0,0,1-.174-4.624l.051-.413.2.13.037-.156c.06-.258.111-.586.167-.934.188-1.19.423-2.672,1.256-3.188a1.234,1.234,0,0,1,.567-.183c-.061-.038-.075-.041-.1-.035l-.325.082v-.335a2.062,2.062,0,0,1,.123-.7,13.294,13.294,0,0,0-2.13,6.354,13.8,13.8,0,0,0,.368,4.457l.208,0Zm2.657-3.832a9.169,9.169,0,0,0,.755,3.833,8.9,8.9,0,0,1,1.478-.069,6.356,6.356,0,0,0,2.044-.208c-.137-.361-.294-.735-.446-1.1a13.77,13.77,0,0,1-.841-2.384A19.851,19.851,0,0,1,2959.044,616.731Zm-2.449,3.182a3.9,3.9,0,0,0,1.9.566,10.772,10.772,0,0,1-.558-3.875,2.517,2.517,0,0,0-.981-.472c-.185-.059-.374-.119-.56-.2A17.29,17.29,0,0,0,2956.6,619.913Zm6.446-3.219,1.355,3.4a12.859,12.859,0,0,0,2.994-.681,19.712,19.712,0,0,1-1.516-3.163,7.853,7.853,0,0,1-1.672.284A9.337,9.337,0,0,0,2963.041,616.695Zm18.383.181c.035.151.071.3.107.453a21.754,21.754,0,0,1,.512,2.593,6.835,6.835,0,0,0,.856-.774,6.991,6.991,0,0,1,1.015-.9,11.544,11.544,0,0,0-.12-3.937A10.564,10.564,0,0,1,2981.424,616.875ZM2966.935,616a15.336,15.336,0,0,0,1.5,3.168c.418-.154.8-.277,1.211-.407a21.827,21.827,0,0,0,2.134-.77c-.162-.377-.311-.782-.456-1.175a11.146,11.146,0,0,0-.9-2.043,17.633,17.633,0,0,1-2.082.753C2967.884,615.667,2967.415,615.814,2966.935,616Zm9.809.659.885,2.221a10.581,10.581,0,0,0,1.635-1.375c.293-.283.594-.575.926-.853a7.058,7.058,0,0,1-.417-1.27,7.472,7.472,0,0,0-.31-1.007c-.4.314-.772.647-1.132.972A16.913,16.913,0,0,1,2976.744,616.657Zm-10.553-1.066.088.247a18.144,18.144,0,0,0,.767,1.833c-.244-.56-.469-1.149-.691-1.729l-.092-.239.237-.1c.113-.046.224-.089.334-.131l-.368.109-.233.068-.084-.228q-.072-.193-.137-.385.038.159.071.316l.049.229-.223.073a8.612,8.612,0,0,1-1.946.357,10.6,10.6,0,0,0-1.294.184l-.239.053-.068-.235a16.085,16.085,0,0,1-.529-4.292l-.021-.678.189-.06a7.3,7.3,0,0,1,1.142-.242l-.31.039c-.224.027-.435.052-.654.092l-.332.06.025-.336a16.67,16.67,0,0,1,.24-1.7c.076-.428.154-.871.2-1.314l.017-.149.138-.06a4.533,4.533,0,0,1,1.741-.38l.234-.01.035.23c0-.053,0-.106,0-.159l-.006-.291.291.026a2.415,2.415,0,0,0,.836-.214,2.6,2.6,0,0,1,1.067-.245l.134.012.069.116c.079.136.161.271.241.406l.11.183c-.1-.182-.192-.36-.289-.533l-.139-.245.253-.12c.579-.274,1.107-.582,1.618-.881l.488-.284.142.135.019.017.088-.16a3.813,3.813,0,0,1,.341-.518,5.116,5.116,0,0,1-.5.328l-.183.107-.142-.157a4.48,4.48,0,0,0-.437-.42c.127.131.249.269.368.413l.225.271-.326.136a5.917,5.917,0,0,0-.685.356,4.894,4.894,0,0,1-1.225.552l-.178.049.008.011-.312.133a4.322,4.322,0,0,1-1.575.456l-.287-.007,0-.01-.03.015a5.919,5.919,0,0,1-1.614.5l-.471.093.018-.059-.128.043a1.273,1.273,0,0,1-.188.047l.125.018.008.217a7.613,7.613,0,0,1-.2,1.788,8.425,8.425,0,0,0-.19,1.368l-.008.252h-.119l.021.2c.052.493.085.983.117,1.458a18.858,18.858,0,0,0,.411,3.217l.062.259-.26.057a6.822,6.822,0,0,1-1.267.155c.468,0,.952-.011,1.459-.028l.23-.007,0,.031.14-.039a8.33,8.33,0,0,1,1.536-.243,6.726,6.726,0,0,0,1.79-.337Zm5.11-1.333a17.921,17.921,0,0,0,.853,1.949c.194.4.394.809.58,1.247a13.312,13.312,0,0,0,2.628-1.284c-.19-.368-.355-.787-.516-1.195a4.319,4.319,0,0,0-1.132-1.953A16.845,16.845,0,0,1,2971.3,614.259Zm12.147-.38c-.55.708-1.138,1.392-1.7,2.03A8.986,8.986,0,0,0,2983.448,613.879Zm-24.327,1.822a9.241,9.241,0,0,0,2.559-.01,20.3,20.3,0,0,1-.363-3.039c-.026-.382-.052-.774-.089-1.168a6.156,6.156,0,0,1-.883.013,6.22,6.22,0,0,0-.708,0c-.061.437-.145.865-.227,1.281A10.412,10.412,0,0,0,2959.122,615.7Zm21.131-2.25c.136.3.254.639.369.967a6.484,6.484,0,0,0,.571,1.335,37.132,37.132,0,0,0,2.4-2.944c-.106-.281-.2-.617-.291-.97a5.413,5.413,0,0,0-.71-1.823A6.648,6.648,0,0,1,2980.253,613.45Zm-17.907-2.017.008.28a16.324,16.324,0,0,0,.444,3.929c.385-.072.754-.109,1.112-.145a8.864,8.864,0,0,0,1.61-.264c-.146-.625-.35-1.283-.547-1.923-.233-.754-.473-1.53-.625-2.268a8.217,8.217,0,0,1-1.075.214A8.136,8.136,0,0,0,2962.346,611.433Zm12.431.933a21.1,21.1,0,0,1,1.531,3.182,8.461,8.461,0,0,0,1.877-1.527c.252-.251.513-.51.8-.759-.164-.306-.331-.606-.5-.906-.382-.689-.777-1.4-1.137-2.18-.188.169-.373.339-.557.51A18.009,18.009,0,0,1,2974.777,612.366Zm-18.013,2.6c.084.044.166.089.245.134a1.644,1.644,0,0,0,.9.3,18.782,18.782,0,0,1,.289-2.255c.1-.607.21-1.233.261-1.87a.783.783,0,0,0-.55.1c-.629.39-.852,1.8-1.015,2.826C2956.851,614.474,2956.81,614.735,2956.764,614.967Zm8.554-4.131c.233.688.414,1.356.589,2.005.19.7.387,1.431.649,2.176a34.365,34.365,0,0,0,3.407-1.227c-.278-.632-.576-1.235-.865-1.82-.3-.6-.6-1.22-.89-1.875-.348.091-.689.167-1.022.242A16.019,16.019,0,0,0,2965.318,610.835Zm3.811-1.107a14.5,14.5,0,0,1,.974,1.936,17.43,17.43,0,0,0,.778,1.606,18.876,18.876,0,0,0,2.24-1.126l.157-.088c-.153-.291-.3-.595-.444-.89a6.339,6.339,0,0,0-1.771-2.585A12.689,12.689,0,0,1,2969.128,609.728Zm-4.1,1.9c.081.308.173.621.267.934C2965.208,612.259,2965.12,611.947,2965.024,611.633Zm17.126-2.017a8.327,8.327,0,0,1-1.613,2.875A5.588,5.588,0,0,0,2982.15,609.615Zm-4.164-.41c.309.465.593.989.869,1.5a15.911,15.911,0,0,0,1.027,1.719,8.429,8.429,0,0,0,2.029-3.774c-.207-.278-.409-.569-.6-.853a10.055,10.055,0,0,0-1.523-1.878,8.753,8.753,0,0,1-1.516,2.882Q2978.127,609,2977.987,609.206Zm-9.082,1.165c.211.456.429.9.643,1.33C2969.343,611.242,2969.133,610.781,2968.9,610.371Zm3.247-2.417a12.11,12.11,0,0,1,1.266,2c.276.5.561,1.02.866,1.463a16.092,16.092,0,0,0,2.372-2.125l-.08-.15c-.708-1.322-1.437-2.686-2.462-3.2a5.772,5.772,0,0,1-1.17,1.257A8.434,8.434,0,0,0,2972.151,607.954Zm-11.615,3.027a4.737,4.737,0,0,0,.645-.017l-.356.009Zm4.246-.729.01.032-.216.093a4.759,4.759,0,0,1-1.037.309,5.279,5.279,0,0,0,.923-.229l.292-.1.022.126.118-.045a15.2,15.2,0,0,1,2.177-.607c.389-.087.79-.177,1.193-.289l-.189.037c-.379.074-.778.173-1.165.268a14.168,14.168,0,0,1-2.028.4Zm-4.814.213c.276,0,.564-.007.842-.014.17,0,.34-.009.509-.012a10.474,10.474,0,0,1,.186-1.2,8.075,8.075,0,0,0,.193-1.438c-1.035-.024-1.35.987-1.668,2.395C2960.009,610.286,2959.989,610.377,2959.968,610.466Zm-1.647-.24a.988.988,0,0,1,.2.107c.079.052.1.067.136.057a4.861,4.861,0,0,0,.426-1.062c.064-.206.13-.415.21-.62A3,3,0,0,0,2958.321,610.226Zm4.494-2.432c-.05.407-.121.807-.189,1.195-.076.431-.155.873-.2,1.322.119-.016.234-.03.348-.044a5.806,5.806,0,0,0,1.388-.287,6.188,6.188,0,0,1-.141-1.585c0-.294,0-.574-.026-.865A3.908,3.908,0,0,0,2962.815,607.794Zm2.188-.5c.016.58.045,1.172.074,1.747.01.215.021.431.031.646a16.773,16.773,0,0,0,1.679-.355c.294-.073.6-.147.894-.212a11.332,11.332,0,0,0-1.02-1.991l-.168-.28a3.265,3.265,0,0,0-.712.212A4,4,0,0,1,2965,607.3Zm3.191,1.711c.028.074.054.15.079.227l.09.273.076-.021.189-.094.245-.123c-.081.032-.166.062-.254.09l-.212.067-.1-.2C2968.268,609.159,2968.231,609.084,2968.194,609.01Zm-3.652-.2c0,.133.008.266.02.4l-.007-.14C2964.55,608.985,2964.546,608.9,2964.542,608.811Zm6.426-.823a5.491,5.491,0,0,0-.856.551c-.14.1-.281.207-.434.308a8.564,8.564,0,0,0,1.194-.782Zm-3.451-1.489c.276.507.541,1.047.8,1.571.118.241.235.482.355.721a4.668,4.668,0,0,0,1.133-.673,6.577,6.577,0,0,1,.811-.536,6.916,6.916,0,0,0-1.54-1.951l-.149.087C2968.477,605.98,2968.018,606.249,2967.517,606.5Zm7.343-1.7c.25.33.51.65.762.961a16.4,16.4,0,0,1,1.727,2.42,7.964,7.964,0,0,0,1.395-2.576q.069-.178.14-.356a7.254,7.254,0,0,0-3.662-1.3.948.948,0,0,1-.231.574C2974.893,604.65,2974.853,604.715,2974.86,604.8Zm-14.791,2.528a.32.32,0,0,1,.188.057.354.354,0,0,1,.128.339.33.33,0,0,0,0,.066l.011.054a1.6,1.6,0,0,1,.61-.446l-.066-.185c-.228-.632.309-.953.664-1.164.195-.116.4-.236.449-.361l.025-.058a16.2,16.2,0,0,0-2.154,1.721A.532.532,0,0,1,2960.069,607.323Zm2.53-.862c-.013.034-.027.066-.039.1a1.089,1.089,0,0,0-.116.412l.013.062.048-.161C2962.543,606.739,2962.572,606.6,2962.6,606.461Zm7.386-1.447a4.146,4.146,0,0,1,.894,1.027,3.8,3.8,0,0,0,.764.9l.217-.213c.545-.53,1.107-1.078,1.593-1.643a2.6,2.6,0,0,0-2.05-1.042A1.907,1.907,0,0,0,2969.985,605.013Zm-8.437,1.793c.051,0,.1,0,.146,0a1.726,1.726,0,0,0,.236,0,2.115,2.115,0,0,1,.141-.438c-.066.043-.134.083-.2.123a1.43,1.43,0,0,0-.421.315C2961.483,606.807,2961.517,606.807,2961.549,606.807Zm2.605-1.82c-.8.263-.9.793-1.019,1.448-.011.057-.021.115-.033.172a4.814,4.814,0,0,0,.961-.3,3.015,3.015,0,0,1,.043-.786A3.362,3.362,0,0,0,2964.154,604.987Zm9.8.315.138.052a3.377,3.377,0,0,1,1.3.949l-.176-.218c-.268-.329-.544-.668-.81-1.024l-.03-.039-.013-.048a.835.835,0,0,1,.2-.766c.11-.151.162-.222.113-.349-.022.045-.043.1-.065.15a1.062,1.062,0,0,1-.528.64l-.132.064-.123-.079c-.084-.054-.168-.111-.249-.17a4.592,4.592,0,0,1,.412.457l.131.165-.134.163Zm-8.773-.359a9.7,9.7,0,0,1-.093,1.2,4.524,4.524,0,0,0,.765-.257c-.058-.086-.115-.174-.171-.26A4.436,4.436,0,0,0,2965.179,604.943Zm-.558.667c-.019.133-.038.262-.043.394C2964.593,605.871,2964.608,605.74,2964.621,605.61Zm1.482-.293.016.024c.116.178.224.347.342.5l.128.164-.044-.077A4.29,4.29,0,0,0,2966.1,605.317Zm-3.825.176.122.054a.464.464,0,0,1,.3.4,1.942,1.942,0,0,1,.581-1.064Q2962.763,605.176,2962.278,605.493Zm3.576-1.32a6.155,6.155,0,0,0,.494.626,6.514,6.514,0,0,1,.537.685,4.857,4.857,0,0,0,.918-.444c.135-.078.273-.158.423-.235A1.8,1.8,0,0,0,2965.854,604.173Zm-1.272.174.053.257c.005.028.011.056.015.083,0-.069-.009-.139-.016-.21l-.027-.277q-.286.131-.572.277h0c.09-.028.187-.054.29-.076Zm.173-.213.218.069a1.308,1.308,0,0,1,.437.244c-.053-.08-.1-.165-.153-.255l-.121-.22C2965.01,604.024,2964.882,604.078,2964.755,604.134Zm3.713-.487a5.068,5.068,0,0,1,.688.581,4.088,4.088,0,0,0,.781-.646c-.147,0-.295-.01-.439-.018A2.252,2.252,0,0,0,2968.469,603.647Zm4.813-.064c.108.078.214.159.318.24.128.1.25.192.374.278a.819.819,0,0,0,.159-.287c0-.008.007-.017.01-.025-.138-.03-.283-.066-.432-.1S2973.427,603.615,2973.282,603.583Zm1.048-.312.8.129a16.245,16.245,0,0,1,2.158.446,14.059,14.059,0,0,0-4.965-1.05,18.109,18.109,0,0,0-5.636.642,2.029,2.029,0,0,1,.958.228l.177-.186a1.991,1.991,0,0,1,1.71-.436,2.834,2.834,0,0,0,.927-.041l.689-.2-.4.6a4.292,4.292,0,0,1-.343.448,2.089,2.089,0,0,1,.957-.325,2.471,2.471,0,0,1,1.294.276,1.822,1.822,0,0,0-.511-.21l-.656-.149.584-.333a2.616,2.616,0,0,1,1.765.074c.179.044.351.087.508.118Z" transform="translate(-2955.207 -602.258)" fill="#171717" stroke="#171717" stroke-width="0.7"/>
  </g>
</svg>
