<?xml version="1.0" encoding="utf-8"?>
<!-- Generator: Adobe Illustrator 24.1.3, SVG Export Plug-In . SVG Version: 6.00 Build 0)  -->
<svg version="1.1" id="Laag_1" xmlns="http://www.w3.org/2000/svg" xmlns:xlink="http://www.w3.org/1999/xlink" x="0px" y="0px"
	 viewBox="0 0 95.7 119.1" style="enable-background:new 0 0 95.7 119.1;" xml:space="preserve">
<style type="text/css">
	.st0{fill:#0600FF;}
</style>
<path id="Path_2086" class="st0" d="M15.8,111.5c-2.7,0.9-6.5,1.4-7.6-1.2c-0.3-0.9-0.3-1.9-0.1-2.8c2.8-19.3,14.5-36,25.9-51.8
	c8.6-12,17.2-24,25.8-35.9c2.4-3.3,4.8-6.7,8-9.3s7.3-4.2,11.4-3.6c5.8,0.9,10.2,6.5,10.6,12.3s-2.4,11.6-6.7,15.6
	c-3.8,3.6-6.8,8-9.8,12.4C61.7,63.9,50.2,80.7,38.6,97.6C33.5,105.1,24.3,108.5,15.8,111.5 M63.9,25.2L24.7,80.7
	c1.7,1.2,2.8,3,3.1,5c0.5,3.2,7,0.8,8.2,3.8c12.4-17.8,24.8-35.7,37.2-53.5c1.1-1.4,1.9-3,2.2-4.7c0.2-1.7-0.7-3.7-2.4-4.1
	c-1.9-0.4-3.6,1.3-4.5,3.1c-0.9,1.8-1.5,3.8-3.1,4.9s-4.6,0.3-4.4-1.6c0.1-0.6,0.3-1.1,0.7-1.6c1.8-2.8,3.8-5.6,6-8.2
	C66.9,22.6,64.8,23.9,63.9,25.2 M25.8,94.4c-1.9-0.1-3.4-1.6-3.6-3.5c-0.1-1.4-2.2-1.6-3.2-0.6s-1.1,2.4-1.4,3.8
	c-0.5,1.5-0.8,3-1,4.6c-0.1,1.6,0.6,3.3,2.1,3.9c1.4,0.5,2.9-0.2,4.2-0.9l6.4-3.4c1-0.6,2.2-1.4,2.1-2.6c-0.2-1-1.4-1.6-2.4-1.5
	S26.9,94.4,25.8,94.4 M83.5,19c-0.3-1-0.9-2-1.6-2.8c-1.3-1.6-2.8-3.2-4.8-3.6c-3.1-0.6-5.9,1.9-7.7,4.5c-0.1,0.1-0.1,0.2-0.2,0.3
	c-0.1,0.5,0.5,0.8,1,1c4.6,1.4,8.4,4.6,10.5,8.9l1.9-4.1C83.4,21.9,83.7,20.5,83.5,19L83.5,19z"/>
</svg>
