<?xml version="1.0" encoding="utf-8"?>
<!-- Generator: Adobe Illustrator 24.1.3, SVG Export Plug-In . SVG Version: 6.00 Build 0)  -->
<svg version="1.1" id="Laag_1" xmlns="http://www.w3.org/2000/svg" xmlns:xlink="http://www.w3.org/1999/xlink" x="0px" y="0px"
	 viewBox="0 0 221 67" style="enable-background:new 0 0 221 67;" xml:space="preserve">
<style type="text/css">
	.st0{enable-background:new    ;}
	.st1{fill:#0600FF;}
</style>
<g class="st0">
	<g>
		<path class="st1" d="M15,10.28c0.01,0.05,0.03,0.09,0.05,0.11c0.02,0.02,0.03,0.05,0.02,0.1c-0.03,0.14-0.39,0.35-1.08,0.62
			c-0.69,0.27-1.53,0.56-2.53,0.86c-1,0.31-2.04,0.6-3.14,0.88c-1.09,0.28-2.06,0.5-2.9,0.65c-0.01,0.05-0.07,0.2-0.17,0.46
			c-0.11,0.26-0.17,0.42-0.18,0.49l-0.15,0.69c-0.12,0.56-0.15,1.12-0.1,1.7c0.05,0.58,0.21,1.12,0.47,1.63
			c0.26,0.51,0.61,0.95,1.06,1.32c0.45,0.37,1.01,0.63,1.69,0.78c0.29,0.06,0.66,0.08,1.1,0.06c0.44-0.02,0.89-0.09,1.33-0.21
			c0.44-0.12,0.85-0.29,1.23-0.52c0.38-0.22,0.64-0.51,0.79-0.85c0.28,0.09,0.44,0.21,0.47,0.37c0.03,0.16,0.04,0.26,0.03,0.31
			c-0.13,0.63-0.4,1.13-0.79,1.51c-0.4,0.38-0.85,0.67-1.35,0.85c-0.51,0.18-1.02,0.29-1.54,0.32c-0.52,0.03-0.98,0-1.36-0.08
			c-2.07-0.44-3.46-1.34-4.15-2.7c-0.69-1.36-0.84-2.98-0.44-4.86c0.02-0.1,0.09-0.31,0.21-0.64c0.12-0.33,0.19-0.55,0.22-0.67
			c0.01-0.02-0.04-0.06-0.13-0.12s-0.18-0.12-0.28-0.19c-0.1-0.07-0.18-0.17-0.24-0.3c-0.06-0.13-0.07-0.29-0.03-0.48
			c0.04-0.19,0.15-0.33,0.32-0.42c0.17-0.09,0.36-0.16,0.58-0.22l0.41-0.14c0.41-0.87,0.86-1.7,1.34-2.49
			c0.48-0.79,1.05-1.57,1.69-2.34c-0.19-0.04-0.39-0.11-0.6-0.2S6.55,6.25,6.61,5.96c0.07-0.34,0.35-0.67,0.84-1
			C7.93,4.64,8.47,4.35,9.07,4.1c0.6-0.25,1.17-0.45,1.73-0.6c0.56-0.15,0.95-0.2,1.17-0.15c0.1,0.02,0.16,0.05,0.19,0.1
			c0.03,0.04,0.09,0.08,0.19,0.1c0.19,0.04,0.45,0.06,0.77,0.05c0.32-0.01,0.65-0.03,1.01-0.05c0.36-0.02,0.7-0.04,1.01-0.05
			c0.32-0.01,0.57,0.01,0.77,0.05c0.22,0.05,0.37,0.15,0.44,0.32c0.08,0.17,0.1,0.34,0.06,0.51c-0.04,0.19-0.19,0.31-0.45,0.34
			c-0.26,0.03-0.49,0.05-0.69,0.06c-0.7-0.02-1.45,0.04-2.25,0.18c-0.8,0.15-1.55,0.33-2.26,0.56c-0.3,0.21-0.67,0.53-1.11,0.96
			C9.2,6.89,8.76,7.39,8.31,7.95C7.86,8.51,7.44,9.1,7.04,9.72c-0.4,0.62-0.7,1.23-0.9,1.81l0.68-0.16c2.05-0.5,3.71-0.88,4.99-1.13
			c1.28-0.26,2.24-0.32,2.89-0.18C14.82,10.09,14.92,10.16,15,10.28z"/>
	</g>
	<g>
		<path class="st1" d="M27.96,22.41c0.01,0.05,0.01,0.13-0.01,0.22c-0.03,0.14-0.19,0.34-0.46,0.58c-0.09,0.08-0.28,0.2-0.57,0.37
			c-0.29,0.17-0.66,0.31-1.11,0.44c-0.46,0.13-1,0.22-1.63,0.26c-0.63,0.04-1.34-0.02-2.13-0.19c-0.55-0.12-1.07-0.36-1.55-0.73
			c-0.48-0.37-0.87-0.84-1.17-1.42c-0.31-0.58-0.51-1.27-0.62-2.06c-0.11-0.79-0.06-1.68,0.15-2.67c0.2-0.94,0.51-1.8,0.92-2.56
			c0.42-0.77,0.88-1.43,1.38-1.97c0.51-0.55,1.03-0.95,1.56-1.22c0.54-0.26,1.02-0.35,1.45-0.26c0.39,0.08,0.76,0.24,1.13,0.48
			c0.37,0.24,0.69,0.52,0.96,0.83c0.27,0.31,0.48,0.64,0.61,0.98c0.13,0.34,0.16,0.67,0.09,0.98c-0.08,0.36-0.32,0.7-0.73,1.02
			c-0.41,0.32-0.88,0.59-1.4,0.82c-0.53,0.23-1.04,0.4-1.54,0.5c-0.5,0.11-0.89,0.13-1.15,0.08c-0.14-0.03-0.26-0.12-0.34-0.28
			c-0.08-0.16-0.1-0.33-0.06-0.52c0.07-0.34,0.28-0.57,0.62-0.7c0.34-0.13,0.71-0.23,1.11-0.31c0.39-0.08,0.77-0.2,1.11-0.35
			c0.35-0.15,0.56-0.42,0.65-0.81c0.01-0.05-0.02-0.18-0.1-0.4s-0.38-0.38-0.92-0.5c-0.24-0.05-0.55,0.03-0.92,0.24
			s-0.75,0.52-1.14,0.93c-0.39,0.41-0.75,0.91-1.08,1.51c-0.33,0.6-0.57,1.27-0.73,2.02c-0.13,0.63-0.14,1.22-0.02,1.77
			c0.12,0.56,0.33,1.05,0.61,1.47c0.29,0.43,0.65,0.79,1.09,1.08c0.44,0.3,0.92,0.5,1.42,0.6c0.36,0.08,0.77,0.08,1.23,0.02
			c0.45-0.07,0.89-0.15,1.3-0.25c0.41-0.1,0.77-0.2,1.08-0.3c0.31-0.1,0.5-0.14,0.57-0.12c0.07,0.02,0.14,0.07,0.21,0.16
			C27.92,22.25,27.95,22.34,27.96,22.41z"/>
	</g>
	<g>
		<path class="st1" d="M43.52,25.04c-0.03,0.14-0.11,0.28-0.24,0.4s-0.27,0.23-0.43,0.33c-0.16,0.09-0.33,0.16-0.5,0.21
			c-0.17,0.05-0.32,0.06-0.44,0.04c-0.41-0.09-0.92-0.29-1.52-0.61c-0.6-0.32-1.05-0.71-1.36-1.18c-0.32-0.5-0.58-1.06-0.77-1.7
			c-0.19-0.63-0.37-1.55-0.51-2.74c-0.49,1.01-1.02,1.99-1.59,2.95c-0.57,0.96-1.33,1.8-2.29,2.5c-0.06,0.04-0.14,0.05-0.23,0.03
			c-0.17-0.04-0.33-0.16-0.49-0.37c-0.16-0.21-0.22-0.4-0.18-0.57c0.04-0.17,0.1-0.56,0.2-1.19c0.09-0.62,0.2-1.32,0.31-2.09
			c0.11-0.77,0.23-1.55,0.37-2.34c0.13-0.79,0.25-1.44,0.36-1.95c0.05-0.24,0.13-0.56,0.24-0.95c0.11-0.39,0.25-0.72,0.44-0.99
			c0.03-0.04,0.14-0.12,0.33-0.23c0.19-0.11,0.38-0.15,0.57-0.1c0.17,0.04,0.24,0.16,0.22,0.39c-0.02,0.22-0.06,0.47-0.12,0.73
			l-1.22,5.72c-0.03,0.12-0.04,0.29-0.05,0.52c-0.01,0.22,0.01,0.39,0.06,0.51c0.39-0.52,0.78-1.15,1.18-1.89
			c0.4-0.73,0.78-1.44,1.15-2.1c0.37-0.67,0.71-1.22,1.04-1.67c0.32-0.45,0.59-0.65,0.81-0.6c0.24,0.05,0.42,0.14,0.55,0.27
			c0.12,0.13,0.2,0.35,0.24,0.66c-0.03,0.73-0.06,1.37-0.11,1.92c-0.04,0.56-0.06,1.07-0.04,1.52c0.02,0.46,0.09,0.9,0.21,1.31
			s0.34,0.82,0.63,1.21c0.27,0.39,0.6,0.7,0.99,0.93s0.74,0.38,1.06,0.45c0.15,0.03,0.31,0.03,0.49,0.01
			c0.18-0.02,0.31-0.03,0.38-0.01c0.1,0.02,0.17,0.13,0.22,0.31C43.51,24.88,43.53,24.99,43.52,25.04z"/>
	</g>
	<g>
		<path class="st1" d="M77.25,25.94c-0.13,0.63-0.44,1.19-0.91,1.7c-0.47,0.5-1.02,0.95-1.63,1.34c-0.61,0.39-1.27,0.73-1.96,1.02
			c-0.69,0.29-1.33,0.54-1.9,0.75c-0.55,0.24-1.01,0.43-1.37,0.58c-0.36,0.15-0.55,0.29-0.58,0.41c-0.07,0.31-0.12,0.76-0.17,1.34
			c-0.05,0.58-0.09,1.22-0.12,1.9c-0.03,0.69-0.07,1.39-0.11,2.11c-0.04,0.72-0.1,1.38-0.17,1.97c0,0.02-0.01,0.14-0.01,0.34
			c-0.01,0.2,0,0.43,0,0.68c0.01,0.25,0.01,0.49,0,0.7c-0.01,0.21-0.02,0.34-0.03,0.39c-0.04,0.17-0.08,0.35-0.14,0.56
			c-0.06,0.2-0.13,0.39-0.23,0.56c-0.1,0.17-0.22,0.3-0.37,0.39c-0.15,0.1-0.32,0.12-0.51,0.08c-0.27-0.06-0.43-0.21-0.51-0.47
			c-0.07-0.26-0.08-0.49-0.04-0.71c0.01-0.05,0.03-0.1,0.05-0.14c0.02-0.05,0.04-0.1,0.06-0.18c0.06-0.27,0.11-1,0.17-2.2
			c0.05-1.2,0.13-2.63,0.23-4.28c0.1-1.66,0.25-3.43,0.45-5.31c0.2-1.89,0.47-3.65,0.82-5.29c0.03-0.12,0.07-0.26,0.12-0.41
			c0.06-0.15,0.1-0.29,0.12-0.41c-0.25-0.03-0.63,0.01-1.14,0.1c-0.51,0.09-1.03,0.23-1.54,0.41c-0.52,0.18-0.98,0.38-1.4,0.61
			c-0.41,0.23-0.65,0.46-0.7,0.7l-0.25-0.05c-0.07-0.02-0.15-0.08-0.24-0.2c-0.09-0.12-0.16-0.25-0.22-0.39
			c-0.06-0.14-0.11-0.28-0.16-0.41c-0.05-0.14-0.06-0.23-0.05-0.28c0.11-0.51,0.51-0.92,1.21-1.24c0.7-0.32,1.54-0.56,2.52-0.71
			c0.98-0.16,2.03-0.22,3.16-0.2c1.13,0.03,2.18,0.14,3.14,0.35c0.94,0.2,1.71,0.48,2.3,0.83c0.59,0.35,1.05,0.72,1.37,1.11
			c0.32,0.38,0.53,0.75,0.64,1.1C77.27,25.44,77.3,25.72,77.25,25.94z M75.5,25.45c0.05-0.24-0.2-0.55-0.75-0.93
			c-0.55-0.38-1.23-0.66-2.05-0.83c-0.72-0.15-1.26-0.24-1.61-0.27c-0.35-0.02-0.59-0.02-0.72,0c-0.13,0.38-0.26,0.83-0.4,1.35
			c-0.14,0.53-0.27,1.07-0.38,1.62c-0.12,0.58-0.22,1.14-0.3,1.69c-0.08,0.55-0.13,1.01-0.16,1.38c0.38-0.15,0.91-0.34,1.58-0.59
			c0.67-0.25,1.35-0.55,2.02-0.89c0.68-0.35,1.28-0.74,1.82-1.16C75.08,26.39,75.4,25.94,75.5,25.45z"/>
	</g>
	<g>
		<path class="st1" d="M97.83,33.38c-0.09,0.43-0.4,0.93-0.94,1.48c-0.53,0.56-1.2,1.06-2.01,1.52c-0.8,0.46-1.7,0.81-2.68,1.04
			c-0.98,0.23-1.96,0.25-2.92,0.04c-0.43-0.09-0.88-0.26-1.33-0.51c-0.45-0.25-0.88-0.56-1.28-0.93c-0.4-0.37-0.74-0.8-1.02-1.28
			c-0.28-0.47-0.45-0.98-0.51-1.53c-0.17,0.11-0.4,0.32-0.68,0.61c-0.28,0.29-0.57,0.59-0.89,0.89c-0.32,0.3-0.65,0.54-0.99,0.74
			c-0.34,0.19-0.67,0.25-0.99,0.19c-0.31-0.07-0.54-0.28-0.67-0.65c-0.14-0.37-0.22-0.77-0.26-1.19c-0.04-0.42-0.04-0.82-0.01-1.19
			c0.03-0.37,0.05-0.58,0.06-0.63c0.06-0.29,0.26-0.82,0.6-1.59c0.34-0.77,0.77-1.56,1.29-2.35c0.52-0.8,1.11-1.48,1.78-2.04
			c0.66-0.57,1.34-0.77,2.04-0.63c0.27,0.06,0.42,0.21,0.45,0.46c0.04,0.25,0.03,0.48-0.02,0.7l-0.23,1.09
			c0.1,0.12,0.21,0.22,0.34,0.28c0.12,0.06,0.23,0.14,0.33,0.22c0.09,0.08,0.16,0.19,0.19,0.33c0.04,0.13,0.02,0.33-0.03,0.6
			c-0.04,0.17-0.08,0.32-0.13,0.44c-0.05,0.13-0.09,0.25-0.12,0.37c-0.13,0.63-0.22,1.25-0.25,1.88c-0.03,0.62,0.05,1.2,0.24,1.73
			c0.19,0.53,0.5,1,0.95,1.41c0.44,0.41,1.09,0.7,1.93,0.88c1.06,0.23,2.01,0.19,2.84-0.1c0.83-0.29,1.55-0.65,2.16-1.09
			c0.61-0.44,1.11-0.85,1.49-1.23c0.39-0.38,0.67-0.56,0.87-0.52C97.78,32.87,97.9,33.07,97.83,33.38z M85.47,29.09
			c0.02-0.1,0.01-0.19-0.01-0.29c-0.03-0.09-0.04-0.18-0.02-0.25c0.02-0.1,0.06-0.18,0.13-0.24c0.06-0.06,0.11-0.15,0.13-0.27
			c0.02-0.07,0-0.13-0.04-0.18c-0.04-0.05-0.06-0.09-0.05-0.14c-0.23,0-0.49,0.16-0.8,0.47c-0.31,0.31-0.61,0.69-0.92,1.13
			c-0.31,0.44-0.57,0.89-0.8,1.36c-0.23,0.47-0.37,0.86-0.44,1.17c-0.04,0.17-0.05,0.46-0.03,0.86c0.01,0.41,0.07,0.68,0.16,0.83
			c0.59-0.76,1.14-1.5,1.66-2.22C84.96,30.6,85.31,29.86,85.47,29.09z"/>
	</g>
	<g>
		<path class="st1" d="M112.33,40.28c-0.04,0.19-0.09,0.33-0.16,0.4c-0.07,0.07-0.2,0.11-0.4,0.12c-0.23,0.03-0.52,0.05-0.86,0.06
			c-0.34,0.02-0.72,0.02-1.12,0.03s-0.81-0.01-1.22-0.03c-0.41-0.02-0.79-0.07-1.12-0.14c-0.41-0.09-0.86-0.21-1.34-0.36
			c-0.48-0.15-0.94-0.33-1.38-0.54c-0.44-0.21-0.83-0.42-1.17-0.63c-0.35-0.21-0.58-0.43-0.71-0.66c0.01,0.53,0.01,1.06,0,1.59
			c-0.01,0.53-0.05,1.05-0.11,1.57c-0.03,0.12-0.08,0.22-0.16,0.29c-0.08,0.07-0.25,0.08-0.52,0.02c-0.12-0.03-0.23-0.08-0.32-0.16
			c-0.1-0.08-0.16-0.23-0.19-0.44c-0.11-0.53-0.2-1.02-0.25-1.47c-0.05-0.45-0.09-0.91-0.11-1.37c-0.02-0.46-0.03-0.94-0.05-1.45
			s-0.05-1.07-0.1-1.68c-0.06-1-0.13-2.06-0.19-3.2c-0.06-1.13-0.11-2.22-0.14-3.25c-0.03-1.03-0.04-1.94-0.02-2.73
			c0.02-0.79,0.06-1.34,0.13-1.66c0.03-0.14,0.08-0.34,0.14-0.58c0.06-0.24,0.15-0.47,0.26-0.68c0.11-0.22,0.24-0.39,0.38-0.52
			s0.31-0.18,0.5-0.14c0.12,0.03,0.21,0.24,0.26,0.64c0.05,0.4,0.09,0.84,0.1,1.31c0.01,0.47,0.02,0.91,0.02,1.33
			c0,0.42,0,0.64-0.01,0.66c-0.02,0.55-0.03,1.16-0.03,1.83c0,0.67,0,1.34,0,2.02c0.01,0.68,0.03,1.34,0.07,1.96
			c0.04,0.63,0.12,1.17,0.22,1.62c0.07-0.24,0.23-0.57,0.48-1c0.24-0.43,0.54-0.88,0.9-1.36c0.35-0.48,0.74-0.97,1.16-1.47
			s0.84-0.95,1.27-1.34c0.42-0.39,0.83-0.69,1.21-0.91c0.39-0.22,0.73-0.3,1.02-0.24c0.46,0.1,0.77,0.23,0.92,0.38
			c0.15,0.16,0.21,0.32,0.18,0.49c-0.03,0.15-0.3,0.38-0.8,0.72c-0.5,0.34-1.08,0.79-1.73,1.37c-0.65,0.58-1.28,1.29-1.89,2.13
			c-0.61,0.84-1.03,1.83-1.27,2.96c-0.09,0.41-0.05,0.79,0.12,1.14c0.17,0.35,0.41,0.66,0.75,0.93c0.33,0.27,0.72,0.51,1.17,0.72
			c0.45,0.21,0.9,0.36,1.36,0.46c0.41,0.09,0.86,0.17,1.35,0.25c0.49,0.08,0.95,0.14,1.38,0.2c0.43,0.05,0.8,0.1,1.1,0.14
			c0.31,0.04,0.5,0.07,0.57,0.08c0.12,0.03,0.22,0.08,0.3,0.18C112.34,39.98,112.36,40.11,112.33,40.28z"/>
	</g>
	<g>
		<path class="st1" d="M145.09,34.2c-0.39,0.3-0.91,0.56-1.57,0.78c-0.65,0.23-1.3,0.42-1.94,0.59c-0.64,0.17-1.2,0.31-1.68,0.42
			c-0.48,0.11-0.72,0.21-0.74,0.28c-0.02,0.07-0.01,0.3,0.01,0.68c0.02,0.38,0.04,0.84,0.07,1.36c0.03,0.52,0.06,1.06,0.09,1.63
			c0.03,0.56,0.05,1.06,0.06,1.49c0,0.25-0.01,0.58-0.02,0.98c-0.01,0.4-0.03,0.8-0.05,1.2c-0.02,0.4-0.04,0.75-0.06,1.07
			c-0.02,0.31-0.03,0.48-0.03,0.5c-0.08,0.36-0.22,0.72-0.42,1.08c-0.2,0.36-0.44,0.51-0.7,0.46c-0.14-0.03-0.26-0.12-0.36-0.27
			c-0.1-0.15-0.17-0.31-0.24-0.48s-0.1-0.34-0.12-0.5c-0.02-0.15-0.02-0.27,0-0.34c0.01-0.05,0.03-0.12,0.06-0.21
			c0.03-0.09,0.06-0.2,0.09-0.32c0.1-0.46,0.17-1.14,0.21-2.04c0.01-0.28,0-0.71-0.03-1.29c-0.03-0.58-0.05-1.18-0.07-1.79
			c-0.03-0.71-0.06-1.49-0.11-2.33c-0.02-0.36-0.05-0.54-0.07-0.55c-0.17-0.04-0.47,0.01-0.92,0.13c-0.44,0.12-0.95,0.28-1.52,0.47
			c-0.57,0.19-1.17,0.41-1.8,0.64c-0.63,0.23-1.22,0.45-1.76,0.65c-0.55,0.2-1.02,0.36-1.41,0.49c-0.39,0.13-0.63,0.19-0.7,0.17
			c-0.31-0.07-0.54-0.23-0.69-0.49c-0.15-0.26-0.19-0.52-0.14-0.79c0.03-0.14,0.28-0.31,0.73-0.51c0.46-0.19,1.02-0.39,1.68-0.61
			c0.66-0.21,1.38-0.43,2.14-0.64s1.47-0.41,2.13-0.57c0.65-0.16,1.42-0.35,2.29-0.57c0.02-1.16,0.05-2.18,0.09-3.08
			c0.04-0.77,0.07-1.49,0.09-2.14c0.03-0.65,0.04-1,0.05-1.05c0.07-0.31,0.18-0.53,0.35-0.66c0.17-0.13,0.33-0.17,0.5-0.14
			c0.27,0.06,0.4,0.27,0.39,0.65c-0.01,1.36-0.01,2.57,0,3.63c0.01,1.06,0.06,1.93,0.15,2.6c0.23,0,0.63-0.06,1.21-0.18
			c0.58-0.12,1.19-0.25,1.82-0.39c0.64-0.14,1.21-0.27,1.72-0.37c0.51-0.1,0.81-0.15,0.88-0.13c0.14,0.03,0.22,0.1,0.24,0.2
			C145.03,34.02,145.05,34.12,145.09,34.2z"/>
	</g>
	<g>
		<path class="st1" d="M164.34,47.52c-0.09,0.43-0.41,0.93-0.94,1.48c-0.53,0.56-1.2,1.06-2.01,1.52c-0.8,0.46-1.7,0.81-2.68,1.04
			c-0.98,0.23-1.96,0.25-2.92,0.04c-0.44-0.09-0.88-0.26-1.33-0.51c-0.45-0.25-0.88-0.56-1.28-0.93c-0.4-0.37-0.74-0.8-1.02-1.28
			c-0.28-0.47-0.45-0.98-0.51-1.53c-0.17,0.11-0.4,0.32-0.68,0.61c-0.28,0.29-0.57,0.59-0.89,0.89c-0.32,0.3-0.65,0.54-0.99,0.74
			c-0.35,0.19-0.67,0.25-0.99,0.19c-0.31-0.07-0.54-0.28-0.67-0.65c-0.14-0.37-0.22-0.77-0.26-1.19c-0.04-0.42-0.04-0.82-0.01-1.19
			c0.03-0.37,0.05-0.58,0.06-0.63c0.06-0.29,0.26-0.82,0.6-1.59c0.34-0.77,0.77-1.56,1.29-2.35c0.52-0.8,1.12-1.48,1.78-2.04
			c0.66-0.57,1.34-0.77,2.04-0.63c0.27,0.06,0.42,0.21,0.45,0.46c0.04,0.25,0.03,0.48-0.02,0.7l-0.23,1.09
			c0.1,0.12,0.21,0.22,0.34,0.28c0.12,0.06,0.23,0.14,0.33,0.22c0.09,0.08,0.16,0.19,0.19,0.33c0.03,0.13,0.02,0.33-0.03,0.6
			c-0.04,0.17-0.08,0.32-0.13,0.44c-0.05,0.13-0.09,0.25-0.12,0.37c-0.13,0.63-0.22,1.25-0.25,1.88c-0.03,0.62,0.05,1.2,0.24,1.73
			c0.19,0.53,0.5,1,0.95,1.41c0.44,0.41,1.08,0.7,1.93,0.88c1.06,0.23,2.01,0.19,2.84-0.1c0.83-0.29,1.55-0.65,2.16-1.09
			c0.61-0.44,1.11-0.85,1.49-1.23c0.38-0.38,0.67-0.56,0.87-0.52C164.29,47.02,164.41,47.21,164.34,47.52z M151.98,43.23
			c0.02-0.1,0.01-0.19-0.02-0.29c-0.03-0.09-0.04-0.18-0.02-0.25c0.02-0.1,0.06-0.18,0.13-0.24c0.06-0.06,0.11-0.15,0.13-0.27
			c0.02-0.07,0-0.13-0.04-0.18c-0.04-0.05-0.05-0.09-0.04-0.14c-0.23,0-0.49,0.16-0.8,0.47c-0.3,0.31-0.61,0.69-0.92,1.13
			c-0.31,0.44-0.57,0.89-0.8,1.36c-0.23,0.47-0.37,0.86-0.44,1.17c-0.04,0.17-0.05,0.46-0.03,0.86s0.07,0.68,0.16,0.83
			c0.59-0.76,1.14-1.5,1.66-2.22C151.47,44.75,151.82,44,151.98,43.23z"/>
	</g>
	<g>
		<path class="st1" d="M169.89,55.93c-0.17,0.07-0.34,0.08-0.54,0.04c-0.22-0.05-0.4-0.3-0.54-0.76c-0.14-0.46-0.25-1.02-0.34-1.7
			c-0.08-0.67-0.14-1.4-0.18-2.18c-0.04-0.78-0.06-1.5-0.07-2.17c-0.01-0.67-0.01-1.23,0-1.68c0.01-0.45,0.02-0.7,0.03-0.75
			c0.02-0.1,0.03-0.36,0.03-0.79c0-0.43,0.03-1.09,0.08-1.99s0.15-2.05,0.29-3.48c0.14-1.42,0.34-3.17,0.61-5.26
			c0.05-0.22,0.14-0.49,0.29-0.81c0.14-0.32,0.35-0.46,0.61-0.4c0.34,0.07,0.55,0.36,0.63,0.85c0.08,0.5,0.11,1.09,0.07,1.79
			c-0.04,0.7-0.11,1.42-0.22,2.17c-0.11,0.75-0.18,1.4-0.23,1.97c-0.07,0.79-0.13,1.51-0.18,2.16c-0.05,0.65-0.1,1.28-0.14,1.92
			c-0.05,0.63-0.08,1.3-0.09,2c-0.01,0.7-0.01,1.49,0.01,2.35l0.17,6.31C170.16,55.73,170.06,55.86,169.89,55.93z"/>
	</g>
	<g>
		<path class="st1" d="M185.66,55.95c0.01,0.05,0.01,0.13-0.01,0.22c-0.03,0.14-0.19,0.34-0.46,0.58c-0.09,0.08-0.28,0.2-0.57,0.37
			c-0.29,0.17-0.66,0.31-1.12,0.44c-0.46,0.13-1,0.22-1.62,0.26c-0.63,0.04-1.34-0.02-2.13-0.19c-0.55-0.12-1.07-0.36-1.55-0.73
			c-0.48-0.37-0.87-0.84-1.17-1.42c-0.31-0.58-0.51-1.27-0.62-2.06c-0.11-0.79-0.06-1.68,0.15-2.67c0.2-0.94,0.51-1.8,0.92-2.56
			c0.42-0.77,0.88-1.43,1.38-1.97c0.51-0.55,1.03-0.95,1.56-1.22c0.54-0.26,1.02-0.35,1.45-0.26c0.39,0.08,0.76,0.24,1.13,0.49
			c0.36,0.24,0.68,0.52,0.96,0.83c0.27,0.31,0.47,0.64,0.6,0.98c0.13,0.34,0.16,0.67,0.09,0.98c-0.08,0.36-0.32,0.7-0.73,1.02
			c-0.41,0.32-0.88,0.59-1.4,0.82c-0.53,0.23-1.04,0.4-1.54,0.5c-0.5,0.11-0.89,0.13-1.15,0.08c-0.14-0.03-0.26-0.12-0.34-0.28
			c-0.08-0.16-0.1-0.33-0.06-0.52c0.07-0.34,0.28-0.57,0.62-0.7c0.34-0.13,0.71-0.23,1.11-0.31c0.39-0.08,0.77-0.2,1.11-0.35
			c0.35-0.15,0.56-0.42,0.64-0.81c0.01-0.05-0.02-0.18-0.1-0.4c-0.08-0.22-0.38-0.38-0.92-0.5c-0.24-0.05-0.55,0.03-0.92,0.24
			c-0.37,0.21-0.75,0.52-1.14,0.93c-0.39,0.41-0.75,0.91-1.08,1.51c-0.33,0.6-0.57,1.27-0.73,2.02c-0.13,0.63-0.14,1.22-0.02,1.77
			c0.12,0.56,0.33,1.05,0.62,1.47c0.29,0.43,0.65,0.79,1.09,1.08c0.44,0.3,0.92,0.5,1.42,0.61c0.36,0.08,0.77,0.08,1.23,0.02
			c0.46-0.07,0.89-0.15,1.3-0.25c0.41-0.1,0.77-0.2,1.08-0.3c0.31-0.1,0.5-0.14,0.57-0.12c0.07,0.02,0.14,0.07,0.21,0.16
			C185.61,55.79,185.65,55.88,185.66,55.95z"/>
	</g>
	<g>
		<path class="st1" d="M201.21,58.58c-0.03,0.14-0.11,0.28-0.24,0.4c-0.13,0.12-0.27,0.23-0.43,0.32c-0.16,0.09-0.33,0.16-0.5,0.21
			c-0.17,0.05-0.32,0.06-0.44,0.04c-0.41-0.09-0.92-0.29-1.52-0.61c-0.6-0.32-1.05-0.71-1.36-1.18c-0.32-0.5-0.58-1.06-0.77-1.7
			c-0.19-0.63-0.37-1.55-0.51-2.74c-0.49,1.01-1.02,1.99-1.59,2.95c-0.57,0.96-1.33,1.8-2.29,2.5c-0.06,0.04-0.14,0.05-0.23,0.03
			c-0.17-0.04-0.33-0.16-0.49-0.37c-0.16-0.21-0.22-0.4-0.18-0.57c0.04-0.17,0.1-0.56,0.2-1.19c0.09-0.62,0.2-1.32,0.31-2.09
			c0.11-0.77,0.23-1.55,0.37-2.34c0.13-0.79,0.25-1.44,0.36-1.95c0.05-0.24,0.13-0.56,0.24-0.95c0.11-0.39,0.25-0.72,0.44-0.99
			c0.03-0.04,0.14-0.12,0.33-0.23c0.19-0.11,0.38-0.15,0.57-0.1c0.17,0.04,0.24,0.16,0.22,0.39c-0.02,0.22-0.06,0.47-0.12,0.73
			l-1.22,5.72c-0.03,0.12-0.04,0.29-0.05,0.52c-0.01,0.22,0.01,0.39,0.06,0.51c0.39-0.52,0.78-1.15,1.18-1.89
			c0.4-0.73,0.78-1.44,1.15-2.1c0.37-0.66,0.71-1.22,1.04-1.67c0.32-0.45,0.59-0.65,0.81-0.6c0.24,0.05,0.42,0.14,0.55,0.27
			c0.12,0.13,0.2,0.35,0.24,0.66c-0.03,0.73-0.06,1.37-0.11,1.92c-0.04,0.56-0.06,1.07-0.04,1.52c0.02,0.46,0.09,0.9,0.21,1.31
			c0.13,0.42,0.34,0.82,0.63,1.21c0.27,0.39,0.6,0.7,0.99,0.93c0.39,0.23,0.74,0.39,1.06,0.45c0.14,0.03,0.31,0.03,0.49,0.01
			c0.18-0.02,0.31-0.03,0.38-0.01c0.1,0.02,0.17,0.12,0.22,0.31C201.2,58.41,201.22,58.53,201.21,58.58z"/>
	</g>
	<g>
		<path class="st1" d="M217.21,49.54c-0.39,0.29-0.91,0.56-1.57,0.78c-0.65,0.23-1.3,0.42-1.94,0.59c-0.64,0.17-1.2,0.31-1.68,0.42
			c-0.48,0.11-0.72,0.21-0.74,0.28c-0.02,0.07-0.01,0.3,0.01,0.68c0.02,0.38,0.04,0.83,0.07,1.36c0.03,0.52,0.06,1.06,0.09,1.63
			c0.03,0.56,0.05,1.06,0.06,1.49c0,0.25-0.01,0.58-0.02,0.98c-0.01,0.4-0.03,0.8-0.05,1.2c-0.02,0.4-0.04,0.75-0.06,1.07
			s-0.03,0.48-0.03,0.5c-0.08,0.36-0.22,0.72-0.42,1.08c-0.2,0.36-0.44,0.51-0.7,0.46c-0.15-0.03-0.27-0.12-0.36-0.27
			c-0.1-0.15-0.17-0.31-0.24-0.49c-0.06-0.18-0.1-0.34-0.12-0.5c-0.02-0.16-0.02-0.27,0-0.34c0.01-0.05,0.03-0.12,0.06-0.21
			s0.06-0.2,0.09-0.32c0.1-0.46,0.17-1.14,0.21-2.04c0.01-0.28,0-0.71-0.03-1.29c-0.03-0.58-0.05-1.18-0.07-1.79
			c-0.03-0.71-0.06-1.49-0.11-2.33c-0.02-0.36-0.05-0.54-0.07-0.55c-0.17-0.04-0.47,0.01-0.92,0.13c-0.44,0.12-0.95,0.28-1.52,0.47
			c-0.57,0.19-1.17,0.41-1.8,0.64c-0.63,0.23-1.22,0.45-1.76,0.65c-0.55,0.2-1.02,0.36-1.41,0.49c-0.39,0.13-0.63,0.19-0.7,0.17
			c-0.31-0.07-0.54-0.23-0.69-0.49c-0.15-0.26-0.19-0.52-0.14-0.79c0.03-0.14,0.27-0.31,0.73-0.51c0.46-0.19,1.02-0.39,1.68-0.61
			c0.66-0.21,1.38-0.43,2.14-0.64c0.76-0.22,1.47-0.41,2.13-0.57c0.65-0.16,1.42-0.35,2.3-0.57c0.02-1.16,0.05-2.18,0.09-3.08
			c0.04-0.77,0.07-1.49,0.1-2.14c0.02-0.65,0.04-1,0.05-1.05c0.07-0.31,0.18-0.53,0.35-0.66c0.17-0.13,0.33-0.17,0.5-0.14
			c0.27,0.06,0.4,0.27,0.39,0.65c-0.01,1.36-0.01,2.57,0,3.63c0.01,1.06,0.06,1.93,0.15,2.6c0.23,0,0.63-0.06,1.21-0.18
			c0.58-0.12,1.19-0.25,1.82-0.39c0.64-0.14,1.21-0.27,1.72-0.37c0.51-0.1,0.81-0.15,0.88-0.13c0.14,0.03,0.23,0.1,0.24,0.2
			S217.17,49.45,217.21,49.54z"/>
	</g>
</g>
<g class="st0">
	<g>
		<path class="st1" d="M8.92,23.41c-0.44,0-0.83-0.04-1.19-0.11c-2.37-0.5-4-1.59-4.83-3.22c-0.8-1.56-0.98-3.42-0.53-5.52
			c0.02-0.11,0.1-0.36,0.24-0.75c-0.15-0.15-0.28-0.32-0.38-0.52c-0.16-0.33-0.2-0.71-0.11-1.12c0.1-0.48,0.4-0.87,0.83-1.1
			c0.23-0.12,0.47-0.21,0.73-0.29c0.38-0.77,0.78-1.5,1.21-2.2c0.31-0.5,0.65-1.01,1.02-1.51c-0.25-0.3-0.39-0.74-0.27-1.31
			c0.13-0.61,0.54-1.14,1.26-1.62c0.54-0.36,1.14-0.68,1.79-0.96c0.64-0.27,1.27-0.49,1.87-0.64c0.74-0.19,1.24-0.24,1.62-0.16
			c0.21,0.05,0.38,0.12,0.51,0.21c0.09,0.01,0.22,0.01,0.4,0.01c0.3-0.01,0.63-0.02,0.97-0.05c0.37-0.03,0.72-0.04,1.05-0.05
			c0.41-0.01,0.73,0.02,1,0.07c0.53,0.11,0.93,0.43,1.14,0.88c0.17,0.36,0.21,0.75,0.13,1.13c-0.13,0.61-0.62,1.03-1.3,1.12
			c-0.29,0.04-0.55,0.06-0.78,0.07c-0.7-0.02-1.38,0.04-2.11,0.17c-0.69,0.13-1.35,0.29-1.97,0.48c-0.24,0.18-0.54,0.44-0.88,0.78
			C9.92,7.59,9.51,8.05,9.09,8.57c-0.38,0.47-0.74,0.97-1.08,1.49c1.41-0.33,2.62-0.6,3.6-0.8c1.43-0.29,2.51-0.34,3.3-0.18
			c0.38,0.08,0.7,0.31,0.92,0.64l0.01,0.02L16.16,10l-0.11,0.69c-0.13,0.62-0.69,0.95-1.69,1.34c-0.72,0.28-1.6,0.58-2.6,0.89
			c-1.01,0.31-2.08,0.61-3.18,0.9c-0.88,0.23-1.69,0.42-2.42,0.56c-0.06,0.14-0.1,0.24-0.12,0.3l-0.14,0.66
			c-0.1,0.46-0.12,0.93-0.08,1.4c0.04,0.45,0.16,0.88,0.36,1.27c0.2,0.39,0.46,0.72,0.81,1c0.32,0.27,0.75,0.46,1.26,0.57
			c0.14,0.03,0.4,0.06,0.85,0.04c0.37-0.02,0.74-0.07,1.11-0.17c0.35-0.1,0.68-0.24,0.98-0.41c0.19-0.11,0.32-0.24,0.38-0.39
			l0.35-0.82l0.85,0.26c0.87,0.26,1.1,0.82,1.16,1.13c0.05,0.28,0.07,0.49,0.03,0.7c-0.18,0.83-0.54,1.51-1.08,2.03
			c-0.5,0.48-1.07,0.84-1.71,1.07c-0.6,0.21-1.21,0.34-1.83,0.37C9.2,23.4,9.06,23.41,8.92,23.41z M2.79,13.24
			C2.79,13.24,2.79,13.24,2.79,13.24C2.79,13.24,2.79,13.24,2.79,13.24z M4.39,12.64c0.06,0.06,0.12,0.11,0.16,0.17l0.05-0.24
			l0.15-0.06L4.39,12.64z M7.96,5.83l0.75,0.16c0.08-0.08,0.16-0.16,0.24-0.24c0.43-0.41,0.8-0.73,1.11-0.97
			c-0.2,0.07-0.4,0.15-0.61,0.24C8.93,5.24,8.44,5.51,8.01,5.79C7.99,5.81,7.97,5.82,7.96,5.83z M12.98,2.88
			C12.99,2.89,12.99,2.9,13,2.91C12.99,2.9,12.99,2.89,12.98,2.88z"/>
	</g>
	<g>
		<path class="st1" d="M23.79,25.31c-0.6,0-1.25-0.08-1.95-0.22c-0.7-0.15-1.35-0.45-1.95-0.91c-0.59-0.45-1.08-1.04-1.45-1.75
			c-0.36-0.68-0.6-1.48-0.73-2.39c-0.12-0.9-0.07-1.92,0.16-3.02c0.22-1.03,0.56-1.99,1.02-2.83c0.45-0.84,0.97-1.57,1.53-2.18
			c0.59-0.64,1.22-1.12,1.86-1.44c0.74-0.36,1.45-0.48,2.1-0.34c0.51,0.11,1,0.32,1.47,0.63c0.44,0.29,0.83,0.63,1.16,1
			c0.35,0.4,0.62,0.83,0.79,1.29c0.2,0.53,0.24,1.05,0.14,1.54c-0.13,0.6-0.5,1.14-1.09,1.6c-0.47,0.37-1.02,0.68-1.62,0.95
			c-0.59,0.25-1.17,0.44-1.73,0.56c-0.66,0.14-1.16,0.16-1.57,0.08c-0.2-0.04-0.38-0.13-0.55-0.24c-0.02,0.1-0.05,0.2-0.07,0.3
			c-0.1,0.49-0.11,0.93-0.02,1.35c0.09,0.43,0.25,0.81,0.47,1.13c0.22,0.32,0.48,0.59,0.82,0.81c0.34,0.23,0.69,0.38,1.07,0.46
			c0.24,0.05,0.54,0.05,0.87,0c0.42-0.06,0.83-0.14,1.21-0.23c0.39-0.1,0.73-0.19,1.02-0.28c0.54-0.17,0.81-0.21,1.09-0.15
			c0.21,0.04,0.53,0.17,0.8,0.53c0.16,0.21,0.26,0.44,0.3,0.67c0.04,0.19,0.03,0.39-0.02,0.61c-0.08,0.38-0.32,0.72-0.78,1.13
			c-0.15,0.13-0.38,0.28-0.73,0.48c-0.36,0.21-0.8,0.38-1.34,0.54c-0.52,0.15-1.14,0.25-1.83,0.3C24.1,25.3,23.94,25.31,23.79,25.31
			z M27.04,22.26L27.04,22.26L27.04,22.26z M24.25,13.72C24.25,13.72,24.25,13.72,24.25,13.72C24.25,13.72,24.25,13.72,24.25,13.72z
			"/>
	</g>
	<g>
		<path class="st1" d="M42.04,27.04c-0.12,0-0.23-0.01-0.33-0.03c-0.51-0.11-1.09-0.34-1.78-0.7c-0.75-0.4-1.33-0.91-1.73-1.52
			c-0.37-0.57-0.67-1.23-0.89-1.95c0-0.01-0.01-0.03-0.01-0.04c-0.09,0.16-0.18,0.32-0.28,0.47c-0.64,1.08-1.5,2.02-2.56,2.8
			c-0.24,0.16-0.58,0.29-1.03,0.2c-0.42-0.09-0.78-0.34-1.08-0.75c-0.42-0.56-0.43-1.06-0.36-1.38c0.03-0.16,0.09-0.54,0.19-1.13
			l0.31-2.08c0.11-0.77,0.24-1.56,0.37-2.36c0.13-0.81,0.26-1.47,0.37-1.99c0.05-0.26,0.14-0.59,0.25-1.01
			c0.14-0.5,0.33-0.93,0.58-1.29c0.15-0.2,0.32-0.33,0.65-0.52c0.4-0.24,0.84-0.31,1.28-0.22c0.56,0.12,1.09,0.62,1.01,1.47
			c-0.02,0.25-0.07,0.53-0.13,0.84l-0.27,1.25c0.22-0.36,0.43-0.68,0.63-0.96c0.21-0.3,0.86-1.2,1.83-1
			c0.43,0.09,0.79,0.27,1.05,0.54c0.29,0.3,0.46,0.7,0.52,1.24l0.01,0.08l0,0.08c-0.03,0.74-0.07,1.39-0.11,1.96
			c-0.04,0.52-0.05,0.99-0.04,1.41c0.01,0.37,0.07,0.73,0.17,1.06c0.09,0.3,0.25,0.6,0.47,0.89c0.21,0.3,0.44,0.51,0.71,0.68
			c0.37,0.22,0.61,0.3,0.75,0.33c0.01,0,0.06,0.01,0.15,0c0.31-0.04,0.53-0.04,0.72,0c0.28,0.06,0.78,0.27,0.98,1.04
			c0.08,0.32,0.12,0.56,0.07,0.81v0c-0.07,0.34-0.25,0.65-0.51,0.91c-0.18,0.18-0.39,0.34-0.62,0.47c-0.23,0.14-0.48,0.24-0.73,0.31
			C42.43,27.01,42.23,27.04,42.04,27.04z M34.11,23.55c-0.01,0.08-0.02,0.16-0.04,0.23c0.03-0.03,0.06-0.06,0.1-0.09L34.11,23.55z
			 M38.5,17.79l0.06,0.48c0.01-0.2,0.02-0.4,0.03-0.62C38.57,17.69,38.53,17.74,38.5,17.79z M35,14.8C35,14.8,35,14.8,35,14.8
			C35,14.8,35,14.8,35,14.8z"/>
	</g>
	<g>
		<path class="st1" d="M67.23,43.77c-0.12,0-0.25-0.01-0.38-0.04c-0.63-0.13-1.09-0.56-1.26-1.17c-0.12-0.41-0.13-0.81-0.05-1.19
			c0.03-0.13,0.07-0.26,0.14-0.39c-0.01-0.02,0.04-0.4,0.11-1.96c0.05-1.2,0.13-2.63,0.23-4.3c0.1-1.66,0.25-3.46,0.45-5.36
			c0.18-1.7,0.42-3.32,0.72-4.84c-0.34,0.08-0.68,0.17-1.01,0.29c-0.46,0.16-0.88,0.34-1.24,0.54c-0.12,0.06-0.19,0.11-0.22,0.15
			l-0.18,0.87l-1.23-0.26c-0.32-0.07-0.6-0.27-0.84-0.59c-0.13-0.17-0.24-0.37-0.33-0.58c-0.07-0.16-0.13-0.32-0.18-0.48
			c-0.08-0.23-0.15-0.5-0.09-0.81c0.18-0.83,0.77-1.48,1.77-1.94c0.78-0.35,1.71-0.62,2.77-0.79c1.04-0.17,2.16-0.24,3.34-0.21
			c1.19,0.03,2.31,0.15,3.33,0.37c1.04,0.22,1.92,0.54,2.6,0.95c0.69,0.41,1.23,0.85,1.63,1.32c0.41,0.49,0.69,0.98,0.83,1.46
			c0.15,0.52,0.19,0.95,0.1,1.34v0c-0.17,0.8-0.56,1.53-1.16,2.17c-0.53,0.57-1.15,1.07-1.82,1.5c-0.65,0.41-1.36,0.78-2.1,1.1
			c-0.71,0.3-1.36,0.56-1.95,0.77l-1.32,0.56c-0.02,0.01-0.03,0.01-0.04,0.02c-0.03,0.24-0.07,0.54-0.1,0.89
			c-0.05,0.57-0.09,1.19-0.12,1.87c-0.03,0.69-0.07,1.4-0.11,2.12c-0.04,0.74-0.1,1.43-0.18,2.04c0,0.02,0,0.11-0.01,0.23
			c-0.01,0.19,0,0.4,0,0.63c0.01,0.28,0.01,0.54,0,0.77c-0.01,0.31-0.03,0.5-0.05,0.57c-0.04,0.18-0.09,0.38-0.15,0.61
			c-0.08,0.29-0.19,0.55-0.33,0.8c-0.18,0.3-0.41,0.55-0.68,0.73C67.84,43.69,67.54,43.77,67.23,43.77z M68.33,30.84
			c0,0.01,0,0.01,0,0.02c0.01-0.01,0.02-0.02,0.03-0.03L68.33,30.84z M71.11,24.42c-0.05,0.19-0.11,0.39-0.16,0.6
			c-0.13,0.51-0.26,1.04-0.37,1.58c-0.1,0.46-0.18,0.91-0.25,1.36c0.01,0,0.03-0.01,0.04-0.02c0.63-0.23,1.28-0.52,1.92-0.85
			c0.61-0.31,1.17-0.67,1.65-1.05c0.17-0.13,0.36-0.32,0.49-0.53c-0.06-0.05-0.13-0.1-0.23-0.17c-0.44-0.3-1.01-0.53-1.69-0.68
			C71.75,24.5,71.33,24.44,71.11,24.42z M64.67,25.54L64.67,25.54L64.67,25.54z"/>
	</g>
	<g>
		<path class="st1" d="M90.65,38.6c-0.53,0-1.05-0.06-1.57-0.17c-0.53-0.11-1.07-0.32-1.6-0.61c-0.52-0.29-1.02-0.65-1.48-1.08
			c-0.47-0.44-0.87-0.94-1.19-1.5c-0.04-0.07-0.08-0.13-0.11-0.2c-0.13,0.13-0.27,0.27-0.41,0.4c-0.38,0.36-0.78,0.65-1.19,0.88
			c-0.56,0.31-1.13,0.41-1.68,0.29c-0.65-0.14-1.15-0.6-1.4-1.29c-0.17-0.44-0.27-0.93-0.31-1.45c-0.04-0.48-0.04-0.93-0.01-1.35
			c0.03-0.45,0.06-0.7,0.08-0.76c0.05-0.23,0.17-0.67,0.67-1.79c0.36-0.82,0.82-1.66,1.37-2.5c0.57-0.87,1.23-1.63,1.97-2.25
			c1.13-0.96,2.2-0.99,2.9-0.84c0.68,0.14,1.14,0.63,1.23,1.29c0.05,0.37,0.04,0.72-0.03,1.05l-0.1,0.46
			c0.07,0.05,0.14,0.11,0.21,0.16c0.25,0.22,0.43,0.51,0.51,0.83c0.08,0.29,0.07,0.63-0.02,1.06c-0.05,0.23-0.11,0.44-0.18,0.61
			c-0.03,0.08-0.05,0.14-0.06,0.2c-0.12,0.58-0.2,1.15-0.23,1.72c-0.02,0.49,0.04,0.94,0.18,1.35c0.14,0.38,0.36,0.71,0.68,1.01
			c0.31,0.28,0.8,0.5,1.46,0.64c0.87,0.19,1.65,0.16,2.3-0.06c0.74-0.26,1.38-0.58,1.91-0.96c0.57-0.41,1.03-0.79,1.37-1.13
			c0.45-0.45,1.05-0.94,1.78-0.79c0.85,0.18,1.32,0.9,1.14,1.76v0c-0.13,0.63-0.53,1.27-1.2,1.97c-0.6,0.62-1.35,1.19-2.23,1.69
			c-0.89,0.51-1.88,0.89-2.95,1.14C91.84,38.53,91.25,38.6,90.65,38.6z M81.66,33.23c0,0.16,0.01,0.32,0.03,0.48
			c0.03,0.34,0.09,0.65,0.2,0.93c0,0.01,0.01,0.02,0.01,0.03c0.08-0.01,0.16-0.05,0.23-0.09c0.03-0.02,0.07-0.04,0.1-0.06
			l-0.28-0.43C81.8,33.86,81.71,33.59,81.66,33.23z M86.13,30.33c-0.22,0.54-0.51,1.07-0.87,1.58c-0.02,0.03-0.04,0.06-0.06,0.09
			l0.78-0.51l0.02,0.19c0,0,0-0.01,0-0.01C86.02,31.22,86.06,30.78,86.13,30.33z M86.28,29.01c0,0-0.01,0.01-0.01,0.01
			C86.27,29.02,86.27,29.01,86.28,29.01z M86.47,28.76c0.01,0.06,0.01,0.11,0.01,0.17c0.01-0.04,0.02-0.08,0.03-0.12
			c0-0.02,0.01-0.04,0.01-0.06c-0.01-0.01-0.03-0.01-0.04-0.02C86.48,28.75,86.47,28.75,86.47,28.76z M85.91,26.32
			c-0.22,0.03-0.5,0.13-0.85,0.43c-0.05,0.04-0.1,0.09-0.16,0.14c0.23-0.11,0.46-0.16,0.7-0.17l0.22,0L85.91,26.32z"/>
	</g>
	<g>
		<path class="st1" d="M102.34,43.03c-0.22,0-0.4-0.04-0.5-0.06c-0.29-0.06-0.55-0.19-0.77-0.39c-0.28-0.25-0.46-0.6-0.52-1.04
			c-0.11-0.49-0.2-1.01-0.26-1.5c-0.06-0.48-0.1-0.97-0.11-1.45l-0.05-1.45c-0.02-0.5-0.05-1.05-0.09-1.65
			c-0.07-1.01-0.13-2.08-0.19-3.22c-0.06-1.14-0.11-2.23-0.14-3.27c-0.03-1.01-0.04-1.95-0.02-2.78c0.02-0.87,0.07-1.46,0.15-1.84
			c0.04-0.16,0.09-0.37,0.15-0.63c0.08-0.3,0.19-0.59,0.33-0.87c0.16-0.32,0.36-0.59,0.58-0.8c0.38-0.36,0.88-0.5,1.4-0.39
			c0.87,0.18,1,1.17,1.04,1.49c0.06,0.44,0.09,0.91,0.11,1.41c0.01,0.48,0.02,0.93,0.02,1.36c0,0.44,0,0.62-0.01,0.73
			c-0.02,0.53-0.02,1.12-0.03,1.77c0,0.66,0,1.33,0,2.01c0,0.15,0,0.3,0.01,0.45c0.33-0.43,0.68-0.88,1.06-1.33
			c0.45-0.54,0.91-1.02,1.36-1.43c0.48-0.44,0.95-0.79,1.4-1.05c0.61-0.34,1.18-0.46,1.72-0.35c0.67,0.14,1.12,0.35,1.43,0.66
			c0.53,0.55,0.5,1.11,0.44,1.4c-0.11,0.51-0.55,0.9-1.22,1.34c-0.45,0.3-1,0.74-1.62,1.29c-0.6,0.53-1.18,1.19-1.74,1.97
			c-0.52,0.72-0.9,1.59-1.11,2.59c-0.05,0.26,0,0.41,0.04,0.51c0.1,0.22,0.26,0.41,0.47,0.59c0.27,0.22,0.59,0.42,0.96,0.59
			c0.38,0.18,0.76,0.31,1.14,0.39c0.4,0.08,0.83,0.16,1.3,0.24c0.47,0.08,0.92,0.14,1.34,0.19l1.11,0.14
			c0.35,0.05,0.57,0.08,0.65,0.1c0.33,0.07,0.62,0.24,0.85,0.5c0.17,0.2,0.43,0.62,0.29,1.26l0,0c-0.08,0.38-0.2,0.65-0.39,0.86
			c-0.38,0.43-0.93,0.45-1.11,0.45c-0.17,0.02-0.48,0.05-0.86,0.06c-0.36,0.02-0.74,0.02-1.16,0.03c-0.42,0-0.85-0.01-1.29-0.04
			c-0.46-0.03-0.88-0.08-1.27-0.16c-0.45-0.1-0.93-0.23-1.44-0.39c-0.52-0.17-1.03-0.36-1.5-0.59c-0.16-0.08-0.31-0.15-0.46-0.23
			c-0.02,0.43-0.05,0.87-0.1,1.3c-0.08,0.42-0.24,0.7-0.47,0.91C102.97,42.96,102.63,43.03,102.34,43.03z M111.65,39.84l0.25,0.95
			l-0.15-0.99C111.74,39.8,111.7,39.82,111.65,39.84z M102.95,36.69l0.75,1.35c0,0,0.07,0.12,0.36,0.3c0.01,0,0.01,0.01,0.02,0.01
			c-0.3-0.3-0.53-0.63-0.7-1c-0.18-0.39-0.27-0.8-0.26-1.22L102.95,36.69z"/>
	</g>
	<g>
		<path class="st1" d="M138.22,47.72c-0.13,0-0.23-0.02-0.31-0.03c-0.41-0.09-0.75-0.33-0.99-0.7c-0.13-0.2-0.25-0.44-0.34-0.69
			c-0.09-0.25-0.15-0.5-0.17-0.73c-0.03-0.26-0.03-0.47,0.01-0.66c0.01-0.07,0.04-0.18,0.1-0.33c0.02-0.05,0.04-0.12,0.05-0.2
			c0.08-0.39,0.15-1.02,0.18-1.87c0.01-0.24,0-0.65-0.03-1.2c-0.03-0.59-0.05-1.19-0.07-1.81c-0.02-0.54-0.05-1.13-0.08-1.75
			c-0.36,0.1-0.77,0.23-1.22,0.39c-0.56,0.19-1.15,0.4-1.77,0.63l-1.77,0.65c-0.56,0.2-1.04,0.37-1.44,0.5
			c-0.65,0.22-0.93,0.26-1.22,0.2c-0.59-0.13-1.06-0.46-1.35-0.97c-0.27-0.47-0.35-0.98-0.24-1.49c0.14-0.64,0.75-0.98,1.32-1.22
			c0.49-0.2,1.08-0.42,1.76-0.64c0.68-0.22,1.4-0.43,2.18-0.65c0.77-0.22,1.49-0.41,2.15-0.58l1.55-0.39
			c0.02-0.86,0.04-1.64,0.08-2.34c0.04-0.77,0.07-1.48,0.09-2.13c0.04-1.06,0.05-1.11,0.07-1.21c0.12-0.56,0.36-0.98,0.72-1.26
			c0.4-0.31,0.87-0.43,1.33-0.33c0.58,0.12,1.19,0.62,1.18,1.64c-0.01,1.35-0.01,2.55,0,3.61c0.01,0.55,0.02,1.04,0.05,1.48
			c0.04-0.01,0.07-0.01,0.11-0.02c0.57-0.12,1.17-0.24,1.8-0.38c0.64-0.14,1.22-0.27,1.74-0.38c0.84-0.17,1.06-0.18,1.29-0.13
			c0.55,0.12,0.94,0.51,1.02,1.02l0.28,0.71L145.69,35c-0.48,0.36-1.08,0.67-1.84,0.93c-0.68,0.23-1.35,0.44-2.02,0.61
			c-0.63,0.16-1.18,0.3-1.66,0.42l0.15,2.85c0.04,0.65,0.06,1.16,0.07,1.6l-0.02,1.02c-0.01,0.42-0.03,0.83-0.05,1.24l-0.06,1.07
			c-0.02,0.42-0.05,0.65-0.06,0.68c-0.09,0.43-0.27,0.89-0.52,1.34C139.23,47.56,138.63,47.72,138.22,47.72z M138.59,45.9
			C138.59,45.9,138.59,45.9,138.59,45.9C138.59,45.9,138.59,45.9,138.59,45.9z M138.15,35.84c0.03,0.03,0.05,0.05,0.08,0.08
			c0.01-0.04,0.03-0.07,0.04-0.11L138.15,35.84z"/>
	</g>
	<g>
		<path class="st1" d="M157.16,52.75c-0.53,0-1.05-0.06-1.57-0.17c-0.53-0.11-1.07-0.32-1.6-0.61c-0.53-0.29-1.03-0.65-1.48-1.08
			c-0.46-0.44-0.87-0.94-1.19-1.5c-0.04-0.07-0.08-0.13-0.11-0.2c-0.13,0.13-0.27,0.27-0.41,0.4c-0.38,0.35-0.78,0.65-1.19,0.88
			c-0.57,0.31-1.13,0.41-1.68,0.29c-0.65-0.14-1.15-0.6-1.41-1.29c-0.17-0.45-0.27-0.94-0.31-1.45c-0.04-0.46-0.05-0.92-0.01-1.35
			c0.04-0.45,0.07-0.71,0.08-0.77c0.05-0.22,0.17-0.65,0.66-1.78c0.36-0.81,0.82-1.65,1.37-2.5c0.57-0.87,1.23-1.63,1.96-2.25
			c1.13-0.97,2.2-0.99,2.9-0.84c0.68,0.14,1.14,0.63,1.23,1.29c0.05,0.36,0.04,0.71-0.03,1.05l-0.1,0.45
			c0.07,0.05,0.14,0.1,0.2,0.16c0.26,0.24,0.44,0.52,0.52,0.84c0.08,0.29,0.07,0.63-0.02,1.05c-0.05,0.23-0.11,0.44-0.19,0.62
			c-0.03,0.07-0.05,0.13-0.06,0.2c-0.12,0.58-0.2,1.15-0.23,1.72c-0.03,0.5,0.03,0.94,0.18,1.34c0.14,0.38,0.36,0.72,0.69,1.02
			c0.31,0.28,0.8,0.5,1.46,0.64c0.88,0.19,1.65,0.16,2.3-0.06c0.74-0.26,1.38-0.58,1.91-0.96c0.56-0.41,1.02-0.79,1.36-1.13
			c0.45-0.45,1.05-0.95,1.78-0.79c0.85,0.18,1.32,0.9,1.14,1.76l0,0c-0.13,0.63-0.53,1.27-1.2,1.97c-0.59,0.62-1.34,1.19-2.23,1.69
			c-0.88,0.5-1.87,0.89-2.95,1.14C158.35,52.68,157.75,52.75,157.16,52.75z M148.17,47.37c0,0.16,0.01,0.32,0.03,0.48
			c0.03,0.34,0.09,0.65,0.2,0.93c0,0.01,0.01,0.02,0.01,0.02c0.08-0.01,0.17-0.05,0.23-0.09c0.03-0.02,0.07-0.04,0.1-0.06
			l-0.28-0.44C148.31,48.01,148.21,47.73,148.17,47.37z M164.13,47.91L164.13,47.91L164.13,47.91z M152.64,44.48
			c-0.22,0.54-0.51,1.06-0.87,1.57c-0.02,0.03-0.04,0.06-0.07,0.09l0.78-0.51l0.02,0.18c0,0,0,0,0,0
			C152.52,45.37,152.57,44.93,152.64,44.48z M152.78,43.16C152.77,43.16,152.77,43.17,152.78,43.16
			C152.77,43.17,152.77,43.16,152.78,43.16z M152.98,42.91c0.01,0.06,0.01,0.12,0.01,0.17c0.01-0.04,0.02-0.08,0.03-0.12
			c0-0.02,0.01-0.04,0.01-0.06c-0.01-0.01-0.03-0.01-0.04-0.02C152.99,42.89,152.98,42.9,152.98,42.91z M152.42,40.46
			c-0.22,0.02-0.5,0.13-0.85,0.43c-0.05,0.04-0.11,0.09-0.16,0.14c0.23-0.11,0.46-0.17,0.7-0.17l0.23,0L152.42,40.46z M152.42,40.11
			C152.42,40.11,152.42,40.11,152.42,40.11C152.42,40.11,152.42,40.11,152.42,40.11z"/>
	</g>
	<g>
		<path class="st1" d="M169.58,56.99c-0.14,0-0.28-0.02-0.43-0.05c-0.6-0.13-1.03-0.61-1.29-1.44c-0.16-0.51-0.28-1.12-0.38-1.87
			c-0.09-0.7-0.15-1.46-0.19-2.25c-0.04-0.79-0.06-1.52-0.07-2.21c-0.01-0.68-0.01-1.25,0-1.71c0.01-0.74,0.03-0.84,0.05-0.95
			c0-0.06,0.01-0.27,0.01-0.58c0-0.44,0.03-1.12,0.08-2.04c0.05-0.91,0.15-2.1,0.29-3.52c0.14-1.48,0.35-3.26,0.61-5.29
			c0.07-0.37,0.19-0.7,0.37-1.09c0.4-0.9,1.16-1.09,1.73-0.97c0.44,0.09,1.2,0.43,1.41,1.67c0.09,0.57,0.12,1.23,0.08,2.01
			c-0.04,0.72-0.11,1.48-0.23,2.26c-0.1,0.72-0.18,1.36-0.22,1.91c-0.07,0.8-0.13,1.51-0.18,2.15l-0.14,1.91
			c-0.05,0.62-0.07,1.27-0.08,1.95c-0.01,0.69-0.01,1.46,0.01,2.31l0.17,6.43l-0.02,0.12c-0.11,0.52-0.45,0.92-0.92,1.11
			C170.04,56.95,169.81,56.99,169.58,56.99z"/>
	</g>
	<g>
		<path class="st1" d="M181.49,58.85c-0.6,0-1.25-0.07-1.95-0.22c-0.7-0.15-1.35-0.45-1.95-0.91c-0.59-0.45-1.08-1.04-1.45-1.75
			c-0.36-0.68-0.6-1.48-0.73-2.39c-0.13-0.9-0.07-1.92,0.17-3.02c0.22-1.03,0.56-1.98,1.02-2.83c0.45-0.84,0.97-1.57,1.53-2.18
			c0.59-0.64,1.21-1.12,1.85-1.44c0.74-0.37,1.45-0.48,2.11-0.34c0.51,0.11,1,0.32,1.47,0.63c0.43,0.29,0.82,0.62,1.16,1
			c0.35,0.4,0.62,0.83,0.79,1.29c0.2,0.53,0.24,1.05,0.14,1.55c-0.13,0.6-0.5,1.14-1.09,1.6c-0.47,0.37-1.02,0.68-1.62,0.94
			c-0.58,0.25-1.17,0.44-1.73,0.56c-0.66,0.14-1.15,0.16-1.57,0.08c-0.2-0.04-0.38-0.12-0.55-0.24c-0.03,0.1-0.05,0.2-0.07,0.3
			c-0.1,0.48-0.11,0.94-0.02,1.35c0.09,0.43,0.25,0.81,0.47,1.13c0.22,0.32,0.49,0.59,0.82,0.81c0.34,0.23,0.69,0.38,1.08,0.46
			c0.24,0.05,0.54,0.05,0.87,0c0.42-0.06,0.83-0.14,1.21-0.23c0.39-0.1,0.73-0.19,1.02-0.28c0.53-0.17,0.81-0.21,1.08-0.15
			c0.21,0.04,0.53,0.17,0.8,0.53c0.16,0.21,0.26,0.44,0.3,0.67c0.04,0.19,0.03,0.39-0.01,0.62c-0.08,0.38-0.32,0.72-0.78,1.13
			c-0.14,0.13-0.36,0.27-0.73,0.48c-0.36,0.21-0.8,0.39-1.34,0.54c-0.52,0.15-1.14,0.25-1.83,0.3
			C181.79,58.84,181.64,58.85,181.49,58.85z M180.04,49.46L180.04,49.46L180.04,49.46z M181.95,47.26c0,0,0,0.01,0,0.01
			C181.95,47.27,181.95,47.26,181.95,47.26z"/>
	</g>
	<g>
		<path class="st1" d="M199.73,60.58c-0.12,0-0.23-0.01-0.33-0.03c-0.51-0.11-1.09-0.34-1.78-0.7c-0.75-0.4-1.33-0.91-1.73-1.52
			c-0.37-0.57-0.67-1.23-0.89-1.95c0-0.01-0.01-0.03-0.01-0.04c-0.09,0.16-0.18,0.32-0.28,0.47c-0.64,1.08-1.5,2.02-2.56,2.8
			c-0.32,0.21-0.67,0.28-1.04,0.2c-0.41-0.09-0.77-0.34-1.08-0.75c-0.42-0.57-0.43-1.06-0.36-1.38c0.03-0.16,0.09-0.54,0.19-1.13
			l0.31-2.07c0.12-0.79,0.24-1.57,0.37-2.37c0.13-0.81,0.26-1.47,0.37-1.99c0.06-0.26,0.14-0.59,0.25-1.01
			c0.14-0.5,0.33-0.94,0.58-1.29c0.16-0.21,0.33-0.33,0.65-0.52c0.4-0.24,0.85-0.32,1.29-0.22c0.56,0.12,1.09,0.62,1.01,1.47
			c-0.02,0.25-0.07,0.53-0.13,0.84l-0.27,1.25c0.22-0.36,0.43-0.68,0.63-0.96c0.21-0.3,0.87-1.2,1.83-1
			c0.43,0.09,0.79,0.28,1.05,0.54c0.29,0.3,0.46,0.71,0.52,1.25l0.01,0.08l0,0.08c-0.03,0.74-0.06,1.4-0.11,1.96
			c-0.04,0.51-0.05,0.99-0.04,1.41c0.01,0.37,0.07,0.73,0.17,1.06c0.09,0.3,0.25,0.6,0.47,0.89c0.21,0.3,0.44,0.51,0.71,0.68
			c0.37,0.22,0.61,0.3,0.75,0.33c0.01,0,0.06,0.01,0.15,0c0.31-0.04,0.53-0.04,0.72,0c0.27,0.06,0.77,0.27,0.97,1.04
			c0.08,0.31,0.12,0.55,0.07,0.8l0,0.01c-0.07,0.34-0.25,0.64-0.51,0.9c-0.18,0.18-0.39,0.34-0.62,0.47
			c-0.23,0.14-0.48,0.24-0.73,0.32C200.12,60.54,199.92,60.58,199.73,60.58z M191.81,57.07c-0.01,0.09-0.03,0.18-0.04,0.26
			c0.04-0.04,0.07-0.07,0.11-0.11L191.81,57.07z M196.2,51.33l0.06,0.48c0.01-0.2,0.02-0.41,0.03-0.62
			C196.26,51.23,196.23,51.28,196.2,51.33z M192.69,48.34C192.69,48.34,192.69,48.34,192.69,48.34
			C192.69,48.34,192.69,48.34,192.69,48.34z"/>
	</g>
	<g>
		<path class="st1" d="M210.34,63.06c-0.13,0-0.24-0.02-0.32-0.03c-0.41-0.08-0.75-0.33-0.99-0.71c-0.13-0.19-0.24-0.42-0.34-0.69
			c-0.09-0.25-0.15-0.49-0.17-0.72c-0.03-0.27-0.03-0.48,0.01-0.67c0.01-0.06,0.04-0.18,0.1-0.33c0.02-0.06,0.04-0.13,0.05-0.2
			c0.09-0.41,0.15-1.04,0.19-1.87c0.01-0.24,0-0.65-0.03-1.2c-0.03-0.59-0.05-1.19-0.07-1.8c-0.02-0.54-0.04-1.13-0.08-1.75
			c-0.36,0.1-0.77,0.23-1.22,0.39c-0.56,0.19-1.15,0.4-1.77,0.63l-1.77,0.65c-0.56,0.2-1.04,0.37-1.44,0.5
			c-0.65,0.22-0.94,0.26-1.23,0.2c-0.59-0.12-1.06-0.46-1.35-0.97c-0.27-0.47-0.35-0.99-0.25-1.49c0.14-0.64,0.75-0.98,1.32-1.22
			c0.48-0.2,1.07-0.42,1.76-0.64c0.67-0.22,1.4-0.43,2.17-0.65c0.77-0.22,1.49-0.41,2.15-0.58l1.55-0.39
			c0.02-0.86,0.04-1.64,0.07-2.34c0.04-0.78,0.07-1.48,0.1-2.13c0.04-1.05,0.05-1.13,0.08-1.22c0.11-0.54,0.35-0.96,0.71-1.24
			c0.4-0.31,0.87-0.43,1.32-0.33c0.58,0.12,1.2,0.62,1.19,1.64c-0.01,1.35-0.01,2.55,0,3.6c0.01,0.55,0.02,1.04,0.05,1.48
			c0.04-0.01,0.07-0.01,0.11-0.02c0.57-0.12,1.17-0.24,1.8-0.38c0.64-0.14,1.22-0.27,1.74-0.38c0.85-0.17,1.06-0.18,1.29-0.13
			c0.55,0.11,0.94,0.51,1.02,1.03l0.29,0.71l-0.61,0.51c-0.48,0.36-1.08,0.67-1.84,0.93c-0.67,0.23-1.35,0.44-2.02,0.61
			c-0.63,0.16-1.18,0.3-1.66,0.42l0.15,2.89c0.04,0.61,0.06,1.11,0.07,1.55c0,0.29-0.01,0.62-0.02,1.03
			c-0.01,0.41-0.03,0.82-0.05,1.23l-0.06,1.06c-0.02,0.38-0.04,0.59-0.04,0.62c-0.11,0.51-0.29,0.96-0.54,1.41
			C211.35,62.9,210.75,63.06,210.34,63.06z M210.7,61.22C210.7,61.22,210.7,61.22,210.7,61.22C210.7,61.22,210.7,61.22,210.7,61.22z
			 M210.26,51.18c0.03,0.03,0.05,0.05,0.08,0.08c0.01-0.04,0.03-0.08,0.04-0.11L210.26,51.18z"/>
	</g>
</g>
</svg>
