<?xml version="1.0" encoding="utf-8"?>
<!-- Generator: Adobe Illustrator 24.1.3, SVG Export Plug-In . SVG Version: 6.00 Build 0)  -->
<svg version="1.1" id="Logo" xmlns="http://www.w3.org/2000/svg" xmlns:xlink="http://www.w3.org/1999/xlink" x="0px" y="0px"
	 viewBox="0 0 147.02 57.29" style="enable-background:new 0 0 147.02 57.29;" xml:space="preserve">
<style type="text/css">
	.st0{fill:#9D9D9C;}
</style>
<g>
	<g>
		<g>
			<path d="M144.89,53.29h-6.03h0c-4.32,0-6.87-0.06-8.87-1.35c-2.38-1.55-4.14-4.7-4.14-7.84v-0.7v-9.61
				c0-4.32,0.06-6.87,1.35-8.87c1.55-2.39,4.12-3.99,7.85-3.99v0h9.91c0.66,0,1.2-0.5,1.2-1.11v-1.44c0-0.62-0.53-1.11-1.2-1.11
				h-5.7h-4.49l0,0c0,0-0.01,0-0.01,0h-0.03c-0.01,0-0.02,0-0.02,0c-4.56,0.03-8.9,2.57-10.64,6.02c-1.24,2.14-1.69,4.86-1.7,10.28
				c0,0,0,0,0,0.01v10.6h0c0,0.01,0,0.01,0,0.02v0.62c0,0.05,0.03,0.09,0.05,0.14c0.27,4.31,2.67,8.48,5.93,10.14
				c1.99,1.15,4.49,1.61,9.16,1.69c0.06,0.01,0.13,0.01,0.18,0.01h7.18c0.95,0,1.29-0.39,1.29-0.95v-1.51
				C146.16,53.58,145.59,53.29,144.89,53.29z"/>
			<path d="M145.18,34.65h-5.04h-1.91c-1.12,0-1.12,1.02-1.12,1.02v1.41c0,0.58,0.48,1.06,1.06,1.06h7.01
				c0.59,0,1.06-0.47,1.06-1.06V35.7C146.24,35.12,145.77,34.65,145.18,34.65z"/>
		</g>
		<path d="M41.68,17.11h-2.39c-0.4,0-0.77,0.23-0.95,0.59L21.91,51.03L5.44,17.7c-0.18-0.36-0.55-0.59-0.95-0.59H2.04
			c-0.59,0-1.06,0.48-1.06,1.06v37.7c0,0.59,0.48,1.06,1.06,1.06h1.53c0.59,0,1.06-0.48,1.06-1.06V24.24l15.87,32.1
			c0.18,0.36,0.55,0.59,0.95,0.59h0.86c0.4,0,0.77-0.23,0.95-0.59l15.82-32.09v31.62c0,0.59,0.48,1.06,1.06,1.06h1.53
			c0.59,0,1.06-0.48,1.06-1.06v-37.7C42.75,17.58,42.27,17.11,41.68,17.11"/>
		<path d="M115.3,38.13c1.76-2.31,2.73-5.41,2.61-8.31c-0.01-4.6-2.53-9.19-6.01-10.95c-2.18-1.26-4.95-1.71-10.54-1.71h-8.61
			c-0.59,0-1.06,0.47-1.06,1.06v37.7c0,0.59,0.47,1.06,1.06,1.06h1.53c0.59,0,1.06-0.48,1.06-1.06V20.67h6.02
			c4.34,0,6.89,0.06,8.9,1.36c2.39,1.55,4,4.72,4,7.87c0,2.96-0.9,5.22-2.9,7.3c-2.08,2.08-6.34,2.08-8.88,2.08h-1.07
			c-0.39,0-0.76,0.22-0.94,0.57c-0.18,0.35-0.15,0.78,0.08,1.1l11.06,15.59c0.2,0.28,0.52,0.45,0.87,0.45h1.94
			c0.4,0,0.76-0.22,0.94-0.58c0.18-0.35,0.15-0.78-0.08-1.1l-9.02-12.64C109.73,42.4,112.69,41.56,115.3,38.13"/>
	</g>
	<path class="st0" d="M81.59,22.45c-3.74-3.66-8.81-5.19-14.21-5.67c-1.12-0.1-1.09,0.55-1.09,0.55v2.21
		c0.04,0.65,1.09,0.65,1.09,0.65c9.44,0,16.55,7.16,16.55,16.65S76.81,53.5,67.37,53.5c-9.28,0-16.55-7.29-16.55-16.61v-0.05h0
		c-0.04-0.69-0.35-0.73-0.85-0.73h-2c-0.87-0.01-0.71,0.98-0.71,0.98h0.01c0.06,5.46,2.14,10.48,5.89,14.15
		c3.74,3.66,8.79,5.67,14.21,5.67c5.43,0,10.47-2.01,14.21-5.67c3.81-3.72,5.9-8.83,5.9-14.39S85.4,26.17,81.59,22.45z"/>
	<g>
		<g>
			<path d="M25.55,11.37c-2.67,0-4.77-2.16-4.77-4.94c0-2.81,2.05-4.93,4.77-4.93s4.76,2.12,4.76,4.93
				C30.31,9.25,28.26,11.37,25.55,11.37 M25.55,0.46c-3.28,0-5.84,2.62-5.84,5.98c0,3.35,2.56,5.98,5.84,5.98
				c3.27,0,5.84-2.62,5.84-5.98S28.82,0.46,25.55,0.46"/>
			<path d="M25.55,12.57c-3.36,0-5.99-2.69-5.99-6.13c0-3.44,2.63-6.13,5.99-6.13s5.99,2.69,5.99,6.13
				C31.54,9.87,28.91,12.57,25.55,12.57z M25.55,0.61c-3.19,0-5.68,2.56-5.68,5.82c0,3.26,2.5,5.82,5.68,5.82
				c3.19,0,5.68-2.56,5.68-5.82C31.23,3.17,28.73,0.61,25.55,0.61z M25.55,11.52c-2.76,0-4.92-2.23-4.92-5.09
				c0-2.9,2.12-5.09,4.92-5.09c2.8,0,4.92,2.19,4.92,5.09C30.46,9.34,28.35,11.52,25.55,11.52z M25.55,1.66
				c-2.63,0-4.61,2.05-4.61,4.78c0,2.68,2.02,4.78,4.61,4.78c2.63,0,4.61-2.06,4.61-4.78S28.17,1.66,25.55,1.66z"/>
		</g>
		<g>
			<path d="M7.46,0.65H1.25c-0.18,0-0.32,0.14-0.32,0.32v0.4c0,0.18,0.14,0.33,0.32,0.33h2.57v10.2c0,0.18,0.14,0.32,0.32,0.32h0.43
				c0.18,0,0.32-0.14,0.32-0.32V1.69h2.57c0.18,0,0.32-0.15,0.32-0.33v-0.4C7.78,0.79,7.63,0.65,7.46,0.65"/>
			<path d="M4.57,12.37H4.14c-0.26,0-0.48-0.21-0.48-0.48V1.85H1.25c-0.26,0-0.48-0.21-0.48-0.48v-0.4c0-0.26,0.21-0.48,0.48-0.48
				h6.21c0.26,0,0.48,0.21,0.48,0.48v0.4c0,0.26-0.21,0.48-0.48,0.48H5.05V11.9C5.05,12.16,4.83,12.37,4.57,12.37z M1.25,0.8
				c-0.09,0-0.17,0.08-0.17,0.17v0.4c0,0.09,0.07,0.17,0.17,0.17h2.72V11.9c0,0.09,0.08,0.17,0.17,0.17h0.43
				c0.09,0,0.17-0.07,0.17-0.17V1.54h2.72c0.09,0,0.17-0.08,0.17-0.17v-0.4c0-0.09-0.07-0.17-0.17-0.17H1.25z"/>
		</g>
		<g>
			<path d="M16.9,0.65h-0.43c-0.18,0-0.32,0.14-0.32,0.32v4.91h-5.3V0.97c0-0.18-0.14-0.32-0.32-0.32h-0.43
				c-0.18,0-0.32,0.14-0.32,0.32V11.9c0,0.18,0.14,0.32,0.32,0.32h0.43c0.18,0,0.32-0.14,0.32-0.32V6.92h5.3v4.98
				c0,0.18,0.15,0.32,0.32,0.32h0.43c0.18,0,0.32-0.14,0.32-0.32V0.97C17.22,0.79,17.07,0.65,16.9,0.65"/>
			<path d="M16.9,12.37h-0.43c-0.26,0-0.48-0.21-0.48-0.48V7.07h-4.99v4.83c0,0.26-0.21,0.48-0.48,0.48h-0.43
				c-0.26,0-0.48-0.21-0.48-0.48V0.97c0-0.26,0.21-0.48,0.48-0.48h0.43c0.26,0,0.48,0.21,0.48,0.48v4.75h4.99V0.97
				c0-0.26,0.21-0.48,0.48-0.48h0.43c0.26,0,0.48,0.21,0.48,0.48V11.9C17.37,12.16,17.16,12.37,16.9,12.37z M10.68,6.76h5.61v5.13
				c0,0.09,0.07,0.17,0.17,0.17h0.43c0.09,0,0.17-0.07,0.17-0.17V0.97c0-0.09-0.07-0.17-0.17-0.17h-0.43
				c-0.09,0-0.17,0.08-0.17,0.17v5.06h-5.61V0.97c0-0.09-0.07-0.17-0.17-0.17h-0.43c-0.09,0-0.17,0.08-0.17,0.17V11.9
				c0,0.09,0.08,0.17,0.17,0.17h0.43c0.09,0,0.17-0.07,0.17-0.17V6.76z"/>
		</g>
		<g>
			<g>
				<path d="M63.62,5.83L63.5,5.8c-1.54-0.4-2.63-0.8-2.62-2.24c0-1.19,0.89-2.06,2.11-2.06c1.13,0,1.79,0.61,2.03,1.88
					c0.03,0.15,0.16,0.27,0.32,0.27h0.43c0.09,0,0.18-0.04,0.24-0.11c0.06-0.07,0.09-0.16,0.08-0.25c-0.27-2.08-1.82-2.82-3.06-2.82
					c-0.92,0-1.79,0.35-2.38,0.95c-0.56,0.58-0.85,1.35-0.83,2.22c0,2.31,2.04,2.82,3.02,3.07l0.07,0.02
					c1.01,0.28,2.4,0.66,2.4,2.37c0,1.41-1.22,2.27-2.35,2.27c-0.34,0-2.04-0.11-2.31-2.27c-0.02-0.16-0.16-0.28-0.32-0.28H59.9
					c-0.09,0-0.17,0.03-0.24,0.1c-0.06,0.07-0.09,0.15-0.08,0.24c0.15,2.14,1.82,3.25,3.4,3.25c1.64,0,3.41-1.29,3.41-3.38
					C66.39,6.56,64.31,6.01,63.62,5.83"/>
			</g>
			<g>
				<path d="M62.98,12.57c-1.65,0-3.4-1.17-3.55-3.4c-0.01-0.13,0.03-0.26,0.13-0.36c0.09-0.1,0.22-0.15,0.35-0.15h0.43
					c0.24,0,0.45,0.18,0.47,0.42c0.25,2.03,1.84,2.13,2.16,2.13c1.06,0,2.19-0.81,2.19-2.12c0-1.59-1.27-1.94-2.29-2.22l-0.08-0.02
					c-1.02-0.26-3.14-0.8-3.14-3.22c-0.02-0.91,0.28-1.72,0.87-2.33c0.62-0.63,1.53-1,2.49-1c1.31,0,2.94,0.77,3.22,2.96
					c0.02,0.13-0.02,0.27-0.11,0.38c-0.1,0.1-0.22,0.16-0.36,0.16h-0.43c-0.23,0-0.43-0.17-0.47-0.39
					c-0.22-1.19-0.81-1.75-1.87-1.75c-1.13,0-1.95,0.8-1.95,1.9c-0.01,1.33,0.99,1.69,2.5,2.09l0.12,0.03
					c0.71,0.19,2.88,0.76,2.88,3.35C66.54,11.22,64.69,12.57,62.98,12.57z M59.9,8.97c-0.05,0-0.09,0.02-0.12,0.06
					c-0.03,0.03-0.05,0.08-0.04,0.12c0.14,2.04,1.74,3.11,3.24,3.11c1.57,0,3.26-1.23,3.26-3.22c0-2.35-1.99-2.88-2.65-3.05
					l-0.12-0.03c-1.55-0.41-2.74-0.84-2.73-2.39c0-1.28,0.95-2.21,2.26-2.21c1.2,0,1.94,0.67,2.18,2c0.01,0.08,0.08,0.14,0.16,0.14
					h0.43c0.05,0,0.09-0.02,0.13-0.06c0.03-0.03,0.04-0.08,0.04-0.13c-0.25-1.99-1.73-2.69-2.91-2.69c-0.88,0-1.71,0.33-2.27,0.9
					c-0.54,0.55-0.81,1.28-0.79,2.11c0,2.19,1.89,2.67,2.9,2.93l0.08,0.02c1,0.27,2.52,0.69,2.52,2.52c0,1.5-1.3,2.43-2.5,2.43
					c-0.36,0-2.18-0.12-2.46-2.41c-0.01-0.08-0.08-0.15-0.17-0.15H59.9z"/>
			</g>
		</g>
		<g>
			<path d="M45.39,0.65h-0.68c-0.12,0-0.24,0.07-0.29,0.18l-4.61,9.61l-4.62-9.61c-0.05-0.11-0.16-0.18-0.29-0.18h-0.69
				c-0.18,0-0.32,0.14-0.32,0.32V11.9c0,0.18,0.14,0.32,0.32,0.32h0.43c0.18,0,0.32-0.14,0.32-0.32V2.83l4.43,9.21
				c0.05,0.11,0.17,0.18,0.29,0.18h0.25c0.12,0,0.24-0.07,0.29-0.18l4.41-9.21v9.07c0,0.18,0.15,0.32,0.32,0.32h0.43
				c0.18,0,0.32-0.14,0.32-0.32V0.97C45.71,0.79,45.57,0.65,45.39,0.65"/>
			<path d="M45.39,12.37h-0.43c-0.26,0-0.48-0.21-0.48-0.48V3.51l-4.12,8.59c-0.08,0.17-0.25,0.27-0.43,0.27h-0.25
				c-0.18,0-0.35-0.1-0.43-0.27l-4.14-8.6v8.39c0,0.26-0.21,0.48-0.48,0.48h-0.43c-0.26,0-0.48-0.21-0.48-0.48V0.97
				c0-0.26,0.21-0.48,0.48-0.48h0.69c0.19,0,0.35,0.1,0.43,0.27l4.48,9.32l4.47-9.32c0.08-0.16,0.25-0.27,0.43-0.27h0.68
				c0.26,0,0.48,0.21,0.48,0.48V11.9C45.87,12.16,45.65,12.37,45.39,12.37z M44.79,2.15v9.75c0,0.09,0.07,0.17,0.17,0.17h0.43
				c0.09,0,0.17-0.07,0.17-0.17V0.97c0-0.09-0.07-0.17-0.17-0.17h-0.68c-0.06,0-0.12,0.04-0.15,0.1l-4.75,9.9l-4.76-9.9
				c-0.03-0.06-0.08-0.1-0.15-0.1h-0.69c-0.09,0-0.17,0.08-0.17,0.17V11.9c0,0.09,0.08,0.17,0.17,0.17h0.43
				c0.09,0,0.17-0.07,0.17-0.17V2.14l4.72,9.82c0.03,0.06,0.09,0.09,0.15,0.09h0.25c0.06,0,0.12-0.04,0.15-0.1L44.79,2.15z"/>
		</g>
		<g>
			<g>
				<path d="M50.77,7.37l2.11-5.13l2.12,5.13H50.77z M53.46,0.85c-0.05-0.12-0.17-0.2-0.3-0.2H52.6c-0.13,0-0.25,0.08-0.3,0.2
					l-4.55,10.93c-0.04,0.1-0.03,0.21,0.03,0.3c0.06,0.09,0.16,0.14,0.27,0.14h0.46c0.13,0,0.25-0.08,0.3-0.2l1.51-3.61h5.13
					l1.51,3.61c0.05,0.12,0.17,0.2,0.3,0.2h0.46c0.11,0,0.21-0.05,0.27-0.14c0.06-0.09,0.07-0.2,0.03-0.3L53.46,0.85z"/>
			</g>
			<g>
				<path d="M57.72,12.37h-0.46c-0.19,0-0.37-0.11-0.44-0.29l-1.47-3.52h-4.92l-1.47,3.52c-0.07,0.18-0.25,0.29-0.44,0.29h-0.46
					c-0.16,0-0.31-0.08-0.4-0.21c-0.09-0.13-0.11-0.3-0.04-0.45l4.55-10.93c0.07-0.18,0.24-0.29,0.44-0.29h0.56
					c0.2,0,0.37,0.12,0.44,0.29l4.55,10.93c0.06,0.15,0.05,0.31-0.04,0.45C58.02,12.3,57.87,12.37,57.72,12.37z M50.21,8.25h5.34
					l1.55,3.71c0.03,0.06,0.09,0.1,0.15,0.1h0.46c0.06,0,0.11-0.03,0.14-0.08c0.03-0.04,0.03-0.1,0.01-0.15L53.32,0.91
					c-0.03-0.06-0.09-0.1-0.16-0.1H52.6c-0.07,0-0.13,0.04-0.15,0.1l-4.56,10.93c-0.02,0.05-0.02,0.11,0.02,0.16
					c0.03,0.05,0.08,0.07,0.14,0.07h0.46c0.07,0,0.13-0.04,0.15-0.1L50.21,8.25z M55.22,7.52h-4.69l2.34-5.7L55.22,7.52z M51,7.21
					h3.76l-1.89-4.57L51,7.21z"/>
			</g>
		</g>
	</g>
</g>
</svg>
