<?xml version="1.0" encoding="UTF-8"?>
<svg id="Laag_1" data-name="Laag 1" xmlns="http://www.w3.org/2000/svg" xmlns:xlink="http://www.w3.org/1999/xlink" viewBox="0 0 273.4 374.61">
  <defs>
    <style>
      .cls-1 {
        fill: url(#Naamloos_verloop_32);
      }

      .cls-2 {
        fill: url(#Naamloos_verloop_32-2);
      }
    </style>
    <linearGradient id="Naamloos_verloop_32" data-name="Naamloos verloop 32" x1="0" y1="237.91" x2="273.4" y2="237.91" gradientUnits="userSpaceOnUse">
      <stop offset="0" stop-color="#6b0055"/>
      <stop offset="1" stop-color="#e6332a"/>
    </linearGradient>
    <linearGradient id="Naamloos_verloop_32-2" data-name="Naamloos verloop 32" x1="173.99" y1="98.45" x2="235.46" y2="-8.01" xlink:href="#Naamloos_verloop_32"/>
  </defs>
  <path class="cls-1" d="M246.7,138.24h0c35.61,61.67,35.61,137.66,0,199.33h0c-13.23,22.92-37.69,37.04-64.15,37.04H110.23c-26.46,0-50.92-14.12-64.15-37.04l-36.16-62.63c-13.23-22.92-13.23-51.16,0-74.07l36.16-62.63c13.23-22.92,37.69-37.04,64.15-37.04h72.32c26.46,0,50.92,14.12,64.15,37.04Z"/>
  <path class="cls-2" d="M266.16,21.08l-.19,3.26c-.13,2.34-.73,4.63-1.75,6.74l-4.15,8.6c-.66,1.36-1.48,2.63-2.45,3.78l-9.45,11.18c-.72,.85-1.51,1.62-2.37,2.32l-13.75,11.18c-.74,.6-1.52,1.14-2.34,1.61l-16.24,9.38c-.82,.48-1.68,.88-2.57,1.22l-16.56,6.31c-1.03,.39-2.1,.69-3.19,.89l-14.41,2.6c-1.48,.27-3,.35-4.5,.23l-9.52-.71c-2.34-.17-4.62-.8-6.71-1.86l-2.92-1.47c-3.12-1.57-5.7-4.01-7.45-7.03h0c-1.74-3.02-2.57-6.48-2.37-9.97l.19-3.26c.13-2.34,.73-4.63,1.75-6.74l4.15-8.6c.66-1.36,1.48-2.63,2.45-3.78l9.45-11.18c.72-.85,1.51-1.62,2.37-2.32l13.75-11.18c.74-.6,1.52-1.14,2.34-1.61l16.24-9.38c.82-.48,1.68-.88,2.57-1.22l16.56-6.31c1.03-.39,2.1-.69,3.19-.89l14.41-2.6c1.48-.27,3-.35,4.5-.23l9.52,.71c2.34,.17,4.62,.8,6.71,1.86l2.92,1.47c3.12,1.57,5.7,4.01,7.45,7.03h0c1.74,3.02,2.57,6.48,2.37,9.97Z"/>
</svg>