<?xml version="1.0" encoding="utf-8"?>
<!-- Generator: Adobe Illustrator 26.5.0, SVG Export Plug-In . SVG Version: 6.00 Build 0)  -->
<svg version="1.1" id="Laag_1" xmlns="http://www.w3.org/2000/svg" xmlns:xlink="http://www.w3.org/1999/xlink" x="0px" y="0px"
	 viewBox="0 0 273.4 374.6" style="enable-background:new 0 0 273.4 374.6;" xml:space="preserve">
<style type="text/css">
	.st0{fill:#FFFFFF;}
</style>
<path class="st0" d="M246.7,138.2L246.7,138.2c35.6,61.7,35.6,137.7,0,199.3l0,0c-13.2,22.9-37.7,37-64.2,37h-72.3
	c-26.5,0-50.9-14.1-64.2-37L9.9,274.9c-13.2-22.9-13.2-51.2,0-74.1l36.2-62.6c13.2-22.9,37.7-37,64.2-37h72.3
	C209,101.2,233.5,115.3,246.7,138.2L246.7,138.2z"/>
<path class="st0" d="M266.2,21.1l-0.2,3.3c-0.1,2.3-0.7,4.6-1.8,6.7l-4.1,8.6c-0.7,1.4-1.5,2.6-2.5,3.8l-9.4,11.2
	c-0.7,0.8-1.5,1.6-2.4,2.3L232,68.2c-0.7,0.6-1.5,1.1-2.3,1.6l-16.2,9.4c-0.8,0.5-1.7,0.9-2.6,1.2l-16.6,6.3c-1,0.4-2.1,0.7-3.2,0.9
	l-14.4,2.6c-1.5,0.3-3,0.3-4.5,0.2l-9.5-0.7c-2.3-0.2-4.6-0.8-6.7-1.9l-2.9-1.5c-3.1-1.6-5.7-4-7.4-7l0,0c-1.7-3-2.6-6.5-2.4-10
	l0.2-3.3c0.1-2.3,0.7-4.6,1.8-6.7l4.1-8.6c0.7-1.4,1.5-2.6,2.4-3.8l9.4-11.2c0.7-0.8,1.5-1.6,2.4-2.3l13.8-11.2
	c0.7-0.6,1.5-1.1,2.3-1.6l16.2-9.4c0.8-0.5,1.7-0.9,2.6-1.2l16.6-6.3c1-0.4,2.1-0.7,3.2-0.9l14.4-2.6c1.5-0.3,3-0.3,4.5-0.2l9.5,0.7
	c2.3,0.2,4.6,0.8,6.7,1.9l2.9,1.5c3.1,1.6,5.7,4,7.5,7l0,0C265.5,14.1,266.4,17.6,266.2,21.1z"/>
</svg>
